<svg width="318" height="46" viewBox="0 0 318 46" fill="none" xmlns="http://www.w3.org/2000/svg">
    <path d="M317.414 32.4142C318.195 31.6332 318.195 30.3669 317.414 29.5858L304.686 16.8579C303.905 16.0768 302.639 16.0768 301.858 16.8579C301.077 17.6389 301.077 18.9053 301.858 19.6863L313.172 31L301.858 42.3137C301.077 43.0948 301.077 44.3611 301.858 45.1422C302.639 45.9232 303.905 45.9232 304.686 45.1422L317.414 32.4142ZM-1.74846e-07 33L316 33L316 29L1.74846e-07 29L-1.74846e-07 33Z" fill="black"/>
    <path d="M270.281 3.53906H267.469V13H265.164V3.53906H262.398V1.625H270.281V3.53906ZM275.835 6.67969L277.367 1.625H279.835L276.718 10.7656C276.364 11.6719 275.981 12.2943 275.57 12.6328C275.163 12.9714 274.674 13.1484 274.101 13.1641H273.851L273.304 13.1328L273.265 11.2266C273.317 11.2474 273.486 11.2578 273.773 11.2578C274.064 11.2578 274.283 11.1927 274.429 11.0625C274.58 10.9323 274.71 10.6406 274.82 10.1875L274.929 9.77344L271.679 1.625H274.14L275.835 6.67969ZM289.202 3.53906H286.389V13H284.085V3.53906H281.319V1.625H289.202V3.53906Z" fill="black"/>
</svg>
