<svg width="1144" height="498" viewBox="0 0 1144 498" fill="none" xmlns="http://www.w3.org/2000/svg">
    <g clip-path="url(#clip0)">
        <rect x="2" y="2" width="1140" height="494" fill="#F9F9F9" stroke="black" stroke-width="4"/>
        <path d="M181.942 259V234.828H189.413C191.937 234.828 193.851 235.393 195.157 236.521C196.474 237.639 197.133 239.283 197.133 241.452C197.133 242.681 196.862 243.738 196.319 244.623C195.777 245.508 195.035 246.156 194.095 246.565C195.179 246.875 196.015 247.501 196.602 248.441C197.188 249.371 197.481 250.522 197.481 251.895C197.481 254.241 196.834 256.012 195.539 257.207C194.255 258.402 192.39 259 189.944 259H181.942ZM186.823 248.491V254.949H189.944C190.819 254.949 191.483 254.678 191.937 254.136C192.39 253.593 192.617 252.824 192.617 251.828C192.617 249.659 191.831 248.547 190.26 248.491H186.823ZM186.823 244.938H189.363C191.278 244.938 192.235 243.948 192.235 241.967C192.235 240.871 192.014 240.085 191.571 239.609C191.129 239.133 190.409 238.896 189.413 238.896H186.823V244.938ZM207.341 243.511H210.23C212.676 243.511 214.624 244.208 216.074 245.603C217.524 246.986 218.249 248.84 218.249 251.164C218.249 253.477 217.54 255.353 216.124 256.792C214.707 258.22 212.831 258.956 210.496 259H202.444V234.828H207.341V243.511ZM224.391 259H219.51V234.828H224.391V259ZM207.341 247.562V254.949H210.297C211.248 254.949 211.995 254.595 212.538 253.887C213.091 253.167 213.368 252.249 213.368 251.131C213.368 250.079 213.097 249.227 212.554 248.574C212.023 247.91 211.282 247.573 210.33 247.562H207.341ZM234.567 250.5V259H229.686V234.828H237.92C240.311 234.828 242.214 235.57 243.631 237.053C245.059 238.536 245.773 240.462 245.773 242.83C245.773 245.199 245.07 247.069 243.664 248.441C242.259 249.814 240.311 250.5 237.821 250.5H234.567ZM234.567 246.433H237.92C238.85 246.433 239.569 246.128 240.078 245.52C240.588 244.911 240.842 244.025 240.842 242.863C240.842 241.657 240.582 240.7 240.062 239.991C239.542 239.272 238.844 238.907 237.97 238.896H234.567V246.433ZM258.986 254.053H252.329L251.034 259H245.871L253.425 234.828H257.891L265.494 259H260.281L258.986 254.053ZM253.392 249.985H257.907L255.649 241.369L253.392 249.985ZM287.191 249.188H284.883V259H280.003V249.188H277.612L273.81 259H267.734L273.827 245.752L268 234.828H274.076L278.01 244.54H280.003V234.828H284.883V244.54H286.809L290.611 234.828H296.67L290.976 245.702L296.936 259H290.86L287.191 249.188ZM312.075 254.053H305.418L304.123 259H298.96L306.514 234.828H310.98L318.583 259H313.37L312.075 254.053ZM306.481 249.985H310.996L308.738 241.369L306.481 249.985ZM335.881 238.896H329.904V259H325.007V238.896H319.13V234.828H335.881V238.896ZM345.193 243.511H348.082C350.527 243.511 352.475 244.208 353.925 245.603C355.375 246.986 356.1 248.84 356.1 251.164C356.1 253.477 355.392 255.353 353.975 256.792C352.558 258.22 350.682 258.956 348.347 259H340.295V234.828H345.193V243.511ZM345.193 247.562V254.949H348.148C349.1 254.949 349.847 254.595 350.389 253.887C350.943 253.167 351.219 252.249 351.219 251.131C351.219 250.079 350.948 249.227 350.406 248.574C349.874 247.91 349.133 247.573 348.181 247.562H345.193ZM386.511 234.828V259H381.614V238.896H377.132L376.8 247.462C376.667 250.284 376.346 252.525 375.837 254.186C375.339 255.835 374.603 257.047 373.629 257.821C372.666 258.596 371.365 258.989 369.727 259H368.532V254.949L369.096 254.899C370.115 254.778 370.845 254.114 371.288 252.907C371.742 251.69 372.024 249.543 372.135 246.466L372.45 234.828H386.511ZM416.161 249.089C416.161 252.332 415.391 254.85 413.853 256.643C412.326 258.436 410.201 259.332 407.478 259.332C404.8 259.332 402.686 258.469 401.136 256.742C399.598 255.016 398.795 252.57 398.729 249.404H396.787V259H391.906V234.828H396.787V245.486H398.729V245.038C398.729 242.858 399.072 240.976 399.758 239.394C400.455 237.8 401.463 236.588 402.78 235.758C404.097 234.917 405.652 234.496 407.445 234.496C410.134 234.496 412.254 235.415 413.803 237.252C415.353 239.078 416.138 241.646 416.161 244.955V249.089ZM411.263 245.038C411.263 242.858 410.953 241.236 410.333 240.174C409.714 239.111 408.751 238.58 407.445 238.58C406.15 238.58 405.192 239.095 404.573 240.124C403.953 241.142 403.632 242.697 403.61 244.789V249.089C403.61 251.203 403.925 252.763 404.556 253.771C405.187 254.767 406.161 255.265 407.478 255.265C408.751 255.265 409.697 254.778 410.317 253.804C410.937 252.819 411.252 251.297 411.263 249.238V245.038ZM434.471 238.896H425.805V243.511H428.693C431.139 243.511 433.087 244.208 434.537 245.603C435.987 246.986 436.712 248.84 436.712 251.164C436.712 253.477 436.004 255.353 434.587 256.792C433.17 258.22 431.294 258.956 428.959 259H420.907V234.828H434.471V238.896ZM425.805 247.562V254.949H428.76C429.712 254.949 430.459 254.595 431.001 253.887C431.554 253.167 431.831 252.249 431.831 251.131C431.831 250.079 431.56 249.227 431.018 248.574C430.486 247.91 429.745 247.573 428.793 247.562H425.805ZM457.861 249.089C457.861 252.332 457.092 254.85 455.553 256.643C454.026 258.436 451.901 259.332 449.178 259.332C446.467 259.332 444.336 258.447 442.787 256.676C441.237 254.894 440.452 252.404 440.429 249.205V245.071C440.429 241.751 441.199 239.161 442.737 237.302C444.275 235.431 446.411 234.496 449.145 234.496C451.835 234.496 453.954 235.415 455.504 237.252C457.053 239.078 457.839 241.646 457.861 244.955V249.089ZM452.964 245.038C452.964 242.858 452.654 241.236 452.034 240.174C451.414 239.111 450.451 238.58 449.145 238.58C447.85 238.58 446.893 239.095 446.273 240.124C445.653 241.142 445.332 242.697 445.31 244.789V249.089C445.31 251.203 445.626 252.763 446.257 253.771C446.887 254.767 447.861 255.265 449.178 255.265C450.451 255.265 451.397 254.778 452.017 253.804C452.637 252.819 452.952 251.297 452.964 249.238V245.038ZM462.724 259V234.828H470.195C472.718 234.828 474.633 235.393 475.939 236.521C477.256 237.639 477.914 239.283 477.914 241.452C477.914 242.681 477.643 243.738 477.101 244.623C476.559 245.508 475.817 246.156 474.876 246.565C475.961 246.875 476.797 247.501 477.383 248.441C477.97 249.371 478.263 250.522 478.263 251.895C478.263 254.241 477.616 256.012 476.321 257.207C475.037 258.402 473.172 259 470.726 259H462.724ZM467.605 248.491V254.949H470.726C471.6 254.949 472.264 254.678 472.718 254.136C473.172 253.593 473.399 252.824 473.399 251.828C473.399 249.659 472.613 248.547 471.041 248.491H467.605ZM467.605 244.938H470.145C472.06 244.938 473.017 243.948 473.017 241.967C473.017 240.871 472.796 240.085 472.353 239.609C471.91 239.133 471.191 238.896 470.195 238.896H467.605V244.938ZM488.057 243.511H490.945C493.391 243.511 495.339 244.208 496.789 245.603C498.239 246.986 498.964 248.84 498.964 251.164C498.964 253.477 498.256 255.353 496.839 256.792C495.422 258.22 493.546 258.956 491.211 259H483.159V234.828H488.057V243.511ZM488.057 247.562V254.949H491.012C491.964 254.949 492.711 254.595 493.253 253.887C493.806 253.167 494.083 252.249 494.083 251.131C494.083 250.079 493.812 249.227 493.27 248.574C492.738 247.91 491.997 247.573 491.045 247.562H488.057ZM518.8 234.828L523.365 252.31L527.914 234.828H534.289V259H529.392V252.459L529.84 242.382L525.009 259H521.689L516.858 242.382L517.306 252.459V259H512.425V234.828H518.8ZM556.6 249.089C556.6 252.332 555.831 254.85 554.293 256.643C552.766 258.436 550.641 259.332 547.918 259.332C545.206 259.332 543.076 258.447 541.526 256.676C539.977 254.894 539.191 252.404 539.169 249.205V245.071C539.169 241.751 539.938 239.161 541.476 237.302C543.015 235.431 545.151 234.496 547.885 234.496C550.574 234.496 552.694 235.415 554.243 237.252C555.793 239.078 556.578 241.646 556.6 244.955V249.089ZM551.703 245.038C551.703 242.858 551.393 241.236 550.773 240.174C550.154 239.111 549.191 238.58 547.885 238.58C546.59 238.58 545.632 239.095 545.013 240.124C544.393 241.142 544.072 242.697 544.05 244.789V249.089C544.05 251.203 544.365 252.763 544.996 253.771C545.627 254.767 546.601 255.265 547.918 255.265C549.191 255.265 550.137 254.778 550.757 253.804C551.377 252.819 551.692 251.297 551.703 249.238V245.038ZM579.161 249.188H576.853V259H571.972V249.188H569.582L565.78 259H559.704L565.796 245.752L559.969 234.828H566.045L569.98 244.54H571.972V234.828H576.853V244.54H578.779L582.581 234.828H588.64L582.946 245.702L588.906 259H582.83L579.161 249.188ZM609.457 259H604.593V248.657H597.388V259H592.507V234.828H597.388V244.606H604.593V234.828H609.457V259ZM631.768 249.089C631.768 252.332 630.999 254.85 629.461 256.643C627.933 258.436 625.808 259.332 623.086 259.332C620.374 259.332 618.244 258.447 616.694 256.676C615.145 254.894 614.359 252.404 614.337 249.205V245.071C614.337 241.751 615.106 239.161 616.644 237.302C618.183 235.431 620.319 234.496 623.053 234.496C625.742 234.496 627.861 235.415 629.411 237.252C630.96 239.078 631.746 241.646 631.768 244.955V249.089ZM626.871 245.038C626.871 242.858 626.561 241.236 625.941 240.174C625.321 239.111 624.359 238.58 623.053 238.58C621.758 238.58 620.8 239.095 620.18 240.124C619.561 241.142 619.24 242.697 619.218 244.789V249.089C619.218 251.203 619.533 252.763 620.164 253.771C620.795 254.767 621.769 255.265 623.086 255.265C624.359 255.265 625.305 254.778 625.925 253.804C626.544 252.819 626.86 251.297 626.871 249.238V245.038ZM662.844 249.089C662.844 252.332 662.075 254.85 660.536 256.643C659.009 258.436 656.884 259.332 654.161 259.332C651.45 259.332 649.319 258.447 647.77 256.676C646.22 254.894 645.434 252.404 645.412 249.205V245.071C645.412 241.751 646.181 239.161 647.72 237.302C649.258 235.431 651.394 234.496 654.128 234.496C656.817 234.496 658.937 235.415 660.486 237.252C662.036 239.078 662.822 241.646 662.844 244.955V249.089ZM657.946 245.038C657.946 242.858 657.636 241.236 657.017 240.174C656.397 239.111 655.434 238.58 654.128 238.58C652.833 238.58 651.876 239.095 651.256 240.124C650.636 241.142 650.315 242.697 650.293 244.789V249.089C650.293 251.203 650.608 252.763 651.239 253.771C651.87 254.767 652.844 255.265 654.161 255.265C655.434 255.265 656.38 254.778 657 253.804C657.62 252.819 657.935 251.297 657.946 249.238V245.038ZM672.588 250.5V259H667.707V234.828H675.941C678.332 234.828 680.235 235.57 681.652 237.053C683.08 238.536 683.794 240.462 683.794 242.83C683.794 245.199 683.091 247.069 681.685 248.441C680.28 249.814 678.332 250.5 675.842 250.5H672.588ZM672.588 246.433H675.941C676.871 246.433 677.59 246.128 678.099 245.52C678.608 244.911 678.863 244.025 678.863 242.863C678.863 241.657 678.603 240.7 678.083 239.991C677.563 239.272 676.865 238.907 675.991 238.896H672.588V246.433ZM700.261 234.828H705.142V259H700.261V242.996L693.139 259H688.242V234.828H693.139V250.849L700.261 234.828ZM724.017 238.896H715.334V259H710.453V234.828H724.017V238.896ZM740.235 234.828H745.116V259H740.235V242.996L733.113 259H728.215V234.828H733.113V250.849L740.235 234.828ZM767.327 259H762.463V248.657H755.258V259H750.377V234.828H755.258V244.606H762.463V234.828H767.327V259ZM784.459 254.053H777.802L776.507 259H771.344L778.897 234.828H783.363L790.967 259H785.754L784.459 254.053ZM778.864 249.985H783.38L781.122 241.369L778.864 249.985ZM811.85 234.828V259H806.953V238.896H802.47L802.138 247.462C802.005 250.284 801.684 252.525 801.175 254.186C800.677 255.835 799.941 257.047 798.967 257.821C798.004 258.596 796.704 258.989 795.066 259H793.871V254.949L794.435 254.899C795.453 254.778 796.184 254.114 796.627 252.907C797.08 251.69 797.363 249.543 797.473 246.466L797.789 234.828H811.85ZM822.026 243.511H824.914C827.36 243.511 829.308 244.208 830.758 245.603C832.208 246.986 832.933 248.84 832.933 251.164C832.933 253.477 832.224 255.353 830.808 256.792C829.391 258.22 827.515 258.956 825.18 259H817.128V234.828H822.026V243.511ZM822.026 247.562V254.949H824.981C825.932 254.949 826.68 254.595 827.222 253.887C827.775 253.167 828.052 252.249 828.052 251.131C828.052 250.079 827.781 249.227 827.238 248.574C826.707 247.91 825.966 247.573 825.014 247.562H822.026ZM854.148 259H849.284V248.657H842.079V259H837.198V234.828H842.079V244.606H849.284V234.828H854.148V259ZM876.459 249.089C876.459 252.332 875.69 254.85 874.152 256.643C872.625 258.436 870.5 259.332 867.777 259.332C865.065 259.332 862.935 258.447 861.385 256.676C859.836 254.894 859.05 252.404 859.028 249.205V245.071C859.028 241.751 859.797 239.161 861.335 237.302C862.874 235.431 865.01 234.496 867.744 234.496C870.433 234.496 872.553 235.415 874.102 237.252C875.652 239.078 876.437 241.646 876.459 244.955V249.089ZM871.562 245.038C871.562 242.858 871.252 241.236 870.632 240.174C870.013 239.111 869.05 238.58 867.744 238.58C866.449 238.58 865.491 239.095 864.872 240.124C864.252 241.142 863.931 242.697 863.909 244.789V249.089C863.909 251.203 864.224 252.763 864.855 253.771C865.486 254.767 866.46 255.265 867.777 255.265C869.05 255.265 869.996 254.778 870.616 253.804C871.236 252.819 871.551 251.297 871.562 249.238V245.038Z" fill="black"/>
        <g clip-path="url(#clip1)">
            <path d="M830.15 300.163C830.229 298.034 830.15 295.984 830.15 293.856C830.15 291.727 830.229 289.677 829.123 287.391C829.044 286.287 828.728 285.183 828.333 284.159C828.017 283.213 827.543 282.818 826.2 283.449C824.462 284.237 823.83 283.528 822.803 281.557C822.566 280.926 821.302 276.432 821.302 275.88C821.302 273.752 821.539 271.623 821.934 269.495C822.487 266.814 822.092 263.976 822.092 261.216C822.092 258.378 820.749 255.698 821.302 252.86V252.465C820.038 246.552 820.196 243.951 822.092 238.038C823.277 234.254 824.067 230.233 825.805 226.606C825.963 226.291 825.963 225.897 826.042 225.502C826.279 223.531 826.121 221.324 826.911 219.589C828.175 216.672 827.543 213.913 826.753 211.154C825.884 208.237 824.067 206.66 819.959 207.054C816.088 207.448 813.797 210.129 812.691 213.361C812.138 215.096 811.427 217.145 811.743 219.274C812.059 221.324 810.558 223.137 810.953 225.266C811.269 227.158 811.585 229.366 810.874 231.1C809.294 234.884 808.583 238.826 807.398 242.689C806.766 244.581 805.66 246.395 805.581 248.208C805.423 250.337 804.712 252.15 804.554 254.2C804.396 255.382 803.606 256.486 803.764 257.826C803.843 259.009 803.764 260.192 803.053 261.453C802.421 262.557 802.658 264.133 802.184 265.395C801.157 268.233 800.446 271.387 798.708 273.752C796.97 276.038 796.812 278.876 795.074 281.005C795.232 283.213 792.862 284.71 793.494 287.076C791.993 289.204 791.519 292.437 788.043 292.594C786.779 294.013 785.752 292.2 784.646 292.358C782.75 292.673 781.407 291.806 780.143 290.702C778.247 289.047 776.193 287.549 774.771 285.657C773.744 284.316 773.349 282.345 773.033 280.532C772.717 278.955 773.902 277.773 774.85 276.59C775.798 275.407 776.193 273.988 776.193 272.412C776.272 269.573 774.929 267.051 774.534 264.37C774.376 263.266 772.401 262.163 771.532 262.32C770.584 262.478 769.162 263.897 769.083 264.922C769.004 265.71 769.083 266.499 769.083 267.287C769.083 268.233 769.241 269.179 769.004 270.046C768.767 270.756 770.347 270.914 769.399 271.939C769.162 272.254 769.715 273.436 769.873 274.225C770.031 274.934 769.952 275.802 770.268 276.432C771.374 278.798 771.69 281.32 771.453 283.843C771.216 286.13 770.584 288.258 770.584 290.623C770.584 291.491 769.32 292.437 768.451 293.067C767.977 293.462 766.16 291.569 766.002 290.545C765.923 290.15 766.002 289.756 766.002 289.362C766.002 286.603 764.975 284.001 764.501 281.32C763.948 278.482 761.894 276.354 761.657 273.436C761.578 272.175 761.42 270.914 761.262 269.653L761.262 269.652C761.025 267.839 759.761 266.735 758.576 265.631C758.576 265.553 758.339 265.631 758.339 265.71C757.944 267.208 758.023 268.548 758.813 270.046C759.998 272.254 761.183 274.54 761.657 277.142C762.289 280.374 763 283.528 762.842 286.839C762.842 287.076 762.684 287.233 762.526 287.47C762.368 287.312 762.131 287.154 761.973 286.997C760.63 285.893 760.156 284.395 759.445 282.897C759.208 282.345 758.892 281.32 758.655 281.32C757.944 281.478 757.233 281.793 756.759 282.266C756.048 282.976 755.416 283.686 754.863 284.632C753.757 286.445 754.152 288.179 754.231 289.914C754.468 292.91 753.125 294.486 750.597 295.511C750.123 295.669 749.807 295.984 749.333 296.221C746.568 297.64 743.882 298.98 741.275 300.715C738.747 302.37 735.666 303.316 732.822 300.951C731.558 299.848 729.899 298.98 729.188 297.561C727.766 294.881 725.317 293.383 723.5 291.254C722.947 290.702 722.078 290.072 721.288 289.993C719.787 289.835 718.207 289.756 716.864 290.702C715.6 291.569 716.469 292.831 716.232 293.856C715.837 295.827 716.627 297.246 718.128 298.586C720.419 300.636 722.473 303.001 725.08 304.736C726.897 305.918 726.897 307.731 726.186 309.545C724.685 313.408 724.448 313.25 721.762 316.404C719.945 318.532 717.417 319.4 715.363 321.055C714.336 321.922 712.203 321.607 711.097 320.74C707.542 317.98 703.908 315.142 700.353 312.383C698.615 311.043 696.482 311.121 694.507 311.358C694.033 311.358 693.717 312.541 693.243 313.092C692.453 313.96 694.744 314.354 693.559 315.3C693.48 315.379 693.48 315.694 693.559 315.852C694.586 318.217 697.193 320.267 699.8 321.528C702.012 322.553 704.066 323.893 706.12 325.312C707.542 326.259 708.174 329.412 707.068 330.831C705.488 332.802 704.382 335.246 701.933 336.35C699.8 337.296 697.588 338.084 695.139 338.006C693.796 338.006 692.532 338.084 691.189 338.006C690.32 337.927 690.004 338.242 690.083 339.109C690.162 339.661 689.925 340.45 690.162 340.686C691.505 342.026 690.32 343.84 690.952 345.101C691.821 346.678 691.584 348.255 691.663 349.91C691.663 350.147 691.742 350.462 691.663 350.699C691.584 350.935 691.347 351.329 691.031 351.408C690.083 351.724 689.135 352.118 688.187 352.197C686.449 352.354 684.711 352.354 683.052 352.197C681.393 351.96 680.603 353.221 679.971 354.168C679.339 355.114 680.682 355.665 681.235 356.296C682.499 357.636 683.921 358.898 685.106 360.238C686.133 361.342 686.923 362.603 687.792 363.865C688.108 364.338 688.503 365.205 688.345 365.363C687.713 366.072 686.844 366.782 685.975 367.097C685.027 367.412 683.684 367.57 682.894 367.097C680.682 365.757 678.391 366.624 676.1 366.388C674.915 366.23 673.098 367.649 672.861 368.595C672.387 370.329 673.019 371.827 674.599 372.616C676.416 373.483 678.312 373.877 680.287 374.193C683.605 374.744 685.659 377.346 684.632 380.027C684.079 381.446 683.368 383.101 681.551 383.653C680.287 384.047 679.023 384.599 677.838 385.23C674.441 386.965 673.651 388.699 675.073 391.853C675.863 393.587 676.337 395.558 676.969 397.371C677.443 398.79 677.522 399.5 676.89 400.761C676.179 402.102 675.389 402.811 673.967 403.442C671.202 404.624 668.358 404.388 665.593 404.073C661.485 403.678 657.93 405.728 653.98 405.807C653.111 405.807 652.242 406.674 651.373 407.068C650.978 407.226 650.583 407.305 650.267 407.305C647.028 406.99 644.895 409.591 641.972 410.222C640.945 410.459 640.076 411.405 639.207 412.114C638.97 412.351 638.812 412.824 638.891 413.139C638.97 413.376 639.523 413.691 639.76 413.612C641.656 413.297 643.552 413.06 645.448 413.612C645.922 413.691 646.554 413.218 647.107 412.903C647.581 412.666 647.897 412.193 648.371 412.114C650.978 411.641 653.269 409.985 656.034 410.459C656.508 410.537 657.061 410.537 657.535 410.38C660.853 409.512 662.828 409.591 664.961 410.064C667.489 410.616 669.938 411.483 672.15 412.666C674.599 414.006 676.732 415.898 678.312 418.264C679.892 420.629 680.919 423.388 681.393 426.069C681.946 428.749 682.025 431.745 680.682 434.347C679.655 436.318 677.917 437.737 676.021 438.919C674.915 439.629 673.967 440.496 673.098 441.442C672.861 441.679 672.861 442.467 673.098 442.704C674.204 443.886 675.468 444.832 676.416 446.094C677.285 447.197 677.838 448.459 676.811 450.036C675.389 452.243 674.204 454.608 672.229 456.422C670.333 458.077 668.437 459.891 666.383 461.388C665.435 462.098 664.329 462.729 662.907 462.571C662.038 462.413 661.406 463.596 661.801 464.306C662.275 465.094 662.828 465.646 663.934 465.725C666.541 465.803 668.911 465.015 671.044 463.832C674.283 462.019 677.285 459.891 680.366 457.762C681.709 456.816 683.368 456.185 684.869 455.397C685.422 455.081 686.133 455.003 686.528 454.608C687.476 453.583 688.266 453.899 689.53 454.214C693.875 455.397 696.403 457.998 697.588 462.256C697.904 463.517 698.062 464.148 697.272 465.252C694.902 468.405 693.401 472.032 691.742 475.579C691.505 476.052 691.9 477.314 692.058 477.314C693.322 477.393 694.033 478.733 695.613 478.023C698.062 476.841 700.511 475.579 703.355 475.579C703.987 475.579 704.461 475.028 705.33 475.501C706.752 476.289 707.621 477.235 707.621 478.891V483.227C707.621 485.198 707.147 487.405 707.937 488.982C708.569 490.322 710.702 490.874 712.124 491.899L721 495.132L850.69 496.866C851.559 494.659 853.218 494.264 855.193 494.185C858.353 494.107 861.434 495.289 864.673 495.132C866.174 495.053 867.991 493.949 867.28 492.924C865.937 490.953 867.043 488.746 866.016 486.696C864.997 484.662 866.7 482.783 868.193 481.136L868.228 481.098C869.65 479.6 871.151 479.916 872.81 480.31C875.101 480.862 876.839 482.675 879.051 483.385C880.236 483.779 881.342 484.725 882.448 484.646C883.554 484.567 885.134 483.7 885.45 482.754C885.845 481.65 886.24 479.916 884.818 478.812C883.317 477.629 881.816 476.447 880.394 475.185C879.209 474.16 878.893 471.795 879.604 470.691C880.394 469.43 882.843 468.563 884.265 468.878C886.635 469.43 888.847 470.691 891.138 471.322C895.878 472.584 900.776 473.214 905.437 475.028C906.069 475.343 906.306 475.106 906.148 474.476C906.069 473.924 905.832 473.293 905.516 472.82C904.173 470.691 902.198 469.351 899.907 468.405C896.352 466.986 893.271 464.779 890.032 462.808C887.583 461.231 889.795 460.575 890.032 457.5C890.19 455.135 893.973 456.129 895 454C896.343 451.241 901.487 453.129 903.699 451C905.595 449.187 905.893 446.815 908.5 446.5C935.913 443.184 930.796 427.094 931.665 426.463C933.403 425.123 927.764 422.05 926.5 420C925.394 418.108 923.237 418.264 923 416.214C922.605 412.824 917.157 414.311 918.5 411C918.816 410.054 920.842 407.525 921 406.5C921.395 403.425 923.686 407.417 924.476 404.5C925.345 401.425 916.814 398.813 919.5 397C923.687 394.162 914.917 394.454 916.576 391.458C917.129 390.433 916.813 390.276 916.339 389.724C915.707 389.014 917.366 387.559 916.339 387.717C914.68 387.954 918.843 382.288 917.5 381.5C914 376.5 913 375 912.5 375C911.71 372.162 905.606 374.181 904.5 371.5C903.473 368.741 902.277 366 899.117 360.79C899.591 360.159 899.986 359.607 899.986 358.74C899.986 356.769 899.512 355.114 898.327 353.458C896.431 350.777 898.343 347.654 897 344.5C896.21 342.529 904.053 336.707 903.5 334.5C902.947 332.371 897.632 323.42 897 321.292C896.447 319.163 898.88 317.507 898.327 315.379C898.09 314.433 886.319 324.051 885.687 323.657C884.581 322.868 886.161 321.844 885.134 321.292C882.764 320.109 880.394 318.848 877.945 317.665C877.471 317.429 876.76 317.429 876.365 317.665C874.232 319.005 871.862 318.296 869.571 318.453C868.544 318.611 867.754 318.611 867.359 317.192C867.122 316.404 865.937 315.536 865.068 315.379C862.303 314.906 861.039 313.329 860.328 310.806C859.617 308.204 858.985 305.76 861.039 303.316C862.698 301.345 862.698 301.424 865.7 299.453C868.544 297.561 871.783 296.221 873.521 292.673C874.943 289.756 877.629 287.549 879.525 284.868C881.579 282.03 883.396 279.113 885.134 276.117C885.924 274.619 886.082 272.806 886.872 271.308C887.662 269.652 888.768 268.154 889.874 266.656L889.874 266.656C891.77 263.976 892.323 260.743 892.797 257.669C893.034 256.013 893.745 255.934 894.772 256.171C896.747 256.644 898.564 257.432 899.986 258.851C901.961 260.743 903.778 262.872 905.911 264.607C907.491 265.868 909.229 267.524 911.52 267.051C917.208 265.789 917.682 265.789 922.027 268.864C922.817 269.416 923.686 269.889 924.476 270.519C924.95 270.992 925.187 271.071 925.345 270.283C926.056 266.42 927.952 265.001 931.665 265.553C932.139 265.631 932.455 266.183 932.929 266.262C934.746 266.735 936.405 265.789 937.195 263.976C937.748 262.793 938.459 261.768 939.881 261.532C941.303 261.295 942.883 261.059 944.147 260.428C945.964 259.561 947.544 258.299 949.124 257.117C951.415 255.382 951.573 254.594 950.625 251.756C950.546 251.44 949.993 251.204 949.914 250.889C949.835 250.179 949.756 249.312 949.993 248.602C950.151 248.208 951.02 247.972 951.573 247.735C952.363 247.42 953.153 247.104 953.864 246.631C954.417 246.237 954.654 245.528 955.128 245.054C955.76 244.424 955.207 243.951 955.049 243.399C954.733 242.059 954.417 240.482 954.812 239.22C955.049 238.353 955.997 237.171 957.419 237.171C957.577 237.171 957.656 237.013 957.735 236.934C960.026 235.2 960.026 234.411 957.577 232.598C957.261 232.361 957.024 232.046 956.708 231.81C955.207 230.706 953.469 228.419 953.153 226.685C952.837 225.029 952.916 223.295 953.943 221.955C954.575 221.166 954.575 220.378 954.654 219.511C954.733 218.722 954.417 218.328 953.548 218.407C952.995 218.407 952.521 218.328 951.968 218.407C949.835 218.643 948.571 217.382 947.623 215.726C946.991 214.701 946.438 213.598 945.964 212.494C944.858 209.813 942.804 208.316 940.197 207.369C938.143 206.66 936.089 205.793 933.956 205.32C931.349 204.768 929.769 202.639 927.715 201.299C926.056 200.195 925.029 200.037 923.291 200.984C920.447 202.481 917.208 202.876 914.048 203.349C912.231 203.664 910.335 203.428 908.439 204.058C907.333 204.452 906.464 204.452 906.069 205.793C905.279 208.71 903.304 210.287 900.302 210.523C900.144 210.523 899.986 210.444 899.907 210.523C898.801 211.469 896.984 211.548 896.905 213.913C896.826 215.253 895.641 216.909 893.982 217.619C893.192 217.934 892.244 218.17 891.691 218.722C891.217 219.274 891.059 220.299 890.822 221.087C890.111 223.453 889.953 225.897 889.163 228.262C888.768 229.523 889.637 230.706 889.874 231.888C890.427 234.963 889.084 237.722 887.662 240.403C887.504 240.797 885.845 241.901 888.215 242.216C889.479 242.453 891.217 243.951 891.454 245.133C891.849 246.868 892.007 248.918 891.217 250.81C890.032 253.963 888.926 257.196 887.899 260.428C887.662 261.216 887.662 262.241 887.899 263.03C888.452 264.922 888.531 264.843 888.294 265.474C888.136 266.026 887.978 266.656 887.741 267.208C887.03 269.1 886.398 270.992 884.739 272.333C883.238 273.594 881.895 275.013 880.71 276.59C878.577 279.349 876.207 281.793 873.363 283.843C871.467 285.262 869.334 286.681 867.833 288.495C865.621 291.254 863.725 294.408 861.75 297.404C860.565 299.296 858.669 300.242 856.773 301.188C856.536 301.267 856.062 301.109 855.667 301.03C855.825 300.715 855.904 300.399 856.062 300.163C857.168 298.507 858.353 296.852 859.38 295.196C859.775 294.486 860.249 292.989 860.091 292.91C858.985 292.358 858.827 293.698 858.195 294.092C855.272 295.906 852.981 298.35 850.69 300.794C849.347 302.213 847.767 303.08 846.029 303.868C844.133 304.657 843.738 304.578 842.79 302.686C841.921 300.794 841.052 298.823 841.21 296.615C841.21 296.3 840.973 295.906 840.815 295.59L840.262 296.142C838.287 298.034 836.312 300.005 834.416 301.976C833.468 303.001 832.283 302.843 831.256 302.449C830.387 302.134 830.071 301.188 830.15 300.163Z" fill="black"/>
            <path d="M605 311.752C605.079 311.595 605.158 310.964 605.474 310.412C607.765 305.524 611.083 301.424 615.744 298.744C617.798 297.561 620.326 297.167 622.617 296.457C622.696 296.457 623.17 297.009 623.091 297.167C621.195 302.213 618.983 306.943 614.006 309.86C612.11 310.964 610.609 312.698 608.239 313.092C607.607 313.171 607.054 313.566 606.501 313.566C605.079 313.802 604.921 313.644 605 311.752Z" fill="black"/>
            <path d="M1021.33 316.665C1021.25 316.35 1020.93 315.877 1021.01 315.562C1021.49 313.748 1022.36 312.172 1024.09 311.147C1026.94 309.491 1030.18 309.176 1033.02 307.993C1035 307.126 1037.13 307.363 1039.1 306.495C1042.03 305.234 1044.79 303.894 1046.85 301.45C1047.32 300.898 1048.5 300.898 1048.35 301.213C1048.03 302.159 1049.85 302.396 1048.82 303.499C1046.29 306.259 1044.63 306.968 1040.84 308.939C1038.23 310.28 1035.47 311.226 1032.94 312.802C1030.41 314.3 1027.57 315.719 1024.41 315.956C1023.54 316.035 1022.59 316.35 1021.33 316.665Z" fill="black"/>
            <path d="M1078.92 192.075C1079.16 196.017 1077.26 197.83 1075.05 199.328C1073.87 200.116 1072.92 200.274 1071.89 199.013C1070.71 197.515 1068.97 196.569 1069.44 194.125C1069.99 191.05 1073.71 188.29 1076.63 189.079C1077.26 189.237 1077.97 189.867 1078.37 190.498C1078.84 191.286 1079 192.154 1078.92 192.075Z" fill="black"/>
            <path d="M908.597 477.708C910.098 479.206 912.31 477.787 913.653 479.364C914.443 480.31 915.549 481.335 916.655 481.492C919.657 481.887 920.763 484.173 922.106 486.302C922.58 487.011 922.264 486.932 921.711 487.169C920.684 487.484 919.815 485.986 918.867 487.011C915.233 484.488 910.73 482.911 908.676 478.418C908.676 478.181 908.676 477.945 908.597 477.708Z" fill="black"/>
            <path d="M730.057 276.669C729.978 276.275 729.662 275.802 729.82 275.565C730.847 274.067 731.479 272.412 733.454 271.623C735.587 270.835 737.404 269.179 740.011 269.495C740.406 269.573 740.801 268.943 741.275 268.785C741.591 268.706 742.065 268.864 742.302 269.1C742.46 269.337 742.46 269.889 742.223 270.125C740.169 272.727 737.167 273.91 734.165 275.092C733.059 275.565 731.874 275.802 730.689 276.196C730.531 276.196 730.373 276.432 730.057 276.669Z" fill="black"/>
            <path d="M646.396 471.322C645.922 471.322 645.764 471.322 645.685 471.322C645.053 471.243 644.421 471.164 643.868 471.086C644.421 470.691 644.974 470.061 645.527 470.061C649.319 469.745 652.084 467.459 655.007 465.409C655.481 465.094 656.429 465.252 657.061 465.409C657.298 465.488 658.404 465.882 657.535 466.75C656.113 468.169 654.612 469.351 652.558 469.903C650.346 470.455 648.45 471.795 646.396 471.322Z" fill="black"/>
            <path d="M908.59 271.394C908.511 271.473 908.432 271.552 908.274 271.71C906.378 273.759 904.087 275.336 901.559 276.361C900.769 276.676 899.9 276.755 899.268 277.465C898.952 277.78 898.399 278.017 897.925 278.017C896.187 277.78 894.765 278.49 893.343 279.357C893.027 279.515 892.474 279.278 892 279.199C892.079 278.884 892 278.411 892.237 278.174C893.343 276.992 894.291 275.336 895.555 275.021C897.767 274.469 899.347 272.656 901.638 272.577C902.902 272.498 903.692 272.104 904.719 271.394C905.509 270.842 906.931 271.079 908.037 271C908.274 271 908.432 271.237 908.59 271.394Z" fill="black"/>
        </g>
        <g clip-path="url(#clip2)">
            <path d="M937.707 277.999C936.708 277.999 935.931 278.36 935.099 278.693C934.35 278.998 933.573 279.303 932.824 279.664C932.27 279.941 931.77 280.357 931.188 280.607C930.245 281.051 929.274 281.689 928.303 281.745C927.138 281.8 926.195 282.244 925.168 282.688C924.281 283.049 923.365 283.354 922.505 283.77C921.59 284.186 920.73 284.714 919.815 285.158C919.232 285.435 918.65 285.685 918.012 285.879C916.292 286.351 914.766 287.155 913.601 288.57C913.379 288.848 913.046 289.042 912.713 289.209C912.159 289.486 911.659 289.764 911.493 290.429C911.437 290.651 911.16 290.873 910.938 291.012C909.967 291.678 908.858 292.233 907.97 293.038C906.971 293.898 906.167 294.98 905.279 295.979C904.225 297.172 903.199 298.421 902.089 299.586C900.869 300.89 899.953 302.305 899.426 304.025C898.483 307.161 897.512 310.296 896.624 313.459C896.403 314.236 896.486 315.096 896.319 315.873C896.097 316.9 895.709 317.899 895.404 318.925C895.043 320.146 895.043 321.367 895.543 322.56C895.765 323.115 895.848 323.726 895.959 324.308C896.375 326.473 896.708 328.609 897.679 330.662C898.289 331.966 899.149 333.354 898.899 334.963C898.871 335.13 898.927 335.352 899.01 335.49C899.759 336.406 899.482 337.266 898.899 338.126C898.317 338.986 897.651 339.819 897.207 340.734C896.791 341.567 896.624 342.51 896.403 343.426C896.319 343.759 896.43 344.175 896.347 344.508C895.654 347.116 895.626 349.724 895.959 352.416C896.347 355.69 897.262 358.77 898.816 361.683C899.26 362.516 899.482 363.487 899.925 364.347C900.397 365.29 900.98 366.178 901.507 367.066C902.145 368.176 902.838 369.286 903.448 370.396C904.003 371.422 904.891 372.116 905.695 372.921C907.415 374.613 909.579 375.14 911.715 375.834C913.462 376.417 913.989 377.527 913.435 379.247C913.018 380.523 913.102 381.633 913.906 382.799C914.294 383.381 914.489 384.297 914.378 384.991C913.934 387.682 914.322 390.207 915.598 392.593C916.292 393.87 916.652 395.118 916.514 396.561C916.458 397.06 916.708 397.643 916.874 398.143C917.318 399.391 917.845 400.64 918.317 401.888C918.872 403.387 919.315 404.941 920.009 406.383C920.536 407.493 921.34 408.464 922.062 409.463C922.894 410.656 923.726 411.877 924.641 413.015C926.111 414.846 927.609 416.65 929.44 418.148C929.523 418.204 929.579 418.259 929.662 418.287C931.049 418.62 931.965 419.619 932.88 420.562C933.989 421.727 935.349 422.421 936.791 423.087C937.152 423.253 937.485 423.559 937.762 423.836C938.622 424.669 939.482 425.501 940.342 426.361C941.368 427.388 942.589 427.915 944.059 427.804C944.364 427.776 944.669 427.915 944.974 428.026C945.03 428.054 945.141 428.192 945.141 428.22C945.058 428.303 944.974 428.442 944.891 428.442C942.866 428.331 940.841 428.276 939.371 426.472C938.095 424.918 936.347 423.975 934.544 423.142C934.322 423.059 934.073 422.976 933.934 422.809C932.325 421.034 930.217 419.868 928.358 418.37C927.221 417.454 926.444 416.317 925.473 415.29C923.976 413.736 922.45 412.21 920.952 410.656C920.73 410.434 920.591 410.129 920.425 409.852C919.371 408.131 918.372 406.411 917.79 404.469C917.54 403.636 916.791 402.943 916.652 401.999C916.625 401.833 916.347 401.583 916.181 401.583C916.014 401.583 915.737 401.805 915.709 401.972C915.626 402.305 915.543 402.665 915.626 402.998C915.876 403.997 915.681 404.941 915.487 405.939C915.154 407.715 914.683 409.491 915.154 411.35C915.265 411.794 915.432 412.044 915.903 412.21C916.93 412.571 917.706 413.209 918.095 414.347C918.261 414.846 918.761 415.207 919.093 415.651C920.342 417.288 921.618 418.925 922.866 420.562C923.06 420.812 923.254 421.089 923.504 421.256C924.891 422.144 925.751 423.531 926.805 424.752C927.942 426.084 929.191 427.249 930.716 428.165C931.632 428.72 932.769 429.08 933.324 430.273C933.546 430.773 934.433 430.995 935.016 431.355C935.904 431.91 936.791 432.493 937.707 432.965C938.428 433.326 939.26 433.464 940.009 433.742C940.786 434.047 941.507 434.408 942.256 434.741C943.365 435.185 944.475 435.629 945.612 436.017C946.389 436.294 947.221 436.489 947.97 436.794C948.248 436.905 948.442 437.266 948.691 437.515C948.386 437.599 948.026 437.821 947.748 437.737C945.834 437.182 943.948 436.6 942.062 435.989C941.84 435.934 941.673 435.74 941.479 435.629C940.924 435.323 940.37 434.796 939.815 434.768C937.457 434.713 935.904 433.02 933.962 432.077C932.603 431.411 931.798 430.107 930.55 429.385C929.44 428.747 928.358 428.054 927.415 427.166C926.888 426.666 926.361 426.777 925.917 427.415C924.78 429.053 923.143 430.19 921.729 431.577C921.701 431.605 921.645 431.633 921.618 431.661C919.676 433.492 917.762 435.379 915.792 437.155C914.738 438.098 913.518 438.903 912.408 439.791C910.605 441.233 908.774 442.621 907.027 444.147C905.002 445.923 902.921 447.56 900.425 448.614C897.734 449.724 895.071 450.889 892.491 452.221C890.855 453.054 889.19 453.969 887.887 455.218C886.472 456.55 885.029 457.743 883.365 458.714C882.699 459.102 882.144 459.685 881.562 460.24C880.674 461.1 879.787 461.96 878.622 462.515C878.15 462.737 877.734 463.153 877.346 463.57C875.237 465.817 873.101 468.065 871.076 470.368C869.024 472.698 866.999 475.029 865.112 477.471C863.254 479.912 862.061 482.743 861.173 485.684C860.979 486.35 860.813 487.016 860.619 487.682C860.147 489.18 859.981 490.734 859.842 492.315C859.842 492.315 857.684 493.343 859.842 495.5C862 497.657 871.451 495.223 876.5 495.5C907.679 496.804 937.984 496.2 969.052 497.254C969.191 495.423 969.357 493.592 969.496 491.788C969.635 490.068 969.857 488.32 969.912 486.599C969.995 485.129 969.912 483.658 969.912 482.188C969.912 481.272 969.995 480.329 969.884 479.441C969.746 478.303 969.524 477.166 969.274 476.056C969.08 475.168 968.747 474.308 968.497 473.42C968.109 472.005 967.554 470.59 967.471 469.147C967.332 466.788 966.112 464.763 965.612 462.543C965.585 462.376 965.474 462.21 965.418 462.016C964.863 460.656 964.253 459.324 963.754 457.937C963.255 456.494 962.755 455.051 962.506 453.553C962.2 451.749 962.006 449.918 962.422 448.087C962.617 447.282 963.033 446.727 963.948 446.755C964.586 446.783 964.863 446.311 965.28 445.923C966.611 444.702 966.445 443.009 966.722 441.455C966.75 441.289 966.306 440.817 966.056 440.817C964.586 440.789 963.144 440.873 961.673 440.873C961.008 440.873 960.703 441.122 960.481 441.761C959.51 444.452 958.483 447.088 957.485 449.752C957.429 449.918 957.346 450.085 957.235 450.251C955.793 452.388 955.904 452.166 953.934 451.583C953.046 451.305 952.159 451.028 951.299 450.723C950.911 450.584 950.522 450.418 950.189 450.168C950.023 450.029 949.995 449.696 949.912 449.446C950.162 449.363 950.411 449.197 950.605 449.252C951.687 449.502 952.741 449.835 953.795 450.14C955.155 450.529 955.46 450.418 956.126 449.197C956.181 449.113 956.237 449.03 956.264 448.947C957.513 445.784 958.789 442.621 960.037 439.43C960.453 438.32 960.425 438.32 959.316 437.793C958.816 437.571 958.317 437.321 957.845 437.016C957.291 436.655 957.041 436.849 956.764 437.377C956.126 438.653 955.404 439.874 954.822 441.178C954.017 442.898 953.296 444.618 952.575 446.367C952.381 446.811 952.464 447.393 952.298 447.837C952.187 448.142 951.881 448.448 951.604 448.531C951.41 448.586 950.911 448.281 950.855 448.087C950.716 447.587 950.633 446.977 950.772 446.505C951.549 443.453 952.852 440.623 954.933 438.181C955.321 437.737 955.626 437.21 955.848 436.655C956.07 436.156 956.264 435.684 956.875 435.462C957.18 435.351 957.429 434.879 957.54 434.519C958.178 432.549 958.789 430.551 959.371 428.553C959.759 427.221 959.787 427.221 961.063 427.499C961.562 427.61 962.062 427.637 962.561 427.637C964.586 427.582 965.557 428.22 966.195 430.135C966.278 430.384 966.389 430.662 966.556 430.856C968.22 432.993 969.024 435.351 968.636 438.07C968.553 438.597 968.719 438.93 969.302 439.069C970.716 439.347 972.076 439.763 973.379 438.708C973.74 438.403 974.295 438.264 974.794 438.209C976.625 437.904 978.123 436.96 979.538 435.85C979.676 435.74 979.871 435.656 980.037 435.656C981.507 435.518 982.561 434.685 983.56 433.686C984.226 433.02 985.058 432.438 985.89 432.021C987.554 431.189 988.692 429.802 989.912 428.498C990.828 427.554 991.604 426.444 992.409 425.418C992.52 425.279 992.631 425.112 992.714 424.946C993.685 422.865 994.794 420.867 995.349 418.592C995.599 417.565 995.987 416.566 996.292 415.54C996.348 415.373 996.348 415.151 996.459 415.013C996.625 414.818 996.847 414.707 997.069 414.569C997.18 414.791 997.402 415.04 997.402 415.262C997.374 415.623 997.235 415.956 997.124 416.317C996.736 417.538 996.764 417.593 997.762 418.37C997.984 418.536 998.123 418.786 998.345 418.953C998.789 419.313 999.26 419.646 999.704 420.035C1000.18 420.451 1000.87 420.839 1001.01 421.339C1001.45 423.142 1002.81 423.947 1004.2 424.78C1006.86 426.333 1009.52 427.887 1012.16 429.496C1013.05 430.051 1013.8 430.828 1014.66 431.466C1015.6 432.16 1016.63 432.632 1017.79 432.826C1018.65 432.965 1019.51 433.27 1020.26 433.686C1022.48 434.879 1024.92 435.462 1027.28 436.267C1028.28 436.6 1029.22 437.127 1030.19 437.515C1031.27 437.932 1032.35 438.348 1033.44 438.681C1034.46 439.014 1035.43 439.374 1036.15 440.262C1036.29 440.429 1036.49 440.595 1036.68 440.734C1038.23 441.65 1039.76 442.565 1041.34 443.425C1044.17 444.951 1047.06 446.339 1049.8 448.087C1051.13 448.947 1052.69 449.474 1054.16 450.168C1055.24 450.695 1056.38 451.111 1057.35 451.805C1059.68 453.442 1082 468.5 1083.5 474C1085 479.5 1086.81 494.668 1087.5 495.5C1087.58 493.724 1093.39 497.276 1093.5 495.5C1093.28 495.361 1091.5 470.457 1083.5 465.5C1082.58 464.668 1073.92 458.769 1073 457.937C1072.83 457.798 1069 454 1063.06 450.473C1061.15 449.974 1059.82 448.614 1058.32 447.476C1057.6 446.921 1056.76 446.505 1055.96 446.061C1054.57 445.312 1053.3 444.424 1052.3 443.148C1052.13 442.926 1051.94 442.621 1051.72 442.565C1050.3 442.205 1049.39 441.15 1048.33 440.234C1046.92 438.986 1045.09 438.792 1043.39 438.181C1042.7 437.932 1042.06 437.571 1041.4 437.266C1041.04 437.099 1040.68 436.822 1040.29 436.738C1038.9 436.405 1037.71 435.823 1036.76 434.741C1035.35 433.159 1033.52 432.243 1031.44 431.772C1030.74 431.605 1030.13 431.134 1029.47 430.828C1029.05 430.634 1028.66 430.412 1028.25 430.218C1027.61 429.885 1026.94 429.552 1026.31 429.247C1025.95 429.053 1025.59 428.858 1025.2 428.72C1024.5 428.47 1023.64 428.47 1023.09 428.054C1021.29 426.694 1018.98 426.555 1017.12 425.251C1015.9 424.391 1014.43 423.919 1013.05 423.281C1012.69 423.115 1012.33 422.893 1011.94 422.726C1011.27 422.421 1010.61 422.088 1009.94 421.783C1009.61 421.644 1009.11 421.644 1008.91 421.394C1007.64 419.813 1005.58 419.313 1004.11 417.982C1003.37 417.288 1002.34 416.872 1001.4 416.455C1000.65 416.15 1000.31 415.595 1000.18 414.902C999.982 413.958 999.676 413.154 998.872 412.543C998.595 412.349 998.373 411.96 998.317 411.6C998.178 410.573 997.374 409.935 996.958 409.075C996.681 408.52 996.486 408.825 996.32 409.13C996.154 409.491 996.043 409.907 995.876 410.296C995.571 410.962 995.127 411.572 994.905 412.266C994.434 413.847 993.213 414.957 992.547 416.428C992.215 417.177 991.771 417.871 991.299 418.564C990.522 419.702 989.773 420.839 988.886 421.894C987.249 423.892 985.529 425.806 983.837 427.748C983.726 427.887 983.588 428.081 983.421 428.109C982.894 428.22 982.367 428.248 981.812 428.303C982.145 427.915 982.395 427.388 982.783 427.11C985.002 425.556 986.75 423.586 988.248 421.339C989.246 419.868 990.411 418.481 991.244 416.899C991.798 415.845 992.658 414.874 992.714 413.542C992.742 412.848 993.213 412.182 993.463 411.489C993.546 411.239 993.657 410.989 993.712 410.712C993.962 409.768 994.184 408.825 994.406 407.909C994.6 407.105 994.739 406.356 994.767 405.495C994.794 403.969 995.183 402.443 995.488 400.945C995.71 399.918 996.181 398.919 996.348 397.893C996.57 396.644 996.597 395.396 996.681 394.119C996.736 393.398 996.847 392.649 996.764 391.927C996.514 390.013 996.181 388.098 995.848 386.211C995.654 385.157 995.571 384.13 995.959 383.076C996.542 381.494 996.708 379.746 997.651 378.276C997.901 377.887 997.901 377.277 997.818 376.778C997.541 375.224 998.289 374.086 999.205 373.032C999.704 372.477 999.982 371.922 999.982 371.173C999.982 370.951 1000.04 370.701 1000.15 370.507C1001.54 368.01 1001.9 365.179 1002.89 362.543C1002.67 360.129 1003.98 357.937 1003.62 355.468C1003.34 353.581 1003.59 351.611 1003.5 349.697C1003.48 349.142 1003.2 348.559 1002.92 348.032C1002.31 346.95 1002.12 345.868 1002.26 344.591C1002.51 342.371 1002.73 340.124 1002.56 337.876C1002.51 336.878 1002.28 336.017 1001.42 335.49C1000.12 334.658 1000.09 333.382 1000.12 332.077C1000.12 331.522 1000.18 330.968 1000.09 330.44C999.787 328.609 999.815 326.778 1000.09 324.946C1000.2 324.253 1000.26 323.476 1000.09 322.782C999.676 321.173 999.676 319.453 998.955 317.899C998.511 316.955 998.317 315.901 998.04 314.874C997.957 314.514 997.846 314.07 997.984 313.792C998.761 312.433 999.149 310.796 1000.45 309.769C1000.65 309.63 1000.87 309.492 1000.95 309.297C1001.37 308.021 1002.48 307.244 1003.23 306.217C1003.62 305.718 1003.87 305.108 1004.17 304.553C1004.39 304.164 1004.59 303.748 1004.84 303.359C1004.92 303.193 1005.11 303.082 1005.17 302.916C1005.97 300.363 1007.67 298.171 1008.05 295.479C1008.28 293.87 1008.11 292.288 1007.53 290.762C1007.39 290.402 1007.22 289.958 1007.25 289.569C1007.36 288.626 1006.81 288.21 1006.11 287.738C1003.75 286.156 1000.98 285.74 998.345 284.936C997.291 284.603 996.264 284.214 995.183 283.881C994.406 283.631 993.685 283.326 992.769 283.437C992.076 283.52 991.327 283.188 990.606 282.993C989.635 282.744 988.636 282.466 987.693 282.133C986.445 281.689 985.169 281.828 983.893 281.717C982.755 281.634 981.618 281.328 980.509 281.023C978.428 280.468 976.32 280.441 974.212 280.441C973.796 280.441 973.379 280.385 972.991 280.274C971.188 279.719 969.385 279.109 967.582 278.609C966.999 278.443 966.278 278.665 965.696 278.498C963.671 277.888 961.646 278.221 959.621 278.193C959.316 278.193 958.983 278.11 958.678 278.027C957.429 277.555 955.931 277.361 954.378 277.555C954.239 277.583 954.101 277.61 953.962 277.555C953.546 277.444 953.13 277.305 952.686 277.166C952.991 277.111 953.296 277.028 953.601 277C949.884 276.945 946.139 277.139 942.45 277.305C942.311 277.388 942.173 277.499 942.034 277.499C940.591 277.721 939.149 278.027 937.707 277.999ZM947.027 302.305C947.499 302.971 947.804 302.805 948.081 302.028C948.164 301.806 948.359 301.639 948.525 301.445C948.719 301.611 949.024 301.75 949.08 301.944C949.246 302.777 949.801 302.999 950.494 302.916C951.188 302.832 952.048 302.971 952.242 301.944C952.353 301.306 952.741 301.195 953.324 301.167C955.071 301.084 956.819 300.918 958.567 300.862C958.927 300.862 959.371 301.029 959.676 301.251C960.148 301.639 960.481 301.611 960.841 301.14C961.729 299.974 963.033 300.169 964.253 300.113C964.392 300.113 964.753 300.585 964.725 300.751C964.558 301.334 964.586 301.778 965.196 302C965.807 302.25 966.389 302.111 966.861 301.667C967.055 301.473 967.194 301.223 967.388 301.029C968.054 300.391 968.692 300.557 968.997 301.473C969.274 302.361 969.413 302.361 970.106 301.695C970.911 300.918 971.965 300.835 973.019 300.862C973.158 300.862 973.379 301.251 973.352 301.445C973.296 301.806 973.074 302.194 973.574 302.388C974.101 302.61 974.239 302.166 974.489 301.806C975.183 300.89 976.209 301.278 977.041 301.362C978.067 301.5 979.038 301.833 980.148 301.778C980.98 301.722 981.868 302.083 982.284 303.054C982.395 303.332 982.617 303.665 982.866 303.776C984.087 304.414 985.363 304.969 986.583 305.551C987.443 305.968 988.359 306.328 989.135 306.883C990.19 307.605 991.077 308.548 992.104 309.325C993.241 310.185 993.962 311.378 994.517 312.627C994.739 313.126 994.878 313.654 995.072 314.153C995.377 315.069 995.737 315.957 996.015 316.872C996.292 317.788 996.542 318.731 996.764 319.647C997.152 321.117 997.513 322.588 997.79 323.67C997.679 325.807 997.651 327.527 997.513 329.219C997.374 330.607 997.291 331.966 997.541 333.326C997.79 334.547 997.901 335.795 998.04 337.044C998.151 337.987 998.373 338.875 999.316 339.375C999.51 339.486 999.732 339.652 999.787 339.847C1000.09 340.845 1000.51 341.872 1000.65 342.899C1000.92 345.451 1001.29 348.032 1001.2 350.612C1001.12 352.888 1001.26 355.107 1001.31 357.383C1001.31 357.438 1001.34 357.493 1001.31 357.521C1000.48 359.075 1001.15 360.879 1000.48 362.488C999.843 364.069 999.288 365.679 998.733 367.288C998.4 368.232 998.095 369.23 997.679 370.146C997.319 370.951 996.958 371.755 996.403 372.421C994.656 374.502 993.712 376.889 993.296 379.552C993.241 379.83 993.296 380.135 993.213 380.385C992.27 382.965 991.743 385.629 991.382 388.348C991.327 388.736 991.16 389.153 990.911 389.486C990.55 389.957 990.356 390.429 990.467 391.012C990.495 391.15 990.522 391.317 990.439 391.428C989.385 393.453 988.83 395.756 987.055 397.366C987 397.421 986.889 397.477 986.833 397.532C986.667 397.837 986.528 398.143 986.389 398.448C986.694 398.448 987 398.448 987.277 398.448C987.527 398.448 987.804 398.42 988.054 398.392C988.026 398.698 988.081 399.03 987.943 399.28C986.889 400.917 986.389 402.693 986.167 404.608C986.084 405.412 985.668 406.189 985.391 406.966C984.864 408.437 984.337 409.935 983.81 411.406C983.088 413.348 982.395 415.29 981.119 416.983C980.592 417.676 980.203 418.453 979.76 419.202C978.872 420.756 977.18 421.2 975.821 422.116C975.155 422.56 974.323 422.837 973.546 423.087C972.714 423.364 971.882 423.531 971.022 423.725C970.744 423.781 970.411 423.725 970.217 423.892C969.274 424.641 968.22 424.669 967.055 424.585C966.389 424.558 965.723 424.946 965.058 424.946C963.393 424.946 961.729 424.974 960.092 424.724C958.844 424.53 957.596 424.03 956.486 423.42C955.488 422.865 954.489 422.532 953.352 422.504C952.936 422.477 952.408 422.532 952.159 422.31C950.661 421.006 948.636 420.978 947.027 419.979C946.611 419.73 946.25 419.397 945.862 419.091C945.252 418.62 944.641 418.12 944.031 417.621C942.811 416.566 941.618 415.484 940.397 414.43C938.677 412.959 936.902 411.572 935.238 410.074C934.572 409.463 933.989 408.714 933.518 407.909C932.852 406.744 931.992 405.884 930.883 405.163C930.3 404.774 929.94 404.08 929.523 403.47C928.719 402.332 927.915 401.222 927.193 400.057C926.528 398.947 925.89 397.837 925.446 396.617C924.835 394.952 924.114 393.426 922.977 392.038C922.173 391.039 921.756 389.68 921.257 388.459C920.564 386.655 920.037 384.796 919.371 382.993C918.927 381.855 918.233 380.801 917.79 379.663C917.54 379.025 917.152 378.692 916.541 378.526C915.487 378.248 914.988 377.499 914.711 376.5C914.239 374.835 913.629 373.198 913.157 371.506C912.963 370.812 913.102 370.063 912.991 369.341C912.963 369.064 912.713 368.814 912.575 368.564C912.353 368.759 911.992 368.925 911.909 369.175C911.548 370.174 910.855 371.062 911.271 372.31C911.576 373.198 910.827 373.67 909.939 373.198C909.329 372.865 908.802 372.477 908.025 372.81C907.776 372.921 907.332 372.532 906.971 372.338C905.473 371.561 904.669 370.34 904.142 368.759C903.67 367.371 902.838 366.123 902.256 364.763C901.063 362.016 899.925 359.242 898.76 356.495C898.705 356.356 898.649 356.245 898.649 356.106C898.372 353.914 897.928 351.75 897.873 349.558C897.817 347.893 897.873 346.145 898.511 344.536C898.649 344.147 898.788 343.703 898.705 343.343C898.511 342.455 898.899 341.844 899.398 341.206C899.842 340.623 900.203 339.985 900.591 339.347C901.063 338.626 901.257 338.626 902.061 338.959C903.171 339.403 904.003 340.124 904.475 341.262C904.641 341.678 904.974 342.15 905.335 342.288C906.527 342.732 906.86 343.814 907.415 344.758C907.498 344.869 907.609 345.035 907.554 345.146C907.193 346.312 908.192 347.144 908.358 348.115C908.58 349.336 909.274 350.501 908.969 351.833C908.747 352.804 910.189 354.33 911.16 354.219C911.382 354.192 911.687 353.942 911.742 353.748C911.826 353.359 911.853 352.915 911.715 352.555C911.41 351.75 911.132 350.973 911.104 350.057C911.077 349.031 910.799 347.893 910.272 347.033C909.634 345.979 909.801 345.007 909.967 343.981C910.134 343.037 910.189 342.288 909.246 341.706C908.747 341.4 908.83 340.929 909.135 340.374C909.634 339.486 909.19 338.903 908.136 338.959C907.027 339.014 906.361 338.293 906.666 337.127C906.999 335.823 907.387 334.519 907.942 333.326C908.719 331.661 909.69 330.107 910.633 328.526C911.239 327.515 911.258 326.944 911.798 326.306C913.629 324.197 915.487 322.089 917.346 319.952C918.22 318.902 918.836 317.65 919.565 317.094C920.98 315.984 922.422 314.902 923.837 313.82C924.308 313.459 924.863 313.182 925.363 312.849C925.779 312.571 926.306 312.377 926.611 311.989C928.026 310.213 930.023 309.186 931.715 307.771C932.297 307.272 933.046 306.967 933.74 306.578C936.098 305.302 938.566 304.303 941.146 303.526C941.313 303.47 941.507 303.415 941.701 303.415C943.227 303.443 944.503 302.805 945.751 302.055C946.167 301.806 946.555 301.639 947.027 302.305Z" fill="black"/>
            <path d="M859.259 481.133C859.675 479.829 860.452 478.636 861.257 477.526C863.281 474.779 865.306 472.032 867.858 469.729C869.551 468.176 870.882 466.261 872.491 464.596C873.739 463.32 875.126 462.154 876.485 460.989C878.122 459.63 879.759 458.298 881.451 456.994C884.142 454.913 886.749 452.693 889.606 450.834C891.382 449.668 893.517 449.002 895.487 448.087C896.236 447.754 896.957 447.338 897.678 446.949C897.956 446.81 898.233 446.589 898.511 446.505C900.868 445.95 902.727 444.452 904.558 443.009C906.832 441.206 908.968 439.236 911.187 437.377C913.49 435.462 915.848 433.603 918.095 431.633C919.204 430.662 920.12 429.524 921.146 428.47C921.285 428.331 921.396 428.192 921.562 428.109C922.949 427.526 923.532 426.111 924.586 425.14C924.697 425.029 924.724 424.696 924.641 424.558C924.336 424.003 924.003 423.448 923.587 422.976C922.727 422.033 921.812 421.117 920.924 420.201C920.785 420.035 920.591 419.924 920.425 419.785C920.369 419.979 920.286 420.174 920.258 420.368C920.175 420.673 920.203 421.034 920.036 421.256C919.371 422.06 918.677 422.893 917.9 423.586C916.264 425.001 915.099 426.722 913.878 428.47C912.547 430.357 910.744 431.827 908.691 432.965C907.997 433.326 907.387 433.797 906.721 434.213C906.444 434.38 906.167 434.602 905.889 434.657C904.447 434.907 903.226 435.601 901.978 436.35C900.841 437.044 899.62 437.626 898.455 438.264C896.929 439.097 895.626 440.207 894.433 441.483C893.49 442.482 892.269 443.176 891.132 444.008C889.329 445.34 887.498 446.672 885.667 447.976C885.445 448.142 885.223 448.281 884.974 448.448C883.032 449.668 881.062 450.889 879.093 452.082C878.483 452.471 877.734 452.665 877.123 453.054C876.18 453.608 875.237 454.219 874.377 454.885C872.685 456.161 871.021 457.465 869.44 458.853C868.58 459.602 867.858 460.517 867.11 461.405C864.946 463.986 862.838 466.622 860.646 469.174C858.455 471.699 856.458 474.363 854.987 477.36C854.044 479.247 853.323 481.272 852.768 483.325C852.158 485.545 851.416 494.753 851 497C852.72 497.749 854.641 497.084 856.5 497.5C856.5 502.767 856.874 490.29 857.04 489.541C857.65 486.71 858.372 483.88 859.259 481.133Z" fill="#F9F9F9"/>
            <path d="M852.5 458C856.042 454.5 856.297 455.086 859.5 453C862.703 450.914 865.418 449.252 868.081 446.977C868.691 446.45 869.468 446.061 870.161 445.59C870.771 445.173 871.354 444.729 871.992 444.369C872.547 444.036 873.102 443.731 873.712 443.509C874.821 443.092 875.987 442.732 877.124 442.343C877.263 442.288 877.401 442.26 877.484 442.149C878.372 441.039 879.759 440.762 880.952 440.234C883.116 439.291 884.863 437.821 886.361 436.017C886.638 435.684 887.082 435.462 887.498 435.268C888.858 434.574 890.161 433.825 891.271 432.715C891.715 432.271 892.297 431.938 892.824 431.577C894.683 430.273 896.514 428.997 898.372 427.693C899.399 426.972 900.369 426.222 901.396 425.529C903.282 424.252 905.224 423.004 907.082 421.7C908.469 420.728 909.773 419.646 910.716 418.176C911.132 417.538 911.77 417.038 912.325 416.455C913.213 415.54 914.128 414.652 915.044 413.736C915.182 413.598 915.349 413.487 915.377 413.32C915.404 413.126 915.404 412.821 915.266 412.71C915.155 412.599 914.794 412.571 914.655 412.682C914.406 412.848 914.1 413.126 914.045 413.403C913.851 414.763 912.824 415.346 911.77 415.79C910.328 416.4 909.107 417.205 908.358 418.647C908.22 418.925 907.693 419.064 907.332 419.202C906.666 419.508 905.945 419.702 905.335 420.063C903.421 421.172 901.535 422.338 899.621 423.42C898.372 424.114 897.068 424.696 895.82 425.39C894.96 425.889 894.211 426.583 893.324 427.083C892.048 427.804 890.716 428.442 889.412 429.136C889.135 429.275 888.83 429.469 888.636 429.691C886.25 432.465 883.171 434.269 879.926 435.823C879.426 436.045 878.844 436.239 878.317 436.211C876.625 436.1 875.182 436.822 873.684 437.432C872.88 437.765 872.02 437.987 871.271 438.403C869.079 439.569 866.943 440.817 864.78 442.038C864.53 442.177 864.336 442.371 864.086 442.482C862.117 443.342 860.508 444.702 858.899 446.061C858.011 446.783 857.013 447.338 856.042 448.004C853.976 449.434 851.265 450.735 849.5 452.5C849 453 848.287 453.664 847.926 453.914C847.704 454.08 849.72 455.333 848 455C847.723 459.55 846.194 463.514 846.056 468.065C846.222 467.732 846.389 467.399 846.61 467.093C847.942 465.068 848.958 461.5 852.5 458Z" fill="#F9F9F9"/>
            <path d="M1062.48 458.658C1059.9 456.522 1057.21 454.441 1054.21 452.915C1052.55 452.055 1050.74 451.416 1049.08 450.556C1047.53 449.752 1046.06 448.808 1044.53 447.948C1043.81 447.532 1043.06 447.227 1042.34 446.838C1040.92 446.089 1039.51 445.312 1038.12 444.507C1037.48 444.147 1036.85 443.758 1036.24 443.342C1035.52 442.87 1034.82 442.315 1034.1 441.844C1033.6 441.539 1033.07 441.206 1032.52 441.039C1030.94 440.54 1029.36 440.04 1027.91 439.18C1027.25 438.792 1026.44 438.625 1025.72 438.348C1023.48 437.543 1021.2 436.711 1018.96 435.906C1018.62 435.767 1018.26 435.518 1017.93 435.518C1015.27 435.573 1013.35 433.853 1011.41 432.521C1010 431.55 1008.77 430.246 1007.22 429.385C1006.86 429.191 1006.5 428.914 1006.11 428.858C1004.97 428.692 1004.2 428.109 1003.45 427.277C1003 426.777 1002.23 426.611 1001.76 426.111C1000.09 424.391 998.483 422.615 996.819 420.895C996.653 420.701 996.431 420.562 996.236 420.423C996.098 420.618 995.904 420.784 995.876 420.978C995.626 422.643 994.544 423.892 993.851 425.334C993.379 426.333 992.519 427.193 991.77 428.054C990.827 429.191 989.856 430.301 988.858 431.383C988.469 431.799 987.915 432.105 987.443 432.465C987.082 432.743 986.75 433.048 986.389 433.298C985.03 434.158 983.92 435.351 982.561 436.156C980.425 437.432 978.095 438.431 975.792 439.43C974.544 439.957 973.185 440.345 971.853 440.595C971.243 440.706 970.522 440.373 969.856 440.234C969.024 440.068 968.913 440.179 968.941 441.039C968.969 442.954 968.608 444.729 967.554 446.422C966.833 447.587 966.222 448.725 964.974 449.391C964.808 449.474 964.613 449.779 964.641 449.974C964.669 451.472 964.142 452.97 964.974 454.441C965.362 455.135 965.446 456.022 965.612 456.827C965.917 458.187 966.25 459.519 967.166 460.628C967.36 460.85 967.415 461.211 967.526 461.516C967.72 462.071 967.831 462.709 968.109 463.209C968.969 464.763 969.218 466.511 969.634 468.203C970.189 470.478 970.661 472.809 971.382 475.029C972.186 477.443 972.186 479.912 972.353 482.382C972.408 483.298 972.491 484.213 972.436 485.129C972.381 486.322 972.214 487.487 972.103 488.653C971.992 489.596 971.826 490.567 971.77 491.511C971.659 492.981 971.521 494.452 971.521 495.922C971.521 496.422 971.576 496.893 971.632 497.393C991 496.5 1008.56 496.389 1029.5 496.5C1035.88 496.5 1049.12 495.367 1055.5 495.922C1059.11 496.2 1077.89 496.2 1081.5 495.922C1084.5 475.029 1079 472 1066.56 462.848C1065.97 462.182 1065.36 461.544 1064.86 460.823C1064.25 459.907 1063.31 459.324 1062.48 458.658Z" fill="black"/>
            <path d="M853.656 473.614C855.293 470.7 857.456 468.287 859.481 465.706C860.951 463.875 862.588 462.182 864.197 460.462C864.835 459.796 865.584 459.241 866.25 458.631C866.971 457.992 867.775 457.41 868.413 456.688C869.911 454.913 871.798 453.692 873.767 452.582C874.155 452.36 874.516 452.055 874.904 451.777C875.21 451.555 875.459 451.278 875.764 451.083C878.788 449.224 881.839 447.421 884.807 445.479C887.997 443.425 891.049 441.206 893.712 438.486C894.516 437.682 895.487 437.044 896.458 436.433C899.703 434.408 903.254 432.937 906.611 431.106C907.72 430.495 908.663 429.524 909.773 428.914C911.687 427.859 912.38 425.723 914.045 424.447C914.211 424.336 914.35 424.058 914.35 423.864C914.544 421.949 915.82 420.923 917.373 420.09C918.039 419.73 918.539 419.091 919.121 418.564C919.177 418.509 919.232 418.37 919.204 418.315C918.705 417.621 918.233 416.872 917.623 416.289C917.152 415.817 916.68 416.372 916.292 416.677C915.598 417.26 914.932 417.926 914.267 418.536C913.989 418.786 913.795 419.147 913.462 419.286C911.742 420.146 910.688 421.672 909.523 423.115C909.329 423.364 909.135 423.642 908.857 423.808C906.472 425.307 904.086 426.777 901.701 428.276C901.534 428.387 901.368 428.47 901.229 428.581C898.733 430.939 895.654 432.521 892.963 434.602C892.519 434.935 892.131 435.323 891.715 435.712C890.577 436.794 889.44 437.848 887.942 438.486C887.443 438.708 886.971 439.041 886.583 439.43C884.696 441.344 882.283 442.371 880.008 443.675C878.455 444.563 876.818 445.062 875.21 445.728C873.684 446.367 872.269 447.199 870.799 447.976C870.466 448.142 870.133 448.364 869.911 448.642C867.11 451.944 863.614 454.469 860.175 456.994C856.735 459.491 853.85 462.487 851.021 465.54C849.44 467.343 848.191 469.507 847.137 471.783C846.721 472.698 846.333 473.614 846 474.53C844.375 479 841.5 488.5 840 498C840.666 498.527 847.279 497.556 848 498C848.388 496.085 849.467 484.851 849.883 482.909C850.549 479.579 851.964 476.583 853.656 473.614Z" fill="#F9F9F9"/>
            <path d="M962.006 338.875C961.202 338.542 960.619 338.959 959.981 339.375C959.759 339.514 959.426 339.43 959.121 339.458C959.177 339.125 959.121 338.598 959.315 338.487C959.981 338.126 960.758 337.627 961.451 337.655C962.367 337.71 963.421 337.488 964.197 338.293C964.336 338.431 964.697 338.376 964.946 338.431C964.891 338.182 964.891 337.932 964.78 337.682C964.697 337.488 964.419 337.322 964.392 337.127C964.336 336.905 964.364 336.572 964.503 336.406C964.641 336.239 964.974 336.184 965.224 336.184C965.362 336.184 965.529 336.406 965.695 336.461C966 336.572 966.361 336.6 966.666 336.683C966.666 336.323 966.694 335.99 966.694 335.629C966.666 335.102 966.611 334.547 966.555 334.02C966.472 333.076 966.389 332.105 966.306 331.162C966.278 330.968 966.25 330.773 966.278 330.607C966.306 330.468 966.444 330.329 966.528 330.191C966.611 330.302 966.694 330.385 966.749 330.496C967.193 331.301 967.609 332.105 968.053 332.91C968.192 333.187 968.469 333.52 968.414 333.742C968.164 335.074 968.941 336.156 969.135 337.377C969.218 337.96 969.662 338.098 970.189 337.904C970.91 337.627 971.659 337.405 972.297 336.989C972.741 336.711 973.046 336.212 973.324 335.74C973.684 335.13 973.989 334.824 974.738 335.241C975.487 335.629 976.014 335.379 976.403 334.63C977.235 333.049 978.622 332.41 980.314 332.188C981.479 332.022 982.727 332.05 983.726 331.245C983.837 331.162 984.003 331.051 984.087 331.079C985.446 331.467 986.805 330.579 988.192 331.217C989.329 331.744 990.55 331.994 991.743 332.41C992.63 332.716 992.686 333.021 992.076 333.659C991.521 334.242 990.855 334.713 990.522 335.574C990.245 336.239 989.413 336.212 988.802 336.045C988.026 335.823 987.304 335.712 986.555 336.156C986.028 336.489 985.474 336.295 985.057 335.795C984.669 335.324 984.225 335.352 983.698 335.546C982.145 336.101 980.508 336.489 979.038 337.238C978.15 337.682 977.346 338.598 976.847 339.486C976.236 340.596 975.959 341.9 975.598 343.148C975.543 343.37 975.737 343.703 975.82 343.981C976.014 343.814 976.264 343.676 976.375 343.454C976.597 343.037 976.708 342.593 976.902 342.177C978.428 339.292 980.924 337.932 984.114 338.015C985.168 338.043 986.25 338.598 987.277 338.959C987.443 339.014 987.526 339.375 987.637 339.569C987.415 339.597 987.166 339.708 986.999 339.625C985.557 338.848 984.031 339.014 982.533 339.181C981.174 339.319 980.175 340.152 979.204 341.012C979.066 341.123 979.066 341.428 979.01 341.622C979.204 341.65 979.426 341.761 979.621 341.706C980.508 341.484 981.368 341.178 982.284 341.012C983.837 340.734 985.141 341.345 986.389 342.233C986.528 342.344 986.639 342.538 986.805 342.593C988.248 343.232 988.636 344.591 989.052 345.895C989.524 347.421 988.941 348.837 988.22 350.141C987.082 352.249 985.141 353.276 982.783 353.415C982.2 353.442 981.618 353.22 981.035 353.137C980.702 353.11 980.342 353.137 980.009 353.137C980.148 353.47 980.175 353.942 980.425 354.108C981.396 354.858 982.367 355.662 983.476 356.189C985.085 356.966 986.805 357.494 988.469 358.159C988.664 358.243 988.83 358.409 988.996 358.548C988.775 358.659 988.553 358.825 988.331 358.853C987.97 358.909 987.554 358.964 987.249 358.853C985.64 358.298 983.948 358.132 982.367 357.355C981.451 356.883 980.37 356.661 979.565 355.967C977.984 354.58 976.431 353.165 974.877 351.722C974.572 351.417 974.433 350.918 974.211 350.529C973.268 348.892 972.353 347.255 971.354 345.646C970.827 344.813 970.05 344.147 969.773 343.093C969.69 342.815 968.941 342.704 968.497 342.538C968.414 342.76 968.22 342.982 968.247 343.176C968.497 344.342 968.774 345.507 969.08 346.672C969.468 348.171 969.829 349.697 970.356 351.167C970.799 352.416 971.41 353.609 972.02 354.802C972.852 356.495 973.768 358.132 974.627 359.824C974.766 360.074 974.905 360.296 975.044 360.546C975.515 361.461 976.292 362.238 976.098 363.431C976.042 363.792 976.32 364.236 976.541 364.569C977.179 365.457 977.596 366.4 977.707 367.482C977.762 368.037 978.067 368.537 978.15 369.092C978.234 369.619 978.206 370.174 978.123 370.673C978.039 371.228 977.873 371.755 977.707 372.283C977.457 373.087 977.596 373.809 977.928 374.558C978.566 375.945 979.177 377.332 979.731 378.748C979.926 379.247 979.842 379.857 979.898 380.412C979.593 379.968 979.093 379.552 979.038 379.081C978.872 377.36 977.679 376.195 976.902 374.808C976.514 374.114 976.236 374.142 975.598 374.502C974.988 374.863 974.267 375.085 973.573 375.251C973.324 375.307 972.991 374.946 972.713 374.752C972.963 374.558 973.213 374.28 973.49 374.142C973.851 374.003 974.406 374.114 974.6 373.892C975.071 373.309 975.487 372.616 975.765 371.922C976.042 371.2 976.098 370.396 976.236 369.647C976.292 369.397 976.236 369.119 976.209 368.87C975.987 368.897 975.792 368.925 975.571 368.953C974.406 369.092 973.795 369.813 973.462 370.895C973.379 371.2 973.268 371.506 973.102 371.811C972.602 372.727 971.992 373.032 970.966 372.837C970.383 372.727 969.995 372.837 969.718 373.392C969.44 373.92 969.107 374.419 968.83 374.946C968.691 375.224 968.553 375.584 968.636 375.862C968.885 377.111 969.163 378.387 969.551 379.608C969.745 380.218 969.718 380.579 969.135 380.829C968.663 381.023 968.136 380.69 968.081 380.052C967.942 377.915 967.831 375.751 967.748 373.614C967.72 373.281 967.804 372.976 967.748 372.643C967.582 371.173 967.97 370.424 969.357 370.091C970.55 369.813 971.493 369.258 972.186 368.259C973.13 366.927 973.823 365.596 973.157 363.82C972.852 363.015 972.991 361.988 973.074 361.101C973.13 360.407 972.963 359.88 972.547 359.325C972.103 358.77 971.826 358.076 971.437 357.438C970.883 356.495 970.272 355.551 969.745 354.608C969.468 354.136 969.301 353.609 969.107 353.11C968.83 352.416 968.525 351.75 968.358 351.028C967.859 349.003 966.694 347.116 966.888 344.896C966.971 343.759 966.805 342.621 965.806 341.789C965.446 341.484 965.279 340.929 964.974 340.512C964.336 339.458 963.532 338.487 962.006 338.875ZM979.482 347.421C979.482 349.253 981.063 351.139 982.894 351.334C983.31 351.389 983.809 351.25 984.198 351.084C984.836 350.807 984.863 350.529 984.225 350.196C983.31 349.697 983.199 348.947 983.365 348.087C983.726 346.284 984.281 345.868 986.333 345.812C986.555 345.812 986.888 345.729 986.916 345.618C986.971 345.396 986.916 345.063 986.777 344.869C985.779 343.592 983.976 343.01 982.561 343.481C980.675 344.147 979.482 345.646 979.482 347.421ZM975.099 340.873C974.822 341.012 974.655 341.095 974.489 341.206C973.13 342.039 972.63 344.397 973.518 345.729C973.657 345.951 973.989 346.062 974.239 346.201C974.35 345.923 974.544 345.646 974.516 345.368C974.461 343.981 974.267 342.593 975.127 341.373C975.238 341.262 975.127 341.067 975.099 340.873Z" fill="black"/>
            <path d="M931.271 340.79C930.106 340.512 928.941 340.29 927.804 339.958C927.554 339.874 927.388 339.541 927.166 339.319C927.388 339.153 927.638 338.986 927.86 338.82C928.165 338.598 928.525 338.404 928.747 338.098C929.136 337.571 929.607 337.349 930.273 337.322C930.744 337.322 931.244 337.183 931.688 337.016C933.296 336.406 934.85 335.74 936.597 336.517C937.707 337.016 938.789 336.378 939.815 336.045C940.675 335.796 941.424 335.74 942.229 336.045C944.475 336.905 946.833 337.433 949.247 337.46C950.523 337.46 951.854 337.322 953.047 336.878C953.99 336.517 954.046 335.352 954.101 334.353C954.156 333.354 954.267 332.383 954.406 331.384C954.406 331.328 954.905 331.245 954.933 331.301C955.183 331.744 955.405 332.188 955.543 332.66C955.654 333.049 955.654 333.493 955.738 333.881C955.849 334.38 955.987 334.741 956.653 334.436C957.319 334.131 957.513 334.63 957.374 335.157C957.125 336.128 956.792 337.1 956.459 338.071C956.403 338.237 956.265 338.431 956.098 338.459C954.905 338.82 954.517 339.874 954.018 340.845C953.907 341.04 953.74 341.345 953.602 341.345C952.52 341.345 951.799 342.15 950.855 342.482C949.968 342.788 949.912 342.871 950.079 343.814C950.245 344.896 950.412 346.006 950.439 347.088C950.495 349.253 949.857 351.278 949.108 353.276C948.664 354.441 948.331 355.634 947.943 356.828C947.86 357.077 947.776 357.355 947.638 357.605C947.554 357.715 947.36 357.771 947.222 357.826C947.194 357.715 947.083 357.549 947.111 357.466C947.222 357.077 947.36 356.689 947.499 356.273C948.331 353.886 949.274 351.528 949.274 348.947C949.274 348.587 949.413 348.226 949.441 347.865C949.441 347.727 949.358 347.56 949.302 347.394C949.163 347.505 948.969 347.588 948.941 347.727C948.692 348.615 948.525 349.53 948.22 350.39C947.971 351.112 947.527 351.778 947.194 352.471C947.027 352.804 946.833 353.137 946.75 353.47C946.528 354.525 945.89 355.274 945.141 355.995C944.586 356.522 944.087 357.188 943.477 357.66C942.034 358.77 940.315 359.158 938.539 359.242C938.4 359.242 938.262 359.075 938.095 358.992C938.206 358.881 938.317 358.714 938.484 358.659C939.676 358.187 940.869 357.743 942.062 357.272C942.312 357.161 942.589 357.05 942.756 356.855C943.976 355.385 945.141 353.859 946.057 352.138C946.168 351.944 946.195 351.694 946.195 351.472C946.251 350.751 945.973 350.557 945.28 350.807C944.004 351.306 942.756 352 941.452 352.277C939.954 352.61 938.4 352.555 937.208 351.306C937.069 351.167 937.041 350.918 936.958 350.751C937.124 350.696 937.291 350.585 937.457 350.612C938.29 350.668 939.122 350.779 939.926 350.779C940.509 350.779 941.119 350.696 941.701 350.585C941.84 350.557 941.951 350.363 942.09 350.252C941.951 350.085 941.812 349.863 941.646 349.808C941.396 349.724 941.091 349.808 940.842 349.808C939.177 349.78 937.568 349.447 936.514 348.06C935.183 346.312 934.24 344.425 935.599 342.205C935.682 342.039 935.821 341.872 935.821 341.706C935.821 341.511 935.738 341.262 935.627 341.123C935.571 341.04 935.238 341.095 935.155 341.178C934.767 341.622 934.267 342.039 934.101 342.566C933.768 343.648 933.602 344.813 933.352 345.923C933.324 346.062 933.158 346.201 933.047 346.312C932.964 346.201 932.853 346.09 932.825 345.979C932.769 345.396 932.686 344.785 932.742 344.203C932.825 343.287 933.019 342.372 933.185 341.484C933.296 340.818 933.047 340.54 932.381 340.568C932.02 340.596 931.632 340.568 931.271 340.568C931.299 340.679 931.271 340.734 931.271 340.79ZM941.119 347.505C941.452 347.505 941.757 347.532 942.09 347.505C942.284 347.477 942.561 347.366 942.645 347.199C942.7 347.088 942.506 346.839 942.395 346.672C942.312 346.561 942.173 346.506 942.062 346.423C941.036 345.479 940.925 344.203 941.701 343.065C942.339 342.15 943.588 341.955 944.781 342.566C945.03 342.677 945.335 342.704 945.585 342.76C945.419 342.51 945.28 342.205 945.058 342.066C944.753 341.872 944.392 341.761 944.032 341.733C943.033 341.622 942.007 341.456 941.008 341.511C940.12 341.539 939.177 341.484 938.456 342.261C937.319 343.481 937.541 344.758 938.123 346.117C938.706 347.394 939.843 347.616 941.119 347.505Z" fill="black"/>
            <path d="M944.863 390.041C945.085 388.265 946.888 386.35 948.58 385.989C949.745 385.767 950.938 385.601 952.131 385.407C952.492 385.351 952.908 385.351 953.185 385.157C954.433 384.38 955.82 384.214 957.263 384.047C958.678 383.881 960.037 383.52 961.479 383.465C963.449 383.381 965.196 384.075 966.999 384.602C968.137 384.935 969.246 385.435 970.411 385.74C972.159 386.184 973.574 387.183 975.072 388.098C975.737 388.487 976.458 388.847 977.207 389.014C979.427 389.541 981.202 390.901 983.033 392.094C983.282 392.26 983.449 392.593 983.56 392.871C983.588 392.954 983.199 393.315 983.116 393.287C981.979 392.704 980.564 392.76 979.593 391.733C979.454 391.567 979.177 391.428 978.983 391.428C976.542 391.622 974.434 390.762 972.519 389.402C971.022 388.348 969.357 387.932 967.637 387.516C965.363 386.961 963.144 385.989 960.73 386.267C958.234 386.544 955.682 386.517 953.268 387.432C951.992 387.932 950.55 387.932 949.218 388.265C948.081 388.542 946.805 388.598 946.223 389.902C946.139 390.096 945.945 390.29 945.751 390.401C945.529 390.512 945.168 390.623 945.002 390.54C944.919 390.512 944.891 390.151 944.863 390.041Z" fill="black"/>
            <path d="M900.952 341.817C901.285 342.177 901.701 342.482 901.95 342.899C902.921 344.563 903.948 346.201 904.724 347.976C905.529 349.808 906.028 351.778 906.666 353.664C906.805 354.108 906.999 354.525 907.11 354.969C907.36 355.801 906.944 356.633 906.195 356.855C905.446 357.077 904.724 356.55 904.53 355.607C904.502 355.44 904.53 355.246 904.502 355.052C904.502 354.969 904.419 354.83 904.364 354.83C904.225 354.858 904.059 354.885 904.003 354.969C903.892 355.163 903.781 355.385 903.809 355.607C903.837 355.884 903.92 356.189 904.086 356.384C905.557 358.104 905.862 360.49 907.387 362.21C908.22 363.154 908.719 364.402 909.301 365.568C909.412 365.79 909.246 366.151 909.19 366.428C908.913 366.345 908.608 366.234 908.358 366.123C908.275 366.095 908.247 365.984 908.192 365.901C907.054 364.069 905.889 362.238 904.78 360.407C904.558 360.074 904.502 359.63 904.364 359.242C904.281 358.992 904.281 358.631 904.086 358.465C902.699 357.244 902.644 355.468 902.006 353.886C901.451 352.499 900.98 351.139 901.035 349.641C901.035 349.391 900.896 349.114 900.73 348.864C899.981 347.754 900.425 346.45 900.147 345.257C900.064 344.841 900.369 344.425 900.896 344.508C901.729 344.619 901.618 344.175 901.396 343.703C901.174 343.204 900.924 342.704 900.674 342.205C900.647 342.122 900.591 342.011 900.619 341.955C900.702 341.9 900.813 341.9 900.952 341.817ZM902.2 350.668C902.533 351.722 902.866 352.86 903.226 353.997C903.282 354.136 903.587 354.303 903.781 354.275C903.975 354.247 904.253 354.025 904.253 353.859C904.281 353.415 904.281 352.943 904.142 352.527C903.837 351.667 903.421 350.834 903.06 349.974C903.005 349.808 902.866 349.697 902.783 349.53C902.616 349.669 902.45 349.808 902.339 349.974C902.228 350.168 902.256 350.39 902.2 350.668Z" fill="black"/>
            <path d="M965.363 398.503C964.725 398.392 964.087 398.254 963.449 398.198C963.005 398.17 962.533 398.226 962.117 398.365C961.451 398.587 960.924 398.559 960.619 397.837C960.314 397.171 959.815 397.116 959.149 397.088C957.79 397.005 956.569 396.505 955.848 395.201C955.571 394.702 955.238 394.591 954.711 394.785C954.378 394.924 953.934 395.118 953.712 395.007C953.241 394.757 952.852 394.314 952.492 393.925C952.381 393.814 952.353 393.537 952.436 393.426C952.492 393.315 952.741 393.231 952.908 393.231C954.128 393.398 955.321 393.648 956.542 393.814C957.401 393.925 958.289 393.953 959.149 393.981C960.342 394.036 961.507 394.036 962.7 394.064C962.977 394.064 963.254 394.119 963.504 394.203C964.697 394.646 965.945 394.563 967.166 394.702C968.691 394.841 970.189 395.368 971.687 395.729C971.854 395.784 972.103 396.034 972.103 396.2C972.103 396.339 971.854 396.616 971.687 396.644C970.8 396.866 970.051 397.477 969.052 397.31C968.608 397.255 968.026 397.504 967.665 397.782C966.999 398.392 966.25 398.642 965.363 398.503Z" fill="black"/>
            <path d="M956.32 375.751C954.073 375.973 952.436 375.029 951.327 373.087C950.411 371.533 950.411 371.533 949.274 372.865C949.163 373.004 949.052 373.17 948.886 373.254C948.83 373.281 948.553 373.115 948.553 373.059C948.664 372.616 948.664 372.061 948.941 371.755C949.884 370.618 950.134 369.175 950.772 367.926C951.41 366.705 952.159 365.54 952.852 364.347C952.936 364.18 953.074 364.014 953.213 363.959C953.435 363.848 953.685 363.82 953.934 363.737C953.962 363.959 954.045 364.208 953.962 364.375C953.601 365.179 953.241 365.984 952.797 366.733C951.66 368.648 951.743 370.368 953.185 372.061C953.685 372.671 954.156 373.309 954.739 373.809C955.127 374.142 955.682 374.28 956.181 374.447C956.736 374.613 957.346 374.641 957.901 374.835C958.067 374.891 958.178 375.279 958.178 375.501C958.178 375.612 957.845 375.779 957.651 375.779C957.207 375.834 956.764 375.779 956.32 375.751Z" fill="black"/>
            <path d="M937.041 393.426C937.069 392.288 937.318 391.317 938.095 390.512C938.262 390.346 938.511 390.262 938.733 390.124C938.844 390.346 939.066 390.595 939.066 390.817C939.066 391.317 938.872 391.816 938.872 392.316C938.872 393.426 939.399 394.314 939.981 395.229C940.619 396.173 941.091 397.227 941.59 398.254C941.701 398.503 941.646 398.864 941.646 399.169C941.368 399.086 940.98 399.114 940.786 398.919C939.787 398.032 938.705 397.171 937.929 396.117C937.429 395.396 937.318 394.341 937.041 393.426Z" fill="black"/>
            <path d="M961.507 368.342C962.311 368.62 963.088 368.786 963.753 369.147C964.669 369.674 964.613 370.534 963.67 371.062C962.893 371.506 962.089 371.977 961.257 372.338C960.952 372.477 960.425 372.366 960.12 372.172C959.676 371.922 959.343 371.811 958.844 371.977C958.594 372.061 958.206 371.866 957.9 371.783C957.984 371.395 958.039 371.006 958.178 370.673C958.261 370.507 958.566 370.451 958.733 370.313C959.26 369.896 959.787 369.425 960.314 369.036C960.702 368.786 961.118 368.592 961.507 368.342Z" fill="black"/>
            <path d="M944.558 332.161C944.115 332.105 943.699 332.105 943.31 331.966C943.061 331.883 942.644 331.55 942.672 331.412C942.728 331.106 942.977 330.69 943.227 330.607C944.087 330.302 944.947 330.08 945.835 329.969C946.694 329.858 947.443 329.719 947.804 328.776C947.915 328.443 948.248 328.193 948.497 327.943C948.664 327.777 948.941 327.721 949.163 327.638C949.274 327.888 949.468 328.11 949.468 328.359C949.496 329.58 948.664 330.44 947.859 331.079C947.138 331.633 946.112 331.828 945.197 332.133C945.002 332.188 944.753 332.133 944.558 332.161Z" fill="black"/>
            <path d="M969.996 321.367C968.997 321.45 967.998 321.561 967 321.645C966.778 321.672 966.528 321.728 966.306 321.7C966.168 321.672 966.029 321.506 965.918 321.423C966.029 321.284 966.112 321.09 966.251 321.062C966.833 320.923 967.416 320.868 967.998 320.757C968.415 320.673 968.831 320.562 969.247 320.452C969.496 320.396 969.746 320.313 970.023 320.23C971.161 319.869 972.27 319.536 973.408 319.147C973.962 318.953 974.489 318.676 975.072 318.509C975.211 318.481 975.46 318.676 975.599 318.842C975.655 318.898 975.516 319.203 975.405 319.286C974.295 319.924 973.186 320.59 972.048 321.145C971.438 321.423 970.745 321.45 970.079 321.617C970.023 321.478 969.996 321.423 969.996 321.367Z" fill="black"/>
            <path d="M991.881 341.178C992.075 341.4 992.38 341.595 992.464 341.844C992.824 342.788 993.212 343.676 993.961 344.397C994.1 344.508 994.239 344.73 994.211 344.869C993.961 345.868 993.684 346.866 993.407 347.865C993.379 347.921 993.212 348.032 993.212 348.004C993.102 347.893 992.935 347.754 992.907 347.616C992.741 346.534 992.464 345.451 992.464 344.369C992.464 343.398 992.047 342.732 991.604 341.983C991.493 341.789 991.576 341.484 991.576 341.234C991.715 341.234 991.798 341.206 991.881 341.178Z" fill="black"/>
            <path d="M979.177 326.389C979.039 326.278 978.872 326.195 978.872 326.112C978.872 325.945 978.955 325.723 979.066 325.668C979.538 325.39 980.037 325.113 980.536 324.891C981.424 324.475 981.951 323.809 982.312 322.893C982.534 322.311 983.033 321.839 983.449 321.367C983.532 321.256 983.921 321.256 984.032 321.367C984.143 321.478 984.198 321.839 984.087 321.95C983.394 322.921 983.255 324.281 981.785 324.725C981.008 324.946 980.37 325.668 979.649 326.14C979.51 326.278 979.344 326.306 979.177 326.389Z" fill="black"/>
            <path d="M915.765 354.219C915.376 354.497 915.127 354.802 914.932 354.774C914.211 354.636 913.49 354.469 912.824 354.192C912.38 353.997 912.242 353.498 912.686 353.193C913.157 352.888 913.851 352.499 914.267 352.666C914.794 352.86 915.182 353.553 915.765 354.219Z" fill="black"/>
            <path d="M958.622 333.714C958.678 333.16 958.705 332.605 958.789 332.077C958.816 331.855 959.01 331.633 959.149 331.411C959.399 331.633 959.815 331.855 959.843 332.105C959.954 333.021 959.981 333.936 959.954 334.852C959.954 335.102 959.621 335.324 959.454 335.546C959.232 335.352 958.899 335.185 958.816 334.935C958.678 334.547 958.733 334.103 958.678 333.714C958.678 333.714 958.65 333.714 958.622 333.714Z" fill="black"/>
            <path d="M987.388 353.581C987.332 353.553 987.11 353.498 987.11 353.47C987.11 353.304 987.166 353.109 987.277 352.999C987.443 352.777 987.665 352.61 987.859 352.416C988.442 351.833 989.024 351.25 989.607 350.696C989.718 350.585 989.94 350.474 990.078 350.529C990.189 350.585 990.328 350.807 990.328 350.945C990.273 351.972 988.525 353.609 987.388 353.581Z" fill="black"/>
            <path d="M963.726 329.22C963.698 329.552 963.726 329.663 963.67 329.747C963.559 329.969 963.421 330.163 963.282 330.385C963.143 330.218 962.894 330.08 962.866 329.885C962.7 328.887 962.561 327.888 962.45 326.889C962.422 326.75 962.561 326.584 962.644 326.417C962.811 326.528 963.088 326.611 963.143 326.75C963.393 327.666 963.587 328.554 963.726 329.22Z" fill="black"/>
            <path d="M970.883 313.237C970.661 313.376 970.411 313.543 970.161 313.654C969.413 313.986 968.636 314.292 967.859 314.569C967.388 314.736 966.888 314.902 966.389 315.013C966.25 315.041 966.056 314.93 965.89 314.874C966.001 314.736 966.056 314.541 966.195 314.486C966.916 314.181 967.637 313.903 968.386 313.626C969.024 313.376 969.662 313.154 970.328 312.96C970.439 312.932 970.55 312.988 970.689 312.988C970.772 313.071 970.827 313.154 970.883 313.237Z" fill="black"/>
            <path d="M914.46 348.476C914.294 348.948 914.211 349.225 914.072 349.419C913.961 349.586 913.739 349.78 913.573 349.78C913.406 349.78 913.212 349.53 913.157 349.364C912.935 348.864 912.741 348.365 912.602 347.838C912.463 347.366 912.963 346.894 913.295 347.172C913.739 347.532 914.1 348.06 914.46 348.476Z" fill="black"/>
            <path d="M944.753 379.857C944.67 380.135 944.642 380.496 944.475 380.634C943.726 381.245 943.477 382.133 943.088 382.937C943.033 383.048 942.894 383.132 942.811 383.215C942.783 383.076 942.728 382.937 942.756 382.826C942.978 381.633 943.505 380.579 944.254 379.663C944.309 379.58 944.503 379.524 944.586 379.552C944.67 379.58 944.697 379.746 944.753 379.857Z" fill="black"/>
            <path d="M917.179 353.47C917.401 353.859 917.734 354.247 917.817 354.691C917.872 354.913 917.54 355.357 917.29 355.44C916.846 355.607 916.402 355.357 916.43 354.858C916.43 354.414 916.68 353.97 916.818 353.526C916.929 353.498 917.068 353.498 917.179 353.47Z" fill="black"/>
            <path d="M911.965 340.207C911.965 340.596 912.381 341.206 911.715 341.178C911.299 341.151 910.911 340.596 910.522 340.263C910.939 339.958 911.327 339.375 911.743 339.375C912.464 339.319 911.882 339.93 911.965 340.207Z" fill="black"/>
            <path d="M915.654 361.073C914.932 361.128 914.294 360.657 914.322 360.185C914.35 359.991 914.6 359.796 914.766 359.602C915.182 359.935 915.598 360.24 915.959 360.601C916.014 360.601 915.737 360.934 915.654 361.073Z" fill="black"/>
            <path d="M961.84 439.596C962.644 439.68 963.477 439.763 964.087 439.818C964.891 439.735 965.502 439.735 966.084 439.596C966.334 439.541 966.722 439.263 966.75 439.069C966.861 437.987 966.889 436.877 966.889 435.795C966.916 434.102 966.14 432.687 965.363 431.245C965.224 430.995 964.974 430.801 964.753 430.606C964.586 430.856 964.392 431.106 964.281 431.383C963.393 433.88 963.227 436.627 961.479 438.819C961.23 439.152 961.257 439.541 961.84 439.596Z" fill="black"/>
            <path d="M960.508 436.544C961.313 436.711 961.479 436.1 961.701 435.518C962.256 433.908 962.783 432.299 963.365 430.69C963.865 429.358 963.726 429.053 962.311 428.609C962.172 428.581 962.061 428.525 961.923 428.498C961.007 428.276 960.758 428.387 960.48 429.275C959.953 430.939 959.454 432.632 958.955 434.297C958.539 435.712 959.038 436.405 960.508 436.544Z" fill="black"/>
        </g>
        <rect x="2" y="2" width="1140" height="494" stroke="black" stroke-width="4"/>
        <path d="M774.943 367.195H771.779V363H763.705V367.184H760.447L760.26 360.141H761.396C761.896 359.68 762.291 358.938 762.58 357.914C762.869 356.891 763.072 355.551 763.189 353.895L763.67 345.938H773.478V360.141H775.248L774.943 367.195ZM765.1 360.141H770.045V348.809H766.951L766.67 353.508C766.475 356.328 765.951 358.539 765.1 360.141ZM786.321 359.508H781.622L780.708 363H777.063L782.395 345.938H785.548L790.915 363H787.235L786.321 359.508ZM782.372 356.637H785.56L783.966 350.555L782.372 356.637ZM811.937 363H808.503V355.699H803.417V363H799.972V345.938H803.417V352.84H808.503V345.938H811.937V363ZM824.486 355.617H819.119V360.141H825.471V363H815.674V345.938H825.447V348.809H819.119V352.84H824.486V355.617ZM723.63 381.938V399H720.173V384.809H717.009L716.774 390.855C716.68 392.848 716.454 394.43 716.095 395.602C715.743 396.766 715.223 397.621 714.536 398.168C713.856 398.715 712.938 398.992 711.782 399H710.938V396.141L711.337 396.105C712.055 396.02 712.571 395.551 712.884 394.699C713.204 393.84 713.403 392.324 713.481 390.152L713.704 381.938H723.63ZM732.758 389.52L735.055 381.938H738.758L734.082 395.648C733.551 397.008 732.976 397.941 732.359 398.449C731.75 398.957 731.015 399.223 730.156 399.246H729.781L728.961 399.199L728.902 396.34C728.98 396.371 729.234 396.387 729.664 396.387C730.101 396.387 730.43 396.289 730.648 396.094C730.875 395.898 731.07 395.461 731.234 394.781L731.398 394.16L726.523 381.938H730.215L732.758 389.52ZM753.452 381.938V399H750.007V392.566C749.093 392.77 748.233 392.871 747.429 392.871C745.569 392.871 744.151 392.402 743.175 391.465C742.198 390.527 741.69 389.176 741.651 387.41V381.938H745.108V387.223C745.108 388.223 745.276 388.938 745.612 389.367C745.956 389.797 746.561 390.012 747.429 390.012C748.265 390.012 749.124 389.91 750.007 389.707V381.938H753.452ZM760.635 381.938V396.141H764.103V381.938H767.549V396.141H770.971V381.938H774.416V399H757.178V381.938H760.635ZM786.942 391.617H781.575V396.141H787.927V399H778.13V381.938H787.903V384.809H781.575V388.84H786.942V391.617ZM802.339 392.039H800.839V399H797.394V381.938H800.839V388.758H801.999L804.964 381.938H809.159L804.987 389.883L809.628 399H805.526L802.339 392.039ZM817.268 389.52L819.565 381.938H823.268L818.592 395.648C818.061 397.008 817.486 397.941 816.869 398.449C816.26 398.957 815.525 399.223 814.666 399.246H814.291L813.471 399.199L813.412 396.34C813.49 396.371 813.744 396.387 814.174 396.387C814.611 396.387 814.94 396.289 815.158 396.094C815.385 395.898 815.58 395.461 815.744 394.781L815.908 394.16L811.033 381.938H814.725L817.268 389.52ZM838.032 399H834.587V384.809H829.525V399H826.079V381.938H838.032V399ZM853.746 381.938V399H850.289V384.809H847.125L846.891 390.855C846.797 392.848 846.57 394.43 846.211 395.602C845.86 396.766 845.34 397.621 844.652 398.168C843.973 398.715 843.055 398.992 841.899 399H841.055V396.141L841.453 396.105C842.172 396.02 842.688 395.551 843 394.699C843.32 393.84 843.52 392.324 843.598 390.152L843.82 381.938H853.746ZM874.675 392.004C874.675 394.293 874.132 396.07 873.046 397.336C871.968 398.602 870.468 399.234 868.546 399.234C866.655 399.234 865.163 398.625 864.07 397.406C862.984 396.188 862.417 394.461 862.37 392.227H860.999V399H857.554V381.938H860.999V389.461H862.37V389.145C862.37 387.605 862.613 386.277 863.097 385.16C863.589 384.035 864.3 383.18 865.23 382.594C866.159 382 867.257 381.703 868.523 381.703C870.421 381.703 871.917 382.352 873.011 383.648C874.105 384.938 874.659 386.75 874.675 389.086V392.004ZM871.218 389.145C871.218 387.605 870.999 386.461 870.562 385.711C870.124 384.961 869.445 384.586 868.523 384.586C867.609 384.586 866.933 384.949 866.495 385.676C866.058 386.395 865.831 387.492 865.816 388.969V392.004C865.816 393.496 866.038 394.598 866.484 395.309C866.929 396.012 867.616 396.363 868.546 396.363C869.445 396.363 870.113 396.02 870.55 395.332C870.988 394.637 871.21 393.562 871.218 392.109V389.145ZM726.336 435H722.903V427.699H717.817V435H714.371V417.938H717.817V424.84H722.903V417.938H726.336V435ZM742.085 428.004C742.085 430.293 741.542 432.07 740.456 433.336C739.378 434.602 737.878 435.234 735.956 435.234C734.042 435.234 732.538 434.609 731.445 433.359C730.351 432.102 729.796 430.344 729.781 428.086V425.168C729.781 422.824 730.324 420.996 731.41 419.684C732.495 418.363 734.003 417.703 735.933 417.703C737.831 417.703 739.327 418.352 740.421 419.648C741.515 420.938 742.07 422.75 742.085 425.086V428.004ZM738.628 425.145C738.628 423.605 738.41 422.461 737.972 421.711C737.535 420.961 736.855 420.586 735.933 420.586C735.019 420.586 734.343 420.949 733.906 421.676C733.468 422.395 733.242 423.492 733.226 424.969V428.004C733.226 429.496 733.449 430.598 733.894 431.309C734.339 432.012 735.027 432.363 735.956 432.363C736.855 432.363 737.523 432.02 737.96 431.332C738.398 430.637 738.62 429.562 738.628 428.109V425.145ZM748.963 429V435H745.518V417.938H751.33C753.018 417.938 754.362 418.461 755.362 419.508C756.37 420.555 756.873 421.914 756.873 423.586C756.873 425.258 756.377 426.578 755.385 427.547C754.393 428.516 753.018 429 751.26 429H748.963ZM748.963 426.129H751.33C751.987 426.129 752.495 425.914 752.854 425.484C753.213 425.055 753.393 424.43 753.393 423.609C753.393 422.758 753.209 422.082 752.842 421.582C752.475 421.074 751.983 420.816 751.366 420.809H748.963V426.129ZM764.642 417.938L767.865 430.277L771.076 417.938H775.576V435H772.119V430.383L772.435 423.27L769.025 435H766.681L763.271 423.27L763.587 430.383V435H760.142V417.938H764.642ZM787.668 431.508H782.969L782.055 435H778.411L783.743 417.938H786.895L792.262 435H788.582L787.668 431.508ZM783.719 428.637H786.907L785.313 422.555L783.719 428.637ZM807.003 417.938V435H803.546V420.809H800.382L800.148 426.855C800.054 428.848 799.828 430.43 799.468 431.602C799.117 432.766 798.597 433.621 797.91 434.168C797.23 434.715 796.312 434.992 795.156 435H794.312V432.141L794.71 432.105C795.429 432.02 795.945 431.551 796.257 430.699C796.578 429.84 796.777 428.324 796.855 426.152L797.078 417.938H807.003ZM814.186 424.066H816.225C817.952 424.066 819.327 424.559 820.35 425.543C821.374 426.52 821.885 427.828 821.885 429.469C821.885 431.102 821.385 432.426 820.385 433.441C819.385 434.449 818.061 434.969 816.413 435H810.729V417.938H814.186V424.066ZM814.186 426.926V432.141H816.272C816.944 432.141 817.471 431.891 817.854 431.391C818.245 430.883 818.44 430.234 818.44 429.445C818.44 428.703 818.249 428.102 817.866 427.641C817.491 427.172 816.967 426.934 816.295 426.926H814.186ZM836.861 435H833.427V427.699H828.341V435H824.896V417.938H828.341V424.84H833.427V417.938H836.861V435ZM845.989 425.52L848.286 417.938H851.989L847.313 431.648C846.782 433.008 846.208 433.941 845.59 434.449C844.981 434.957 844.247 435.223 843.387 435.246H843.012L842.192 435.199L842.133 432.34C842.212 432.371 842.465 432.387 842.895 432.387C843.333 432.387 843.661 432.289 843.88 432.094C844.106 431.898 844.301 431.461 844.465 430.781L844.63 430.16L839.755 417.938H843.446L845.989 425.52ZM871.968 428.004C871.968 430.293 871.425 432.07 870.34 433.336C869.261 434.602 867.761 435.234 865.84 435.234C863.949 435.234 862.457 434.625 861.363 433.406C860.277 432.188 859.711 430.461 859.664 428.227H858.293V435H854.847V417.938H858.293V425.461H859.664V425.145C859.664 423.605 859.906 422.277 860.39 421.16C860.883 420.035 861.593 419.18 862.523 418.594C863.453 418 864.55 417.703 865.816 417.703C867.715 417.703 869.211 418.352 870.304 419.648C871.398 420.938 871.953 422.75 871.968 425.086V428.004ZM868.511 425.145C868.511 423.605 868.293 422.461 867.855 421.711C867.418 420.961 866.738 420.586 865.816 420.586C864.902 420.586 864.226 420.949 863.789 421.676C863.351 422.395 863.125 423.492 863.109 424.969V428.004C863.109 429.496 863.332 430.598 863.777 431.309C864.222 432.012 864.91 432.363 865.84 432.363C866.738 432.363 867.406 432.02 867.843 431.332C868.281 430.637 868.504 429.562 868.511 428.109V425.145ZM747.288 464.004C747.288 466.293 746.745 468.07 745.66 469.336C744.581 470.602 743.081 471.234 741.16 471.234C739.245 471.234 737.742 470.609 736.648 469.359C735.554 468.102 734.999 466.344 734.984 464.086V461.168C734.984 458.824 735.527 456.996 736.613 455.684C737.699 454.363 739.206 453.703 741.136 453.703C743.035 453.703 744.531 454.352 745.624 455.648C746.718 456.938 747.273 458.75 747.288 461.086V464.004ZM743.831 461.145C743.831 459.605 743.613 458.461 743.175 457.711C742.738 456.961 742.058 456.586 741.136 456.586C740.222 456.586 739.546 456.949 739.109 457.676C738.671 458.395 738.445 459.492 738.429 460.969V464.004C738.429 465.496 738.652 466.598 739.097 467.309C739.542 468.012 740.23 468.363 741.16 468.363C742.058 468.363 742.726 468.02 743.163 467.332C743.601 466.637 743.824 465.562 743.831 464.109V461.145ZM760.764 456.809H756.545V471H753.088V456.809H748.94V453.938H760.764V456.809ZM768.673 464.039H767.173V471H763.728V453.938H767.173V460.758H768.333L771.298 453.938H775.494L771.322 461.883L775.962 471H771.861L768.673 464.039ZM781.657 465V471H778.211V453.938H784.024C785.711 453.938 787.055 454.461 788.055 455.508C789.063 456.555 789.567 457.914 789.567 459.586C789.567 461.258 789.071 462.578 788.079 463.547C787.086 464.516 785.711 465 783.954 465H781.657ZM781.657 462.129H784.024C784.68 462.129 785.188 461.914 785.547 461.484C785.907 461.055 786.086 460.43 786.086 459.609C786.086 458.758 785.903 458.082 785.536 457.582C785.168 457.074 784.676 456.816 784.059 456.809H781.657V462.129ZM796.328 460.066H798.367C800.093 460.066 801.468 460.559 802.492 461.543C803.515 462.52 804.027 463.828 804.027 465.469C804.027 467.102 803.527 468.426 802.527 469.441C801.527 470.449 800.203 470.969 798.554 471H792.871V453.938H796.328V460.066ZM808.363 471H804.917V453.938H808.363V471ZM796.328 462.926V468.141H798.414C799.085 468.141 799.613 467.891 799.996 467.391C800.386 466.883 800.582 466.234 800.582 465.445C800.582 464.703 800.39 464.102 800.007 463.641C799.632 463.172 799.109 462.934 798.437 462.926H796.328ZM822.799 456.809H818.581V471H815.124V456.809H810.975V453.938H822.799V456.809ZM830.709 464.039H829.209V471H825.763V453.938H829.209V460.758H830.369L833.334 453.938H837.529L833.357 461.883L837.998 471H833.896L830.709 464.039ZM845.637 461.52L847.934 453.938H851.637L846.962 467.648C846.43 469.008 845.856 469.941 845.239 470.449C844.63 470.957 843.895 471.223 843.036 471.246H842.661L841.84 471.199L841.782 468.34C841.86 468.371 842.114 468.387 842.544 468.387C842.981 468.387 843.309 468.289 843.528 468.094C843.755 467.898 843.95 467.461 844.114 466.781L844.278 466.16L839.403 453.938H843.094L845.637 461.52Z" fill="#F9F9F9"/>
        <path d="M506 241.5C527.5 256 625.5 236 642 252" stroke="#F03535" stroke-width="4"/>
        <path d="M537.893 224H533.028V213.657H525.823V224H520.942V199.828H525.823V209.606H533.028V199.828H537.893V224ZM550.824 210.569L554.078 199.828H559.324L552.7 219.252C551.947 221.178 551.134 222.5 550.259 223.22C549.396 223.939 548.356 224.315 547.138 224.349H546.607L545.445 224.282L545.362 220.231C545.473 220.276 545.832 220.298 546.441 220.298C547.061 220.298 547.526 220.16 547.836 219.883C548.157 219.606 548.433 218.986 548.666 218.023L548.898 217.144L541.992 199.828H547.221L550.824 210.569ZM581.336 214.188H579.029V224H574.148V214.188H571.757L567.955 224H561.879L567.972 210.752L562.145 199.828H568.221L572.156 209.54H574.148V199.828H579.029V209.54H580.954L584.756 199.828H590.816L585.121 210.702L591.081 224H585.005L581.336 214.188ZM611.633 224H606.768V213.657H599.563V224H594.683V199.828H599.563V209.606H606.768V199.828H611.633V224ZM633.944 214.089C633.944 217.332 633.175 219.85 631.636 221.643C630.109 223.436 627.984 224.332 625.261 224.332C622.55 224.332 620.419 223.447 618.87 221.676C617.32 219.894 616.534 217.404 616.512 214.205V210.071C616.512 206.751 617.281 204.161 618.82 202.302C620.358 200.431 622.494 199.496 625.228 199.496C627.918 199.496 630.037 200.415 631.586 202.252C633.136 204.078 633.922 206.646 633.944 209.955V214.089ZM629.046 210.038C629.046 207.858 628.737 206.236 628.117 205.174C627.497 204.111 626.534 203.58 625.228 203.58C623.933 203.58 622.976 204.095 622.356 205.124C621.736 206.142 621.415 207.697 621.393 209.789V214.089C621.393 216.203 621.709 217.763 622.339 218.771C622.97 219.767 623.944 220.265 625.261 220.265C626.534 220.265 627.48 219.778 628.1 218.804C628.72 217.819 629.035 216.297 629.046 214.238V210.038Z" fill="black"/>
        <path d="M682.349 190.912C682.69 189.13 683.261 187.402 684.994 186.597C686.632 185.85 688.505 185.483 690.261 184.927C691.811 186.266 694.135 186.735 695.006 188.886C695.719 190.675 696.242 192.581 696.516 194.509C696.683 195.521 698.116 196.67 696.862 197.508C696.084 198.053 694.704 198.05 693.705 197.814C692.09 197.431 690.525 197.871 688.955 197.986C685.49 198.219 682.688 196.34 682.053 193.192C681.832 192.41 682.186 191.603 682.349 190.912Z" fill="black"/>
        <path d="M760.609 154.914C758.938 153.06 756.613 152.591 755.983 149.768C755.392 147.117 755.205 144.48 755.189 141.803C755.195 140.751 757.272 139.865 758.198 140.408C761.132 142.075 761.507 142.893 761.843 146.618C762.067 149.102 762.386 151.527 761.651 153.946C761.56 154.329 761.103 154.545 760.609 154.914Z" fill="black"/>
        <path d="M858.522 170.316C858.926 168.953 860.732 167.841 861.98 168.056C862.364 168.147 862.658 168.621 862.911 168.924C862.97 169.019 862.857 169.154 862.82 169.308C862.27 172.661 861.453 176.114 861.305 179.481C861.199 181.644 860.939 183.77 860.526 185.859C860.148 187.796 860.866 189.91 859.914 191.872C859.783 192.084 860.153 192.577 860.157 192.902C860.143 193.304 859.958 193.746 859.849 194.206C859.537 193.808 859.13 193.469 858.972 193.107C858.684 191.581 858.319 190.036 858.28 188.487C858.222 187.016 858.853 185.382 858.356 184.05C857.837 182.468 859.006 180.963 858.496 180.032C857.651 178.454 858.688 177.161 858.246 175.598C857.823 173.958 859.29 171.875 858.522 170.316Z" fill="black"/>
        <path d="M881.054 174.596C881.336 172.718 882.273 171.158 881.447 169.504C881.388 169.409 881.864 169.116 882.09 168.846C882.722 170.292 884.825 169.98 885.086 172.31C885.503 176.378 885.377 179.994 883.027 183.408C882.877 183.697 882.592 183.872 882.384 184.066C882.361 183.818 882.339 183.569 882.222 183.379C882.14 183.036 882.078 182.616 881.901 182.331C880.47 179.805 879.88 177.154 881.054 174.596Z" fill="black"/>
        <path d="M930.294 236.484C930.91 235.252 931.739 234.152 932.201 232.885C933.72 228.869 936.107 225.302 938.205 221.586C938.653 220.72 939.527 220.116 940.247 219.477C940.36 219.341 940.704 219.261 940.875 219.22C940.898 219.469 941.074 219.754 941.038 219.907C940.462 221.31 940.614 222.723 939.387 224.134C938.274 225.41 938.014 227.536 937.347 229.323C936.568 231.245 935.575 233.035 934.154 234.238C932.715 235.518 931.795 237.001 930.839 238.638C930.69 238.927 930.405 239.103 930.178 239.373C930.156 239.125 929.962 238.917 930.016 238.687C930.084 238.055 930.325 237.382 930.47 236.769C930.448 236.52 930.371 236.502 930.294 236.484Z" fill="black"/>
        <path d="M859.69 145.152C859.395 146.054 859.4 146.379 859.232 146.745C859.214 146.822 858.716 146.866 858.734 146.789C857.967 145.23 856.72 143.639 856.604 142.072C856.492 140.83 856.299 139.245 856.648 138.112C857.183 136.538 856.533 135.169 856.724 133.674C856.898 132.257 856.515 130.789 856.362 129.376C856.34 129.127 856.24 128.861 856.372 128.649C856.426 128.419 856.671 128.071 856.825 128.108C857.15 128.104 857.824 128.344 857.788 128.498C857.731 131.482 859.47 134.081 859.756 136.985C859.905 138.073 859.804 139.184 859.799 140.236C859.725 141.919 859.691 143.775 859.69 145.152Z" fill="black"/>
        <path d="M921.675 149.78C923.579 150.312 924.225 151.356 923.386 153.183C923.069 153.837 922.386 154.323 922.222 155.014C921.954 156.489 920.393 157.254 919.778 157.109C918.855 156.89 918.11 155.58 917.351 154.671C917.157 154.463 917.13 153.889 917.203 153.582C917.498 152.68 916.205 151.969 917.318 150.693C918.509 149.436 919.604 149.614 920.829 149.58C921.232 149.594 921.444 149.725 921.675 149.78Z" fill="black"/>
        <path d="M948.84 248.329C948.968 247.792 948.986 247.715 949.022 247.562C951.993 243.242 953.92 238.189 958.401 235.037C958.591 234.92 958.839 234.898 959.011 234.857C958.997 235.259 959.214 235.715 959.006 235.909C957.367 238.033 956.017 240.306 954.377 242.429C952.833 244.494 951.307 246.482 949.55 248.416C949.324 248.686 949.156 249.052 948.93 249.322C948.944 248.921 948.899 248.424 948.84 248.329Z" fill="black"/>
        <path d="M860.001 211.741C859.828 213.159 859.569 213.908 858.471 213.405C858.028 213.219 857.471 213.168 856.933 213.041C853.705 212.276 853.723 212.2 855.702 209.67C856.268 208.994 856.68 208.282 857.228 207.682C858.287 206.637 859.594 206.946 859.823 208.378C860.107 209.579 860.029 210.938 860.001 211.741Z" fill="black"/>
    </g>
    <defs>
        <clipPath id="clip0">
            <rect width="1144" height="498" fill="white"/>
        </clipPath>
        <clipPath id="clip1">
            <rect x="605" y="189" width="474" height="308" fill="white"/>
        </clipPath>
        <clipPath id="clip2">
            <rect x="836" y="277" width="258" height="224" fill="white"/>
        </clipPath>
    </defs>
</svg>
