<svg width="1695" height="1059" viewBox="0 0 1695 1059" fill="none" xmlns="http://www.w3.org/2000/svg">
    <path d="M448.957 430.173C446.315 435.523 443.93 440.836 441.251 445.928C454.327 451.402 454.327 451.402 442.983 482.072C449.286 480.392 454.672 479.627 459.584 477.358C486.265 464.406 513.569 452.15 539.225 437.51C556.415 427.739 573.86 419.763 593.536 418.277C609.84 417.009 621.826 409.285 631.251 396.427C638.072 387.343 645.993 378.626 653.4 369.982C654.535 370.606 655.67 371.23 656.805 371.854C655.044 376.031 653.282 380.208 651.521 384.385C645.759 397.246 639.192 409.96 634.236 422.968C632.731 427.109 635.072 432.536 635.471 437.192C640.308 436.243 645.547 436.284 649.725 434.382C657.092 430.979 663.763 426.367 672.376 422.525C663.752 441.029 666.964 458.113 677.502 477.036C682.633 474.475 689.01 471.475 696.596 467.779C699.555 479.402 689.881 483.132 681.707 488.22C688.223 495.41 694.855 494.206 701.709 490.877C708.086 487.877 714.426 484.62 721.023 481.327C721.235 492.03 720.203 501.34 721.735 510.285C724.508 526.123 730.037 530.05 743.928 522.841C767.788 510.289 791.502 496.711 812.763 480.601C836.371 462.587 857.123 441.052 879.413 421.131C884.033 416.81 888.982 412.965 894.589 410.074C850.583 466.852 788.126 504.259 741.813 559.531C772.405 559.374 802.958 562.627 829.46 544.726C854.788 527.777 877.885 506.17 904.714 492.411C958.407 465.15 997.42 422.957 1034.46 377.904C1039.59 371.677 1045.05 365.927 1051.36 358.748C1056.74 368.98 1052.41 373.521 1046.33 378.574C1037.27 386.667 1029.17 395.934 1019.78 405.383C1033.51 413.642 1045.02 411.746 1057.07 410.034C1061.95 409.342 1069.79 411.108 1072.13 414.702C1078.68 423.982 1083.59 421.714 1089.17 414.901C1106.4 394.389 1123.34 373.657 1140.32 353.181C1146.59 345.746 1152.6 338.347 1158.84 330.654C1160.01 331.535 1160.89 332.196 1162.06 333.076C1147.54 352.418 1133.02 371.759 1118.49 391.1C1086.7 432.53 1054.9 473.959 1023.4 515.608C1016.58 524.693 1005.77 533.297 1011.58 546.609C1003.99 553.97 996.659 561.294 987.713 570.157C993.464 571.958 995.735 573.206 997.859 573.428C1007.42 574.426 1007.64 579.632 1004.74 586.85C1000.08 598.246 995.964 609.825 991.596 621.441C992.511 622.358 993.39 623.019 994.049 623.973C998.483 622.034 1003.58 621.049 1007.35 618.156C1027.37 602.485 1048.63 588.208 1066.23 570.263C1099.44 537.009 1130.54 501.7 1162.58 467.566C1165.08 464.855 1168.16 462.585 1170.91 459.839C1171.79 460.499 1172.88 460.867 1173.76 461.527C1171.52 466.034 1169.87 470.981 1167.01 474.791C1145.74 501.897 1124.22 529.04 1102.95 556.146C1099.65 560.542 1097.48 565.561 1095.98 571.535C1160.04 538.088 1223.74 505.741 1295.75 483.994C1286.66 491.83 1279.62 497.542 1273.2 503.951C1270.01 507.284 1268.91 512.415 1266.89 516.629C1272.13 516.67 1277.92 518.728 1282.06 516.569C1294.08 510.934 1305.63 503.797 1317.28 497.429C1321.9 494.94 1326.85 492.929 1331.47 490.44C1332.16 491.65 1333.15 493.081 1333.84 494.291C1315.11 509.78 1295.76 524.572 1277.35 540.537C1251.76 563.021 1227.35 586.386 1202.05 609.09C1191.6 618.428 1181 628.572 1168.51 634.536C1113.64 660.916 1065.7 695.477 1031.4 746.948C1027.29 753.029 1022.38 758.963 1020.21 765.815C1018.38 771.312 1017.49 779.815 1020.35 783.337C1023.2 786.858 1032.58 788.406 1037.56 786.651C1061.49 778.278 1085.28 768.878 1108.73 759.002C1122.55 753.112 1135.89 745.72 1149.71 739.83C1167.96 732.002 1186.28 724.687 1204.72 718.142C1229.38 709.403 1254.34 700.884 1279.37 692.879C1286.62 690.539 1294.57 689.41 1302.16 689.38C1305.56 689.419 1310.25 692.943 1311.49 696.169C1312.59 698.37 1310.02 704.232 1307.38 705.916C1299.47 710.967 1291.22 717.375 1282.5 718.614C1257.14 722.477 1234.93 731.914 1211.7 743.33C1186.48 755.551 1156.11 757.247 1128.29 764.077C1111.11 768.351 1094.25 773.101 1077.47 778.365C1072.96 779.791 1069.44 784.479 1064.53 788.58C1084.85 799.045 1098.52 795.795 1119.05 776.386C1119.49 784.963 1119.81 792.771 1120.21 802.925C1125.78 799.778 1129.59 797.142 1133.84 795.753C1138.13 794.62 1142.85 794.734 1147.51 794.335C1145.27 798.842 1144.42 805.769 1140.76 807.598C1127.12 814.771 1112.83 820.99 1098.46 826.695C1085.56 831.669 1071.86 834.663 1059.25 839.857C1055.04 841.503 1049.94 847.986 1050.01 852.165C1049.82 860.046 1056.89 861.921 1064.07 860.901C1092.14 857.7 1118.56 850.282 1144.69 838.979C1181.12 822.809 1219.41 810.563 1256.94 796.594C1264.89 793.632 1273.2 791.607 1283.55 784.961C1293.89 778.315 1273.84 779.271 1270.69 777.362C1266.7 775.049 1261.98 773.102 1258.65 769.91C1248.94 760.555 1245.88 742.664 1251.97 735.778C1258.97 727.977 1286.85 725.325 1293.04 733.871C1298.2 740.73 1298.67 751.398 1300.2 760.343C1300.89 765.219 1299.53 770.386 1298.72 779.402C1315.72 773.846 1312.5 774.821 1326 769.91C1339.5 765 1339.5 765 1344 763.5C1348.5 762 1363.3 755.388 1366 765.815C1367.83 772.885 1362.5 777.712 1343 784.961C1323.5 792.209 1326.35 792.226 1293.04 802.925C1246.86 817.753 1229.77 826.371 1177.4 848.208C1156.88 856.621 1140.16 875.227 1122.67 890.277C1110.1 901.226 1099.31 913.753 1086.78 926.791C1091.21 926.685 1094.87 926.688 1102.2 926.694C1098.06 930.686 1096.37 933.544 1093.91 934.678C1088.75 936.983 1083.47 938.518 1077.94 940.089C1046.02 949.335 1029.99 970.984 1030.26 1004.19C1030.4 1014.38 1034.5 1021.13 1045.27 1021.44C1054.21 1021.74 1063.37 1021.74 1072.38 1020.73C1105.32 1016.83 1138.41 1012.13 1171.31 1007.98C1177.72 1007.07 1184.14 1006.16 1187.43 1014.6C1190.72 1023.03 1190.09 1029.66 1182.76 1035.16C1173.81 1042.19 1165.31 1048.63 1152.45 1042.86C1143.26 1038.93 1135.64 1042.37 1132.77 1051.68C1128.05 1049.73 1123.25 1045.44 1119.4 1045.99C1081.48 1051.63 1043.41 1056.26 1006.22 1065.2C981.154 1071.12 979.537 1078.16 989.448 1101.88C1000.13 1127.33 1012.49 1151.75 1024.16 1176.8C1025.33 1179.51 1026.47 1181.97 1025.33 1186.84C1021.89 1182.88 1018.19 1178.96 1014.71 1174.74C1004.97 1163.29 994.981 1151.88 986.197 1139.78C977.156 1127.71 965.723 1130.12 954.327 1132.79C945.46 1134.83 944.351 1147.29 953.58 1153.31C963.979 1160.21 975.81 1164.29 986.87 1170.31C991.412 1172.81 995.109 1176.74 999.503 1180.04C993.971 1179.78 988.292 1180.32 983.383 1178.93C976.827 1176.98 970.895 1172.06 964.448 1170.88C957.488 1169.78 949.939 1171.9 942.721 1172.66C933.194 1173.75 923.41 1176.71 914.141 1175.93C890.329 1174.08 866.956 1171.64 845.549 1186.72C832.939 1195.58 833.854 1196.5 841.025 1210.14C851.086 1229.39 863.827 1241.72 886.981 1242.62C895.151 1243.03 902.584 1249.31 910.605 1252.36C928.882 1259.45 947.378 1266.24 965.912 1273.3C973.933 1276.35 982.138 1278.85 989.792 1283C992.648 1284.68 993.634 1289.78 995.427 1293.19C991.836 1293.7 987.914 1295.57 984.911 1294.68C962.164 1287.44 939.894 1279.87 917.368 1272.34C910.482 1269.91 903.596 1267.49 896.197 1265.14C885.013 1278.51 885.437 1299.91 864.915 1306.49C869.968 1310.75 874.399 1314.31 880.33 1319.23C870.839 1322.41 856.845 1319.68 860.608 1335.12C862.58 1343.48 866.091 1351.62 869.272 1361.11C855.932 1366.67 850.755 1381.81 848.105 1398.15C846.118 1409.95 843.654 1422.08 842.986 1433.96C841.986 1449.02 844.622 1451.01 859.606 1451.5C861.695 1451.46 863.6 1451.98 866.787 1452.31C864.328 1457.11 862.201 1460.55 860.11 1464.25C853.506 1476.71 857.823 1485 872.076 1484.02C886.108 1483.34 897.141 1476.27 904.808 1463.93C906.935 1460.48 911.372 1454.88 913.277 1455.39C917.636 1456.61 922.616 1460.35 924.261 1464.57C933.293 1489.46 920.378 1514.6 895.019 1522.13C893.517 1522.6 891.869 1522.05 887.912 1521.83C895.979 1512.3 902.873 1503.73 910.904 1493.95C889.069 1493.13 863.285 1530.82 864.472 1561.28C869.824 1556.6 875.468 1553.96 876.021 1550.48C877.933 1540 886.435 1537.22 893.139 1538.36C899.037 1539.36 904.234 1546.47 908.407 1551.9C909.358 1553.08 906.386 1559.78 903.71 1561.21C899.349 1563.66 893.89 1563.91 888.356 1565.48C885.639 1573.98 890.693 1576.41 898.461 1575.83C915.314 1574.74 932.132 1573.4 948.766 1572.61C970.309 1571.38 971.297 1572.81 966.153 1593.7C965.455 1596.16 964.757 1598.61 963.618 1603.49C985.932 1600.32 1006.96 1597.33 1028 1594.34C1028.51 1596.1 1029.28 1597.83 1029.75 1599.33C1023.41 1602.59 1017.51 1607.09 1010.66 1608.59C982.478 1614.68 953.385 1618.03 925.755 1626.14C904.684 1632.54 884.818 1643.74 865.429 1654.61C853.554 1661.27 853.399 1673.07 861.34 1684.77C863.317 1687.63 866.063 1690.39 866.756 1693.43C870.189 1708.39 880.626 1715.54 894.068 1719.92C896.266 1720.65 898.317 1722.19 900.219 1726.37C895.493 1726.26 890.656 1727.21 886.297 1726C833.879 1712.5 785.399 1724.88 738.67 1747.75C729.141 1752.51 719.208 1758.11 708.728 1759.86C695.207 1762.3 680.698 1763.31 667.034 1761.07C646.41 1757.71 626.301 1750.62 605.824 1746.46C596.41 1744.65 585.968 1744.83 576.185 1745.96C562.555 1747.63 552.263 1743.33 545.604 1731.45C539.31 1720.3 533.457 1708.57 528.117 1696.76C524.203 1687.63 518.381 1683.48 508.232 1683.88C498.889 1684.42 489.291 1683.16 479.583 1682.97C477.972 1680.84 476.362 1678.72 474.715 1676.33C478.563 1673.95 484.097 1672.38 485.455 1669.05C488.391 1662.09 490.668 1654.17 490.197 1647.17C489.288 1637.09 483.798 1629.75 470.974 1631.57C465.588 1632.34 459.948 1629.47 454.306 1628.44C455.814 1620.64 456.844 1614.99 457.874 1609.35C456.482 1608.76 455.347 1608.14 453.919 1607.29C450.693 1610.37 447.246 1613.74 443.763 1616.85C434.79 1612.63 434.79 1612.63 453.858 1590.28C453.456 1589.29 452.981 1587.79 452.102 1587.13C426.361 1566.18 403.226 1539.62 374.036 1525.7C333.347 1506.35 300.542 1476.19 261.502 1455.55C231.837 1440.13 199.898 1428.96 169.206 1415.52C161.954 1412.36 153.603 1408.83 148.588 1403C134.678 1386.13 122.382 1367.71 109.389 1349.93C108.107 1348.27 107.046 1346.33 106.242 1344.35C99.2586 1324.66 92.2753 1304.97 85.7686 1284.95C81.9671 1272.92 83.2212 1261.49 89.4214 1249.88C100.318 1228.95 99.5147 1225.14 80.7304 1210.79C59.2732 1194.21 36.2393 1179.41 15.4422 1161.95C-0.924447 1148.04 -14.5777 1131.13 -29.8077 1116.01C-51.188 1094.44 -73.7049 1074.08 -107.892 1080.24C-109.431 1080.46 -111.299 1080.2 -112.911 1079.91C-113.717 1079.76 -114.339 1079.07 -116.683 1077.3C-114.444 1072.8 -110.631 1068.33 -110.041 1063.27C-109.157 1056.6 -108.711 1048.68 -111.382 1042.78C-112.516 1040.32 -121.785 1041.38 -127.354 1040.86C-134.241 1040.27 -141.092 1039.93 -147.98 1039.34C-148.455 1037.83 -148.893 1036.59 -149.369 1035.08C-143.283 1030.03 -137.198 1024.98 -131.369 1019.96C-123.45 1013.08 -124.288 1007.18 -133.664 1001.96C-140.183 998.437 -146.518 994.363 -152.853 990.289C-146.036 986.703 -139.585 982.383 -132.402 979.53C-109.9 970.313 -105.893 952.465 -121.56 934.27C-138.179 914.902 -153.149 894.252 -166.875 876.828C-150.463 878.162 -130.131 881.296 -109.724 881.277C-66.5293 881.425 -39.5038 848.789 -45.8837 805.713C-47.2323 796.218 -48.8009 787.016 -49.8931 777.485C-50.7287 767.917 -48.7808 759.525 -40.2411 755.17C-33.3551 757.596 -27.3844 759.104 -21.5243 761.675C-18.1549 763.29 -15.4091 766.042 -12.4798 768.244C-16.2177 769.56 -19.9192 771.133 -23.7665 771.68C-25.5619 771.935 -27.576 770.65 -30.8725 769.547C-30.3987 772.883 -30.4014 776.549 -29.8884 776.476C-20.5833 777.511 -11.1325 779.572 -2.11899 778.553C1.98479 777.97 6.64204 772.073 8.84376 767.31C13.8709 756.647 16.3345 744.517 21.6909 734.331C24.1856 729.788 31.8073 728.182 36.7926 724.594C42.218 720.42 49.2551 716.541 52.0805 710.642C66.9405 680.781 82.0934 651.14 93.9133 620.14C105.219 591.045 112.642 560.408 122.263 530.505C126.265 518.156 131.11 506.211 136.797 494.669C138.448 491.555 144.897 490.901 149.368 489.219C149.731 493.618 152.072 499.045 150.128 501.939C125.553 540.772 126.105 587.031 110.833 628.732C109.145 633.422 110.312 639.801 112.067 644.788C115.357 655.054 119.673 665.175 123.476 675.369C124.353 677.862 124.241 680.758 125.815 682.628C130.646 689.011 135.918 694.807 140.969 700.896C146.322 696.209 152.004 691.999 156.77 686.871C162.417 680.571 166.783 672.621 172.722 666.541C180.679 658.081 189.984 659.115 196.352 668.945C204.366 681.158 207.764 694.027 198.705 707.618C195 712.857 191.113 718.645 189.899 724.838C188.943 729.163 190.917 735.689 193.772 739.211C197.579 743.906 202.161 741.161 208.098 738.747C230.636 729.786 233.691 710.765 236.893 690.937C240.389 669.496 252.638 652.572 269.977 640.161C323.311 603.003 360.901 552.635 391.901 496.396C404.19 474.23 420.179 454.157 434.739 433.24C437.123 429.76 441.192 427.088 444.455 424.268C446.87 428.375 448.041 429.256 448.957 430.173ZM1022.39 642.985C1023.82 643.829 1024.99 644.71 1026.46 645.811C1026.56 650.246 1028.13 655.783 1026.26 659.19C1019.18 671.977 1010.42 683.955 1002.75 696.301C999.121 702.053 996.112 708.502 992.81 714.73C998.451 715.762 1001.75 715.031 1004.42 713.604C1061.86 685.027 1115.26 650.214 1159.66 603.591C1172.64 589.967 1186.68 580.119 1204.49 574.709C1209.26 573.247 1213.8 570.246 1218.46 568.014C1214.68 565.408 1212.05 565.259 1209.26 565.916C1178.63 571.314 1148.29 578.765 1117.58 581.817C1074.42 585.592 1047.58 612.18 1022.39 642.985ZM1068.19 438.562C1067.53 437.608 1066.87 436.654 1066.22 435.701C1052.87 443.093 1039.28 450.522 1025.9 457.658C1019.59 461.172 1013.14 465.492 1006.29 466.988C973.605 474.511 958.235 500.779 940.155 524.553C968.131 544.664 991.288 541.899 1006.07 518.856C1012.27 509.074 1019.64 500.173 1026.72 491.052C1039.52 474.312 1050.48 455.737 1067.09 441.86C1067.79 441.237 1067.82 439.661 1068.19 438.562ZM973.569 673.219C990.837 656.63 1006.24 641.615 1024.46 624.366C987.266 631.481 963.403 647.698 973.569 673.219ZM848.585 1243.1C845.423 1257.69 843.069 1270.59 852.407 1277.38C862.001 1284.13 869.74 1272.3 877.328 1266.77C878.977 1265.49 880.041 1263.77 883.158 1259.92C871.622 1254.23 861.477 1249.12 848.585 1243.1ZM1062.96 829.12C1068.68 823.334 1073.74 818.426 1078.8 813.519C1074.55 811.242 1068.84 806.032 1066.68 807.387C1060.63 810.864 1056.23 816.725 1051.46 821.852C1054.35 823.797 1057.5 825.706 1062.96 829.12Z" fill="black"/>
    <path d="M719.698 107.236C710.011 127.461 700.104 147.979 690.417 168.204C675.85 198.286 674.425 193.776 703.979 210.26C732.654 226.084 742.607 242.734 736.322 270.33C734.447 279.236 728.505 288.981 721.466 294.693C700.167 312.379 676.098 310.561 655.484 292.545C652.811 290.307 650.395 288.032 647.722 285.794C622.787 264.989 620.885 260.808 637.319 232.818C661.97 190.832 688.635 150.132 714.422 108.77C715.302 107.598 716.475 106.646 717.648 105.694C718.527 106.355 719.113 106.795 719.698 107.236Z" fill="black"/>
    <path d="M1058.91 957.19C1080.53 952.811 1100.43 947.367 1120.54 945.295C1126.99 944.641 1134.46 953.005 1141.34 957.263C1132.61 969.498 1075.64 969.998 1058.91 957.19Z" fill="black"/>
    <path d="M1463.39 345.255C1470.87 338.957 1478.42 333.172 1485.39 326.946C1488.65 324.127 1490.96 320.133 1494.59 318.047C1498 316.254 1502.47 316.405 1506.32 315.858C1506.9 319.964 1508.58 324.437 1507.52 327.992C1505.28 334.332 1501.97 340.56 1498.05 346.092C1486.75 362.357 1472.69 360.951 1463.39 345.255Z" fill="black"/>
    <path d="M1244.66 946.421C1226.93 943.179 1210.05 940.342 1193.31 936.698C1190.89 936.256 1188.69 931.856 1187.78 929.106C1187.34 927.859 1190.05 924.856 1192.25 923.758C1203.69 917.683 1238.19 928.49 1244.81 940.116C1245.18 940.849 1244.59 942.242 1244.66 946.421Z" fill="black"/>
    <path d="M20.1493 638.733C23.4081 641.412 25.788 643.43 29.4126 646.842C30.9933 639.549 32.4999 633.575 34.4842 625.44C43.6328 640.11 44.2821 653.893 42.0737 667.82C41.6323 670.239 39.1754 673.206 36.9763 674.303C35.7668 674.999 31.7386 672.429 30.9705 670.706C27.1677 660.512 23.8779 650.246 20.1493 638.733Z" fill="black"/>
    <path d="M880.902 289.76C867.756 280.108 867.001 260.057 876.568 253.724C878.474 252.406 882.029 251.639 883.714 252.447C885.728 253.732 887.813 257.362 887.335 259.525C885.79 268.907 883.475 278.399 880.902 289.76Z" fill="black"/>
    <path d="M1109.98 259.317C1121.38 249.32 1132.82 239.579 1145.65 228.594C1145.97 245.566 1129.18 261.826 1113.09 262.802C1112.14 261.628 1110.93 260.49 1109.98 259.317Z" fill="black"/>
    <path d="M492.468 349.643C491.493 329.885 504.226 303.468 519.512 291.349C509.935 312.344 501.091 331.14 492.468 349.643Z" fill="black"/>
    <path d="M177.584 632.603C180.819 616.698 184.019 600.535 187.254 584.63C189.159 585.145 191.027 585.403 192.932 585.918C189.44 601.86 186.204 617.765 182.748 633.964C180.844 633.449 179.232 633.154 177.584 632.603Z" fill="black"/>
    <path d="M523.62 285.268C536.417 270.36 547.601 256.991 558.822 243.878C558.19 256.011 539.048 279.673 523.62 285.268Z" fill="black"/>
    <path d="M562.472 212.467C568.304 203.784 574.136 195.102 579.931 186.163C581.652 187.228 583.117 188.329 584.838 189.393C579.006 198.076 573.211 207.014 567.379 215.697C565.914 214.596 564.193 213.531 562.472 212.467Z" fill="black"/>
</svg>
