<svg width="706" height="253" viewBox="0 0 706 253" fill="none" xmlns="http://www.w3.org/2000/svg">
    <path d="M475.023 194.046C475.57 196.692 476.026 199.338 476.619 201.939C478.124 208.6 479.72 215.216 481.225 221.832C482.366 226.988 482.274 232.098 479.994 236.98C478.9 239.307 477.395 241.36 474.43 241.315C471.603 241.269 470.189 239.353 469.049 237.071C466.495 231.916 466.632 226.532 467.817 221.102C469.642 212.981 471.42 204.859 473.244 196.738C473.472 195.825 473.837 194.913 474.157 194C474.476 194 474.749 194 475.023 194.046Z" fill="black"/>
    <path d="M349.698 141C350.428 145.608 351.34 150.171 351.796 154.779C352.526 162.262 353.21 169.745 353.484 177.228C353.575 180.056 352.663 183.022 351.842 185.805C351.568 186.763 350.063 187.904 349.06 187.95C348.239 187.995 346.962 186.672 346.597 185.714C345.776 183.524 345.001 181.197 345.001 178.961C344.955 166.414 346.324 154.004 348.786 141.684C348.832 141.456 348.969 141.274 349.06 141.091C349.242 141.046 349.47 141.046 349.698 141Z" fill="black"/>
    <path d="M542.357 128.166C543.041 131.405 543.953 134.553 544.409 137.839C545.047 142.173 546.142 146.553 544.546 150.842C544.044 152.211 542.813 153.26 541.946 154.492C541.034 153.306 539.62 152.257 539.301 150.933C538.754 148.561 538.526 145.96 538.754 143.542C539.119 139.481 539.94 135.466 540.624 131.451C540.806 130.356 541.262 129.306 541.627 128.257C541.809 128.211 542.083 128.211 542.357 128.166Z" fill="black"/>
    <path d="M206.647 0C341.271 0 731.321 18.8868 704.702 18.8868C678.083 18.8868 685.189 17.9941 643.058 23.0839C596.736 28.68 606.62 48.5767 602.34 66.4498C601.573 69.6414 600.551 72.8331 599.273 75.8332C596.845 81.3867 590.455 82.7271 585.599 79.0248C579.849 74.5566 576.079 75.6417 573.651 82.4718C572.501 85.7911 571.671 89.1743 570.457 92.4936C570.073 93.5149 568.859 94.217 567.965 95.0469C567.198 94.1532 565.984 93.3234 565.793 92.3021C564.259 85.2805 562.917 78.195 561.448 71.1096C560.873 68.1733 560.17 65.3008 559.275 62.4922C558.445 59.8112 557.422 57.2579 553.781 57.1941C552.758 57.1941 551.672 55.9174 550.714 55.0876C550.139 54.6408 549.191 58.759 545.689 60.158C538.683 58.759 539.443 56.3919 528.877 60.158C518.311 63.9241 517.553 68.0456 514.231 78.7695C509.055 95.5575 507.713 112.665 510.013 130.155C510.716 135.644 510.716 141.198 510.844 146.688C510.908 148.475 510.397 150.262 509.95 151.986C509.375 154.092 508.224 155.624 505.733 155.624C503.177 155.624 501.58 154.156 501.26 151.858C500.749 148.028 500.302 144.07 500.429 140.177C500.685 132.134 501.58 124.091 501.835 115.984C502.027 110.431 500.685 105.069 497.874 100.09C493.337 92.0467 481.006 86.4933 472.955 91.9191C469.186 94.4724 465.735 97.9193 463.052 101.622C455.193 112.473 451.87 125.112 449.57 138.07C446.759 153.837 446.567 169.54 449.826 185.306C450.72 189.583 450.529 194.179 450.145 198.583C449.698 203.435 446.951 205.733 442.478 205.988C437.942 206.18 434.555 204.073 434.236 199.03C433.853 192.775 434.236 186.328 435.322 180.072C438.133 163.986 437.303 148.092 434.236 132.261C434.108 131.751 433.98 131.24 433.789 130.729C430.658 120.005 426.058 117.324 415.068 119.75C411.362 120.58 407.592 121.346 403.823 122.112C399.286 123.069 395.197 121.92 392.322 118.282C389.447 114.644 386.891 110.686 384.399 106.792C381.077 101.494 378.137 95.9405 374.687 90.7063C369.192 82.408 361.908 77.6844 351.366 78.961C343.507 79.9185 336.032 81.642 329.451 86.1103C318.589 93.5149 315.075 104.366 315.65 116.878C315.969 123.452 316.928 129.963 317.247 136.538C317.439 140.432 315.777 142.411 312.838 142.985C308.046 143.943 304.98 141.772 305.107 136.793C305.235 132.006 306.193 127.282 306.641 122.559C307.663 112.601 306.896 102.962 301.082 94.4085C296.354 87.4508 289.517 84.323 281.275 83.8123C278.336 83.6208 276.802 85.472 276.291 87.8338C275.013 93.6426 273.991 99.4513 273.033 105.324C272.202 110.431 271.755 115.665 270.988 120.771C270.796 122.112 270.349 123.452 269.71 124.665C269.391 125.304 268.496 126.133 267.921 126.07C267.346 126.07 266.452 125.112 266.324 124.474C265.685 121.346 265.11 118.218 264.79 115.09C263.64 104.749 262.746 94.3447 261.532 84.0038C261.276 81.7058 260.446 79.4717 259.551 77.3014C258.657 75.0672 257.315 72.2586 254.504 72.7692C252.587 73.1522 250.287 75.1311 249.52 76.9184C247.731 81.1952 246.389 85.7273 245.558 90.2594C242.555 107.941 243.386 125.623 245.75 143.304C246.389 148.411 246.389 153.709 246.134 158.88C245.942 162.901 243.578 164.688 239.936 164.816C236.294 164.944 233.866 163.348 233.355 159.326C232.78 154.73 232.46 149.943 233.035 145.347C236.741 115.601 239.936 59.9462 233.355 57.36C226.774 54.7737 219.721 55.1223 214.353 55.2614C208.984 55.4006 206.648 47.3396 176.526 46.151C146.404 44.9625 153.41 34.9756 137.999 32.1776C125.233 29.8598 116.983 46.151 95.2678 26.5815C91.0508 16.7512 0 18.8868 0 18.8868C0 18.8868 206.967 2.42564 206.647 0Z" fill="black"/>
    <path d="M215.362 21.625H217.659V33H215.362V25.4688L212.011 33H209.706V21.625H212.011V29.1641L215.362 21.625ZM227.846 29.2109C227.789 30.5078 227.424 31.4896 226.752 32.1562C226.08 32.8229 225.132 33.1562 223.908 33.1562C222.622 33.1562 221.635 32.7344 220.947 31.8906C220.265 31.0417 219.924 29.8333 219.924 28.2656V26.3516C219.924 24.7891 220.278 23.5859 220.987 22.7422C221.695 21.8932 222.679 21.4688 223.94 21.4688C225.179 21.4688 226.119 21.8151 226.76 22.5078C227.406 23.2005 227.773 24.1953 227.862 25.4922H225.557C225.536 24.6901 225.411 24.138 225.182 23.8359C224.958 23.5286 224.544 23.375 223.94 23.375C223.325 23.375 222.89 23.5911 222.635 24.0234C222.38 24.4505 222.244 25.1562 222.229 26.1406V28.2891C222.229 29.4193 222.354 30.1953 222.604 30.6172C222.859 31.0391 223.294 31.25 223.908 31.25C224.513 31.25 224.929 31.1042 225.158 30.8125C225.388 30.5156 225.518 29.9818 225.549 29.2109H227.846ZM237.884 33H235.587V23.5391H232.212V33H229.916V21.625H237.884V33ZM248.392 28.3359C248.392 29.862 248.03 31.0469 247.306 31.8906C246.587 32.7344 245.587 33.1562 244.306 33.1562C243.03 33.1562 242.027 32.7396 241.298 31.9062C240.569 31.0677 240.199 29.8958 240.188 28.3906V26.4453C240.188 24.8828 240.55 23.6641 241.274 22.7891C241.998 21.9089 243.004 21.4688 244.29 21.4688C245.556 21.4688 246.553 21.901 247.282 22.7656C248.011 23.625 248.381 24.8333 248.392 26.3906V28.3359ZM246.087 26.4297C246.087 25.4036 245.941 24.6406 245.649 24.1406C245.358 23.6406 244.905 23.3906 244.29 23.3906C243.681 23.3906 243.23 23.6328 242.938 24.1172C242.647 24.5964 242.496 25.3281 242.485 26.3125V28.3359C242.485 29.3307 242.634 30.0651 242.931 30.5391C243.227 31.0078 243.686 31.2422 244.306 31.2422C244.905 31.2422 245.35 31.013 245.642 30.5547C245.933 30.0911 246.082 29.375 246.087 28.4062V26.4297ZM258.407 21.625V33H256.102V23.5391H253.992L253.836 27.5703C253.774 28.8984 253.623 29.9531 253.383 30.7344C253.149 31.5104 252.802 32.0807 252.344 32.4453C251.891 32.8099 251.279 32.9948 250.508 33H249.946V31.0938L250.211 31.0703C250.69 31.013 251.034 30.7005 251.242 30.1328C251.456 29.5599 251.589 28.5495 251.641 27.1016L251.789 21.625H258.407ZM263.195 25.7109H264.554C265.705 25.7109 266.622 26.0391 267.304 26.6953C267.987 27.3464 268.328 28.2188 268.328 29.3125C268.328 30.401 267.994 31.2839 267.328 31.9609C266.661 32.6328 265.778 32.9792 264.679 33H260.89V21.625H263.195V25.7109ZM263.195 27.6172V31.0938H264.586C265.034 31.0938 265.385 30.9271 265.64 30.5938C265.901 30.2552 266.031 29.8229 266.031 29.2969C266.031 28.8021 265.903 28.401 265.648 28.0938C265.398 27.7812 265.049 27.6224 264.601 27.6172H263.195ZM274.89 24.7578C274.89 24.3411 274.772 24.0078 274.538 23.7578C274.309 23.5078 273.996 23.3828 273.601 23.3828C273.252 23.3828 272.965 23.5052 272.741 23.75C272.522 23.9896 272.413 24.3099 272.413 24.7109H270.116C270.116 24.0807 270.267 23.5208 270.569 23.0312C270.877 22.5365 271.299 22.1536 271.835 21.8828C272.371 21.612 272.96 21.4766 273.601 21.4766C274.731 21.4766 275.611 21.7604 276.241 22.3281C276.877 22.8906 277.194 23.6849 277.194 24.7109C277.194 25.2318 277.062 25.7083 276.796 26.1406C276.536 26.5677 276.176 26.9062 275.718 27.1562C276.239 27.375 276.64 27.7083 276.921 28.1562C277.202 28.599 277.343 29.151 277.343 29.8125C277.343 30.8385 277.002 31.651 276.319 32.25C275.637 32.849 274.731 33.1484 273.601 33.1484C272.913 33.1484 272.291 33.0156 271.733 32.75C271.181 32.4844 270.749 32.1042 270.437 31.6094C270.129 31.1146 269.976 30.526 269.976 29.8438H272.28C272.28 30.2344 272.403 30.5677 272.647 30.8438C272.892 31.1198 273.21 31.2578 273.601 31.2578C274.038 31.2578 274.387 31.1198 274.647 30.8438C274.908 30.5677 275.038 30.2109 275.038 29.7734C275.038 29.1849 274.926 28.763 274.702 28.5078C274.478 28.2526 274.153 28.125 273.726 28.125H272.562V26.2734H273.733C274.504 26.2682 274.89 25.763 274.89 24.7578ZM283.131 26.6797L284.662 21.625H287.131L284.014 30.7656C283.66 31.6719 283.277 32.2943 282.866 32.6328C282.459 32.9714 281.97 33.1484 281.397 33.1641H281.147L280.6 33.1328L280.561 31.2266C280.613 31.2474 280.782 31.2578 281.069 31.2578C281.36 31.2578 281.579 31.1927 281.725 31.0625C281.876 30.9323 282.006 30.6406 282.116 30.1875L282.225 29.7734L278.975 21.625H281.436L283.131 26.6797ZM294.56 21.625H296.857V33H294.56V25.4688L291.209 33H288.904V21.625H291.209V29.1641L294.56 21.625ZM295.607 18.625C295.607 19.3177 295.357 19.8776 294.857 20.3047C294.362 20.7318 293.709 20.9453 292.896 20.9453C292.079 20.9453 291.42 20.7318 290.92 20.3047C290.425 19.8776 290.177 19.3177 290.177 18.625H291.795C291.795 18.9479 291.891 19.2005 292.084 19.3828C292.282 19.5599 292.552 19.6484 292.896 19.6484C293.235 19.6484 293.5 19.5599 293.693 19.3828C293.886 19.2005 293.982 18.9479 293.982 18.625H295.607ZM311.598 21.625V33H309.301V28.7109C308.692 28.8464 308.119 28.9141 307.582 28.9141C306.343 28.9141 305.398 28.6016 304.747 27.9766C304.096 27.3516 303.757 26.4505 303.731 25.2734V21.625H306.036V25.1484C306.036 25.8151 306.148 26.2917 306.372 26.5781C306.601 26.8646 307.004 27.0078 307.582 27.0078C308.14 27.0078 308.713 26.9401 309.301 26.8047V21.625H311.598ZM319.957 28.0781H316.379V31.0938H320.613V33H314.082V21.625H320.597V23.5391H316.379V26.2266H319.957V28.0781ZM324.878 29V33H322.581V21.625H326.456C327.581 21.625 328.477 21.974 329.144 22.6719C329.816 23.3698 330.152 24.276 330.152 25.3906C330.152 26.5052 329.821 27.3854 329.159 28.0312C328.498 28.6771 327.581 29 326.409 29H324.878ZM324.878 27.0859H326.456C326.894 27.0859 327.232 26.9427 327.472 26.6562C327.711 26.3698 327.831 25.9531 327.831 25.4062C327.831 24.8385 327.709 24.388 327.464 24.0547C327.219 23.7161 326.891 23.5443 326.48 23.5391H324.878V27.0859ZM340.307 33H338.018V28.1328H334.628V33H332.331V21.625H334.628V26.2266H338.018V21.625H340.307V33ZM348.369 21.625H350.666V33H348.369V25.4688L345.018 33H342.713V21.625H345.018V29.1641L348.369 21.625ZM361.259 21.625V33H358.954V23.5391H356.845L356.689 27.5703C356.626 28.8984 356.475 29.9531 356.236 30.7344C356.001 31.5104 355.655 32.0807 355.197 32.4453C354.743 32.8099 354.131 32.9948 353.361 33H352.798V31.0938L353.064 31.0703C353.543 31.013 353.887 30.7005 354.095 30.1328C354.309 29.5599 354.441 28.5495 354.493 27.1016L354.642 21.625H361.259ZM369.321 30.6719H366.188L365.579 33H363.149L366.704 21.625H368.805L372.383 33H369.93L369.321 30.6719ZM366.688 28.7578H368.813L367.751 24.7031L366.688 28.7578ZM374.641 35.8672L373.461 35.25L373.758 34.6953C374.091 34.0807 374.263 33.4609 374.273 32.8359V31.0781H376.195L376.188 32.6484C376.182 33.2005 376.042 33.7734 375.766 34.3672C375.49 34.9609 375.115 35.4609 374.641 35.8672ZM388.874 28.0781H385.296V31.0938H389.53V33H382.999V21.625H389.514V23.5391H385.296V26.2266H388.874V28.0781ZM399.209 29.2109C399.152 30.5078 398.787 31.4896 398.115 32.1562C397.443 32.8229 396.496 33.1562 395.272 33.1562C393.985 33.1562 392.998 32.7344 392.311 31.8906C391.628 31.0417 391.287 29.8333 391.287 28.2656V26.3516C391.287 24.7891 391.641 23.5859 392.35 22.7422C393.058 21.8932 394.042 21.4688 395.303 21.4688C396.542 21.4688 397.482 21.8151 398.123 22.5078C398.769 23.2005 399.136 24.1953 399.225 25.4922H396.92C396.899 24.6901 396.774 24.138 396.545 23.8359C396.321 23.5286 395.907 23.375 395.303 23.375C394.688 23.375 394.253 23.5911 393.998 24.0234C393.743 24.4505 393.607 25.1562 393.592 26.1406V28.2891C393.592 29.4193 393.717 30.1953 393.967 30.6172C394.222 31.0391 394.657 31.25 395.272 31.25C395.876 31.25 396.292 31.1042 396.522 30.8125C396.751 30.5156 396.881 29.9818 396.912 29.2109H399.209ZM409.24 21.625V33H406.935V23.5391H404.826L404.669 27.5703C404.607 28.8984 404.456 29.9531 404.216 30.7344C403.982 31.5104 403.636 32.0807 403.177 32.4453C402.724 32.8099 402.112 32.9948 401.341 33H400.779V31.0938L401.044 31.0703C401.524 31.013 401.867 30.7005 402.076 30.1328C402.289 29.5599 402.422 28.5495 402.474 27.1016L402.622 21.625H409.24ZM417.302 21.625H419.598V33H417.302V25.4688L413.95 33H411.645V21.625H413.95V29.1641L417.302 21.625ZM434.113 29.2109C434.056 30.5078 433.691 31.4896 433.019 32.1562C432.347 32.8229 431.399 33.1562 430.175 33.1562C428.889 33.1562 427.902 32.7344 427.214 31.8906C426.532 31.0417 426.191 29.8333 426.191 28.2656V26.3516C426.191 24.7891 426.545 23.5859 427.253 22.7422C427.962 21.8932 428.946 21.4688 430.207 21.4688C431.446 21.4688 432.386 21.8151 433.027 22.5078C433.673 23.2005 434.04 24.1953 434.128 25.4922H431.824C431.803 24.6901 431.678 24.138 431.449 23.8359C431.225 23.5286 430.811 23.375 430.207 23.375C429.592 23.375 429.157 23.5911 428.902 24.0234C428.647 24.4505 428.511 25.1562 428.496 26.1406V28.2891C428.496 29.4193 428.621 30.1953 428.871 30.6172C429.126 31.0391 429.561 31.25 430.175 31.25C430.779 31.25 431.196 31.1042 431.425 30.8125C431.654 30.5156 431.785 29.9818 431.816 29.2109H434.113ZM441.737 21.625H444.034V33H441.737V25.4688L438.386 33H436.081V21.625H438.386V29.1641L441.737 21.625ZM454.627 21.625V33H452.323V23.5391H450.213L450.057 27.5703C449.994 28.8984 449.843 29.9531 449.604 30.7344C449.369 31.5104 449.023 32.0807 448.565 32.4453C448.112 32.8099 447.5 32.9948 446.729 33H446.166V31.0938L446.432 31.0703C446.911 31.013 447.255 30.7005 447.463 30.1328C447.677 29.5599 447.809 28.5495 447.862 27.1016L448.01 21.625H454.627ZM459.416 25.7109H460.775C461.926 25.7109 462.843 26.0391 463.525 26.6953C464.207 27.3464 464.548 28.2188 464.548 29.3125C464.548 30.401 464.215 31.2839 463.548 31.9609C462.882 32.6328 461.999 32.9792 460.9 33H457.111V21.625H459.416V25.7109ZM459.416 27.6172V31.0938H460.806C461.254 31.0938 461.606 30.9271 461.861 30.5938C462.121 30.2552 462.252 29.8229 462.252 29.2969C462.252 28.8021 462.124 28.401 461.869 28.0938C461.619 27.7812 461.27 27.6224 460.822 27.6172H459.416ZM474.532 33H472.243V28.1328H468.853V33H466.556V21.625H468.853V26.2266H472.243V21.625H474.532V33ZM485.032 28.3359C485.032 29.862 484.67 31.0469 483.946 31.8906C483.227 32.7344 482.227 33.1562 480.946 33.1562C479.67 33.1562 478.667 32.7396 477.938 31.9062C477.209 31.0677 476.839 29.8958 476.828 28.3906V26.4453C476.828 24.8828 477.19 23.6641 477.914 22.7891C478.638 21.9089 479.644 21.4688 480.93 21.4688C482.196 21.4688 483.193 21.901 483.922 22.7656C484.651 23.625 485.021 24.8333 485.032 26.3906V28.3359ZM482.727 26.4297C482.727 25.4036 482.581 24.6406 482.289 24.1406C481.998 23.6406 481.545 23.3906 480.93 23.3906C480.321 23.3906 479.87 23.6328 479.578 24.1172C479.287 24.5964 479.136 25.3281 479.125 26.3125V28.3359C479.125 29.3307 479.274 30.0651 479.571 30.5391C479.867 31.0078 480.326 31.2422 480.946 31.2422C481.545 31.2422 481.99 31.013 482.282 30.5547C482.573 30.0911 482.722 29.375 482.727 28.4062V26.4297ZM494.647 21.625L496.796 29.8516L498.937 21.625H501.937V33H499.632V29.9219L499.843 25.1797L497.569 33H496.007L493.733 25.1797L493.944 29.9219V33H491.647V21.625H494.647ZM509.998 21.625H512.295V33H509.998V25.4688L506.647 33H504.342V21.625H506.647V29.1641L509.998 21.625ZM522.888 21.625V33H520.584V23.5391H518.474L518.318 27.5703C518.256 28.8984 518.105 29.9531 517.865 30.7344C517.631 31.5104 517.284 32.0807 516.826 32.4453C516.373 32.8099 515.761 32.9948 514.99 33H514.427V31.0938L514.693 31.0703C515.172 31.013 515.516 30.7005 515.724 30.1328C515.938 29.5599 516.071 28.5495 516.123 27.1016L516.271 21.625H522.888ZM533.388 28.3359C533.388 29.862 533.026 31.0469 532.302 31.8906C531.583 32.7344 530.583 33.1562 529.302 33.1562C528.026 33.1562 527.023 32.7396 526.294 31.9062C525.565 31.0677 525.195 29.8958 525.185 28.3906V26.4453C525.185 24.8828 525.547 23.6641 526.271 22.7891C526.995 21.9089 528 21.4688 529.286 21.4688C530.552 21.4688 531.549 21.901 532.278 22.7656C533.008 23.625 533.377 24.8333 533.388 26.3906V28.3359ZM531.083 26.4297C531.083 25.4036 530.937 24.6406 530.646 24.1406C530.354 23.6406 529.901 23.3906 529.286 23.3906C528.677 23.3906 528.226 23.6328 527.935 24.1172C527.643 24.5964 527.492 25.3281 527.482 26.3125V28.3359C527.482 29.3307 527.63 30.0651 527.927 30.5391C528.224 31.0078 528.682 31.2422 529.302 31.2422C529.901 31.2422 530.346 31.013 530.638 30.5547C530.929 30.0911 531.078 29.375 531.083 28.4062V26.4297Z" fill="white"/>
</svg>

