<svg width="706" height="253" viewBox="0 0 706 253" fill="none" xmlns="http://www.w3.org/2000/svg">
    <path d="M475.023 194.046C475.57 196.692 476.026 199.338 476.619 201.939C478.124 208.6 479.72 215.216 481.225 221.832C482.366 226.988 482.274 232.098 479.994 236.98C478.9 239.307 477.395 241.36 474.43 241.315C471.603 241.269 470.189 239.353 469.049 237.071C466.495 231.916 466.632 226.532 467.817 221.102C469.642 212.981 471.42 204.859 473.244 196.738C473.472 195.825 473.837 194.913 474.157 194C474.476 194 474.749 194 475.023 194.046Z" fill="black"/>
    <path d="M349.698 141C350.428 145.608 351.34 150.171 351.796 154.779C352.526 162.262 353.21 169.745 353.484 177.228C353.575 180.056 352.663 183.022 351.842 185.805C351.568 186.763 350.063 187.904 349.06 187.95C348.239 187.995 346.962 186.672 346.597 185.714C345.776 183.524 345.001 181.197 345.001 178.961C344.955 166.414 346.324 154.004 348.786 141.684C348.832 141.456 348.969 141.274 349.06 141.091C349.242 141.046 349.47 141.046 349.698 141Z" fill="black"/>
    <path d="M542.357 128.166C543.041 131.405 543.953 134.553 544.409 137.839C545.047 142.173 546.142 146.553 544.546 150.842C544.044 152.211 542.813 153.26 541.946 154.492C541.034 153.306 539.62 152.257 539.301 150.933C538.754 148.561 538.526 145.96 538.754 143.542C539.119 139.481 539.94 135.466 540.624 131.451C540.806 130.356 541.262 129.306 541.627 128.257C541.809 128.211 542.083 128.211 542.357 128.166Z" fill="black"/>
    <path d="M206.647 0C341.271 0 731.321 18.8868 704.702 18.8868C678.083 18.8868 685.189 17.9941 643.058 23.0839C596.736 28.68 606.62 48.5767 602.34 66.4498C601.573 69.6414 600.551 72.8331 599.273 75.8332C596.845 81.3867 590.455 82.7271 585.599 79.0248C579.849 74.5566 576.079 75.6417 573.651 82.4718C572.501 85.7911 571.671 89.1743 570.457 92.4936C570.073 93.5149 568.859 94.217 567.965 95.0469C567.198 94.1532 565.984 93.3234 565.793 92.3021C564.259 85.2805 562.917 78.195 561.448 71.1096C560.873 68.1733 560.17 65.3008 559.275 62.4922C558.445 59.8112 557.422 57.2579 553.781 57.1941C552.758 57.1941 551.672 55.9174 550.714 55.0876C550.139 54.6408 549.191 58.759 545.689 60.158C538.683 58.759 539.443 56.3919 528.877 60.158C518.311 63.9241 517.553 68.0456 514.231 78.7695C509.055 95.5575 507.713 112.665 510.013 130.155C510.716 135.644 510.716 141.198 510.844 146.688C510.908 148.475 510.397 150.262 509.95 151.986C509.375 154.092 508.224 155.624 505.733 155.624C503.177 155.624 501.58 154.156 501.26 151.858C500.749 148.028 500.302 144.07 500.429 140.177C500.685 132.134 501.58 124.091 501.835 115.984C502.027 110.431 500.685 105.069 497.874 100.09C493.337 92.0467 481.006 86.4933 472.955 91.9191C469.186 94.4724 465.735 97.9193 463.052 101.622C455.193 112.473 451.87 125.112 449.57 138.07C446.759 153.837 446.567 169.54 449.826 185.306C450.72 189.583 450.529 194.179 450.145 198.583C449.698 203.435 446.951 205.733 442.478 205.988C437.942 206.18 434.555 204.073 434.236 199.03C433.853 192.775 434.236 186.328 435.322 180.072C438.133 163.986 437.303 148.092 434.236 132.261C434.108 131.751 433.98 131.24 433.789 130.729C430.658 120.005 426.058 117.324 415.068 119.75C411.362 120.58 407.592 121.346 403.823 122.112C399.286 123.069 395.197 121.92 392.322 118.282C389.447 114.644 386.891 110.686 384.399 106.792C381.077 101.494 378.137 95.9405 374.687 90.7063C369.192 82.408 361.908 77.6844 351.366 78.961C343.507 79.9185 336.032 81.642 329.451 86.1103C318.589 93.5149 315.075 104.366 315.65 116.878C315.969 123.452 316.928 129.963 317.247 136.538C317.439 140.432 315.777 142.411 312.838 142.985C308.046 143.943 304.98 141.772 305.107 136.793C305.235 132.006 306.193 127.282 306.641 122.559C307.663 112.601 306.896 102.962 301.082 94.4085C296.354 87.4508 289.517 84.323 281.275 83.8123C278.336 83.6208 276.802 85.472 276.291 87.8338C275.013 93.6426 273.991 99.4513 273.033 105.324C272.202 110.431 271.755 115.665 270.988 120.771C270.796 122.112 270.349 123.452 269.71 124.665C269.391 125.304 268.496 126.133 267.921 126.07C267.346 126.07 266.452 125.112 266.324 124.474C265.685 121.346 265.11 118.218 264.79 115.09C263.64 104.749 262.746 94.3447 261.532 84.0038C261.276 81.7058 260.446 79.4717 259.551 77.3014C258.657 75.0672 257.315 72.2586 254.504 72.7692C252.587 73.1522 250.287 75.1311 249.52 76.9184C247.731 81.1952 246.389 85.7273 245.558 90.2594C242.555 107.941 243.386 125.623 245.75 143.304C246.389 148.411 246.389 153.709 246.134 158.88C245.942 162.901 243.578 164.688 239.936 164.816C236.294 164.944 233.866 163.348 233.355 159.326C232.78 154.73 232.46 149.943 233.035 145.347C236.741 115.601 239.936 59.9462 233.355 57.36C226.774 54.7737 219.721 55.1223 214.353 55.2614C208.984 55.4006 206.648 47.3396 176.526 46.151C146.404 44.9625 153.41 34.9756 137.999 32.1776C125.233 29.8598 116.983 46.151 95.2678 26.5815C91.0508 16.7512 0 18.8868 0 18.8868C0 18.8868 206.967 2.42564 206.647 0Z" fill="black"/>
</svg>

