<svg width="271" height="311" viewBox="0 0 271 311" fill="none" xmlns="http://www.w3.org/2000/svg">
    <path d="M11.5809 227.506L0.101562 218.674V226.158C0.101562 228.248 0.702223 229.799 1.8368 231.013C2.97139 232.159 4.57315 232.766 6.64209 232.766C8.51081 232.766 8.24385 232.833 11.5809 232.833V238.429H16.9868V218.674H11.5809V227.506Z" fill="white"/>
    <path d="M25.7298 230.541H35.0734V226.293H25.7298V223.326H36.0078V218.674H20.3906V238.294H36.1413V233.71H25.7298V230.541Z" fill="white"/>
    <path d="M53.16 220.494C51.6917 219.281 49.7562 218.674 47.2201 218.674H38.9443V238.294H44.3503V232.698H47.0199C49.4893 232.698 51.5582 232.091 53.0932 230.878C54.6282 229.664 55.4291 227.911 55.4291 225.686C55.2956 223.461 54.6282 221.708 53.16 220.494Z" fill="white"/>
    <path d="M69.9114 226.023H62.9704V218.674H57.5645V238.294H62.9704V230.878H69.9114V238.294H75.2506V218.674H69.9114V226.023Z" fill="white"/>
    <path d="M84.0609 229.731V218.674H78.7217V238.294H83.7272L91.2688 227.237V238.294H96.608V218.674H91.6025L84.0609 229.731Z" fill="white"/>
    <path d="M135.05 226.563C133.582 225.416 131.647 224.809 129.177 224.809H126.241V218.674H120.901V238.294H129.511C131.913 238.294 133.782 237.688 135.184 236.474C136.585 235.26 137.319 233.642 137.319 231.485C137.319 229.394 136.585 227.709 135.05 226.563Z" fill="white"/>
    <path d="M151.868 226.023H144.994V218.674H139.588V238.294H144.994V230.878H151.868V238.294H157.274V218.674H151.868V226.023Z" fill="white"/>
    <path d="M166.017 229.731V218.674H160.678V238.294H165.75L173.225 227.237V238.294H178.564V218.674H173.559L166.017 229.731Z" fill="white"/>
    <path d="M199.454 233.507V218.674H194.048V233.507H187.441V218.674H182.035V238.294H196.451H202.124V235.732C202.124 234.519 201.056 233.507 199.454 233.507Z" fill="white"/>
    <path d="M220.744 225.551C220.744 223.394 220.01 221.708 218.542 220.494C217.073 219.281 215.138 218.674 212.669 218.674H204.326V238.294H209.732V228.518L215.405 232.698V238.294H220.811L220.744 225.551Z" fill="white"/>
    <path d="M103.216 220.494C101.748 221.708 101.014 223.394 101.014 225.619V225.686V233.507H99.6788C99.1449 233.507 98.6777 233.979 98.6777 234.519V238.227H101.014H103.35H106.353V225.821C106.353 225.012 106.62 224.338 107.154 223.933C107.688 223.461 108.489 223.259 109.423 223.259H111.959V228.45V232.698V238.294H117.365V218.674H109.022C106.62 218.674 104.684 219.281 103.216 220.494Z" fill="white"/>
    <path d="M226.017 233.508H222.88V238.295H228.286V235.8C228.286 234.587 227.285 233.508 226.017 233.508Z" fill="white"/>
    <path d="M244.704 220.494C243.236 219.281 241.3 218.674 238.831 218.674H230.488V238.294H235.894V232.698H238.564C241.033 232.698 243.102 232.091 244.637 230.878C246.172 229.664 246.973 227.911 246.973 225.686C246.906 223.461 246.172 221.708 244.704 220.494Z" fill="white"/>
    <path d="M268.664 220.494C267.196 219.281 265.26 218.674 262.791 218.674H262.524H257.118H256.851C254.382 218.674 252.379 219.281 250.978 220.494C249.51 221.708 248.775 223.394 248.775 225.619C248.775 227.844 249.576 229.597 251.111 230.81C252.646 232.024 254.649 232.631 257.185 232.631V238.227H262.591V232.631C265.06 232.631 267.129 232.024 268.664 230.81C270.199 229.597 271 227.844 271 225.619C270.866 223.461 270.132 221.708 268.664 220.494Z" fill="white"/>
    <path d="M237.6 158.239C210.2 145.139 179 157.739 196.8 150.339C214 143.139 169.1 141.939 157.1 142.239C158.4 141.539 159.4 140.139 159.4 138.539C159.4 137.739 159.2 136.939 158.8 136.339L158.7 136.239L158.6 136.139L157.2 134.139L157.3 134.039C161.1 131.539 164.9 127.439 168.1 122.539C175.1 111.739 176.6 101.139 171.6 97.6393L171.5 97.5393L164.2 92.7393C164.1 92.7393 164.1 92.6393 164 92.6393C163.9 92.6393 163.9 92.5393 163.9 92.5393C162 91.5393 159.7 91.5393 157.1 92.5393L158 90.1393L159.6 85.9393L162.8 77.8393C165 72.3393 163 66.0393 158 62.8393L134.7 47.6393C132.7 46.3393 130.2 46.1393 128 47.1393L97.5 61.4393C94.8 62.7393 92.7 64.9393 91.6 67.6393L75.9 107.239C74.8 110.039 75.8 113.239 78.3 114.939L100.5 129.439C103.5 131.439 107 132.439 110.4 132.439C113 132.439 115.6 131.839 118.1 130.739L136.2 122.339C135.9 126.239 136.8 129.339 139.1 130.839L139.2 130.939L146.5 135.739C147.5 136.439 148.7 136.739 150 136.739C150.3 136.739 150.7 136.739 151.1 136.639V138.839C151.2 140.839 152.7 142.339 154.6 142.639C154.7 142.639 154.9 142.639 155 142.739C186.8 146.539 129.7 147.739 110.4 148.139C64 149.139 50.1 149.939 49.6 151.039C49.2 152.139 188.6 152.239 57.9 163.539C-30.9 171.139 140.9 169.539 140.8 171.939C140.5 178.139 86.2 174.439 79.6 180.039C73 185.639 139.6 187.539 159.4 186.739C179.2 185.939 195.8 185.439 195.4 180.839C195 176.239 179 169.339 186.8 171.139C215.9 180.239 261.3 169.539 237.6 158.239ZM161.9 96.1393L164 97.5393C159.4 99.3393 154.3 104.039 149.9 110.739C149.8 110.939 149.7 111.139 149.6 111.239C149.8 107.839 150.8 104.639 152.6 101.739L154.7 98.3393C157.9 96.0393 160.6 95.3393 161.9 96.1393ZM129.7 50.9393C130.1 50.7393 130.5 50.6393 130.9 50.6393C131.5 50.6393 132 50.8393 132.5 51.1393L155.8 66.3393C157.1 67.1393 158 68.3393 158.7 69.5393L140.2 78.1393L127.7 83.9393L98.9 65.1393C99 65.1393 99 65.0393 99.1 65.0393L129.7 50.9393ZM130.1 120.739L124 123.539C121.8 124.539 119.7 123.739 118.6 122.639C117.4 121.539 116.5 119.539 117.4 117.339L123.5 102.039C127.2 92.7393 134.2 85.3393 143.2 81.1393L149.2 78.3393L149.4 78.2393C150.1 77.9393 150.8 77.7393 151.5 77.7393C152.9 77.7393 154.1 78.3393 154.8 79.1393C156 80.2393 156.9 82.2393 156 84.5393L155.1 86.8393L153.1 91.8393C152.6 90.1393 151.7 89.1393 150.9 88.6393L145.3 84.9393C143.1 83.4393 140 83.9393 136.5 86.2393C133.6 88.2393 130.6 91.3393 128.1 95.1393C123.4 102.339 121 111.539 125.5 114.839C125.6 114.939 125.6 114.939 125.7 115.039L131.3 118.739C131.7 119.039 132.2 119.239 132.8 119.439C131.8 119.939 131 120.339 130.1 120.739ZM133.5 98.9393C133 99.7393 132.5 100.539 132.1 101.239C132 100.539 131.9 99.4393 132.2 97.7393C132.4 96.3393 133.3 94.6393 134.4 93.2393C135.7 91.7393 137.1 90.5393 138.5 89.6393C140.8 88.1393 142.3 88.0393 142.9 88.3393L143.8 88.9393C140.2 90.8393 136.3 94.6393 133.5 98.9393ZM142.6 105.939C142.2 106.639 141.8 107.239 141.4 107.939C140.8 107.239 139.5 105.139 140.4 99.8393C140.7 98.1393 141.2 96.6393 141.8 95.4393C143.5 93.8393 145.1 92.8393 146.4 92.3393C146.5 92.8393 146.8 93.4393 147.3 93.7393L151.2 96.2393C148.2 98.5393 145.2 101.939 142.6 105.939ZM154.9 130.939L152.8 127.939C152.9 127.939 153 127.939 153.1 127.939C153.2 127.939 153.2 127.939 153.3 127.839C153.4 127.839 153.5 127.739 153.6 127.739C153.7 127.739 153.7 127.639 153.8 127.639C153.9 127.639 154 127.539 154.1 127.439C154.2 127.439 154.3 127.339 154.3 127.339C154.4 127.239 154.5 127.239 154.7 127.139C154.8 127.039 154.9 127.039 154.9 126.939C155 126.839 155.2 126.739 155.3 126.639C155.4 126.539 155.5 126.539 155.5 126.439C155.7 126.339 155.8 126.139 156 126.039C156.1 126.039 156.1 125.939 156.2 125.939C156.4 125.739 156.6 125.539 156.9 125.339C157 125.239 157 125.239 157.1 125.139C157.3 124.939 157.4 124.839 157.6 124.639C157.7 124.539 157.8 124.439 157.9 124.339C158 124.139 158.2 124.039 158.3 123.839C158.4 123.739 158.5 123.639 158.6 123.539C158.7 123.339 158.9 123.239 159 123.039C159.1 122.939 159.2 122.839 159.3 122.639C159.4 122.439 159.6 122.239 159.7 122.139C159.8 122.039 159.9 121.939 160 121.739C160.1 121.539 160.3 121.339 160.4 121.139C160.5 121.039 160.6 120.839 160.7 120.739C160.9 120.539 161 120.339 161.2 120.039C161.3 119.939 161.4 119.839 161.4 119.739C161.6 119.439 161.9 119.039 162.1 118.739C163.3 116.839 164.4 114.939 165.2 113.239C166.1 111.139 166.7 109.339 166.8 107.939C166.9 107.239 166.8 106.639 166.6 106.239C166.5 105.939 166.3 105.739 166.1 105.639C166 105.539 165.9 105.539 165.7 105.439H165.6C165.5 105.439 165.4 105.439 165.4 105.439C165.3 105.439 165.3 105.439 165.2 105.439C165.1 105.439 165 105.439 164.9 105.439C164.8 105.439 164.8 105.439 164.7 105.539C164.6 105.539 164.5 105.639 164.4 105.639C164.3 105.639 164.3 105.739 164.2 105.739C164.1 105.739 164 105.839 163.9 105.939C163.8 105.939 163.7 106.039 163.7 106.039C163.6 106.139 163.5 106.139 163.3 106.239C163.2 106.339 163.1 106.339 163.1 106.439C163 106.539 162.8 106.639 162.7 106.739C162.6 106.839 162.6 106.839 162.5 106.939C162.3 107.039 162.2 107.239 162 107.339L161.9 107.439C161.7 107.639 161.4 107.839 161.2 108.039C161.1 108.139 161.1 108.139 161 108.239C160.8 108.439 160.7 108.539 160.5 108.739C160.4 108.839 160.3 108.939 160.2 109.039C160 109.239 159.9 109.339 159.7 109.539C159.6 109.639 159.5 109.739 159.4 109.839C159.3 110.039 159.1 110.139 159 110.339C158.9 110.439 158.8 110.539 158.7 110.739C158.6 110.939 158.4 111.139 158.3 111.239C158.2 111.339 158.1 111.439 158 111.639C157.8 111.839 157.7 112.039 157.5 112.239C157.4 112.339 157.3 112.439 157.2 112.639C157 112.839 156.9 113.139 156.7 113.339C156.6 113.439 156.5 113.539 156.5 113.639C156.3 113.939 156 114.339 155.8 114.739C153 119.139 151.2 123.339 151.1 125.839V126.039C151.1 126.139 151.1 126.239 151.1 126.339V132.839C150.1 133.039 149.3 133.039 148.7 132.639C147.5 131.839 147.1 129.439 147.7 126.139C148.4 122.239 150.4 117.639 153.3 113.139C158.7 104.839 164.8 100.839 168 100.839C168.5 100.839 169 100.939 169.3 101.139C171.7 102.739 171.1 110.839 164.8 120.639C161.9 125.039 158.5 128.739 155.2 130.939C155 130.839 154.9 130.939 154.9 130.939Z" fill="white"/>
    <path d="M106.3 90.1393L102.2 100.539L98.7 85.2393L95.8 92.4393C94.7 95.1393 95.7 98.3393 98.2 99.8393L101.5 101.939L98.1 110.539L101.5 112.739L109.6 92.2393L106.3 90.1393Z" fill="black"/>
    <path d="M100.213 302.375C100.213 301.208 100.349 300.089 100.62 299.016C100.896 297.943 101.305 296.984 101.846 296.141C102.393 295.292 102.976 294.706 103.596 294.383L104.01 295.602C103.422 296.154 102.956 297.003 102.612 298.148C102.268 299.289 102.088 300.609 102.073 302.109V302.578C102.073 304.141 102.242 305.516 102.581 306.703C102.924 307.885 103.401 308.768 104.01 309.352L103.596 310.555C102.982 310.232 102.404 309.656 101.862 308.828C101.325 308 100.919 307.057 100.643 306C100.367 304.943 100.224 303.841 100.213 302.695V302.375ZM113.713 303.211C113.656 304.508 113.291 305.49 112.619 306.156C111.947 306.823 110.999 307.156 109.775 307.156C108.489 307.156 107.502 306.734 106.814 305.891C106.132 305.042 105.791 303.833 105.791 302.266V300.352C105.791 298.789 106.145 297.586 106.853 296.742C107.562 295.893 108.546 295.469 109.807 295.469C111.046 295.469 111.986 295.815 112.627 296.508C113.273 297.201 113.64 298.195 113.728 299.492H111.424C111.403 298.69 111.278 298.138 111.049 297.836C110.825 297.529 110.411 297.375 109.807 297.375C109.192 297.375 108.757 297.591 108.502 298.023C108.247 298.451 108.111 299.156 108.096 300.141V302.289C108.096 303.419 108.221 304.195 108.471 304.617C108.726 305.039 109.161 305.25 109.775 305.25C110.379 305.25 110.796 305.104 111.025 304.812C111.254 304.516 111.385 303.982 111.416 303.211H113.713ZM118.993 302.562C118.993 303.776 118.837 304.924 118.525 306.008C118.217 307.091 117.788 308.042 117.236 308.859C116.689 309.677 116.108 310.242 115.493 310.555L115.087 309.352C115.681 308.784 116.15 307.917 116.493 306.75C116.837 305.578 117.014 304.253 117.025 302.773V302.359C117.025 300.844 116.853 299.49 116.509 298.297C116.171 297.099 115.697 296.195 115.087 295.586L115.493 294.383C115.894 294.586 116.303 294.924 116.72 295.398C117.142 295.872 117.522 296.458 117.861 297.156C118.199 297.854 118.473 298.641 118.681 299.516C118.889 300.385 118.993 301.401 118.993 302.562ZM132.234 307H125.531V305.438L128.609 301.523C129 300.982 129.286 300.508 129.469 300.102C129.656 299.69 129.75 299.297 129.75 298.922C129.75 298.417 129.661 298.021 129.484 297.734C129.312 297.448 129.062 297.305 128.734 297.305C128.375 297.305 128.089 297.471 127.875 297.805C127.667 298.138 127.562 298.607 127.562 299.211H125.344C125.344 298.513 125.487 297.875 125.773 297.297C126.065 296.719 126.471 296.271 126.992 295.953C127.518 295.63 128.112 295.469 128.773 295.469C129.789 295.469 130.576 295.75 131.133 296.312C131.695 296.87 131.977 297.664 131.977 298.695C131.977 299.336 131.82 299.987 131.508 300.648C131.201 301.305 130.641 302.115 129.828 303.078L128.367 305.164H132.234V307ZM140.874 302.297C140.874 303.87 140.588 305.073 140.015 305.906C139.447 306.74 138.635 307.156 137.577 307.156C136.531 307.156 135.721 306.753 135.148 305.945C134.58 305.133 134.286 303.971 134.265 302.461V300.312C134.265 298.745 134.549 297.547 135.117 296.719C135.684 295.885 136.499 295.469 137.562 295.469C138.624 295.469 139.439 295.88 140.007 296.703C140.575 297.526 140.864 298.701 140.874 300.227V302.297ZM138.656 299.992C138.656 299.096 138.567 298.424 138.39 297.977C138.213 297.529 137.937 297.305 137.562 297.305C136.859 297.305 136.494 298.125 136.468 299.766V302.602C136.468 303.518 136.557 304.201 136.734 304.648C136.916 305.096 137.197 305.32 137.577 305.32C137.937 305.32 138.202 305.112 138.374 304.695C138.551 304.273 138.645 303.63 138.656 302.766V299.992ZM149.702 307H142.999V305.438L146.077 301.523C146.467 300.982 146.754 300.508 146.936 300.102C147.124 299.69 147.217 299.297 147.217 298.922C147.217 298.417 147.129 298.021 146.952 297.734C146.78 297.448 146.53 297.305 146.202 297.305C145.842 297.305 145.556 297.471 145.342 297.805C145.134 298.138 145.03 298.607 145.03 299.211H142.811C142.811 298.513 142.954 297.875 143.241 297.297C143.533 296.719 143.939 296.271 144.46 295.953C144.986 295.63 145.579 295.469 146.241 295.469C147.257 295.469 148.043 295.75 148.6 296.312C149.163 296.87 149.444 297.664 149.444 298.695C149.444 299.336 149.288 299.987 148.975 300.648C148.668 301.305 148.108 302.115 147.296 303.078L145.835 305.164H149.702V307ZM158.342 302.297C158.342 303.87 158.055 305.073 157.482 305.906C156.915 306.74 156.102 307.156 155.045 307.156C153.998 307.156 153.188 306.753 152.615 305.945C152.048 305.133 151.753 303.971 151.732 302.461V300.312C151.732 298.745 152.016 297.547 152.584 296.719C153.152 295.885 153.967 295.469 155.029 295.469C156.092 295.469 156.907 295.88 157.475 296.703C158.042 297.526 158.331 298.701 158.342 300.227V302.297ZM156.123 299.992C156.123 299.096 156.035 298.424 155.857 297.977C155.68 297.529 155.404 297.305 155.029 297.305C154.326 297.305 153.962 298.125 153.936 299.766V302.602C153.936 303.518 154.024 304.201 154.201 304.648C154.384 305.096 154.665 305.32 155.045 305.32C155.404 305.32 155.67 305.112 155.842 304.695C156.019 304.273 156.113 303.63 156.123 302.766V299.992Z" fill="white"/>
</svg>
