<svg width="123" height="24" viewBox="0 0 123 24" fill="none" xmlns="http://www.w3.org/2000/svg">
    <g clip-path="url(#clip0)">
        <path d="M16 23C16 21 16 14.5 16 14.5C16 14.5 18.4379 14.5 20 14.5C20 13.3284 20 12 20 12H16C16 12 16 9.18629 16 8C16.5 6.4 18.3996 6 19.3996 4.5C18.4996 4.2 17.3996 3.4 16.8996 3.6C15.2996 4.5 13.7996 5.6 12.4996 6.9C12.0644 7.33521 13.3475 11.4832 13 12C12.4692 12.7893 10.3622 9.99347 9.99961 10.9C9.59961 11.8 9.49961 13.8 9.89961 13.9C14.5996 15.9 11.4996 19.6 12.4996 23.2C8.89961 23.2 5.79961 23.4 2.69961 23.1C1.69961 23 0.199609 21.4 0.0996094 20.4C-0.100391 13.9 -0.000390623 7.3 -0.000390623 -1.52364e-06C7.29961 -1.52364e-06 14.0996 -0.100002 20.8996 0.0999985C21.6996 0.0999985 23.1996 1.9 23.1996 3C23.3996 8.6 23.3996 14.3 23.2996 20C23.1996 24.9 18.5 23.2 17.0996 23.1C15.6992 23 16.6 23.3 16 23Z" fill="black"/>
        <path d="M74.1003 16.1C73.7003 13.6 73.5573 12.3763 74.0003 10.5C74.5737 8.0717 75.9003 7 77.6003 6.3C79.0003 5.8 82.5003 7.1 82.9003 8.3C83.6003 10.3 82.6003 13 82.1003 15.3C82.0003 15.7 82 16 79.5003 16.1C77.0006 16.2 77.7003 12 77.7003 12C77.7003 12 78.0003 10.1 77.7003 8.6C77.0003 10.1 76.0003 11.5 75.6003 13.1C74.9003 15.8 74.5003 18.6 74.0003 21.4C68.5003 19.3 66.0003 13.9 67.7003 8.2C69.5003 2.4 75.8003 -1.1 81.5003 0.499997C87.7003 2.2 91.4003 8.1 90.1003 14.3C88.8003 20.4 83.4003 23.7 76.2003 22.7C76.6003 21.3 76.9003 19.9 77.3003 18.6C86.3003 18.6 88.8003 14.1 85.0003 6.6C83.2003 2.9 76.8003 3 73.5003 5.9C70.4003 8.6 70.3003 11.9 74.1003 16.1Z" fill="black"/>
        <path d="M34.6998 3.8C36.0998 4.6 37.2998 5.6 38.7998 6.3C40.2998 7 41.8998 7.4 43.7998 8.1C45.1998 1.5 49.1998 0.700001 54.9998 3.9C54.4998 9.2 53.7998 15 48.3998 18.8C44.1998 21.8 39.5998 22 34.0998 20.1C36.1998 19.1 37.5998 18.5 37.8998 18.4C36.2998 13.6 34.7998 9.1 33.2998 4.6C33.7998 4.2 34.2998 4 34.6998 3.8Z" fill="black"/>
        <path d="M123 11.5C123 21.3 122.7 21.6 112.5 21.6C103.2 21.6 102.8 21.2 102.8 11.2C102.8 1.7 103.1 1.4 113.6 1.4C122.5 1.3 123 1.8 123 11.5ZM119.1 11.3C118.8 8 117 5.8 113.3 5.2C110 4.7 106.6 7.7 106.6 11.1C106.6 14.8 108.7 17 112.3 17.5C115.7 18.1 118.9 15.1 119.1 11.3Z" fill="black"/>
        <path d="M112.354 7C114 11 117 10.2262 117 13C117 15.5 114.254 16.7 113.254 16.6C111.654 16.4 109 15.3 109 13C109 10.2571 111.5 10.5 112.354 7Z" fill="black"/>
    </g>
    <defs>
        <clipPath id="clip0">
            <rect width="123" height="23.3" fill="white"/>
        </clipPath>
    </defs>
</svg>

