<svg width="218" height="19" viewBox="0 0 218 19" fill="none" xmlns="http://www.w3.org/2000/svg">
    <g clip-path="url(#clip0)">
        <path d="M11.3418 8.55326L0 0V7.24742C0 9.27148 0.593466 10.7732 1.71446 11.9485C2.83545 13.0584 4.41803 13.646 6.46219 13.646C8.30853 13.646 8.04477 13.7113 11.3418 13.7113V19.1306H16.683V0H11.3418V8.55326Z" fill="black"/>
        <path d="M25.3221 11.4914H34.5538V7.37801H25.3221V4.50515H35.477V0H20.0469V19H35.6089V14.5601H25.3221V11.4914Z" fill="black"/>
        <path d="M52.4243 1.76289C50.9736 0.587629 49.0613 0 46.5555 0H38.3789V19H43.7201V13.5808H46.3577C48.7975 13.5808 50.8417 12.9931 52.3583 11.8179C53.875 10.6426 54.6663 8.94502 54.6663 6.79038C54.5344 4.63574 53.875 2.93814 52.4243 1.76289Z" fill="black"/>
        <path d="M68.9744 7.11684H62.1166V0H56.7754V19H62.1166V11.8179H68.9744V19H74.2497V0H68.9744V7.11684Z" fill="black"/>
        <path d="M82.953 10.7079V0H77.6777V19H82.6233L90.0746 8.2921V19H95.3499V0H90.4043L82.953 10.7079Z" fill="black"/>
        <path d="M133.331 7.63917C131.88 6.52921 129.968 5.94158 127.528 5.94158H124.627V0H119.352V19H127.858C130.232 19 132.078 18.4124 133.463 17.2371C134.848 16.0619 135.573 14.4948 135.573 12.4055C135.573 10.3814 134.848 8.74914 133.331 7.63917Z" fill="black"/>
        <path d="M149.949 7.11684H143.158V0H137.816V19H143.158V11.8179H149.949V19H155.291V0H149.949V7.11684Z" fill="black"/>
        <path d="M163.928 10.7079V0H158.652V19H163.664L171.049 8.2921V19H176.324V0H171.379L163.928 10.7079Z" fill="black"/>
        <path d="M196.964 14.3643V0H191.623V14.3643H185.095V0H179.754V19H193.997H199.602V16.5189C199.602 15.3436 198.547 14.3643 196.964 14.3643Z" fill="black"/>
        <path d="M218.001 6.65979C218.001 4.57045 217.275 2.93814 215.825 1.76289C214.374 0.587629 212.462 0 210.022 0H201.779V19H207.12V9.53265L212.725 13.5808V19H218.067L218.001 6.65979Z" fill="black"/>
        <path d="M101.878 1.76289C100.428 2.93814 99.7025 4.57045 99.7025 6.72509V6.79038V14.3643H98.3836C97.8561 14.3643 97.3945 14.8213 97.3945 15.3436V18.9347H99.7025H102.01H104.978V6.92096C104.978 6.13746 105.241 5.48454 105.769 5.09278C106.297 4.63574 107.088 4.43986 108.011 4.43986H110.517V9.46735V13.5808V19H115.858V0H107.615C105.241 0 103.329 0.587629 101.878 1.76289Z" fill="black"/>
    </g>
    <defs>
        <clipPath id="clip0">
            <rect width="218" height="19" fill="white"/>
        </clipPath>
    </defs>
</svg>
