<svg width="368" height="371" viewBox="0 0 368 371" fill="none" xmlns="http://www.w3.org/2000/svg">
    <path d="M0 0L368 187L0 368V0Z" fill="black"/>
    <path d="M43 293.15V75.0388L261.111 185.872L43 293.15Z" fill="black" stroke="white" stroke-width="16"/>
    <path d="M255.578 336H253.281V326.539H249.906V336H247.609V324.625H255.578V336ZM266.085 331.336C266.085 332.862 265.723 334.047 264.999 334.891C264.28 335.734 263.28 336.156 261.999 336.156C260.723 336.156 259.72 335.74 258.991 334.906C258.262 334.068 257.892 332.896 257.882 331.391V329.445C257.882 327.883 258.244 326.664 258.968 325.789C259.692 324.909 260.697 324.469 261.983 324.469C263.249 324.469 264.246 324.901 264.976 325.766C265.705 326.625 266.075 327.833 266.085 329.391V331.336ZM263.78 329.43C263.78 328.404 263.634 327.641 263.343 327.141C263.051 326.641 262.598 326.391 261.983 326.391C261.374 326.391 260.924 326.633 260.632 327.117C260.34 327.596 260.189 328.328 260.179 329.312V331.336C260.179 332.331 260.327 333.065 260.624 333.539C260.921 334.008 261.379 334.242 261.999 334.242C262.598 334.242 263.043 334.013 263.335 333.555C263.627 333.091 263.775 332.375 263.78 331.406V329.43ZM276.311 324.625V336H274.014V331.711C273.405 331.846 272.832 331.914 272.295 331.914C271.056 331.914 270.11 331.602 269.459 330.977C268.808 330.352 268.47 329.451 268.444 328.273V324.625H270.748V328.148C270.748 328.815 270.86 329.292 271.084 329.578C271.314 329.865 271.717 330.008 272.295 330.008C272.853 330.008 273.426 329.94 274.014 329.805V324.625H276.311ZM285.928 326.539H283.115V336H280.81V326.539H278.045V324.625H285.928V326.539ZM292.38 333.672H289.247L288.638 336H286.208L289.763 324.625H291.864L295.443 336H292.989L292.38 333.672ZM289.747 331.758H291.872L290.81 327.703L289.747 331.758ZM303.777 332V336H301.48V324.625H305.355C306.48 324.625 307.376 324.974 308.043 325.672C308.715 326.37 309.051 327.276 309.051 328.391C309.051 329.505 308.72 330.385 308.058 331.031C307.397 331.677 306.48 332 305.308 332H303.777ZM303.777 330.086H305.355C305.793 330.086 306.131 329.943 306.371 329.656C306.611 329.37 306.73 328.953 306.73 328.406C306.73 327.839 306.608 327.388 306.363 327.055C306.118 326.716 305.79 326.544 305.379 326.539H303.777V330.086ZM319.238 331.336C319.238 332.862 318.876 334.047 318.152 334.891C317.433 335.734 316.433 336.156 315.152 336.156C313.876 336.156 312.873 335.74 312.144 334.906C311.415 334.068 311.045 332.896 311.034 331.391V329.445C311.034 327.883 311.396 326.664 312.12 325.789C312.844 324.909 313.849 324.469 315.136 324.469C316.402 324.469 317.399 324.901 318.128 325.766C318.857 326.625 319.227 327.833 319.238 329.391V331.336ZM316.933 329.43C316.933 328.404 316.787 327.641 316.495 327.141C316.204 326.641 315.751 326.391 315.136 326.391C314.527 326.391 314.076 326.633 313.784 327.117C313.493 327.596 313.342 328.328 313.331 329.312V331.336C313.331 332.331 313.48 333.065 313.777 333.539C314.073 334.008 314.532 334.242 315.152 334.242C315.751 334.242 316.196 334.013 316.488 333.555C316.779 333.091 316.928 332.375 316.933 331.406V329.43ZM329.237 332.211C329.18 333.508 328.815 334.49 328.143 335.156C327.471 335.823 326.523 336.156 325.299 336.156C324.013 336.156 323.026 335.734 322.338 334.891C321.656 334.042 321.315 332.833 321.315 331.266V329.352C321.315 327.789 321.669 326.586 322.378 325.742C323.086 324.893 324.07 324.469 325.331 324.469C326.57 324.469 327.51 324.815 328.151 325.508C328.797 326.201 329.164 327.195 329.253 328.492H326.948C326.927 327.69 326.802 327.138 326.573 326.836C326.349 326.529 325.935 326.375 325.331 326.375C324.716 326.375 324.281 326.591 324.026 327.023C323.771 327.451 323.635 328.156 323.62 329.141V331.289C323.62 332.419 323.745 333.195 323.995 333.617C324.25 334.039 324.685 334.25 325.299 334.25C325.904 334.25 326.32 334.104 326.549 333.812C326.779 333.516 326.909 332.982 326.94 332.211H329.237ZM339.002 332.211C338.945 333.508 338.58 334.49 337.908 335.156C337.236 335.823 336.288 336.156 335.064 336.156C333.778 336.156 332.791 335.734 332.103 334.891C331.421 334.042 331.08 332.833 331.08 331.266V329.352C331.08 327.789 331.434 326.586 332.143 325.742C332.851 324.893 333.835 324.469 335.096 324.469C336.335 324.469 337.275 324.815 337.916 325.508C338.562 326.201 338.929 327.195 339.018 328.492H336.713C336.692 327.69 336.567 327.138 336.338 326.836C336.114 326.529 335.7 326.375 335.096 326.375C334.481 326.375 334.046 326.591 333.791 327.023C333.536 327.451 333.4 328.156 333.385 329.141V331.289C333.385 332.419 333.51 333.195 333.76 333.617C334.015 334.039 334.45 334.25 335.064 334.25C335.669 334.25 336.085 334.104 336.314 333.812C336.544 333.516 336.674 332.982 336.705 332.211H339.002ZM346.626 324.625H348.923V336H346.626V328.469L343.275 336H340.97V324.625H343.275V332.164L346.626 324.625ZM356.969 324.625H359.266V336H356.969V328.469L353.618 336H351.313V324.625H353.618V332.164L356.969 324.625ZM363.203 332.5C363.203 331.771 363.273 331.193 363.414 330.766C363.56 330.333 363.818 329.922 364.188 329.531C364.578 329.099 364.839 328.745 364.969 328.469C365.099 328.193 365.164 327.914 365.164 327.633C365.164 326.763 364.883 326.328 364.32 326.328C364.07 326.328 363.862 326.448 363.695 326.688C363.529 326.927 363.44 327.25 363.43 327.656H361.219C361.229 326.646 361.51 325.862 362.062 325.305C362.62 324.747 363.372 324.469 364.32 324.469C365.289 324.469 366.042 324.74 366.578 325.281C367.115 325.818 367.383 326.57 367.383 327.539C367.383 328.341 367.052 329.128 366.391 329.898L365.742 330.633C365.529 330.888 365.378 331.154 365.289 331.43C365.201 331.701 365.151 332.057 365.141 332.5H363.203ZM363 334.891C363 334.536 363.112 334.247 363.336 334.023C363.565 333.799 363.854 333.688 364.203 333.688C364.562 333.688 364.854 333.802 365.078 334.031C365.302 334.255 365.414 334.542 365.414 334.891C365.414 335.234 365.305 335.521 365.086 335.75C364.867 335.979 364.573 336.094 364.203 336.094C363.839 336.094 363.547 335.979 363.328 335.75C363.109 335.521 363 335.234 363 334.891ZM233.775 347.336C233.775 348.862 233.413 350.047 232.689 350.891C231.97 351.734 230.97 352.156 229.689 352.156C228.413 352.156 227.41 351.74 226.681 350.906C225.952 350.068 225.582 348.896 225.572 347.391V345.445C225.572 343.883 225.934 342.664 226.658 341.789C227.382 340.909 228.387 340.469 229.673 340.469C230.939 340.469 231.936 340.901 232.666 341.766C233.395 342.625 233.765 343.833 233.775 345.391V347.336ZM231.47 345.43C231.47 344.404 231.324 343.641 231.033 343.141C230.741 342.641 230.288 342.391 229.673 342.391C229.064 342.391 228.614 342.633 228.322 343.117C228.03 343.596 227.879 344.328 227.869 345.312V347.336C227.869 348.331 228.017 349.065 228.314 349.539C228.611 350.008 229.069 350.242 229.689 350.242C230.288 350.242 230.733 350.013 231.025 349.555C231.317 349.091 231.465 348.375 231.47 347.406V345.43ZM244.048 352H241.751V342.539H238.376V352H236.079V340.625H244.048V352ZM252.422 347.078H248.844V350.094H253.078V352H246.547V340.625H253.063V342.539H248.844V345.227H252.422V347.078ZM257.343 348V352H255.047V340.625H258.922C260.047 340.625 260.942 340.974 261.609 341.672C262.281 342.37 262.617 343.276 262.617 344.391C262.617 345.505 262.286 346.385 261.625 347.031C260.963 347.677 260.047 348 258.875 348H257.343ZM257.343 346.086H258.922C259.359 346.086 259.698 345.943 259.937 345.656C260.177 345.37 260.297 344.953 260.297 344.406C260.297 343.839 260.174 343.388 259.929 343.055C259.685 342.716 259.356 342.544 258.945 342.539H257.343V346.086ZM268.835 349.672H265.702L265.093 352H262.663L266.218 340.625H268.319L271.897 352H269.444L268.835 349.672ZM266.202 347.758H268.327L267.265 343.703L266.202 347.758ZM280.037 342.539H277.225V352H274.92V342.539H272.155V340.625H280.037V342.539ZM287.568 340.625H289.865V352H287.568V344.469L284.217 352H281.912V340.625H284.217V348.164L287.568 340.625ZM292.341 352V340.625H295.857C297.044 340.625 297.945 340.891 298.56 341.422C299.179 341.948 299.489 342.721 299.489 343.742C299.489 344.32 299.362 344.818 299.107 345.234C298.851 345.651 298.502 345.956 298.06 346.148C298.57 346.294 298.963 346.589 299.239 347.031C299.515 347.469 299.653 348.01 299.653 348.656C299.653 349.76 299.349 350.594 298.739 351.156C298.135 351.719 297.258 352 296.107 352H292.341ZM294.638 347.055V350.094H296.107C296.518 350.094 296.831 349.966 297.044 349.711C297.258 349.456 297.364 349.094 297.364 348.625C297.364 347.604 296.995 347.081 296.255 347.055H294.638ZM294.638 345.383H295.833C296.734 345.383 297.185 344.917 297.185 343.984C297.185 343.469 297.081 343.099 296.872 342.875C296.664 342.651 296.325 342.539 295.857 342.539H294.638V345.383ZM309.942 352H307.653V347.133H304.262V352H301.965V340.625H304.262V345.227H307.653V340.625H309.942V352ZM320.441 347.336C320.441 348.862 320.079 350.047 319.355 350.891C318.637 351.734 317.637 352.156 316.355 352.156C315.079 352.156 314.077 351.74 313.348 350.906C312.618 350.068 312.249 348.896 312.238 347.391V345.445C312.238 343.883 312.6 342.664 313.324 341.789C314.048 340.909 315.053 340.469 316.34 340.469C317.605 340.469 318.603 340.901 319.332 341.766C320.061 342.625 320.431 343.833 320.441 345.391V347.336ZM318.137 345.43C318.137 344.404 317.991 343.641 317.699 343.141C317.407 342.641 316.954 342.391 316.34 342.391C315.73 342.391 315.28 342.633 314.988 343.117C314.696 343.596 314.545 344.328 314.535 345.312V347.336C314.535 348.331 314.683 349.065 314.98 349.539C315.277 350.008 315.736 350.242 316.355 350.242C316.954 350.242 317.4 350.013 317.691 349.555C317.983 349.091 318.131 348.375 318.137 347.406V345.43ZM330.441 348.211C330.383 349.508 330.019 350.49 329.347 351.156C328.675 351.823 327.727 352.156 326.503 352.156C325.217 352.156 324.23 351.734 323.542 350.891C322.86 350.042 322.519 348.833 322.519 347.266V345.352C322.519 343.789 322.873 342.586 323.581 341.742C324.29 340.893 325.274 340.469 326.534 340.469C327.774 340.469 328.714 340.815 329.355 341.508C330.001 342.201 330.368 343.195 330.456 344.492H328.152C328.131 343.69 328.006 343.138 327.777 342.836C327.553 342.529 327.139 342.375 326.534 342.375C325.92 342.375 325.485 342.591 325.23 343.023C324.974 343.451 324.839 344.156 324.823 345.141V347.289C324.823 348.419 324.948 349.195 325.198 349.617C325.454 350.039 325.889 350.25 326.503 350.25C327.107 350.25 327.524 350.104 327.753 349.812C327.982 349.516 328.112 348.982 328.144 348.211H330.441ZM339.628 342.539H336.815V352H334.51V342.539H331.745V340.625H339.628V342.539ZM344.01 344.711H345.369C346.52 344.711 347.437 345.039 348.119 345.695C348.801 346.346 349.142 347.219 349.142 348.312C349.142 349.401 348.809 350.284 348.142 350.961C347.476 351.633 346.593 351.979 345.494 352H341.705V340.625H344.01V344.711ZM344.01 346.617V350.094H345.4C345.848 350.094 346.2 349.927 346.455 349.594C346.715 349.255 346.846 348.823 346.846 348.297C346.846 347.802 346.718 347.401 346.463 347.094C346.213 346.781 345.864 346.622 345.416 346.617H344.01ZM352.611 348.5C352.611 347.771 352.681 347.193 352.822 346.766C352.967 346.333 353.225 345.922 353.595 345.531C353.986 345.099 354.246 344.745 354.376 344.469C354.506 344.193 354.572 343.914 354.572 343.633C354.572 342.763 354.29 342.328 353.728 342.328C353.478 342.328 353.269 342.448 353.103 342.688C352.936 342.927 352.848 343.25 352.837 343.656H350.626C350.637 342.646 350.918 341.862 351.47 341.305C352.027 340.747 352.78 340.469 353.728 340.469C354.697 340.469 355.449 340.74 355.986 341.281C356.522 341.818 356.79 342.57 356.79 343.539C356.79 344.341 356.46 345.128 355.798 345.898L355.15 346.633C354.936 346.888 354.785 347.154 354.697 347.43C354.608 347.701 354.559 348.057 354.548 348.5H352.611ZM352.408 350.891C352.408 350.536 352.519 350.247 352.743 350.023C352.973 349.799 353.262 349.688 353.611 349.688C353.97 349.688 354.262 349.802 354.486 350.031C354.71 350.255 354.822 350.542 354.822 350.891C354.822 351.234 354.712 351.521 354.493 351.75C354.275 351.979 353.98 352.094 353.611 352.094C353.246 352.094 352.954 351.979 352.736 351.75C352.517 351.521 352.408 351.234 352.408 350.891ZM359.032 350.875C359.032 350.521 359.149 350.229 359.383 350C359.623 349.771 359.933 349.656 360.313 349.656C360.683 349.656 360.99 349.771 361.235 350C361.48 350.224 361.602 350.516 361.602 350.875C361.602 351.24 361.477 351.534 361.227 351.758C360.982 351.977 360.678 352.086 360.313 352.086C359.943 352.086 359.636 351.974 359.391 351.75C359.152 351.526 359.032 351.234 359.032 350.875ZM364.328 350.875C364.328 350.521 364.445 350.229 364.68 350C364.919 349.771 365.229 349.656 365.609 349.656C365.979 349.656 366.286 349.771 366.531 350C366.776 350.224 366.898 350.516 366.898 350.875C366.898 351.24 366.773 351.534 366.523 351.758C366.279 351.977 365.974 352.086 365.609 352.086C365.24 352.086 364.932 351.974 364.688 351.75C364.448 351.526 364.328 351.234 364.328 350.875ZM141.804 364V368H139.507V356.625H143.382C144.507 356.625 145.403 356.974 146.07 357.672C146.742 358.37 147.077 359.276 147.077 360.391C147.077 361.505 146.747 362.385 146.085 363.031C145.424 363.677 144.507 364 143.335 364H141.804ZM141.804 362.086H143.382C143.82 362.086 144.158 361.943 144.398 361.656C144.637 361.37 144.757 360.953 144.757 360.406C144.757 359.839 144.635 359.388 144.39 359.055C144.145 358.716 143.817 358.544 143.406 358.539H141.804V362.086ZM153.296 365.672H150.163L149.553 368H147.124L150.678 356.625H152.78L156.358 368H153.905L153.296 365.672ZM150.663 363.758H152.788L151.725 359.703L150.663 363.758ZM165.608 364.211C165.55 365.508 165.186 366.49 164.514 367.156C163.842 367.823 162.894 368.156 161.67 368.156C160.384 368.156 159.397 367.734 158.709 366.891C158.027 366.042 157.686 364.833 157.686 363.266V361.352C157.686 359.789 158.04 358.586 158.748 357.742C159.456 356.893 160.441 356.469 161.701 356.469C162.941 356.469 163.881 356.815 164.522 357.508C165.167 358.201 165.535 359.195 165.623 360.492H163.318C163.298 359.69 163.173 359.138 162.943 358.836C162.719 358.529 162.305 358.375 161.701 358.375C161.087 358.375 160.652 358.591 160.397 359.023C160.141 359.451 160.006 360.156 159.99 361.141V363.289C159.99 364.419 160.115 365.195 160.365 365.617C160.621 366.039 161.055 366.25 161.67 366.25C162.274 366.25 162.691 366.104 162.92 365.812C163.149 365.516 163.279 364.982 163.311 364.211H165.608ZM175.372 364.211C175.315 365.508 174.951 366.49 174.279 367.156C173.607 367.823 172.659 368.156 171.435 368.156C170.149 368.156 169.162 367.734 168.474 366.891C167.792 366.042 167.451 364.833 167.451 363.266V361.352C167.451 359.789 167.805 358.586 168.513 357.742C169.221 356.893 170.206 356.469 171.466 356.469C172.706 356.469 173.646 356.815 174.287 357.508C174.932 358.201 175.3 359.195 175.388 360.492H173.083C173.063 359.69 172.938 359.138 172.708 358.836C172.484 358.529 172.07 358.375 171.466 358.375C170.852 358.375 170.417 358.591 170.162 359.023C169.906 359.451 169.771 360.156 169.755 361.141V363.289C169.755 364.419 169.88 365.195 170.13 365.617C170.386 366.039 170.82 366.25 171.435 366.25C172.039 366.25 172.456 366.104 172.685 365.812C172.914 365.516 173.044 364.982 173.076 364.211H175.372ZM180.739 363.359H179.739V368H177.442V356.625H179.739V361.172H180.513L182.489 356.625H185.286L182.505 361.922L185.598 368H182.864L180.739 363.359ZM192.528 365.672H189.395L188.785 368H186.356L189.91 356.625H192.012L195.59 368H193.137L192.528 365.672ZM189.895 363.758H192.02L190.957 359.703L189.895 363.758ZM205.8 363.383H204.714V368H202.417V363.383H201.292L199.503 368H196.644L199.511 361.766L196.769 356.625H199.628L201.48 361.195H202.417V356.625H204.714V361.195H205.621L207.41 356.625H210.261L207.582 361.742L210.386 368H207.527L205.8 363.383ZM217.651 356.625H219.948V368H217.651V360.469L214.3 368H211.995V356.625H214.3V364.164L217.651 356.625ZM229.557 358.539H226.744V368H224.44V358.539H221.674V356.625H229.557V358.539ZM237.392 363.078H233.814V366.094H238.048V368H231.517V356.625H238.033V358.539H233.814V361.227H237.392V363.078ZM252.328 368H250.032V358.539H246.657V368H244.36V356.625H252.328V368ZM262.836 363.336C262.836 364.862 262.474 366.047 261.75 366.891C261.031 367.734 260.031 368.156 258.75 368.156C257.474 368.156 256.471 367.74 255.742 366.906C255.013 366.068 254.643 364.896 254.632 363.391V361.445C254.632 359.883 254.994 358.664 255.718 357.789C256.442 356.909 257.448 356.469 258.734 356.469C260 356.469 260.997 356.901 261.726 357.766C262.455 358.625 262.825 359.833 262.836 361.391V363.336ZM260.531 361.43C260.531 360.404 260.385 359.641 260.093 359.141C259.802 358.641 259.349 358.391 258.734 358.391C258.125 358.391 257.674 358.633 257.382 359.117C257.091 359.596 256.94 360.328 256.929 361.312V363.336C256.929 364.331 257.078 365.065 257.375 365.539C257.672 366.008 258.13 366.242 258.75 366.242C259.349 366.242 259.794 366.013 260.086 365.555C260.377 365.091 260.526 364.375 260.531 363.406V361.43ZM273.108 368H270.812V358.539H267.437V368H265.14V356.625H273.108V368ZM283.616 363.336C283.616 364.862 283.254 366.047 282.53 366.891C281.811 367.734 280.811 368.156 279.53 368.156C278.254 368.156 277.251 367.74 276.522 366.906C275.793 366.068 275.423 364.896 275.413 363.391V361.445C275.413 359.883 275.774 358.664 276.498 357.789C277.222 356.909 278.228 356.469 279.514 356.469C280.78 356.469 281.777 356.901 282.506 357.766C283.235 358.625 283.605 359.833 283.616 361.391V363.336ZM281.311 361.43C281.311 360.404 281.165 359.641 280.873 359.141C280.582 358.641 280.129 358.391 279.514 358.391C278.905 358.391 278.454 358.633 278.163 359.117C277.871 359.596 277.72 360.328 277.709 361.312V363.336C277.709 364.331 277.858 365.065 278.155 365.539C278.452 366.008 278.91 366.242 279.53 366.242C280.129 366.242 280.574 366.013 280.866 365.555C281.157 365.091 281.306 364.375 281.311 363.406V361.43ZM294.748 370.797H292.638V368H287.256V370.789H285.084L284.959 366.094H285.717C286.05 365.786 286.313 365.292 286.506 364.609C286.698 363.927 286.834 363.034 286.912 361.93L287.232 356.625H293.771V366.094H294.951L294.748 370.797ZM288.185 366.094H291.482V358.539H289.42L289.232 361.672C289.102 363.552 288.753 365.026 288.185 366.094ZM299.075 364V368H296.778V356.625H300.653C301.778 356.625 302.674 356.974 303.341 357.672C304.013 358.37 304.349 359.276 304.349 360.391C304.349 361.505 304.018 362.385 303.357 363.031C302.695 363.677 301.778 364 300.607 364H299.075ZM299.075 362.086H300.653C301.091 362.086 301.429 361.943 301.669 361.656C301.909 361.37 302.028 360.953 302.028 360.406C302.028 359.839 301.906 359.388 301.661 359.055C301.416 358.716 301.088 358.544 300.677 358.539H299.075V362.086ZM314.536 363.336C314.536 364.862 314.174 366.047 313.45 366.891C312.731 367.734 311.731 368.156 310.45 368.156C309.174 368.156 308.171 367.74 307.442 366.906C306.713 366.068 306.343 364.896 306.333 363.391V361.445C306.333 359.883 306.694 358.664 307.418 357.789C308.142 356.909 309.148 356.469 310.434 356.469C311.7 356.469 312.697 356.901 313.426 357.766C314.155 358.625 314.525 359.833 314.536 361.391V363.336ZM312.231 361.43C312.231 360.404 312.085 359.641 311.793 359.141C311.502 358.641 311.049 358.391 310.434 358.391C309.825 358.391 309.374 358.633 309.083 359.117C308.791 359.596 308.64 360.328 308.629 361.312V363.336C308.629 364.331 308.778 365.065 309.075 365.539C309.372 366.008 309.83 366.242 310.45 366.242C311.049 366.242 311.494 366.013 311.786 365.555C312.077 365.091 312.226 364.375 312.231 363.406V361.43ZM323.199 358.539H319.121V360.711H320.48C321.631 360.711 322.548 361.039 323.23 361.695C323.913 362.346 324.254 363.219 324.254 364.312C324.254 365.401 323.92 366.284 323.254 366.961C322.587 367.633 321.704 367.979 320.605 368H316.816V356.625H323.199V358.539ZM319.121 362.617V366.094H320.512C320.959 366.094 321.311 365.927 321.566 365.594C321.827 365.255 321.957 364.823 321.957 364.297C321.957 363.802 321.829 363.401 321.574 363.094C321.324 362.781 320.975 362.622 320.527 362.617H319.121ZM334.175 368H331.886V363.133H328.495V368H326.198V356.625H328.495V361.227H331.886V356.625H334.175V368ZM342.542 363.078H338.963V366.094H343.198V368H336.667V356.625H343.182V358.539H338.963V361.227H342.542V363.078ZM351.041 363.078H347.463V366.094H351.697V368H345.166V356.625H351.682V358.539H347.463V361.227H351.041V363.078ZM353.736 366.875C353.736 366.521 353.853 366.229 354.087 366C354.327 365.771 354.637 365.656 355.017 365.656C355.387 365.656 355.694 365.771 355.939 366C356.184 366.224 356.306 366.516 356.306 366.875C356.306 367.24 356.181 367.534 355.931 367.758C355.686 367.977 355.381 368.086 355.017 368.086C354.647 368.086 354.34 367.974 354.095 367.75C353.855 367.526 353.736 367.234 353.736 366.875ZM359.032 366.875C359.032 366.521 359.149 366.229 359.383 366C359.623 365.771 359.933 365.656 360.313 365.656C360.683 365.656 360.99 365.771 361.235 366C361.48 366.224 361.602 366.516 361.602 366.875C361.602 367.24 361.477 367.534 361.227 367.758C360.982 367.977 360.678 368.086 360.313 368.086C359.943 368.086 359.636 367.974 359.391 367.75C359.152 367.526 359.032 367.234 359.032 366.875ZM364.328 366.875C364.328 366.521 364.445 366.229 364.68 366C364.919 365.771 365.229 365.656 365.609 365.656C365.979 365.656 366.286 365.771 366.531 366C366.776 366.224 366.898 366.516 366.898 366.875C366.898 367.24 366.773 367.534 366.523 367.758C366.279 367.977 365.974 368.086 365.609 368.086C365.24 368.086 364.932 367.974 364.688 367.75C364.448 367.526 364.328 367.234 364.328 366.875Z" fill="black"/>
    <path d="M90.3694 176.336C90.3694 177.862 90.0074 179.047 89.2834 179.891C88.5647 180.734 87.5647 181.156 86.2834 181.156C85.0074 181.156 84.0048 180.74 83.2756 179.906C82.5465 179.068 82.1767 177.896 82.1662 176.391V174.445C82.1662 172.883 82.5282 171.664 83.2522 170.789C83.9761 169.909 84.9814 169.469 86.2678 169.469C87.5334 169.469 88.5308 169.901 89.26 170.766C89.9892 171.625 90.359 172.833 90.3694 174.391V176.336ZM88.0647 174.43C88.0647 173.404 87.9189 172.641 87.6272 172.141C87.3355 171.641 86.8824 171.391 86.2678 171.391C85.6584 171.391 85.2079 171.633 84.9162 172.117C84.6246 172.596 84.4735 173.328 84.4631 174.312V176.336C84.4631 177.331 84.6116 178.065 84.9084 178.539C85.2053 179.008 85.6636 179.242 86.2834 179.242C86.8824 179.242 87.3277 179.013 87.6194 178.555C87.911 178.091 88.0595 177.375 88.0647 176.406V174.43ZM99.3531 171.539H96.5406V181H94.2359V171.539H91.4703V169.625H99.3531V171.539ZM109.298 181H107.001V171.539H103.626V181H101.329V169.625H109.298V181ZM114.094 177V181H111.797V169.625H115.672C116.797 169.625 117.693 169.974 118.36 170.672C119.032 171.37 119.368 172.276 119.368 173.391C119.368 174.505 119.037 175.385 118.375 176.031C117.714 176.677 116.797 177 115.625 177H114.094ZM114.094 175.086H115.672C116.11 175.086 116.448 174.943 116.688 174.656C116.927 174.37 117.047 173.953 117.047 173.406C117.047 172.839 116.925 172.388 116.68 172.055C116.435 171.716 116.107 171.544 115.696 171.539H114.094V175.086ZM125.586 178.672H122.453L121.843 181H119.414L122.968 169.625H125.07L128.648 181H126.195L125.586 178.672ZM122.953 176.758H125.078L124.015 172.703L122.953 176.758ZM130.358 181V169.625H133.874C135.062 169.625 135.963 169.891 136.577 170.422C137.197 170.948 137.507 171.721 137.507 172.742C137.507 173.32 137.379 173.818 137.124 174.234C136.869 174.651 136.52 174.956 136.077 175.148C136.588 175.294 136.981 175.589 137.257 176.031C137.533 176.469 137.671 177.01 137.671 177.656C137.671 178.76 137.366 179.594 136.757 180.156C136.153 180.719 135.275 181 134.124 181H130.358ZM132.655 176.055V179.094H134.124C134.536 179.094 134.848 178.966 135.062 178.711C135.275 178.456 135.382 178.094 135.382 177.625C135.382 176.604 135.012 176.081 134.272 176.055H132.655ZM132.655 174.383H133.851C134.752 174.383 135.202 173.917 135.202 172.984C135.202 172.469 135.098 172.099 134.89 171.875C134.681 171.651 134.343 171.539 133.874 171.539H132.655V174.383ZM145.553 169.625H147.85V181H145.553V173.469L142.202 181H139.897V169.625H142.202V177.164L145.553 169.625ZM153.326 169.625L155.474 177.852L157.615 169.625H160.615V181H158.31V177.922L158.521 173.18L156.248 181H154.685L152.412 173.18L152.623 177.922V181H150.326V169.625H153.326ZM82.2606 192.336C82.2606 193.862 81.8986 195.047 81.1747 195.891C80.4559 196.734 79.4559 197.156 78.1747 197.156C76.8986 197.156 75.896 196.74 75.1669 195.906C74.4377 195.068 74.0679 193.896 74.0575 192.391V190.445C74.0575 188.883 74.4195 187.664 75.1434 186.789C75.8674 185.909 76.8726 185.469 78.1591 185.469C79.4247 185.469 80.4221 185.901 81.1512 186.766C81.8804 187.625 82.2502 188.833 82.2606 190.391V192.336ZM79.9559 190.43C79.9559 189.404 79.8101 188.641 79.5184 188.141C79.2268 187.641 78.7736 187.391 78.1591 187.391C77.5497 187.391 77.0992 187.633 76.8075 188.117C76.5158 188.596 76.3648 189.328 76.3544 190.312V192.336C76.3544 193.331 76.5028 194.065 76.7997 194.539C77.0966 195.008 77.5549 195.242 78.1747 195.242C78.7736 195.242 79.219 195.013 79.5106 194.555C79.8023 194.091 79.9507 193.375 79.9559 192.406V190.43ZM92.5334 197H90.2366V187.539H86.8616V197H84.5647V185.625H92.5334V197ZM100.908 192.078H97.3297V195.094H101.564V197H95.0328V185.625H101.548V187.539H97.3297V190.227H100.908V192.078ZM105.829 193V197H103.532V185.625H107.407C108.532 185.625 109.428 185.974 110.095 186.672C110.767 187.37 111.102 188.276 111.102 189.391C111.102 190.505 110.772 191.385 110.11 192.031C109.449 192.677 108.532 193 107.36 193H105.829ZM105.829 191.086H107.407C107.845 191.086 108.183 190.943 108.423 190.656C108.662 190.37 108.782 189.953 108.782 189.406C108.782 188.839 108.66 188.388 108.415 188.055C108.17 187.716 107.842 187.544 107.431 187.539H105.829V191.086ZM117.321 194.672H114.188L113.578 197H111.149L114.703 185.625H116.805L120.383 197H117.93L117.321 194.672ZM114.688 192.758H116.813L115.75 188.703L114.688 192.758ZM128.523 187.539H125.711V197H123.406V187.539H120.64V185.625H128.523V187.539ZM136.054 185.625H138.351V197H136.054V189.469L132.702 197H130.397V185.625H132.702V193.164L136.054 185.625ZM140.827 197V185.625H144.342C145.53 185.625 146.431 185.891 147.045 186.422C147.665 186.948 147.975 187.721 147.975 188.742C147.975 189.32 147.847 189.818 147.592 190.234C147.337 190.651 146.988 190.956 146.545 191.148C147.056 191.294 147.449 191.589 147.725 192.031C148.001 192.469 148.139 193.01 148.139 193.656C148.139 194.76 147.834 195.594 147.225 196.156C146.621 196.719 145.743 197 144.592 197H140.827ZM143.123 192.055V195.094H144.592C145.004 195.094 145.316 194.966 145.53 194.711C145.743 194.456 145.85 194.094 145.85 193.625C145.85 192.604 145.48 192.081 144.741 192.055H143.123ZM143.123 190.383H144.319C145.22 190.383 145.67 189.917 145.67 188.984C145.67 188.469 145.566 188.099 145.358 187.875C145.149 187.651 144.811 187.539 144.342 187.539H143.123V190.383ZM158.428 197H156.138V192.133H152.748V197H150.451V185.625H152.748V190.227H156.138V185.625H158.428V197ZM168.927 192.336C168.927 193.862 168.565 195.047 167.841 195.891C167.122 196.734 166.122 197.156 164.841 197.156C163.565 197.156 162.562 196.74 161.833 195.906C161.104 195.068 160.734 193.896 160.724 192.391V190.445C160.724 188.883 161.086 187.664 161.81 186.789C162.534 185.909 163.539 185.469 164.825 185.469C166.091 185.469 167.088 185.901 167.818 186.766C168.547 187.625 168.916 188.833 168.927 190.391V192.336ZM166.622 190.43C166.622 189.404 166.476 188.641 166.185 188.141C165.893 187.641 165.44 187.391 164.825 187.391C164.216 187.391 163.765 187.633 163.474 188.117C163.182 188.596 163.031 189.328 163.021 190.312V192.336C163.021 193.331 163.169 194.065 163.466 194.539C163.763 195.008 164.221 195.242 164.841 195.242C165.44 195.242 165.885 195.013 166.177 194.555C166.469 194.091 166.617 193.375 166.622 192.406V190.43Z" fill="white"/>
</svg>
