<svg width="368" height="368" viewBox="0 0 368 368" fill="none" xmlns="http://www.w3.org/2000/svg">
    <rect width="368" height="368" fill="black"/>
    <g clip-path="url(#clip0)">
        <path d="M53.081 51C140.396 51 227.685 51 315 51C315 138 315 225 315 312C314.323 311.973 313.647 311.919 312.97 311.919C227.062 311.919 141.154 311.919 55.2456 311.919C52.9186 311.919 52.9728 312.404 52.9728 309.711C52.9728 224.138 52.9728 138.593 52.9728 53.0201C52.9998 52.3467 53.0539 51.6734 53.081 51ZM183.905 66.5684C146.078 66.5684 108.252 66.5684 70.3979 66.5684C68.4498 66.5684 68.4498 66.5684 68.4498 68.5347C68.4498 143.845 68.4498 219.182 68.4498 294.492C68.4498 296.432 68.4498 296.432 70.425 296.432C146.078 296.432 221.759 296.432 297.412 296.432C299.36 296.432 299.36 296.432 299.36 294.465C299.36 219.155 299.36 143.818 299.36 68.5077C299.36 66.5684 299.36 66.5684 297.385 66.5684C259.586 66.5684 221.732 66.5684 183.905 66.5684Z" fill="white"/>
        <path d="M152.762 179.074C151.896 179.802 150.895 180.69 149.866 181.525C148.892 182.307 148.027 181.983 147.648 180.906C147.269 179.829 147.08 178.67 146.809 177.539C146.755 177.297 146.755 177.027 146.701 176.516C145.321 178.455 143.833 179.882 141.749 180.583C139.747 181.256 139.395 181.041 138.908 179.02C138.34 176.596 139.233 174.549 140.45 172.529C139.098 172.906 137.826 173.31 136.554 173.553C135.742 173.714 134.849 173.634 134.011 173.553C132.577 173.418 132.306 173.068 132.928 171.775C133.497 170.59 134.362 169.539 135.174 168.462C135.499 168.031 135.959 167.735 136.527 167.196C135.878 167.034 135.391 166.9 134.904 166.792C132.928 166.28 131.251 165.338 129.979 163.721C129.221 162.752 129.357 162.051 130.439 161.647C131.765 161.163 133.145 160.812 134.552 160.462C135.093 160.328 135.715 160.435 136.365 160.22C136.067 160.031 135.742 159.816 135.418 159.654C133.253 158.55 131.873 156.799 131.088 154.537C130.628 153.19 130.791 152.894 132.252 152.678C134.498 152.328 136.635 152.759 138.665 153.809C139.07 154.025 139.449 154.213 139.855 154.402C139.936 154.321 140.045 154.24 140.126 154.16C139.341 153.244 138.692 152.193 137.772 151.466C133.064 147.749 132.09 142.685 132.225 137.137C132.225 136.921 132.306 136.706 132.36 136.355C132.577 136.517 132.739 136.598 132.793 136.706C135.634 142.2 140.234 145.971 145.185 149.419C146.998 150.685 148.73 152.059 148.892 154.429C148.974 155.722 148.649 157.095 148.216 158.307C147.323 160.893 146.105 163.344 145.294 165.957C144.482 168.543 145.294 169.943 147.864 170.859C151.436 172.152 155.007 171.99 158.606 170.913C158.823 170.859 159.012 170.778 159.174 170.751C160.175 172.556 161.177 174.307 162.178 176.138C161.285 177.351 159.932 177 158.552 176.973C158.552 178.32 158.687 179.64 158.525 180.96C158.336 182.549 157.876 182.791 156.496 181.956C155.17 181.121 154.006 180.044 152.762 179.074Z" fill="white"/>
        <path d="M227.982 154.241C229.254 153.756 230.499 153.109 231.825 152.84C233.123 152.571 234.503 152.625 235.829 152.705C236.803 152.759 237.182 153.271 236.803 154.375C235.991 156.692 234.611 158.469 232.42 159.628C232.122 159.789 231.797 159.978 231.527 160.436C232.203 160.436 232.907 160.328 233.583 160.463C234.693 160.651 235.802 160.867 236.83 161.298C238.833 162.16 239.022 162.887 237.344 164.314C236.073 165.365 234.449 166.011 232.961 166.792C232.555 167.008 232.041 167.035 231.554 167.169C232.528 168.301 233.556 169.27 234.287 170.402C234.774 171.183 234.855 172.233 235.126 173.149C234.233 173.338 233.313 173.769 232.474 173.688C230.823 173.499 229.2 173.041 227.658 172.691C228.036 173.688 228.605 174.846 228.956 176.085C229.471 177.809 229.146 179.452 228.145 180.933C226.765 180.475 225.304 180.179 224.059 179.506C222.95 178.913 222.084 177.863 221.137 177.055C221.11 177.351 221.137 177.89 221.056 178.428C220.92 179.183 220.758 179.937 220.46 180.61C219.757 182.199 219.216 182.388 217.782 181.391C216.753 180.691 215.888 179.775 215.184 179.156C213.804 180.152 212.451 181.203 211.044 182.172C210.232 182.738 209.637 182.388 209.556 181.445C209.394 179.991 209.34 178.536 209.231 177.135C208.393 177.028 207.391 176.974 206.471 176.731C205.903 176.597 205.606 176.193 206.038 175.492C206.986 173.984 207.851 172.395 208.771 170.779C212.072 171.883 215.509 172.179 219.026 171.237C219.378 171.156 219.73 171.048 220.054 170.913C222.625 169.917 223.491 168.516 222.652 165.877C221.894 163.452 220.893 161.082 219.865 158.739C218.133 154.726 218.864 152.14 222.544 149.608C226.873 146.618 230.932 143.359 233.854 138.915C234.395 138.08 234.882 137.191 235.559 136.383C235.883 141.77 235.342 146.834 230.986 150.739C229.849 151.763 228.848 152.948 227.793 154.052C227.82 154.106 227.901 154.187 227.982 154.241Z" fill="white"/>
        <path d="M95.913 99.1865C97.5095 100.883 99.0788 102.607 100.675 104.277C107.954 111.9 113.555 120.654 118.263 129.973C118.75 130.943 118.696 132.155 118.75 133.313C112.986 127.253 108.982 119.738 102.109 114.755C102.001 114.809 101.893 114.89 101.812 114.943C101.947 115.348 102.055 115.752 102.217 116.156C103.814 120.115 106.033 123.697 109.144 126.633C112.148 129.461 115.313 132.155 118.371 134.929C118.642 135.172 118.939 135.549 119.02 135.899C119.67 138.539 121.05 140.774 122.727 142.956C121.916 142.606 121.077 142.283 120.265 141.905C119.453 141.528 118.642 141.151 117.857 140.666C109.361 135.495 102.542 128.6 97.3742 120.142C94.3166 115.159 93.9108 109.664 94.6143 104.035C94.8037 102.526 95.1013 101.045 95.3448 99.5367C95.5613 99.402 95.7507 99.2943 95.913 99.1865Z" fill="white"/>
        <path d="M249.25 133.502C248.844 131.266 249.682 129.515 250.657 127.737C255.987 117.906 262.237 108.721 270.409 100.937C270.896 100.479 271.41 100.021 271.897 99.5635C271.978 99.4827 272.14 99.4827 272.33 99.4019C274.116 106.998 274.251 114.324 269.759 121.165C264.375 129.327 257.664 136.087 249.168 141.043C248.735 141.286 248.302 141.501 247.842 141.717C246.923 142.121 245.976 142.525 244.677 143.09C246.733 140.72 248.113 138.377 248.817 135.683C248.925 135.252 249.493 134.902 249.899 134.552C253.606 131.024 257.475 127.657 260.993 123.94C263.374 121.435 264.889 118.283 266.134 114.593C265.43 115.051 264.97 115.24 264.645 115.563C262.697 117.475 260.614 119.28 258.855 121.381C255.635 125.313 252.523 129.38 249.25 133.502Z" fill="white"/>
        <path d="M83.3051 115.833C84.6309 116.533 86.0108 117.018 87.1202 117.853C90.8271 120.627 94.534 123.401 98.0245 126.418C102.976 130.728 107.819 135.172 112.554 139.724C113.556 140.694 113.934 142.337 114.476 143.764C107.305 138.997 101.136 132.882 93.2082 129.381C93.1 129.462 93.0188 129.569 92.9105 129.65C93.1541 129.973 93.3705 130.324 93.614 130.647C97.4292 135.576 102.489 138.997 107.846 142.04C109.957 143.225 112.203 144.222 114.286 145.434C115.314 146.027 116.126 146.969 117.019 147.75C116.911 147.912 116.803 148.101 116.694 148.262C115.504 147.966 114.286 147.75 113.123 147.4C103.355 144.437 94.6422 139.616 87.5261 132.236C83.3321 127.899 82.6827 122.405 82.9804 116.721C83.0345 116.479 83.1427 116.263 83.3051 115.833Z" fill="white"/>
        <path d="M251.009 148.155C251.604 146.889 252.308 145.973 253.525 145.38C258.856 142.848 264.078 140.047 268.623 136.249C270.95 134.31 272.98 132.021 275.144 129.893C275.036 129.731 274.928 129.596 274.82 129.435C274.36 129.596 273.818 129.677 273.413 129.947C270.572 131.697 267.676 133.34 264.971 135.253C261.101 138.027 257.367 140.99 253.282 144.114C254.066 142.04 254.445 140.29 256.096 138.862C260.452 135.118 264.538 131.024 268.894 127.253C272.736 123.94 276.768 120.87 280.799 117.772C281.882 116.937 283.235 116.479 284.858 115.617C284.858 117.583 284.966 119.226 284.831 120.843C284.452 125.906 282.639 130.297 278.743 133.771C270.977 140.694 262.157 145.569 251.983 148.02C251.739 148.128 251.415 148.128 251.009 148.155Z" fill="white"/>
        <path d="M293.273 140.639C292.109 141.986 291.054 143.441 289.755 144.626C285.209 148.801 279.69 151.171 273.791 152.706C266.891 154.511 259.937 156.127 253.011 157.851C251.766 158.174 250.548 158.578 249.385 158.928C250.088 157.716 250.765 156.477 251.55 155.292C251.739 154.996 252.253 154.807 252.632 154.726C257.719 153.757 262.778 152.679 267.568 150.686C269.408 149.932 271.166 148.989 272.979 148.127C272.925 147.939 272.844 147.723 272.79 147.535C269.976 148.047 267.081 148.37 264.321 149.151C260.316 150.282 256.366 151.71 252.415 153.057C251.55 153.353 250.873 153.461 250.034 153.003C249.277 152.599 248.384 152.41 247.274 152.033C251.631 150.417 255.716 148.747 259.883 147.4C266.458 145.299 273.087 143.279 279.771 141.501C284.073 140.37 288.537 140.02 293.002 140.235C293.083 140.37 293.191 140.505 293.273 140.639Z" fill="white"/>
        <path d="M74.9436 139.938C78.7317 140.315 82.5468 140.449 86.2808 141.15C97.9156 143.304 108.901 147.56 119.859 151.843C120.022 151.897 120.157 152.031 120.265 152.085C119.21 152.489 118.209 152.947 117.127 153.27C116.721 153.405 116.18 153.27 115.747 153.136C110.497 151.546 105.302 149.877 100.026 148.341C98.4026 147.883 96.6709 147.856 94.9934 147.641C94.9393 147.749 94.9122 147.856 94.8581 147.964C95.2369 148.207 95.6157 148.476 96.0216 148.691C101.271 151.52 106.926 153.082 112.716 154.213C112.77 154.213 112.797 154.213 112.851 154.24C114.773 154.482 116.64 154.752 117.262 157.095C117.424 157.715 118.101 158.226 118.696 158.981C116.64 158.388 114.8 157.822 112.933 157.364C106.06 155.641 99.1332 154.051 92.2876 152.193C87.4713 150.9 83.0339 148.718 79.1375 145.567C77.3788 144.139 75.8094 142.55 74.7812 140.53C74.8354 140.315 74.8895 140.126 74.9436 139.938Z" fill="white"/>
        <path d="M166.291 262.062C167.049 262.493 167.698 262.844 168.483 263.274C171.919 258.103 175.301 252.985 178.846 247.652C182.309 253.874 185.637 259.935 189.155 266.291C196.027 256.675 202.792 247.275 209.556 237.794C208.88 237.228 208.312 236.77 207.635 236.178C209.773 235.37 211.775 234.616 213.94 233.808C213.94 236.151 213.94 238.36 213.94 240.73C213.155 240.218 212.479 239.787 211.694 239.275C204.145 249.78 196.623 260.285 188.965 270.978C185.502 264.837 182.174 258.911 178.656 252.662C175.897 256.783 173.299 260.689 170.62 264.648C171.324 265.187 171.946 265.672 172.731 266.291C170.512 267.153 168.456 267.961 166.291 268.823C166.291 266.48 166.291 264.352 166.291 262.062Z" fill="white"/>
        <path d="M225.682 239.627C223.815 236.098 223.977 234.859 226.44 232.274C230.661 227.802 237.831 228.126 241.646 232.974C241.971 233.378 242.268 233.809 242.728 234.132C241.7 229.796 240.537 225.54 235.531 223.816C238.94 222.766 239.617 222.227 244.974 216.328C245.894 219.102 246.841 222.011 247.842 224.92C250.007 231.304 248.519 237.014 244.487 242.213C244 242.859 243.432 243.425 242.945 244.071C242.106 245.202 241.321 246.388 240.266 247.869C238.453 247.869 236.153 247.896 233.88 247.842C233.529 247.842 233.177 247.357 232.825 247.088C233.15 246.792 233.448 246.361 233.826 246.226C234.259 246.064 234.8 246.145 235.287 246.118C239.021 246.01 241.43 243.748 241.754 240.058C242.16 235.56 239.021 231.546 234.8 231.169C229.957 230.738 226.115 233.917 225.709 238.684C225.655 238.846 225.682 239.061 225.682 239.627Z" fill="white"/>
        <path d="M142.236 239.302C141.803 234.993 139.774 232.326 136.203 231.33C132.956 230.414 129.465 231.68 127.517 234.481C125.569 237.282 125.623 241.107 127.598 243.801C128.735 245.363 130.304 245.928 132.144 246.063C132.82 246.117 133.524 246.036 134.146 246.198C134.498 246.306 134.741 246.817 135.039 247.141C134.714 247.383 134.39 247.814 134.038 247.814C131.738 247.868 129.465 247.841 127.652 247.841C126.489 246.252 125.596 244.905 124.595 243.693C121.05 239.41 118.453 234.804 119.183 229.013C119.4 227.343 119.833 225.673 120.32 224.057C121.131 221.391 122.078 218.751 122.89 216.246C125.055 219.505 127.95 222.414 132.279 223.815C127.273 225.485 126.191 229.794 124.946 233.969C125.055 234.05 125.136 234.131 125.244 234.212C125.542 233.808 125.839 233.431 126.137 233.027C130.304 227.613 138.448 227.801 142.345 233.404C143.941 235.747 143.941 236.851 142.236 239.302Z" fill="white"/>
        <path d="M253.525 162.753C260.235 162.484 266.756 161.703 273.169 160.06C273.169 159.898 273.169 159.764 273.196 159.602C271.978 159.467 270.788 159.279 269.57 159.225C263.861 158.956 258.26 159.629 252.713 161.057C251.901 161.272 251.008 161.003 250.143 160.733C263.969 155.831 278.093 153.892 293.002 155.912C292.515 156.343 292.326 156.558 292.109 156.693C282.612 162.753 272.249 165.366 260.993 164.423C259.234 164.289 257.475 164.262 255.716 164.262C254.661 164.316 253.985 163.939 253.525 162.753Z" fill="white"/>
        <path d="M117.831 160.518C116.803 161.487 115.829 161.326 114.8 161.029C108.469 159.359 102.056 158.767 95.5353 159.494C95.2647 159.521 94.9942 159.656 94.7236 159.871C101.109 161.703 107.63 162.457 114.34 162.726C113.989 163.804 113.448 164.288 112.365 164.288C107.414 164.288 102.462 164.558 97.5105 164.288C89.3932 163.857 82.1688 160.733 75.4044 156.423C75.3503 156.37 75.3232 156.262 75.1338 155.912C89.7991 153.865 103.896 155.858 117.831 160.518Z" fill="white"/>
        <path d="M288.592 173.283C286.022 173.606 283.478 174.172 280.908 174.253C270.87 174.576 260.939 173.552 251.171 171.317C249.9 171.02 248.79 170.105 247.438 169.377C249.764 168.138 251.686 168.354 253.823 168.892C258.639 170.131 263.564 170.536 268.543 170.347C268.894 170.32 269.246 170.266 269.598 170.212C269.652 170.212 269.706 170.078 269.895 169.862C264.565 167.653 258.91 167.6 253.282 166.657C253.85 166.468 254.418 166.064 254.987 166.118C260.831 166.414 266.676 166.684 272.52 167.169C277.553 167.6 282.18 169.566 286.698 171.721C287.375 172.044 287.997 172.448 288.646 172.798C288.619 172.987 288.619 173.121 288.592 173.283Z" fill="white"/>
        <path d="M120.022 169.083C118.859 171.238 116.721 171.453 114.719 171.83C105.709 173.5 96.6442 174.578 87.4716 174.254C84.7118 174.147 81.9789 173.635 79.2461 173.312C79.2461 173.177 79.2461 173.042 79.2461 172.935C79.4355 172.773 79.6249 172.584 79.8414 172.477C84.5494 169.972 89.4469 167.925 94.7772 167.251C98.0783 166.82 101.433 166.82 104.762 166.632C107.413 166.47 110.065 166.255 112.716 166.174C113.366 166.147 114.015 166.47 114.665 166.82C109.064 167.655 103.355 167.736 98.0512 169.864C98.0512 169.999 98.0512 170.106 98.0783 170.241C98.4841 170.295 98.9171 170.376 99.3229 170.376C104.789 170.591 110.227 170.08 115.476 168.571C117.208 168.059 118.534 168.867 120.022 169.083Z" fill="white"/>
        <path d="M248.032 177.108C249.52 176.084 251.198 176.435 253.038 177.243C256.961 178.966 261.047 180.205 265.322 180.609C265.782 180.663 266.269 180.609 266.756 180.475C262.021 176.946 256.447 175.303 250.927 173.552C250.954 173.418 251.009 173.283 251.036 173.148C252.524 173.391 254.039 173.579 255.527 173.876C259.586 174.657 263.699 175.222 267.649 176.354C273.142 177.943 277.498 181.283 280.583 186.158C280.853 186.589 281.097 187.074 281.421 187.639C277.85 188.286 274.549 187.774 271.329 186.804C268.758 186.023 266.242 185.027 263.78 183.976C258.422 181.714 253.146 179.343 248.032 177.108Z" fill="white"/>
        <path d="M116.965 173.502C111.472 175.333 105.844 176.895 101.055 180.289C101.082 180.424 101.082 180.559 101.109 180.693C102.516 180.532 103.977 180.559 105.33 180.182C108.415 179.347 111.499 178.485 114.448 177.353C116.424 176.599 118.209 175.926 119.941 177.138C115.693 178.943 111.256 180.855 106.791 182.713C103.436 184.114 100.081 185.569 96.6444 186.754C93.4245 187.831 90.0694 188.262 86.4707 187.669C86.7413 187.131 86.9577 186.673 87.2283 186.215C91.1787 179.993 97.0503 176.626 104.166 175.252C108.36 174.444 112.554 173.825 116.775 173.098C116.857 173.232 116.911 173.367 116.965 173.502Z" fill="white"/>
        <path d="M128.328 185.27C128.978 186.455 128.518 187.155 127.787 188.044C124.892 191.465 122.078 194.967 119.372 198.549C116.775 201.997 113.447 204.259 109.199 205.121C108.739 205.229 108.252 205.229 107.656 205.31C108.143 200.973 109.496 197.148 112.121 193.808C115.828 189.122 120.373 185.324 125.19 181.795C125.433 181.607 125.839 181.499 126.164 181.553C127.165 181.688 128.166 181.903 129.573 182.172C128.842 182.9 128.355 183.654 127.652 184.058C123.945 186.213 120.319 188.475 117.478 191.734C116.531 192.812 115.747 194.051 115.097 195.397C120.346 193.135 124.324 189.283 128.328 185.27Z" fill="white"/>
        <path d="M238.237 182.171C239.725 181.902 240.7 181.713 241.674 181.579C241.998 181.525 242.404 181.579 242.648 181.74C247.708 185.538 252.578 189.498 256.339 194.642C258.612 197.767 259.748 201.322 260.289 205.335C259.505 205.228 258.801 205.147 258.125 204.985C254.634 204.177 251.685 202.453 249.412 199.679C246.057 195.558 242.729 191.437 239.455 187.289C239.13 186.858 239.266 186.077 239.347 185.377C243.514 189.174 247.464 193.161 252.876 195.37C252.605 194.858 252.361 194.319 252.037 193.834C249.115 189.498 244.839 186.75 240.429 184.165C239.698 183.734 239.13 183.006 238.237 182.171Z" fill="white"/>
        <path d="M123.107 178.322C117.127 180.961 110.877 183.224 107.44 189.365C113.501 187.345 118.588 183.601 123.594 179.749C123.675 179.884 123.756 180.019 123.837 180.153C123.81 180.261 123.783 180.423 123.729 180.477C118.859 184.813 113.988 189.15 109.091 193.432C105.6 196.476 101.488 197.93 96.8606 198.038C96.5901 198.038 96.3195 198.011 95.7783 197.957C96.4818 196.395 97.0771 194.914 97.8077 193.513C100.243 188.961 103.733 185.54 108.55 183.547C113.176 181.662 117.803 179.857 122.43 177.999C122.538 177.945 122.701 177.972 122.809 177.972C122.917 178.079 122.998 178.187 123.107 178.322Z" fill="white"/>
        <path d="M271.979 198.011C267.027 198.065 262.752 196.799 259.153 193.701C255.068 190.173 251.063 186.537 247.032 182.954C246.003 182.039 244.948 181.15 243.92 180.234C244.001 180.099 244.082 179.965 244.136 179.83C244.515 180.018 244.894 180.18 245.246 180.395C249.169 182.927 253.038 185.513 256.989 188.018C257.99 188.665 259.181 189.015 260.371 189.526C259.965 187.56 257.124 184.57 253.525 182.523C250.711 180.934 247.708 179.587 244.894 177.917C245.165 177.971 245.435 178.025 245.679 178.106C250.062 179.83 254.472 181.554 258.856 183.304C265.566 186.052 269.571 191.143 271.979 198.011Z" fill="white"/>
        <path d="M239.401 243.934C238.562 244.203 237.94 244.553 237.29 244.607C234.693 244.85 232.312 245.55 230.012 246.816C228.496 247.678 226.683 248.001 225.006 248.567C221.813 239.57 218.539 231.005 208.474 227.854C208.907 226.291 209.718 225.887 211.071 226.534C211.666 226.83 212.262 227.153 213.073 227.584C213.128 226.857 213.073 226.211 213.29 225.699C213.425 225.322 213.912 224.837 214.264 224.837C215.671 224.81 216.916 225.295 217.619 226.642C219.757 230.682 221.894 234.695 224.059 238.735C224.762 240.082 225.439 241.456 226.305 242.695C227.252 244.015 228.28 244.149 229.741 243.395C230.39 243.072 230.959 242.641 231.581 242.264C234.233 240.621 237.074 241.106 239.401 243.934Z" fill="white"/>
        <path d="M159.417 228.016C153.735 229.309 150.191 233.187 147.431 237.928C145.672 240.918 144.13 243.988 143.399 247.409C143.345 247.705 143.183 248.002 142.966 248.594C141.262 248.028 139.449 247.732 137.934 246.897C135.607 245.577 133.171 244.877 130.547 244.635C129.897 244.581 129.302 244.204 128.599 243.961C130.412 241.403 133.361 240.675 135.796 242.022C136.391 242.345 136.932 242.749 137.501 243.099C139.557 244.365 140.829 244.123 142.127 242.076C142.804 241.025 143.264 239.84 143.832 238.736C145.943 234.75 148.08 230.763 150.218 226.777C150.84 225.646 151.787 225.026 153.14 224.891C154.141 224.784 154.709 224.945 154.682 226.103C154.655 226.561 154.763 227.046 154.818 227.423C156.062 227.046 157.145 226.561 158.281 226.454C158.822 226.4 159.444 227.046 160.013 227.369C159.769 227.558 159.58 227.773 159.417 228.016Z" fill="white"/>
        <path d="M180.55 127.656C177.898 129.515 175.436 128.949 171.648 125.771C171.675 126.444 171.702 127.01 171.756 127.845C170.972 127.468 170.376 127.171 169.619 126.821C169.808 127.494 169.97 128.06 170.187 128.868C169.402 128.626 168.78 128.437 168.049 128.222C168.022 128.653 167.995 129.057 167.941 129.757C166.994 129.353 166.155 129.003 165.344 128.599C164.559 128.195 163.801 127.71 162.908 127.198C162.8 127.683 162.692 128.141 162.584 128.599C159.688 128.518 156.739 124.262 157.118 120.438C163.72 122.215 170.295 121.057 177.114 120.599C176.518 121.03 175.923 121.461 175.22 122C175.923 122.431 176.41 122.754 177.06 123.158C176.302 123.777 175.653 124.289 174.895 124.909C176.518 126.39 178.25 127.387 180.55 127.656ZM161.393 126.04C162.584 123.535 164.802 123.777 166.588 123.131C164.478 123.131 162.394 123.131 159.932 123.131C160.473 124.208 160.852 124.963 161.393 126.04Z" fill="white"/>
        <path d="M187.559 127.978C189.399 127.036 191.157 126.147 193.105 125.123C192.158 124.315 191.536 123.777 190.778 123.103C191.374 122.726 191.834 122.457 192.375 122.134C191.861 121.595 191.347 121.056 190.697 120.383C197.489 121.029 204.037 122.241 210.558 120.383C211.315 123.642 208.555 127.844 205.2 128.598C205.146 128.14 205.065 127.709 205.011 127.224C203.306 128.086 201.683 128.894 199.897 129.783C199.816 129.11 199.762 128.679 199.68 128.221C199.004 128.436 198.382 128.598 197.57 128.84C197.786 128.086 197.949 127.548 198.138 126.874C197.381 127.224 196.785 127.494 195.974 127.871C196.028 127.036 196.082 126.443 196.136 125.662C193.592 128.194 190.914 129.729 187.559 127.978ZM206.391 126.039C206.959 124.962 207.365 124.181 207.933 123.103C205.39 123.103 203.306 123.103 201.223 123.103C203.063 123.75 205.2 123.561 206.391 126.039Z" fill="white"/>
        <path d="M133.876 187.749C133.47 188.234 133.037 188.746 132.631 189.231C130.304 192.086 127.896 194.86 125.705 197.796C124.73 199.089 124.189 200.705 124.487 202.644C125.326 201.944 126.3 201.351 126.976 200.516C128.816 198.254 130.602 195.964 132.28 193.567C133.66 191.601 133.578 191.547 136.23 191.709C135.932 192.167 135.635 192.544 135.418 192.921C133.768 195.749 132.09 198.55 130.44 201.405C128.032 205.553 124.189 207.816 119.779 209.54C119.4 206.092 120.293 203.075 121.646 200.166C123.783 195.641 126.814 191.762 130.467 188.369C131.197 187.695 132.577 187.668 133.66 187.372C133.741 187.507 133.822 187.641 133.876 187.749Z" fill="white"/>
        <path d="M133.307 149.286C127.706 145.865 122.132 142.336 120.455 135.36C119.941 133.259 120.157 130.97 120.049 128.438C120.996 128.761 121.51 128.869 121.97 129.084C125.704 130.862 128.383 133.636 129.654 137.623C130.655 140.72 131.575 143.845 132.577 146.969C132.82 147.696 133.226 148.343 133.551 149.043C133.469 149.097 133.388 149.178 133.307 149.286Z" fill="white"/>
        <path d="M247.87 209.46C243.595 207.763 239.752 205.501 237.371 201.326C235.558 198.147 233.691 194.969 231.852 191.818C234.124 191.279 234.043 191.333 235.396 193.299C237.182 195.831 239.076 198.282 240.997 200.679C241.619 201.46 242.512 201.999 243.297 202.645C243.459 202.538 243.622 202.457 243.784 202.349C243.405 201.164 243.162 199.898 242.648 198.794C240.997 195.238 238.372 192.383 235.64 189.663C235.098 189.124 234.584 188.532 233.854 187.723C235.667 187.616 236.938 187.723 238.075 188.936C241.998 193.191 245.678 197.582 247.329 203.265C247.897 205.204 248.059 207.278 248.411 209.271C248.221 209.325 248.032 209.406 247.87 209.46Z" fill="white"/>
        <path d="M234.639 149.151C235.883 145.165 236.993 141.098 238.4 137.111C239.915 132.856 243 130.081 247.437 128.519C248.195 131.913 248.086 135.091 246.598 138.054C243.947 143.226 239.428 146.512 234.639 149.151Z" fill="white"/>
        <path d="M233.177 211.829C229.93 210.024 227.17 207.788 226.386 204.152C225.493 200.004 225.033 195.775 224.437 191.574C224.302 190.577 224.329 189.58 224.248 188.503C225.844 188.961 225.953 190.092 226.196 191.277C226.927 194.913 227.766 198.523 228.658 202.105C228.875 202.967 229.47 203.748 230.12 204.502C231.202 199.627 228.875 195.317 227.82 190.819C229.064 191.035 230.201 192.759 232.338 197.526C234.963 203.425 235.288 208.435 233.177 211.829Z" fill="white"/>
        <path d="M134.715 211.829C131.738 207.223 135.472 192.462 140.153 190.604C139.423 192.974 138.692 195.183 138.097 197.445C137.502 199.735 136.96 202.051 137.664 204.933C138.232 203.964 138.773 203.344 138.963 202.644C139.91 199.062 140.803 195.479 141.614 191.87C141.912 190.55 141.695 189.015 143.644 188.476C143.562 189.715 143.535 190.954 143.373 192.139C142.859 195.937 142.453 199.789 141.723 203.533C140.938 207.438 138.205 209.916 134.715 211.829Z" fill="white"/>
        <path d="M183.933 231.086C186.882 237.092 191.834 241.079 196.244 245.577C193.647 244.931 191.184 243.934 189.047 242.345C188.316 241.806 187.748 241.618 186.909 242.075C184.961 243.153 182.932 243.126 180.984 242.075C180.118 241.618 179.577 241.779 178.846 242.345C176.709 243.961 174.273 244.904 171.676 245.577C176.005 241.106 180.957 237.119 183.933 231.086Z" fill="white"/>
        <path d="M183.906 228.447C182.363 230.171 180.902 231.868 178.305 231.383C178.332 231.276 178.332 231.141 178.386 231.114C181.443 229.148 182.093 227.397 180.902 223.949C180.469 222.683 179.82 221.498 179.306 220.259C178.278 217.862 178.494 215.573 179.928 213.256C181.2 216.434 182.445 219.505 183.662 222.576C183.824 222.576 183.96 222.549 184.122 222.549C184.772 221.04 185.448 219.532 186.07 218.024C186.666 216.488 187.207 214.926 187.856 213.175C189.453 215.599 189.534 217.97 188.505 220.421C188.1 221.364 187.586 222.252 187.18 223.222C185.637 227.02 186.206 228.878 189.561 231.276C187.64 231.787 186.666 231.303 183.906 228.447Z" fill="white"/>
        <path d="M160.771 195.506C158.417 191.601 159.066 186.995 156.279 183.547C159.093 183.897 159.283 183.763 159.878 181.015C160.04 180.234 160.067 179.426 160.149 178.537C160.663 178.376 161.231 178.268 161.745 178.052C162.259 177.81 162.746 177.487 163.26 177.164C166.399 178.914 167.184 181.554 165.56 185.136C164.288 187.911 162.963 190.658 161.664 193.405C161.366 194.025 161.15 194.617 160.771 195.506Z" fill="white"/>
        <path d="M204.55 177.27C205.632 177.754 206.66 178.185 207.58 178.589C207.878 179.909 208.094 181.202 208.446 182.495C208.744 183.68 209.447 184.219 210.719 183.626C210.962 183.518 211.233 183.492 211.801 183.357C208.852 186.912 209.474 191.572 207.228 195.397C206.985 195.02 206.85 194.804 206.741 194.589C205.389 191.707 204.063 188.825 202.737 185.943C202.358 185.081 201.925 184.219 201.763 183.303C201.276 180.663 201.546 178.266 204.55 177.27Z" fill="white"/>
        <path d="M132.441 151.44C130.331 151.845 128.22 152.518 126.083 152.599C123.35 152.706 121.104 151.198 119.508 149.124C117.803 146.915 116.531 144.384 115.232 141.825C121.916 143.333 127.435 146.7 132.441 151.44Z" fill="white"/>
        <path d="M252.686 141.527C250.819 145.864 249.033 149.877 244.731 151.924C242.431 153.029 239.969 153.056 237.588 151.924C236.911 151.601 236.181 151.413 235.369 151.116C240.375 146.645 245.949 143.386 252.686 141.527Z" fill="white"/>
        <path d="M169.917 258.426C165.317 251.989 160.798 245.659 156.199 239.222C155.414 239.733 154.765 240.164 153.926 240.676C153.926 238.333 153.926 236.124 153.926 233.754C155.982 234.535 158.039 235.289 160.23 236.124C159.5 236.717 158.931 237.175 158.282 237.74C159.96 240.084 161.583 242.373 163.207 244.663C165.561 247.949 167.915 251.208 170.296 254.494C171.676 256.46 171.676 256.46 169.917 258.426Z" fill="white"/>
        <path d="M250.008 174.738C247.031 176.65 244.055 175.923 241.079 174.818C237.967 173.687 235.938 171.451 234.747 168.246C238.995 167.627 243.081 168.085 246.869 170.239C248.519 171.209 249.385 172.879 250.008 174.738Z" fill="white"/>
        <path d="M117.911 174.711C118.858 171.694 120.806 169.782 123.837 168.974C126.894 168.192 129.979 167.546 133.145 168.3C130.791 174.414 122.754 177.889 117.911 174.711Z" fill="white"/>
        <path d="M152.626 180.637C154.71 183.196 156.117 185.566 156.901 188.259C157.902 191.761 158.958 195.262 160.04 198.899C158.146 198.979 156.604 198.225 155.305 196.798C152.734 193.97 151.814 190.495 151.679 186.805C151.625 185.431 151.76 184.031 151.896 182.657C151.977 182.037 152.302 181.472 152.626 180.637Z" fill="white"/>
        <path d="M207.798 198.925C209.043 194.75 210.125 190.656 211.532 186.67C212.262 184.623 213.642 182.791 214.86 180.609C215.374 181.283 215.807 181.579 215.861 181.956C216.538 187.37 216.321 192.622 212.344 196.959C211.153 198.279 209.638 198.925 207.798 198.925Z" fill="white"/>
        <path d="M159.066 156.614C159.553 157.368 159.905 158.041 160.338 158.634C161.609 160.358 163.179 160.977 165.019 159.954C166.777 158.984 168.401 157.637 169.862 156.183C171.188 154.89 172.162 153.247 173.515 151.496C172.243 157.099 170.051 161.785 165.533 165.071C162.205 167.495 158.525 164.209 158.173 161.247C157.984 159.711 157.93 158.122 159.066 156.614Z" fill="white"/>
        <path d="M208.771 156.667C211.098 160.007 209.258 165.017 205.524 165.879C204.171 166.202 203.035 165.664 202.006 164.883C199.734 163.186 197.948 161.058 196.784 158.499C195.81 156.371 195.053 154.109 194.214 151.927C194.322 151.873 194.457 151.792 194.566 151.738C194.755 151.981 194.917 152.223 195.134 152.466C196.703 154.351 198.191 156.317 199.869 158.095C200.654 158.903 201.736 159.522 202.791 159.98C204.739 160.842 206.227 160.384 207.526 158.661C207.959 158.068 208.311 157.395 208.771 156.667Z" fill="white"/>
        <path d="M253.254 164.99C249.006 168.977 242.025 168.33 238.048 165.852C238.697 164.802 239.157 163.536 240.05 162.755C240.889 162.028 242.161 161.677 243.297 161.408C247.247 160.465 251.225 161.893 253.254 164.99Z" fill="white"/>
        <path d="M114.529 164.935C116.586 162.134 119.346 161.083 122.647 161.164C125.975 161.245 128.572 162.376 129.628 165.851C127.192 167.952 119.156 169.325 114.529 164.935Z" fill="white"/>
        <path d="M244.216 214.201C244.081 214.551 243.946 215.198 243.621 215.709C241.89 218.511 239.536 220.665 236.505 222.066C235.396 222.578 234.232 222.766 233.258 221.77C232.257 220.719 232.419 219.507 233.096 218.43C234.909 215.494 237.344 213.204 240.51 211.831C242.485 210.996 244.271 212.1 244.216 214.201Z" fill="white"/>
        <path d="M123.702 214.144C123.674 212.204 125.217 210.992 126.976 211.693C130.574 213.12 133.253 215.652 135.012 219.1C135.472 220.015 135.336 220.958 134.633 221.712C133.902 222.466 133.009 222.628 132.035 222.278C128.437 220.904 125.812 218.426 123.972 215.086C123.756 214.763 123.756 214.332 123.702 214.144Z" fill="white"/>
        <path d="M201.304 231.141C200.086 230.576 198.679 230.225 197.705 229.39C196.163 228.071 194.891 226.401 193.484 224.892C192.781 224.138 192.05 223.384 191.32 222.63C191.157 222.711 190.995 222.791 190.833 222.872C190.968 223.707 191.022 224.569 191.266 225.35C192.023 227.721 193.809 229.31 195.73 230.764C196.785 231.599 197.949 232.299 198.896 233.269C199.626 234.023 200.086 235.047 200.546 236.07C197.787 235.963 195.622 234.777 193.809 232.973C191.347 230.495 189.832 227.451 188.885 224.138C188.803 223.815 188.803 223.411 188.939 223.115C189.426 221.93 189.967 220.744 190.589 219.344C191.347 220.098 192.213 220.717 192.727 221.552C194.242 224.057 196.407 225.808 198.815 227.343C200.086 228.151 201.115 229.175 201.602 230.63C201.493 230.791 201.385 230.953 201.304 231.141Z" fill="white"/>
        <path d="M176.573 222.575C175.842 223.329 175.111 224.083 174.408 224.837C173.001 226.346 171.756 228.016 170.187 229.362C169.186 230.197 167.779 230.574 166.561 231.167C166.399 230.978 166.237 230.79 166.074 230.574C166.805 229.686 167.454 228.716 168.266 227.962C169.078 227.208 170.16 226.723 170.972 225.969C172.297 224.73 173.542 223.356 174.787 222.009C175.599 221.147 176.356 220.258 177.222 219.262C177.844 220.689 178.385 221.821 178.845 223.006C178.981 223.356 179.008 223.814 178.927 224.164C177.98 227.45 176.518 230.44 174.11 232.918C172.297 234.776 170.106 235.934 167.373 236.285C167.644 234.48 168.672 233.349 169.943 232.352C171.215 231.356 172.568 230.44 173.786 229.389C175.382 228.016 176.546 226.319 176.924 224.191C177.006 223.76 176.978 223.329 177.006 222.898C176.87 222.736 176.735 222.656 176.573 222.575Z" fill="white"/>
        <path d="M117.641 154.565C119.318 153.649 120.969 153.272 122.863 153.595C125.027 153.972 127.192 154.161 129.465 154.43C130.277 155.885 131.251 157.555 132.198 159.252C128.355 161.757 118.371 159.44 117.641 154.565Z" fill="white"/>
        <path d="M238.372 154.458C240.726 154.162 242.999 153.893 245.245 153.57C247.058 153.3 248.708 153.677 250.25 154.593C249.79 159.037 240.374 161.785 235.693 159.361C236.586 157.664 237.506 155.994 238.372 154.458Z" fill="white"/>
        <path d="M183.987 202.079C186.124 205.095 187.748 208.139 186.53 211.883C185.799 214.092 184.961 216.246 184.122 218.536C180.144 212.745 180.063 206.388 183.987 202.079Z" fill="white"/>
        <path d="M146.647 182.711C147.864 183.007 148.811 183.223 150.002 183.519C151.517 186.94 151.409 192.515 147.919 195.37C144.293 191.707 143.833 186.159 146.647 182.711Z" fill="white"/>
        <path d="M219.865 195.424C216.239 191.788 216.645 187.586 217.673 183.519C218.945 183.223 219.973 182.98 221.191 182.711C224.005 185.916 223.545 191.546 219.865 195.424Z" fill="white"/>
        <path d="M208.068 128.386C209.529 127.497 210.639 126.689 211.884 126.096C213.453 125.342 214.752 124.453 215.888 123.053C216.375 122.433 217.917 122.46 218.946 122.514C220.136 122.595 221.11 123.43 221.273 124.615C221.408 125.692 221.3 126.877 220.948 127.874C220.326 129.544 219.649 129.706 218.026 128.951C216.456 128.224 214.833 128.116 213.182 128.736C210.936 129.544 210.936 129.517 208.068 128.386Z" fill="white"/>
        <path d="M171.865 173.77C172.758 174.928 173.543 176.033 174.436 177.029C175.761 178.511 175.897 180.181 175.193 181.904C174.571 183.467 173.705 184.948 172.893 186.618C170.593 184.571 169.132 182.228 168.375 179.453C168.293 179.157 168.375 178.726 168.537 178.484C169.619 176.921 170.729 175.386 171.865 173.77Z" fill="white"/>
        <path d="M159.77 128.357C157.795 129.273 156.415 129.704 154.764 128.788C153.032 127.846 151.138 128.196 149.461 129.192C148.595 129.704 148.081 129.489 147.513 128.815C146.484 127.576 146.241 126.149 146.593 124.64C146.89 123.428 147.756 122.566 149.055 122.459C150.327 122.351 151.571 122.001 152.572 123.563C153.276 124.64 154.71 125.26 155.846 126.014C157.037 126.768 158.255 127.469 159.77 128.357Z" fill="white"/>
        <path d="M195.918 173.688C197.109 175.384 198.218 176.893 199.273 178.455C199.463 178.724 199.517 179.209 199.409 179.559C198.705 182.253 197.271 184.542 195.052 186.535C193.781 184.408 192.347 182.414 192.265 179.936C192.211 177.243 194.782 175.923 195.918 173.688Z" fill="white"/>
        <path d="M147.323 205.58C148.541 203.667 148.676 201.728 148.893 199.843C148.974 199.169 149.001 198.496 148.893 197.822C148.676 196.476 149.353 195.668 150.543 194.698C150.029 200.785 149.813 206.63 147.404 212.071C147.215 212.098 146.999 212.125 146.809 212.152C146.268 210.778 145.348 209.431 145.24 208.004C144.888 204.044 144.861 200.085 144.726 196.099C144.699 195.398 144.861 194.671 144.942 193.809C145.862 194.94 146.62 195.856 146.457 197.472C146.241 199.546 146.484 201.647 146.62 203.748C146.674 204.287 147.026 204.799 147.323 205.58Z" fill="white"/>
        <path d="M217.294 194.672C218.647 195.695 218.999 196.692 218.944 198.038C218.809 201.298 219.377 203.802 220.46 205.365C221.542 204.099 221.515 202.537 221.623 201.082C221.704 199.924 221.65 198.739 221.407 197.607C221.082 196.072 221.921 195.129 222.868 194.133C223.111 200.247 224.356 206.442 220.73 212.152C217.97 206.685 217.916 200.759 217.294 194.672Z" fill="white"/>
        <path d="M192.862 163.535C193.728 165.366 194.567 167.09 195.324 168.814C195.865 170.08 195.541 171.292 194.756 172.342C193.836 173.581 192.835 174.793 191.915 175.925C190.914 174.443 189.669 173.124 189.101 171.561C188.668 170.349 188.857 168.76 189.182 167.44C189.615 165.743 190.968 164.585 192.862 163.535Z" fill="white"/>
        <path d="M175.274 163.668C177.844 165.203 179.278 167.331 179.089 170.321C179.062 170.806 178.927 171.318 178.683 171.722C177.817 173.122 176.897 174.496 176.004 175.843C171.54 171.748 171.296 168.543 175.274 163.668Z" fill="white"/>
        <path d="M144.889 180.367C144.889 181.795 145.105 182.899 144.861 183.842C143.806 187.559 138.665 190.683 134.525 190.037C134.958 187.451 136.852 185.835 138.286 183.923C139.91 181.795 142.724 182.253 144.889 180.367Z" fill="white"/>
        <path d="M233.61 190.145C229.525 190.522 226.738 188.879 224.411 186.347C222.977 184.811 222.273 182.953 223.139 180.879C226.846 181.768 230.012 183.357 231.933 186.751C232.474 187.774 232.961 188.852 233.61 190.145Z" fill="white"/>
        <path d="M230.146 175.305C232.365 174.901 234.395 174.524 236.424 174.147C236.532 174.12 236.694 174.174 236.803 174.228C238.751 175.332 240.726 176.409 242.647 177.541C242.972 177.729 243.215 178.106 243.513 178.429C242.214 180.423 240.347 180.719 238.291 180.45C235.45 180.073 232.96 178.887 231.012 176.706C230.606 176.248 230.336 175.628 230.146 175.305Z" fill="white"/>
        <path d="M188.478 194.75C192.726 199.087 192.942 201.807 189.614 207.679C185.095 203.288 184.635 197.713 188.478 194.75Z" fill="white"/>
        <path d="M179.386 194.727C183.229 198.12 182.742 203.265 178.25 207.682C175.084 201.864 174.624 200.652 179.386 194.727Z" fill="white"/>
        <path d="M137.827 175.144C136.474 178.052 133.93 179.399 131.035 180.18C127.815 181.042 125.921 180.531 124.379 178.43C126.192 176.248 129.168 175.898 130.792 174.497C133.335 174.713 135.418 174.901 137.827 175.144Z" fill="white"/>
        <path d="M188.154 173.906C191.265 177.462 192.077 183.199 187.044 186.889C185.881 184.788 185.069 182.606 184.907 180.209C184.744 177.516 187.315 176.25 188.154 173.906Z" fill="white"/>
        <path d="M181.064 186.995C176.572 183.924 175.95 177.379 179.603 174.039C180.361 175.09 181.037 176.194 181.876 177.19C182.823 178.349 183.229 179.668 182.877 181.069C182.363 183.062 181.686 184.975 181.064 186.995Z" fill="white"/>
        <path d="M176.437 196.341C172.757 192.974 171.215 189.877 176.139 184.598C179.955 187.695 180.063 191.439 176.437 196.341Z" fill="white"/>
        <path d="M191.617 184.598C195.946 188.907 195.892 192.49 191.481 196.314C187.639 191.358 187.856 189.096 191.617 184.598Z" fill="white"/>
        <path d="M185.177 157.203C187.667 160.355 187.883 162.563 185.935 165.122C184.42 167.142 183.446 167.331 181.958 165.095C179.928 162.024 180.226 160.166 182.607 157.257C183.419 157.957 184.312 158.442 185.177 157.203Z" fill="white"/>
        <path d="M179.143 139.778C179.928 141.717 180.847 143.603 181.47 145.569C181.903 146.916 181.578 148.316 180.577 149.474C179.522 150.74 178.493 152.033 177.411 153.38C175.382 151.414 175.734 149.017 176.383 146.7C177.032 144.384 177.952 142.148 178.737 139.886C178.899 139.832 179.035 139.805 179.143 139.778Z" fill="white"/>
        <path d="M189.344 139.778C190.183 142.956 191.076 146.134 191.833 149.313C192.185 150.848 191.563 152.195 190.453 153.407C189.263 151.926 187.883 150.552 186.963 148.936C186.422 147.993 186.205 146.565 186.476 145.515C186.99 143.549 187.964 141.717 188.722 139.832C188.911 139.778 189.128 139.778 189.344 139.778Z" fill="white"/>
        <path d="M179.143 208.895C178.738 212.908 177.547 216.14 174.544 218.483C172.568 220.019 170.701 220.073 169.213 218.564C168.943 218.295 168.78 217.541 168.97 217.244C169.376 216.571 169.89 215.79 170.566 215.521C173.975 214.201 176.681 211.992 179.143 208.895Z" fill="white"/>
        <path d="M188.722 209.027C189.56 209.916 190.183 210.832 191.022 211.451C192.916 212.798 194.864 214.091 196.866 215.249C198.03 215.923 199.328 217.243 199.166 217.997C198.977 218.886 197.055 219.909 195.73 219.505C194.62 219.182 193.484 218.562 192.618 217.781C190.048 215.546 189.073 212.502 188.722 209.027Z" fill="white"/>
        <path d="M199.734 176.409C196.243 172.369 195.946 168.194 198.76 164.046C199.734 164.962 201.087 165.716 201.547 166.82C202.061 168.086 202.034 169.756 201.736 171.13C201.33 172.908 200.437 174.577 199.734 176.409Z" fill="white"/>
        <path d="M167.887 176.328C167.238 174.12 166.534 171.938 165.966 169.729C165.209 166.901 167.535 165.662 169.051 164.019C172.298 167.521 171.351 172.692 167.887 176.328Z" fill="white"/>
        <path d="M193.051 258.318C191.806 256.487 190.589 254.682 189.236 252.689C188.181 254.521 187.261 256.164 186.287 257.834C184.555 255.867 184.528 255.652 185.691 253.605C186.774 251.693 187.829 249.78 189.019 247.679C190.21 249.457 191.319 251.127 192.429 252.77C192.807 253.336 193.186 253.901 193.538 254.44C194.864 256.433 194.864 256.433 193.051 258.318Z" fill="white"/>
        <path d="M230.607 178.645C232.88 179.291 234.91 180.369 236.614 181.904C237.994 183.143 238.319 184.571 237.751 186.268C233.909 187.076 230.959 184.436 229.525 182.335C229.363 182.12 229.39 181.662 229.498 181.365C229.796 180.504 230.175 179.642 230.607 178.645Z" fill="white"/>
        <path d="M137.258 178.672C137.691 179.668 138.097 180.557 138.421 181.473C138.503 181.716 138.503 182.12 138.367 182.335C136.554 184.786 134.309 186.51 131.062 186.456C130.25 186.456 129.79 186.106 129.952 185.379C130.142 184.355 130.277 183.143 130.872 182.416C132.496 180.423 134.796 179.399 137.258 178.672Z" fill="white"/>
        <path d="M183.933 185.73C187.802 191.333 187.802 192.087 183.96 197.016C179.658 191.925 180.388 190.821 183.933 185.73Z" fill="white"/>
        <path d="M178.9 270.951C177.006 268.339 175.247 265.914 173.569 263.463C173.407 263.221 173.623 262.655 173.786 262.332C174.029 261.847 174.381 261.443 174.787 260.824C176.086 262.628 177.33 264.325 178.71 266.211C179.765 264.352 180.685 262.709 181.659 261.039C183.31 262.925 183.337 263.14 182.174 265.187C181.118 267.019 180.09 268.85 178.9 270.951Z" fill="white"/>
        <path d="M183.905 177.11C182.931 175.655 181.957 174.309 181.091 172.908C180.28 171.615 180.334 170.349 181.118 169.406C181.984 168.41 183.932 167.952 185.069 168.437C187.585 169.541 188.045 170.888 186.584 173.177C185.745 174.497 184.825 175.763 183.905 177.11Z" fill="white"/>
        <path d="M166.128 246.469C165.695 245.876 165.37 245.418 165.127 245.068C167.454 243.263 169.808 241.674 171.864 239.762C173.758 237.984 175.409 235.937 176.978 233.863C177.844 232.705 178.683 232.328 180.171 232.759C176.599 238.469 172.108 243.102 166.128 246.469Z" fill="white"/>
        <path d="M202.872 244.825C202.467 245.391 202.115 245.903 201.709 246.468C195.756 243.155 191.292 238.469 187.666 232.732C189.127 232.381 189.993 232.678 190.805 233.863C193.943 238.388 197.921 242.078 202.872 244.825Z" fill="white"/>
        <path d="M152.14 194.914C153.925 196.53 153.709 198.577 154.25 200.408C154.71 202.024 155.224 203.587 155.738 205.203C155.928 205.176 156.117 205.122 156.307 205.095C156.307 203.29 156.307 201.459 156.307 199.546C157.362 199.654 157.957 199.977 158.146 201.189C158.715 204.987 158.444 208.354 157.145 210.644C153.195 206.092 152.897 200.516 152.14 194.914Z" fill="white"/>
        <path d="M210.638 210.619C209.204 207.629 209.421 204.612 209.664 201.568C209.773 200.276 210.341 199.629 211.504 199.441C211.504 201.299 211.504 203.185 211.504 205.043C211.612 205.07 211.748 205.097 211.856 205.124C212.911 203.669 213.209 201.892 213.669 200.168C214.102 198.471 213.912 196.532 215.428 195.266C216.212 198.902 213.479 207.844 210.638 210.619Z" fill="white"/>
        <path d="M190.426 110.903C189.344 110.553 188.586 110.284 187.531 109.934C188.181 107.079 188.803 104.17 189.506 101.314C189.831 99.9407 190.968 100.183 191.915 100.426C192.943 100.695 193.809 101.314 193.403 102.553C192.456 105.328 191.428 108.075 190.426 110.903Z" fill="white"/>
        <path d="M177.439 110.903C176.438 108.048 175.49 105.328 174.516 102.607C174.056 101.315 174.922 100.803 175.923 100.453C177.222 99.9948 178.088 100.291 178.386 101.449C179.089 104.25 179.684 107.079 180.307 109.961C179.279 110.284 178.44 110.553 177.439 110.903Z" fill="white"/>
        <path d="M183.932 145.408C182.958 143.765 181.984 142.257 181.173 140.695C180.253 138.89 181.957 136.008 183.905 135.927C185.718 135.847 187.639 138.89 186.773 140.587C185.935 142.203 184.906 143.738 183.932 145.408Z" fill="white"/>
        <path d="M198.571 195.451C195.053 190.468 195.73 188.314 199.22 184.273C202.115 188.448 201.953 191.869 198.571 195.451Z" fill="white"/>
        <path d="M168.618 184.168C172.515 188.909 172.352 190.821 169.403 195.427C166.102 192.733 165.777 188.585 168.618 184.168Z" fill="white"/>
        <path d="M143.373 123.832C143.129 122.27 142.669 120.708 142.723 119.172C142.777 116.802 142.723 114.539 141.424 112.439C141.235 112.142 141.154 111.792 141.046 111.442C140.261 109.072 140.477 108.695 142.804 108.129C143.454 109.987 144.103 111.819 144.753 113.624C145.51 115.752 145.673 117.879 144.915 120.061C144.482 121.273 144.211 122.539 143.887 123.805C143.697 123.805 143.535 123.805 143.373 123.832Z" fill="white"/>
        <path d="M223.843 123.723C223.41 121.461 222.787 119.225 222.571 116.936C222.463 115.751 222.95 114.485 223.302 113.3C223.816 111.576 224.465 109.879 225.087 108.074C225.087 108.074 225.358 108.128 225.602 108.209C227.387 108.855 227.739 109.125 226.954 110.822C225.412 114.135 224.979 117.528 225.087 121.111C225.114 121.973 224.573 122.888 224.303 123.75C224.14 123.723 224.005 123.723 223.843 123.723Z" fill="white"/>
        <path d="M161.15 248.918C158.12 249.646 155.143 250.454 152.113 251.019C149.651 251.477 147.134 251.666 144.618 251.854C142.994 251.989 142.913 251.774 143.076 249.996C144.888 249.861 146.728 249.861 148.541 249.565C151.951 248.972 155.333 248.299 158.688 247.437C160.041 247.06 160.663 247.383 161.15 248.918Z" fill="white"/>
        <path d="M224.763 250.077C224.925 251.773 224.844 251.908 223.22 251.854C217.565 251.666 212.127 250.507 206.742 248.784C207.419 247.06 207.5 247.06 209.042 247.437C211.613 248.083 214.156 248.784 216.754 249.215C219.378 249.673 222.03 249.807 224.763 250.077Z" fill="white"/>
        <path d="M151.95 118.148C148.703 117.097 147.783 115.239 149.082 112.465C149.704 111.118 150.57 109.906 151.274 108.613C151.788 107.697 152.194 106.701 152.654 105.758C154.169 106.916 154.521 107.832 153.79 109.583C153.195 111.01 152.41 112.384 151.68 113.784C150.976 115.212 150.57 116.586 151.95 118.148Z" fill="white"/>
        <path d="M215.103 105.786C215.806 107.079 216.483 108.344 217.159 109.583C217.754 110.688 218.458 111.738 218.918 112.896C219.946 115.455 219.026 117.152 216.104 118.095C217.484 116.183 216.645 114.566 215.671 112.95C215.076 111.954 214.562 110.903 214.129 109.826C213.371 107.887 213.587 107.159 215.103 105.786Z" fill="white"/>
        <path d="M172.46 194.348C175.058 198.603 174.733 199.789 171.324 204.367C168.645 200.677 169.051 196.799 172.46 194.348Z" fill="white"/>
        <path d="M195.459 194.321C198.841 196.96 199.166 200.058 196.595 204.341C193.267 201.27 192.834 197.849 195.459 194.321Z" fill="white"/>
        <path d="M203.9 215.305C208.176 216.678 212.748 216.301 215.86 220.18C214.02 220.584 212.424 221.85 210.584 220.342C209.961 219.857 209.204 219.507 208.419 219.264C206.417 218.698 205.334 217.109 203.9 215.305Z" fill="white"/>
        <path d="M195.107 266.264C195.919 265.645 196.487 265.241 197.218 264.675C195.757 263.248 196.596 262.17 197.867 261.066C198.381 261.793 198.896 262.493 199.437 263.248C200.113 262.844 200.735 262.493 201.493 262.062C201.493 264.325 201.493 266.48 201.493 268.769C199.383 267.934 197.353 267.153 195.107 266.264Z" fill="white"/>
        <path d="M152.221 220.124C153.79 217.754 156.063 216.838 163.747 215.492C162.503 217.081 161.447 218.67 159.472 219.263C159.012 219.397 158.498 219.586 158.146 219.909C156.252 221.498 154.304 221.229 152.221 220.124Z" fill="white"/>
        <path d="M174.733 152.059C175.734 153.648 176.221 155.129 175.734 156.611C174.76 159.654 173.543 162.59 172.433 165.58C172.271 165.553 172.081 165.526 171.919 165.526C171.432 164.691 170.918 163.883 170.485 163.021C170.35 162.752 170.377 162.267 170.539 162.051C172.704 159.116 174.03 155.856 174.733 152.059Z" fill="white"/>
        <path d="M193.105 152.031C193.781 155.856 195.107 159.115 197.272 162.024C197.461 162.267 197.407 162.805 197.272 163.102C196.893 163.91 196.406 164.664 195.837 165.714C195.242 164.529 194.674 163.613 194.295 162.617C193.51 160.624 192.726 158.63 192.131 156.583C191.643 155.075 192.131 153.62 193.105 152.031Z" fill="white"/>
        <path d="M188.234 153.812C189.344 155.563 190.561 157.26 191.536 159.092C192.239 160.465 191.914 161.893 190.778 163.024C189.858 163.94 188.938 164.829 187.747 165.556C187.991 164.883 188.207 164.209 188.451 163.563C189.1 161.812 188.857 160.142 187.91 158.58C186.99 157.072 187.179 155.536 187.747 154.001C187.937 153.92 188.099 153.866 188.234 153.812Z" fill="white"/>
        <path d="M179.847 165.85C178.656 164.53 177.303 163.399 176.41 161.944C175.951 161.217 175.978 159.816 176.383 159.035C177.276 157.204 178.548 155.534 179.847 153.891C180.604 155.372 180.983 156.827 180.172 158.092C178.71 160.463 178.846 162.725 180.009 165.096C180.063 165.203 180.09 165.338 180.117 165.473C180.117 165.5 180.063 165.527 179.847 165.85Z" fill="white"/>
        <path d="M193.945 203.425C194.702 204.368 195.379 205.203 196.055 206.011C197.624 207.896 197.624 209.243 195.974 211.102C195.622 211.506 195.189 211.829 194.81 212.179C191.645 210.321 191.455 208.462 193.945 203.425Z" fill="white"/>
        <path d="M173.894 203.453C176.41 208.409 176.248 210.052 172.974 212.288C172.352 211.534 171.648 210.806 171.107 209.971C170.349 208.786 170.458 207.628 171.405 206.524C172.216 205.554 173.028 204.531 173.894 203.453Z" fill="white"/>
        <path d="M172.596 150.04C171.486 145.892 171.54 141.017 174.219 139.481C176.817 142.714 176.303 146.027 172.596 150.04Z" fill="white"/>
        <path d="M193.619 139.508C196.379 140.747 196.325 146.35 195.351 150.067C191.617 146.323 191.076 142.902 193.619 139.508Z" fill="white"/>
        <path d="M205.362 132.101C206.12 131.185 206.688 130.458 207.338 129.785C207.554 129.569 207.987 129.435 208.285 129.488C210.07 129.812 211.586 130.593 212.614 132.128C213.669 133.69 213.074 135.172 212.262 136.869C210.99 133.825 208.582 132.586 205.362 132.101Z" fill="white"/>
        <path d="M183.824 147.804C186.935 152.572 186.935 153.757 183.932 156.262C182.66 155.157 181.307 153.838 181.578 152.168C181.821 150.686 182.985 149.366 183.824 147.804Z" fill="white"/>
        <path d="M155.629 136.921C154.845 135.251 154.277 133.823 155.142 132.342C156.171 130.618 157.848 129.756 159.796 129.487C160.04 129.46 160.392 129.649 160.581 129.864C161.203 130.537 161.799 131.265 162.529 132.127C159.445 132.558 156.955 133.689 155.629 136.921Z" fill="white"/>
        <path d="M167.589 226.24C166.534 228.072 165.208 228.665 163.612 228.153C162.34 227.749 161.745 226.537 161.907 224.732C162.069 223.062 164.748 219.884 166.317 219.48C167.319 219.21 168.266 219.21 168.996 220.234C168.401 220.369 167.806 220.423 167.237 220.638C166.588 220.907 165.912 221.204 165.343 221.635C164.207 222.523 163.585 224.409 164.099 225.352C164.883 226.752 166.236 226.375 167.589 226.24Z" fill="white"/>
        <path d="M197.218 148.449C198.76 151.951 201.006 154.213 204.713 154.59C203.82 156.961 200.871 157.446 198.977 155.587C197.408 154.079 196.785 151.654 197.218 148.449Z" fill="white"/>
        <path d="M200.302 226.293C200.437 226.239 200.491 226.212 200.518 226.239C201.682 226.482 202.953 226.697 203.63 225.431C204.306 224.165 203.765 222.846 202.791 222.037C201.736 221.149 200.383 220.664 199.084 219.963C199.544 219.128 200.572 219.236 201.573 219.506C203.17 219.91 205.794 223.142 205.957 224.785C206.119 226.563 205.497 227.775 204.198 228.152C202.574 228.637 201.249 228.017 200.302 226.293Z" fill="white"/>
        <path d="M170.674 148.371C171.025 151.307 170.755 153.677 168.861 155.59C167.075 157.394 164.369 157.017 162.989 154.647C166.723 154.216 169.077 152.034 170.674 148.371Z" fill="white"/>
        <path d="M203.252 167.763C204.794 167.628 206.282 167.494 207.933 167.332C207.689 169.864 206.526 172.1 205.2 174.308C203.171 172.827 202.521 170.483 203.252 167.763Z" fill="white"/>
        <path d="M162.692 174.336C161.366 172.1 160.149 169.891 159.905 167.359C161.529 167.494 163.071 167.629 164.722 167.763C164.722 169.999 165.317 172.531 162.692 174.336Z" fill="white"/>
        <path d="M195.703 119.496C192.05 120.088 188.262 118.041 187.099 114.836C190.156 114.109 194.594 116.479 195.703 119.496Z" fill="white"/>
        <path d="M172.136 119.578C173.462 116.454 177.277 114.353 180.767 114.757C179.928 118.204 175.383 119.928 172.136 119.578Z" fill="white"/>
        <path d="M183.932 106.998C183.201 104.924 182.552 103.119 181.93 101.315C181.578 100.291 181.713 99.2138 182.741 98.7559C183.418 98.4596 184.446 98.4326 185.095 98.7559C186.069 99.2138 186.313 100.264 185.934 101.315C185.312 103.092 184.662 104.897 183.932 106.998Z" fill="white"/>
        <path d="M161.447 214.011C163.882 212.044 166.345 210.078 168.969 207.95C169.402 209.27 169.727 210.213 170.079 211.263C167.562 212.987 164.721 213.849 161.745 214.415C161.637 214.28 161.528 214.145 161.447 214.011Z" fill="white"/>
        <path d="M132.468 248.757C132.793 248.757 133.117 248.703 133.415 248.757C133.848 248.864 134.281 249.026 134.714 249.187C134.47 249.618 134.362 250.238 133.983 250.48C132.657 251.288 131.277 252.069 129.843 252.716C128.653 253.255 127.895 252.716 127.354 251.127C126.948 249.969 127.543 249.457 128.599 249.268C128.95 249.214 129.302 249.107 129.654 249.053C130.574 248.918 131.521 248.837 132.468 248.703C132.468 248.703 132.468 248.73 132.468 248.757Z" fill="white"/>
        <path d="M235.396 248.622C236.776 248.838 238.129 249.053 239.509 249.322C240.402 249.484 240.916 250.103 240.51 250.965C240.104 251.827 239.861 253.309 238.508 252.824C236.749 252.177 235.153 251.154 233.529 250.211C233.286 250.077 233.123 249.511 233.177 249.188C233.204 249.026 233.719 248.838 234.043 248.784C234.476 248.703 234.936 248.757 235.396 248.757C235.369 248.703 235.369 248.676 235.396 248.622Z" fill="white"/>
        <path d="M197.786 211.29C198.138 210.24 198.463 209.297 198.923 207.977C201.493 210.051 203.955 212.017 206.391 213.984C206.282 214.145 206.201 214.28 206.093 214.441C203.144 213.876 200.33 212.96 197.786 211.29Z" fill="white"/>
        <path d="M189.588 112.356C187.64 113.838 180.415 113.891 178.224 112.437C179.739 110.713 187.829 110.659 189.588 112.356Z" fill="white"/>
        <path d="M170.133 139.293C169.755 141.044 169.376 142.741 168.916 144.815C168.212 142.983 167.455 141.448 167.049 139.832C166.4 137.273 165.48 135.064 162.53 134.31C162.611 134.148 162.693 133.987 162.747 133.825C163.45 133.987 164.343 133.96 164.83 134.391C166.697 135.953 168.402 137.677 170.133 139.293Z" fill="white"/>
        <path d="M198.976 144.921C198.516 142.793 198.137 141.097 197.731 139.265C200.41 137.864 201.303 133.824 205.308 133.932C205.254 134.174 205.253 134.309 205.226 134.309C202.629 135.144 201.465 137.029 200.924 139.615C200.573 141.312 199.707 142.928 198.976 144.921Z" fill="white"/>
        <path d="M133.389 255.573C132.956 255.411 132.171 255.33 131.765 254.899C131.468 254.603 131.414 253.526 131.657 253.337C132.956 252.34 134.363 251.425 135.824 250.697C136.392 250.401 137.475 250.347 137.664 251.398C137.826 252.394 134.661 255.546 133.389 255.573Z" fill="white"/>
        <path d="M234.314 255.787C233.638 255.383 233.015 255.167 232.61 254.763C231.852 254.009 231.203 253.12 230.607 252.258C230.391 251.935 230.201 251.342 230.364 251.1C230.553 250.804 231.175 250.588 231.527 250.669C232.42 250.911 233.259 251.315 234.098 251.693C234.531 251.908 234.937 252.204 235.342 252.501C236.019 253.012 236.966 253.578 236.425 254.521C236.019 255.113 235.045 255.356 234.314 255.787Z" fill="white"/>
        <path d="M172.297 128.895C176.734 130.807 178.547 135.036 177.086 138.968C175.598 135.817 174.029 132.531 172.297 128.895Z" fill="white"/>
        <path d="M190.778 138.943C189.208 135.253 191.048 130.916 195.405 129.246C193.835 132.505 192.293 135.764 190.778 138.943Z" fill="white"/>
        <path d="M160.581 227.207C159.093 224.836 158.66 224.648 156.09 225.133C156.117 223.597 155.062 223.49 153.871 223.517C152.681 223.571 151.49 223.517 150.272 223.517C150.462 221.577 150.922 221.2 152.437 221.739C154.926 222.628 157.416 223.517 159.824 224.567C160.825 225.025 161.42 225.887 160.581 227.207Z" fill="white"/>
        <path d="M207.337 227.289C206.526 226.158 206.823 225.377 207.608 224.892C208.771 224.165 210.016 223.519 211.288 223.007C212.532 222.495 213.831 222.199 215.13 221.822C216.889 221.31 216.889 221.31 217.809 223.222C217.349 223.357 216.916 223.546 216.483 223.572C215.59 223.626 214.697 223.599 213.777 223.546C212.641 223.492 211.802 223.761 211.775 225.242C209.637 224.381 208.23 225.135 207.337 227.289Z" fill="white"/>
        <path d="M195.783 213.391C196.378 212.313 197.028 212.34 197.894 212.717C200.41 213.849 202.412 215.572 204.117 217.7C202.331 218.67 200.951 218.293 200.085 216.596C199.463 215.33 198.543 214.414 197.19 213.956C196.757 213.822 196.324 213.606 195.783 213.391Z" fill="white"/>
        <path d="M172.081 213.364C171.512 213.607 170.863 213.768 170.376 214.118C169.483 214.792 168.455 215.492 167.86 216.408C166.642 218.239 165.884 218.617 163.639 217.835C165.452 215.384 167.697 213.553 170.565 212.529C170.971 212.395 171.594 212.853 172.135 213.041C172.108 213.149 172.108 213.257 172.081 213.364Z" fill="white"/>
        <path d="M182.552 135.28C179.982 134.956 177.384 132.586 176.519 129.839C179.306 129.354 181.605 131.401 182.552 135.28Z" fill="white"/>
        <path d="M207.473 117.206C207.824 115.832 208.149 114.459 208.582 113.112C208.961 111.927 210.07 111.711 211.125 111.765C211.883 111.792 212.424 112.331 211.937 113.166C211.153 114.513 210.368 115.886 209.421 117.125C209.15 117.476 208.393 117.476 207.824 117.61C207.689 117.476 207.581 117.341 207.473 117.206Z" fill="white"/>
        <path d="M191.4 129.786C190.345 132.803 187.774 135.119 185.556 135.146C185.556 132.156 188.316 129.571 191.4 129.786Z" fill="white"/>
        <path d="M173.84 137.461C172 135.307 170.16 133.179 168.401 131.132C168.428 131.132 168.753 131.132 169.159 131.132C169.213 130.728 169.294 130.297 169.348 129.893C170.539 129.731 171.134 130.27 171.621 131.293C172.217 132.586 172.92 133.852 173.759 135.01C174.408 135.98 174.3 136.761 173.84 137.461Z" fill="white"/>
        <path d="M160.366 117.314C159.121 117.772 158.499 117.448 157.985 116.56C157.389 115.455 156.632 114.459 156.036 113.354C155.874 113.031 155.847 112.412 156.036 112.142C156.253 111.873 156.821 111.765 157.227 111.792C158.336 111.873 159.202 112.385 159.473 113.57C159.797 114.809 160.068 116.048 160.366 117.314Z" fill="white"/>
        <path d="M194.052 137.488C193.511 136.734 193.511 135.899 194.269 134.902C195.08 133.825 195.703 132.613 196.244 131.401C196.704 130.404 197.218 129.677 198.517 129.973C198.571 130.269 198.625 130.646 198.679 131.131C199.031 131.131 199.382 131.131 199.518 131.131C197.732 133.178 195.865 135.333 194.052 137.488Z" fill="white"/>
        <path d="M162.801 117.314C163.153 115.94 163.423 114.621 163.829 113.301C163.964 112.87 164.316 112.304 164.695 112.196C165.452 111.981 166.291 112.062 167.103 112.008C166.995 112.681 166.995 113.435 166.724 114.055C166.318 114.944 165.642 115.698 165.182 116.56C164.668 117.476 164.018 117.745 162.801 117.314Z" fill="white"/>
        <path d="M205.064 117.316C203.847 117.801 203.17 117.477 202.656 116.535C202.061 115.484 201.33 114.514 200.789 113.437C200.6 113.06 200.6 112.414 200.816 112.09C200.979 111.848 201.601 111.767 202.007 111.794C203.089 111.875 203.847 112.414 204.144 113.518C204.469 114.784 204.767 116.023 205.064 117.316Z" fill="white"/>
        <path d="M144.428 108.344C144.401 106.028 149.19 103.604 151.706 104.735C149.163 105.893 147.567 108.614 144.428 108.344Z" fill="white"/>
        <path d="M136.067 255.194C137.123 254.09 138.124 252.905 139.287 251.881C139.964 251.289 141.1 250.965 141.668 251.827C141.939 252.258 141.479 253.443 140.992 253.982C139.801 255.356 138.043 255.41 136.392 255.679C136.284 255.517 136.176 255.356 136.067 255.194Z" fill="white"/>
        <path d="M223.734 108.319C220.243 108.616 218.728 105.868 216.293 104.818C217.484 103.956 218.268 103.929 220 104.872C221.407 105.68 223.003 106.353 223.734 108.319Z" fill="white"/>
        <path d="M231.581 255.437C229.606 255.41 227.685 255.248 226.495 253.551C226.17 253.093 226.278 252.339 226.17 251.72C226.792 251.666 227.55 251.369 228.037 251.585C229.714 252.366 230.634 253.901 231.581 255.437Z" fill="white"/>
        <path d="M205.687 130.404C203.306 132.371 200.898 134.337 198.49 136.33C198.354 133.502 201.439 130.728 205.416 130.054C205.498 130.162 205.579 130.297 205.687 130.404Z" fill="white"/>
        <path d="M162.448 130.027C166.588 130.835 169.456 133.448 169.402 136.357C166.994 134.364 164.586 132.344 162.178 130.351C162.286 130.27 162.367 130.162 162.448 130.027Z" fill="white"/>
        <path d="M188.613 98.9453C187.991 102.312 187.369 105.679 186.692 109.046C186.611 109.423 186.205 109.746 185.664 109.962C186.016 106.029 186.178 102.151 188.613 98.9453Z" fill="white"/>
        <path d="M179.278 98.9453C181.768 102.043 181.686 106.029 182.606 109.746C181.632 110.123 181.254 109.908 181.091 108.911C180.55 105.571 179.874 102.258 179.278 98.9453Z" fill="white"/>
        <path d="M205.362 106.244C205.93 105.624 205.065 103.981 206.905 104.493C206.959 105.085 207.013 105.651 207.067 106.109C207.635 106.621 209.096 105.786 208.799 107.402C208.23 107.456 207.689 107.483 207.04 107.537C207.013 108.264 206.986 108.964 206.932 109.826C204.848 110.122 206.147 108.183 205.146 107.537C204.983 107.51 204.496 107.456 203.955 107.402C203.549 105.974 204.848 106.54 205.362 106.244Z" fill="white"/>
        <path d="M204.198 219.291C206.742 219.129 208.663 220.449 210.8 221.607C209.772 222.092 208.987 222.631 208.095 222.846C207.662 222.954 206.958 222.604 206.606 222.254C205.795 221.392 205.091 220.422 204.198 219.291Z" fill="white"/>
        <path d="M160.5 106.137C160.906 105.437 161.204 104.898 161.529 104.359C161.88 104.925 162.232 105.518 162.584 106.083C163.017 106.353 163.531 106.649 164.045 106.945C163.558 107.214 163.071 107.457 162.584 107.726C161.718 108.103 163.098 110.07 160.988 109.854C160.933 109.073 160.906 108.373 160.879 107.834C160.203 107.484 159.635 107.188 159.066 106.891C159.581 106.622 160.095 106.353 160.5 106.137Z" fill="white"/>
        <path d="M163.666 219.315C162.773 220.419 161.989 221.254 161.339 222.197C160.798 222.978 160.284 223.328 159.364 222.736C158.715 222.305 157.957 222.035 157.037 221.604C159.202 220.446 161.123 219.126 163.666 219.315Z" fill="white"/>
        <path d="M183.933 248.193C182.85 246.657 181.957 245.418 181.064 244.152C183.013 244.152 184.798 244.152 186.747 244.152C185.881 245.418 185.015 246.657 183.933 248.193Z" fill="white"/>
        <path d="M183.067 97.4087C183.04 97.1124 183.013 96.897 183.013 96.6815C183.121 95.7118 182.931 94.9846 181.687 95.1193C181.524 95.1462 181.2 94.8768 181.173 94.7152C181.146 94.5536 181.443 94.1765 181.551 94.2035C183.202 94.4189 183.04 93.2338 183.04 92.1564C183.743 91.9679 184.338 91.8871 184.23 92.8837C184.149 93.7725 184.447 94.2304 185.421 94.1765C185.637 94.1496 185.881 94.4459 186.097 94.6075C185.854 94.796 185.61 95.1462 185.394 95.1462C184.257 95.0654 184.149 95.7388 184.23 96.6007C184.338 97.3818 184.068 97.7858 183.067 97.4087Z" fill="white"/>
        <path d="M227.414 250.94C226.954 250.644 226.44 250.509 226.359 250.24C226.278 249.97 226.494 249.351 226.765 249.243C228.037 248.731 229.335 248.327 230.661 247.95C230.905 247.87 231.527 248.193 231.527 248.3C231.5 248.704 231.392 249.297 231.121 249.432C229.904 250.024 228.659 250.455 227.414 250.94Z" fill="white"/>
        <path d="M137.528 247.679C138.719 248.164 139.855 248.541 140.91 249.08C141.235 249.241 141.343 249.861 141.533 250.265C141.154 250.427 140.694 250.75 140.369 250.696C139.206 250.427 138.042 250.049 136.96 249.592C136.635 249.457 136.283 248.81 136.338 248.433C136.365 248.164 137.014 247.975 137.528 247.679Z" fill="white"/>
        <path d="M206.309 115.589C205.687 114.35 205.173 113.488 204.821 112.518C204.686 112.114 204.875 111.198 205.091 111.144C205.822 110.956 206.634 110.929 207.364 111.09C207.581 111.144 207.851 112.033 207.716 112.437C207.418 113.407 206.904 114.323 206.309 115.589Z" fill="white"/>
        <path d="M161.583 115.565C161.015 114.407 160.501 113.599 160.257 112.71C160.122 112.225 160.284 111.202 160.528 111.121C161.231 110.932 162.097 110.959 162.8 111.148C163.017 111.202 163.179 112.198 163.044 112.656C162.719 113.572 162.178 114.407 161.583 115.565Z" fill="white"/>
        <path d="M163.666 175.521C164.207 174.847 164.694 174.255 165.289 173.5C166.02 174.955 166.615 176.14 167.319 177.568C165.533 177.46 164.667 176.329 163.666 175.521Z" fill="white"/>
        <path d="M204.199 175.628C203.198 176.301 202.143 177.029 201.088 177.756C200.952 177.621 200.817 177.513 200.682 177.379C201.277 176.14 201.872 174.928 202.549 173.473C203.144 174.254 203.577 174.847 204.199 175.628Z" fill="white"/>
        <path d="M141.289 118.794C140.098 118.875 139.097 118.929 137.961 119.01C138.8 117.717 139.693 116.559 141.56 116.047C141.424 117.124 141.343 117.986 141.289 118.794Z" fill="white"/>
        <path d="M158.119 119.201C160.392 118.446 162.665 118.5 164.938 119.147C162.692 119.874 160.392 119.712 158.119 119.201Z" fill="white"/>
        <path d="M229.795 119.009C228.794 118.956 227.765 118.902 226.602 118.848C226.521 118.121 226.44 117.232 226.358 116.289C227.955 116.505 228.848 117.259 229.795 119.009Z" fill="white"/>
        <path d="M202.899 118.848C205.172 118.848 207.445 118.848 209.718 118.848C208.5 119.844 204.469 119.871 202.899 118.848Z" fill="white"/>
        <path d="M211.288 124.695C211.532 123.564 211.694 122.433 212.046 121.355C212.154 121.005 212.776 120.844 213.155 120.574C213.317 120.951 213.696 121.436 213.561 121.679C212.993 122.783 212.262 123.833 211.613 124.884C211.477 124.83 211.396 124.776 211.288 124.695Z" fill="white"/>
        <path d="M156.577 124.695C155.36 123.86 154.548 122.918 154.304 121.598C154.25 121.301 154.548 120.924 154.71 120.574C155.089 120.817 155.738 121.005 155.847 121.328C156.171 122.379 156.334 123.483 156.577 124.695Z" fill="white"/>
    </g>
    <defs>
        <clipPath id="clip0">
            <rect x="53" y="51" width="262" height="261" fill="white"/>
        </clipPath>
    </defs>
</svg>
