<svg width="24" height="24" viewBox="0 0 24 24" fill="none" xmlns="http://www.w3.org/2000/svg">
    <path d="M16.0254 23.025C16.0254 21.025 16.0254 14.525 16.0254 14.525C16.0254 14.525 18.4633 14.525 20.0254 14.525C20.0254 13.3534 20.0254 12.025 20.0254 12.025H16.0254C16.0254 12.025 16.0254 9.21129 16.0254 8.025C16.5254 6.425 18.425 6.025 19.425 4.525C18.525 4.225 17.425 3.425 16.925 3.625C15.325 4.525 13.825 5.625 12.525 6.925C12.0898 7.36022 13.3729 11.5083 13.0254 12.025C12.4946 12.8143 10.3876 10.0185 10.025 10.925C9.625 11.825 9.525 13.825 9.925 13.925C14.625 15.925 11.525 19.625 12.525 23.225C8.925 23.225 5.825 23.425 2.725 23.125C1.725 23.025 0.225 21.425 0.125 20.425C-0.075 13.925 0.025 7.325 0.025 0.025C7.325 0.025 14.125 -0.075 20.925 0.125C21.725 0.125 23.225 1.925 23.225 3.025C23.425 8.625 23.425 14.325 23.325 20.025C23.225 24.925 18.5254 23.225 17.125 23.125C15.7246 23.025 16.6254 23.325 16.0254 23.025Z" fill="black"/>
</svg>
