<svg width="24" height="23" viewBox="0 0 24 23" fill="none" xmlns="http://www.w3.org/2000/svg">
    <path d="M0.316018 11.4459C0.895189 5.40433 5.48906 -0.050184 11.7742 0.000348365C18.1184 0.0508807 23.3886 3.47434 23.2745 11.5049C23.1707 18.8178 18.2195 22.7652 12.1365 22.9589C5.59016 23.1779 -0.263019 17.4875 0.316018 11.4459ZM14.2259 9.3741C14.2596 9.41621 14.2933 9.46674 14.3355 9.50885C14.1838 9.65203 14.0322 9.78678 13.8805 9.92996C12.6252 11.109 11.3614 12.2881 10.1313 13.4841C9.92911 13.6778 9.76061 13.9894 9.71848 14.2673C9.61738 14.9495 9.58368 15.6317 9.54998 16.3223C9.54156 16.4739 9.61738 16.6255 9.65951 16.7855C9.81959 16.7434 10.0049 16.7518 10.1229 16.6592C10.443 16.4065 10.7379 16.1202 11.016 15.8254C11.3277 15.4969 11.6647 15.4464 12.0438 15.657C12.2376 15.7664 12.423 15.8928 12.5999 16.0275C13.1896 16.4571 14.3607 17.3245 14.3607 17.3245C14.3607 17.3245 15.4055 17.5435 15.5908 16.8529C15.6161 16.7602 15.6329 16.6592 15.6582 16.5665C16.0795 14.5621 16.4923 12.5576 16.922 10.5616C17.0905 9.75309 17.1054 9.35725 17.2037 8.39583C17.2336 8.10396 17.654 7.7741 17.5033 7.39492C17.3709 7.06154 17.1121 6.87184 16.7535 6.86433C16.5578 6.86023 16.2732 7.0075 16.2732 7.0075C13.8468 7.93393 10.8336 9.20753 9.19423 10.0363C7.55485 10.8651 6.5422 10.7553 5.32056 11.2606C5.14363 11.3364 4.92458 11.5554 4.90772 11.7239C4.8993 11.8839 5.1015 12.1281 5.27001 12.2039C5.61544 12.3639 6.00299 12.4313 6.3737 12.5408C6.89606 12.6924 7.41842 12.8693 7.94078 13.004C8.08401 13.0377 8.29463 13.0209 8.42101 12.9451C9.4573 12.3387 10.4852 11.7239 11.5046 11.0838C12.1618 10.6795 12.7852 10.2247 13.434 9.81205C13.6867 9.64361 13.9648 9.51727 14.2259 9.3741Z" fill="black"/>
</svg>

