<svg width="36" height="21" viewBox="0 0 36 21" fill="none" xmlns="http://www.w3.org/2000/svg">
    <path d="M31.028 20.7334C30.5124 20.7334 29.8372 20.6982 29.162 20.7451C27.9957 20.8155 27.0382 20.3813 26.2525 19.6066C25.565 18.9141 24.9389 18.1629 24.2637 17.4587C23.8586 17.0479 23.4535 16.6254 22.9747 16.2968C22.3854 15.8742 21.8207 15.9329 21.4401 16.5315C21.1087 17.0479 20.9245 17.67 20.7527 18.2568C20.6299 18.7029 20.6544 19.1841 20.6053 19.6536C20.5317 20.2874 20.2493 20.5691 19.5987 20.6395C16.014 20.9916 12.8221 20.2169 10.0476 17.8813C7.7274 15.9212 6.08236 13.4916 4.60919 10.9798C3.0992 8.39769 1.87156 5.67468 0.533432 3.0221C0.447497 2.84605 0.373839 2.65825 0.324734 2.47046C0.189693 1.96576 0.373839 1.61365 0.914 1.59018C2.73091 1.51975 4.54781 1.48454 6.36472 1.50802C7.00309 1.51975 7.35911 1.98924 7.62919 2.55262C8.63585 4.61835 9.69162 6.67234 10.7842 8.71459C11.0666 9.24276 11.5208 9.70051 11.975 10.123C12.7607 10.8507 13.5955 10.6747 13.7797 9.64182C14.0129 8.31553 14.0866 6.96576 14.1234 5.62774C14.148 4.93525 13.9761 4.23102 13.8656 3.53853C13.7428 2.77562 13.2886 2.25919 12.5152 2.02445C11.9996 1.87187 11.9873 1.60191 12.3802 1.3437C12.7362 1.10896 13.1658 0.827266 13.571 0.815529C15.4861 0.756843 17.4012 0.745106 19.3163 0.815529C20.237 0.85074 20.6299 1.29675 20.6544 2.20051C20.6913 3.91412 20.6422 5.63947 20.6544 7.35309C20.6544 8.03384 20.6913 8.71459 20.7772 9.39534C20.8263 9.85309 20.9982 10.3695 21.5383 10.4165C21.8944 10.4399 22.4222 10.2404 22.6309 9.97046C23.5517 8.76154 24.4724 7.52914 25.2458 6.22633C25.9701 5.00567 26.5226 3.69112 27.0873 2.3883C27.3328 1.82492 27.6888 1.57844 28.3395 1.5667C30.2055 1.5667 32.0592 1.51975 33.9252 1.48454C35.1406 1.46107 35.6316 2.09487 35.1038 3.2099C34.4899 4.37187 33.7902 5.51036 33.0536 6.60191C32.1574 7.92821 31.1385 9.19581 30.2177 10.4986C29.2725 11.8249 29.3584 12.447 30.4878 13.609C31.6786 14.8179 32.8694 16.0268 34.0112 17.2827C34.4654 17.7874 34.8582 18.3977 35.1038 19.0315C35.4966 20.0291 35.0669 20.5691 33.9498 20.6395C33.4833 20.6629 33.0045 20.6512 32.538 20.6747C32.096 20.6864 31.6418 20.7099 31.028 20.7334Z" fill="black"/>
</svg>
