<svg width="88" height="146" viewBox="0 0 88 146" fill="none" xmlns="http://www.w3.org/2000/svg">
    <path d="M88.1062 72.4365C88.1062 63.0661 80.5301 55.49 71.1597 55.49C68.5679 55.49 66.1754 56.0881 63.9823 57.085C55.4094 41.8331 46.2384 23.0923 42.4503 0.264404C38.762 37.2476 14.7379 61.2717 4.86903 82.7041C4.86903 82.7041 4.86903 82.7041 4.86903 82.8037C1.6791 88.7849 -0.115234 95.6631 -0.115234 102.84C-0.115234 126.366 18.9246 145.506 42.55 145.506C66.0757 145.506 85.2153 126.466 85.2153 102.84C85.2153 96.7597 83.9194 90.9779 81.6266 85.7943C85.5144 82.7041 88.1062 77.8195 88.1062 72.4365Z" fill="black"/>
    <path d="M63.284 111.513L59.6953 86.3924C59.3963 84.299 57.5023 82.6044 55.4089 82.6044H53.1161C52.8171 77.022 48.2315 72.5362 42.5495 72.5362C36.8674 72.5362 32.1822 77.022 31.9829 82.6044H29.6901C27.5967 82.6044 25.7027 84.299 25.4036 86.3924L21.815 111.513C21.6156 113.208 22.0143 114.803 22.9115 115.899C23.709 116.796 24.7058 117.295 25.9021 117.295H59.1969C60.2935 117.295 61.39 116.796 62.1875 115.899C63.0846 114.803 63.4834 113.208 63.284 111.513ZM42.4498 75.5267C46.4372 75.5267 49.8265 78.7167 50.0259 82.6044H34.8737C35.1728 78.617 38.4624 75.5267 42.4498 75.5267ZM59.8947 113.906C59.6953 114.105 59.496 114.205 59.1969 114.205H25.8024C25.5033 114.205 25.3039 114.105 25.1046 113.906C24.7058 113.507 24.6061 112.709 24.7058 111.912L28.2945 86.7912C28.3942 86.0934 28.9923 85.595 29.5904 85.595H31.8832V87.9874H34.8737V85.595H50.1256V87.9874H53.1161V85.595H55.3092C55.9073 85.595 56.5054 86.1931 56.6051 86.7912L60.1938 111.912C60.3931 112.809 60.2934 113.507 59.8947 113.906Z" fill="white"/>
    <path d="M71.1595 85.6947C78.4818 85.6947 84.4176 79.7588 84.4176 72.4365C84.4176 65.1143 78.4818 59.1784 71.1595 59.1784C63.8372 59.1784 57.9014 65.1143 57.9014 72.4365C57.9014 79.7588 63.8372 85.6947 71.1595 85.6947Z" fill="white"/>
</svg>
