<svg width="88" height="90" viewBox="0 0 88 90" fill="none" xmlns="http://www.w3.org/2000/svg">
    <circle cx="34" cy="34" r="34" fill="black"/>
    <path d="M73.257 75.2566L28.6452 55.5613L53.5617 30.6448L73.257 75.2566Z" fill="black"/>
    <path d="M28.9403 38.9629H26.1991L25.6659 41H23.5399L26.6502 31.0469H28.4891L31.62 41H29.4735L28.9403 38.9629ZM26.6366 37.2881H28.4959L27.5662 33.7402L26.6366 37.2881ZM38.7425 32.7217H36.2815V41H34.2649V32.7217H31.845V31.0469H38.7425V32.7217ZM45.3318 31.0469H47.3415V41H45.3318V34.4102L42.3991 41H40.3825V31.0469H42.3991V37.6436L45.3318 31.0469ZM52.4064 36.9395H51.5314V41H49.5216V31.0469H51.5314V35.0254H52.2082L53.9377 31.0469H56.3849L53.9513 35.6816L56.6584 41H54.2658L52.4064 36.9395Z" fill="white"/>
    <path d="M22.9436 23.9L18.8436 34.3L15.3436 19L12.4436 26.2C11.3436 28.9 12.3436 32.1 14.8436 33.6L18.1436 35.7L14.7436 44.3L18.1436 46.5L26.2436 26L22.9436 23.9Z" fill="white"/>
</svg>
