<svg width="23" height="24" viewBox="0 0 23 24" fill="none" xmlns="http://www.w3.org/2000/svg">
    <path fill-rule="evenodd" clip-rule="evenodd" d="M11.0446 23.2506C22.6584 23.2506 23 22.909 23 11.7506C23 0.706048 22.4307 0.136741 12.297 0.250602C0.341579 0.250602 0 0.592186 0 11.409C0 22.7952 0.455442 23.2506 11.0446 23.2506ZM11.9554 4.57734C16.1683 5.2605 18.2178 7.76546 18.5594 11.5229C18.3317 15.8496 14.6881 19.2655 10.8168 18.5823C6.71782 18.013 4.32673 15.508 4.32673 11.2952C4.32673 7.42387 8.19802 4.00803 11.9554 4.57734ZM18.5 5.88022C19.3284 5.88022 20 5.20865 20 4.38022C20 3.55179 19.3284 2.88022 18.5 2.88022C17.6716 2.88022 17 3.55179 17 4.38022C17 5.20865 17.6716 5.88022 18.5 5.88022Z" fill="black"/>
    <path d="M10.8772 6.62686C12.7515 11.1813 16.1675 10.3002 16.1675 13.4585C16.1675 16.3051 13.0405 17.6714 11.9019 17.5576C10.0801 17.3298 7.05852 16.0774 7.05859 13.4586C7.05869 10.3355 9.90489 10.612 10.8772 6.62686Z" fill="black"/>
</svg>
