<svg width="1510" height="952" viewBox="0 0 1510 952" fill="none" xmlns="http://www.w3.org/2000/svg">
    <g clip-path="url(#clip0)">
        <rect width="1920" height="10088" transform="translate(0 -9136)" fill="white"/>
        <path d="M448.957 323.173C446.315 328.523 443.93 333.836 441.251 338.928C454.327 344.402 454.327 344.402 442.983 375.072C449.286 373.392 454.672 372.627 459.584 370.358C486.265 357.406 513.569 345.15 539.225 330.51C556.415 320.739 573.86 312.763 593.536 311.277C609.84 310.009 621.826 302.285 631.251 289.427C638.072 280.343 645.993 271.626 653.4 262.982C654.535 263.606 655.67 264.23 656.805 264.854C655.044 269.031 653.282 273.208 651.521 277.385C645.759 290.246 639.192 302.96 634.236 315.968C632.731 320.109 635.072 325.536 635.471 330.192C640.308 329.243 645.547 329.284 649.725 327.382C657.092 323.979 663.763 319.367 672.376 315.525C663.752 334.029 666.964 351.113 677.502 370.036C682.633 367.475 689.01 364.475 696.596 360.779C699.555 372.402 689.881 376.132 681.707 381.22C688.223 388.41 694.855 387.206 701.709 383.877C708.086 380.877 714.426 377.62 721.023 374.327C721.235 385.03 720.203 394.34 721.735 403.285C724.508 419.123 730.037 423.05 743.928 415.841C767.788 403.289 791.502 389.711 812.763 373.601C836.371 355.587 857.123 334.052 879.413 314.131C884.033 309.81 888.982 305.965 894.589 303.074C850.583 359.852 788.126 397.259 741.813 452.531C772.405 452.374 802.958 455.627 829.46 437.726C854.788 420.777 877.885 399.17 904.714 385.411C958.407 358.15 997.42 315.957 1034.46 270.904C1039.59 264.677 1045.05 258.927 1051.36 251.748C1056.74 261.98 1052.41 266.521 1046.33 271.574C1037.27 279.667 1029.17 288.934 1019.78 298.383C1033.51 306.642 1045.02 304.746 1057.07 303.034C1061.95 302.342 1069.79 304.108 1072.13 307.702C1078.68 316.982 1083.59 314.714 1089.17 307.901C1106.4 287.389 1123.34 266.657 1140.32 246.181C1146.59 238.746 1152.6 231.347 1158.84 223.654C1160.01 224.535 1160.89 225.196 1162.06 226.076C1147.54 245.418 1133.02 264.759 1118.49 284.1C1086.7 325.53 1054.9 366.959 1023.4 408.608C1016.58 417.693 1005.77 426.297 1011.58 439.609C1003.99 446.97 996.659 454.294 987.713 463.157C993.464 464.958 995.735 466.206 997.859 466.428C1007.42 467.426 1007.64 472.632 1004.74 479.85C1000.08 491.246 995.964 502.825 991.596 514.441C992.511 515.358 993.39 516.019 994.049 516.973C998.483 515.034 1003.58 514.049 1007.35 511.156C1027.37 495.485 1048.63 481.208 1066.23 463.263C1099.44 430.009 1130.54 394.7 1162.58 360.566C1165.08 357.855 1168.16 355.585 1170.91 352.839C1171.79 353.499 1172.88 353.867 1173.76 354.527C1171.52 359.034 1169.87 363.981 1167.01 367.791C1145.74 394.897 1124.22 422.04 1102.95 449.146C1099.65 453.542 1097.48 458.561 1095.98 464.535C1160.04 431.088 1223.74 398.741 1295.75 376.994C1286.66 384.83 1279.62 390.542 1273.2 396.951C1270.01 400.284 1268.91 405.415 1266.89 409.629C1272.13 409.67 1277.92 411.728 1282.06 409.569C1294.08 403.934 1305.63 396.797 1317.28 390.429C1321.9 387.94 1326.85 385.929 1331.47 383.44C1332.16 384.65 1333.15 386.081 1333.84 387.291C1315.11 402.78 1295.76 417.572 1277.35 433.537C1251.76 456.021 1227.35 479.386 1202.05 502.09C1191.6 511.428 1181 521.572 1168.51 527.536C1113.64 553.916 1065.7 588.477 1031.4 639.948C1027.29 646.029 1022.38 651.963 1020.21 658.815C1018.38 664.312 1017.49 672.815 1020.35 676.337C1023.2 679.858 1032.58 681.406 1037.56 679.651C1061.49 671.278 1085.28 661.878 1108.73 652.002C1122.55 646.112 1135.89 638.72 1149.71 632.83C1167.96 625.002 1186.28 617.687 1204.72 611.142C1229.38 602.403 1254.34 593.884 1279.37 585.879C1286.62 583.539 1294.57 582.41 1302.16 582.38C1305.56 582.419 1310.25 585.943 1311.49 589.169C1312.59 591.37 1310.02 597.232 1307.38 598.916C1299.47 603.967 1291.22 610.375 1282.5 611.614C1257.14 615.477 1234.93 624.914 1211.7 636.33C1186.48 648.551 1156.11 650.247 1128.29 657.077C1111.11 661.351 1094.25 666.101 1077.47 671.365C1072.96 672.791 1069.44 677.479 1064.53 681.58C1084.85 692.045 1098.52 688.795 1119.05 669.386C1119.49 677.963 1119.81 685.771 1120.21 695.925C1125.78 692.778 1129.59 690.142 1133.84 688.753C1138.13 687.62 1142.85 687.734 1147.51 687.335C1145.27 691.842 1144.42 698.769 1140.76 700.598C1127.12 707.771 1112.83 713.99 1098.46 719.695C1085.56 724.669 1071.86 727.663 1059.25 732.857C1055.04 734.503 1049.94 740.986 1050.01 745.165C1049.82 753.046 1056.89 754.921 1064.07 753.901C1092.14 750.7 1118.56 743.282 1144.69 731.979C1181.12 715.809 1219.41 703.563 1256.94 689.594C1264.89 686.632 1273.2 684.607 1283.55 677.961C1293.89 671.315 1273.84 672.271 1270.69 670.362C1266.7 668.049 1261.98 666.102 1258.65 662.91C1248.94 653.555 1245.88 635.664 1251.97 628.778C1258.97 620.977 1286.85 618.325 1293.04 626.871C1298.2 633.73 1298.67 644.398 1300.2 653.343C1300.89 658.219 1299.53 663.386 1298.72 672.402C1315.72 666.846 1312.5 667.821 1326 662.91C1339.5 658 1339.5 658 1344 656.5C1348.5 655 1363.3 648.388 1366 658.815C1367.83 665.885 1362.5 670.712 1343 677.961C1323.5 685.209 1326.35 685.226 1293.04 695.925C1246.86 710.753 1229.77 719.371 1177.4 741.208C1156.88 749.621 1140.16 768.227 1122.67 783.277C1110.1 794.226 1099.31 806.753 1086.78 819.791C1091.21 819.685 1094.87 819.688 1102.2 819.694C1098.06 823.686 1096.37 826.544 1093.91 827.678C1088.75 829.983 1083.47 831.518 1077.94 833.089C1046.02 842.335 1029.99 863.984 1030.26 897.194C1030.4 907.384 1034.5 914.133 1045.27 914.435C1054.21 914.736 1063.37 914.744 1072.38 913.726C1105.32 909.833 1138.41 905.133 1171.31 900.983C1177.72 900.073 1184.14 899.162 1187.43 907.596C1190.72 916.029 1190.09 922.663 1182.76 928.155C1173.81 935.185 1165.31 941.629 1152.45 935.863C1143.26 931.933 1135.64 935.372 1132.77 944.679C1128.05 942.733 1123.25 938.44 1119.4 938.986C1081.48 944.634 1043.41 949.256 1006.22 958.204C981.154 964.12 979.537 971.157 989.448 994.881C1000.13 1020.33 1012.49 1044.75 1024.16 1069.8C1025.33 1072.51 1026.47 1074.97 1025.33 1079.84C1021.89 1075.88 1018.19 1071.96 1014.71 1067.74C1004.97 1056.29 994.981 1044.88 986.197 1032.78C977.156 1020.71 965.723 1023.12 954.327 1025.79C945.46 1027.83 944.351 1040.29 953.58 1046.31C963.979 1053.21 975.81 1057.29 986.87 1063.31C991.412 1065.81 995.109 1069.74 999.503 1073.04C993.971 1072.78 988.292 1073.32 983.383 1071.93C976.827 1069.98 970.895 1065.06 964.448 1063.88C957.488 1062.78 949.939 1064.9 942.721 1065.66C933.194 1066.75 923.41 1069.71 914.141 1068.93C890.329 1067.08 866.956 1064.64 845.549 1079.72C832.939 1088.58 833.854 1089.5 841.025 1103.14C851.086 1122.39 863.827 1134.72 886.981 1135.62C895.151 1136.03 902.584 1142.31 910.605 1145.36C928.882 1152.45 947.378 1159.24 965.912 1166.3C973.933 1169.35 982.138 1171.85 989.792 1176C992.648 1177.68 993.634 1182.78 995.427 1186.19C991.836 1186.7 987.914 1188.57 984.911 1187.68C962.164 1180.44 939.894 1172.87 917.368 1165.34C910.482 1162.91 903.596 1160.49 896.197 1158.14C885.013 1171.51 885.437 1192.91 864.915 1199.49C869.968 1203.75 874.399 1207.31 880.33 1212.23C870.839 1215.41 856.845 1212.68 860.608 1228.12C862.58 1236.48 866.091 1244.62 869.272 1254.11C855.932 1259.67 850.755 1274.81 848.105 1291.15C846.118 1302.95 843.654 1315.08 842.986 1326.96C841.986 1342.02 844.622 1344.01 859.606 1344.5C861.695 1344.46 863.6 1344.98 866.787 1345.31C864.328 1350.11 862.201 1353.55 860.11 1357.25C853.506 1369.71 857.823 1378 872.076 1377.02C886.108 1376.34 897.141 1369.27 904.808 1356.93C906.935 1353.48 911.372 1347.88 913.277 1348.39C917.636 1349.61 922.616 1353.35 924.261 1357.57C933.293 1382.46 920.378 1407.6 895.019 1415.13C893.517 1415.6 891.869 1415.05 887.912 1414.83C895.979 1405.3 902.873 1396.73 910.904 1386.95C889.069 1386.13 863.285 1423.82 864.472 1454.28C869.824 1449.6 875.468 1446.96 876.021 1443.48C877.933 1433 886.435 1430.22 893.139 1431.36C899.037 1432.36 904.234 1439.47 908.407 1444.9C909.358 1446.08 906.386 1452.78 903.71 1454.21C899.349 1456.66 893.89 1456.91 888.356 1458.48C885.639 1466.98 890.693 1469.41 898.461 1468.83C915.314 1467.74 932.132 1466.4 948.766 1465.61C970.309 1464.38 971.297 1465.81 966.153 1486.7C965.455 1489.16 964.757 1491.61 963.618 1496.49C985.932 1493.32 1006.96 1490.33 1028 1487.34C1028.51 1489.1 1029.28 1490.83 1029.75 1492.33C1023.41 1495.59 1017.51 1500.09 1010.66 1501.59C982.478 1507.68 953.385 1511.03 925.755 1519.14C904.684 1525.54 884.818 1536.74 865.429 1547.61C853.554 1554.27 853.399 1566.07 861.34 1577.77C863.317 1580.63 866.063 1583.39 866.756 1586.43C870.189 1601.39 880.626 1608.54 894.068 1612.92C896.266 1613.65 898.317 1615.19 900.219 1619.37C895.493 1619.26 890.656 1620.21 886.297 1619C833.879 1605.5 785.399 1617.88 738.67 1640.75C729.141 1645.51 719.208 1651.11 708.728 1652.86C695.207 1655.3 680.698 1656.31 667.034 1654.07C646.41 1650.71 626.301 1643.62 605.824 1639.46C596.41 1637.65 585.968 1637.83 576.185 1638.96C562.555 1640.63 552.263 1636.33 545.604 1624.45C539.31 1613.3 533.457 1601.57 528.117 1589.76C524.203 1580.63 518.381 1576.48 508.232 1576.88C498.889 1577.42 489.291 1576.16 479.583 1575.97C477.972 1573.84 476.362 1571.72 474.715 1569.33C478.563 1566.95 484.097 1565.38 485.455 1562.05C488.391 1555.09 490.668 1547.17 490.197 1540.17C489.288 1530.09 483.798 1522.75 470.974 1524.57C465.588 1525.34 459.948 1522.47 454.306 1521.44C455.814 1513.64 456.844 1507.99 457.874 1502.35C456.482 1501.76 455.347 1501.14 453.919 1500.29C450.693 1503.37 447.246 1506.74 443.763 1509.85C434.79 1505.63 434.79 1505.63 453.858 1483.28C453.456 1482.29 452.981 1480.79 452.102 1480.13C426.361 1459.18 403.226 1432.62 374.036 1418.7C333.347 1399.35 300.542 1369.19 261.502 1348.55C231.837 1333.13 199.898 1321.96 169.206 1308.52C161.954 1305.36 153.603 1301.83 148.588 1296C134.678 1279.13 122.382 1260.71 109.389 1242.93C108.107 1241.27 107.046 1239.33 106.242 1237.35C99.2586 1217.66 92.2753 1197.97 85.7686 1177.95C81.9671 1165.92 83.2212 1154.49 89.4214 1142.88C100.318 1121.95 99.5147 1118.14 80.7304 1103.79C59.2732 1087.21 36.2393 1072.41 15.4422 1054.95C-0.924447 1041.04 -14.5777 1024.13 -29.8077 1009.01C-51.188 987.443 -73.7049 967.079 -107.892 973.244C-109.431 973.463 -111.299 973.204 -112.911 972.91C-113.717 972.762 -114.339 972.065 -116.683 970.304C-114.444 965.797 -110.631 961.329 -110.041 956.271C-109.157 949.6 -108.711 941.683 -111.382 935.779C-112.516 933.322 -121.785 934.377 -127.354 933.859C-134.241 933.266 -141.092 932.931 -147.98 932.338C-148.455 930.835 -148.893 929.588 -149.369 928.085C-143.283 923.032 -137.198 917.979 -131.369 912.962C-123.45 906.078 -124.288 900.175 -133.664 894.962C-140.183 891.437 -146.518 887.363 -152.853 883.289C-146.036 879.703 -139.585 875.383 -132.402 872.53C-109.9 863.313 -105.893 845.465 -121.56 827.27C-138.179 807.902 -153.149 787.252 -166.875 769.828C-150.463 771.162 -130.131 774.296 -109.724 774.277C-66.5293 774.425 -39.5038 741.789 -45.8837 698.713C-47.2323 689.218 -48.8009 680.016 -49.8931 670.485C-50.7287 660.917 -48.7808 652.525 -40.2411 648.17C-33.3551 650.596 -27.3844 652.104 -21.5243 654.675C-18.1549 656.29 -15.4091 659.042 -12.4798 661.244C-16.2177 662.56 -19.9192 664.133 -23.7665 664.68C-25.5619 664.935 -27.576 663.65 -30.8725 662.547C-30.3987 665.883 -30.4014 669.549 -29.8884 669.476C-20.5833 670.511 -11.1325 672.572 -2.11899 671.553C1.98479 670.97 6.64204 665.073 8.84376 660.31C13.8709 649.647 16.3345 637.517 21.6909 627.331C24.1856 622.788 31.8073 621.182 36.7926 617.594C42.218 613.42 49.2551 609.541 52.0805 603.642C66.9405 573.781 82.0934 544.14 93.9133 513.14C105.219 484.045 112.642 453.408 122.263 423.505C126.265 411.156 131.11 399.211 136.797 387.669C138.448 384.555 144.897 383.901 149.368 382.219C149.731 386.618 152.072 392.045 150.128 394.939C125.553 433.772 126.105 480.031 110.833 521.732C109.145 526.422 110.312 532.801 112.067 537.788C115.357 548.054 119.673 558.175 123.476 568.369C124.353 570.862 124.241 573.758 125.815 575.628C130.646 582.011 135.918 587.807 140.969 593.896C146.322 589.209 152.004 584.999 156.77 579.871C162.417 573.571 166.783 565.621 172.722 559.541C180.679 551.081 189.984 552.115 196.352 561.945C204.366 574.158 207.764 587.027 198.705 600.618C195 605.857 191.113 611.645 189.899 617.838C188.943 622.163 190.917 628.689 193.772 632.211C197.579 636.906 202.161 634.161 208.098 631.747C230.636 622.786 233.691 603.765 236.893 583.937C240.389 562.496 252.638 545.572 269.977 533.161C323.311 496.003 360.901 445.635 391.901 389.396C404.19 367.23 420.179 347.157 434.739 326.24C437.123 322.76 441.192 320.088 444.455 317.268C446.87 321.375 448.041 322.256 448.957 323.173ZM1022.39 535.985C1023.82 536.829 1024.99 537.71 1026.46 538.811C1026.56 543.246 1028.13 548.783 1026.26 552.19C1019.18 564.977 1010.42 576.955 1002.75 589.301C999.121 595.053 996.112 601.502 992.81 607.73C998.451 608.762 1001.75 608.031 1004.42 606.604C1061.86 578.027 1115.26 543.214 1159.66 496.591C1172.64 482.967 1186.68 473.119 1204.49 467.709C1209.26 466.247 1213.8 463.246 1218.46 461.014C1214.68 458.408 1212.05 458.259 1209.26 458.916C1178.63 464.314 1148.29 471.765 1117.58 474.817C1074.42 478.592 1047.58 505.18 1022.39 535.985ZM1068.19 331.562C1067.53 330.608 1066.87 329.654 1066.22 328.701C1052.87 336.093 1039.28 343.522 1025.9 350.658C1019.59 354.172 1013.14 358.492 1006.29 359.988C973.605 367.511 958.235 393.779 940.155 417.553C968.131 437.664 991.288 434.899 1006.07 411.856C1012.27 402.074 1019.64 393.173 1026.72 384.052C1039.52 367.312 1050.48 348.737 1067.09 334.86C1067.79 334.237 1067.82 332.661 1068.19 331.562ZM973.569 566.219C990.837 549.63 1006.24 534.615 1024.46 517.366C987.266 524.481 963.403 540.698 973.569 566.219ZM848.585 1136.1C845.423 1150.69 843.069 1163.59 852.407 1170.38C862.001 1177.13 869.74 1165.3 877.328 1159.77C878.977 1158.49 880.041 1156.77 883.158 1152.92C871.622 1147.23 861.477 1142.12 848.585 1136.1ZM1062.96 722.12C1068.68 716.334 1073.74 711.426 1078.8 706.519C1074.55 704.242 1068.84 699.032 1066.68 700.387C1060.63 703.864 1056.23 709.725 1051.46 714.852C1054.35 716.797 1057.5 718.706 1062.96 722.12Z" fill="black"/>
        <path d="M719.698 0.235609C710.011 20.4609 700.104 40.9792 690.417 61.2044C675.85 91.2857 674.425 86.7758 703.979 103.26C732.654 119.084 742.607 135.734 736.322 163.33C734.447 172.236 728.505 181.981 721.466 187.693C700.167 205.379 676.098 203.561 655.484 185.545C652.811 183.307 650.395 181.032 647.722 178.794C622.787 157.989 620.885 153.808 637.319 125.818C661.97 83.8325 688.635 43.1318 714.422 1.77049C715.302 0.598293 716.475 -0.353714 717.648 -1.30572C718.527 -0.645155 719.113 -0.204769 719.698 0.235609Z" fill="black"/>
        <path d="M1058.91 850.19C1080.53 845.811 1100.43 840.367 1120.54 838.295C1126.99 837.641 1134.46 846.005 1141.34 850.263C1132.61 862.498 1075.64 862.998 1058.91 850.19Z" fill="black"/>
        <path d="M1463.39 238.255C1470.87 231.957 1478.42 226.172 1485.39 219.946C1488.65 217.127 1490.96 213.133 1494.59 211.047C1498 209.254 1502.47 209.405 1506.32 208.858C1506.9 212.964 1508.58 217.437 1507.52 220.992C1505.28 227.332 1501.97 233.56 1498.05 239.092C1486.75 255.357 1472.69 253.951 1463.39 238.255Z" fill="black"/>
        <path d="M1244.66 839.421C1226.93 836.179 1210.05 833.342 1193.31 829.698C1190.89 829.256 1188.69 824.856 1187.78 822.106C1187.34 820.859 1190.05 817.856 1192.25 816.758C1203.69 810.683 1238.19 821.49 1244.81 833.116C1245.18 833.849 1244.59 835.242 1244.66 839.421Z" fill="black"/>
        <path d="M20.1493 531.733C23.4081 534.412 25.788 536.43 29.4126 539.842C30.9933 532.549 32.4999 526.575 34.4842 518.44C43.6328 533.11 44.2821 546.893 42.0737 560.82C41.6323 563.239 39.1754 566.206 36.9763 567.303C35.7668 567.999 31.7386 565.429 30.9705 563.706C27.1677 553.512 23.8779 543.246 20.1493 531.733Z" fill="black"/>
        <path d="M880.902 182.76C867.756 173.108 867.001 153.057 876.568 146.724C878.474 145.406 882.029 144.639 883.714 145.447C885.728 146.732 887.813 150.362 887.335 152.525C885.79 161.907 883.475 171.399 880.902 182.76Z" fill="black"/>
        <path d="M1109.98 152.317C1121.38 142.32 1132.82 132.579 1145.65 121.594C1145.97 138.566 1129.18 154.826 1113.09 155.802C1112.14 154.628 1110.93 153.49 1109.98 152.317Z" fill="black"/>
        <path d="M492.468 242.643C491.493 222.885 504.226 196.468 519.512 184.349C509.935 205.344 501.091 224.14 492.468 242.643Z" fill="black"/>
        <path d="M177.584 525.603C180.819 509.698 184.019 493.535 187.254 477.63C189.159 478.145 191.027 478.403 192.932 478.918C189.44 494.86 186.204 510.765 182.748 526.964C180.844 526.449 179.232 526.154 177.584 525.603Z" fill="black"/>
        <path d="M523.62 178.268C536.417 163.36 547.601 149.991 558.822 136.878C558.19 149.011 539.048 172.673 523.62 178.268Z" fill="black"/>
        <path d="M562.472 105.467C568.304 96.7844 574.136 88.1022 579.931 79.1634C581.652 80.2279 583.117 81.3289 584.838 82.3934C579.006 91.0756 573.211 100.014 567.379 108.697C565.914 107.596 564.193 106.531 562.472 105.467Z" fill="black"/>
        <path d="M1290.98 753.203C1296.6 747.028 1299.57 742.188 1303.48 740.594C1305.41 739.67 1312.85 745.021 1312.76 747.155C1312.37 751.73 1309.86 757.534 1306.16 760.142C1304.23 761.066 1298.26 756.471 1290.98 753.203Z" fill="black"/>
    </g>
    <defs>
        <clipPath id="clip0">
            <rect width="1920" height="10088" fill="white" transform="translate(0 -9136)"/>
        </clipPath>
    </defs>
</svg>


