<svg width="477" height="733" viewBox="0 0 477 733" fill="none" xmlns="http://www.w3.org/2000/svg">
    <g clip-path="url(#clip0)">
        <path d="M190.781 332.788C191.242 330.574 191.612 328.36 192.35 326.147C192.997 324.21 194.474 322.642 192.905 320.243C191.981 318.86 193.182 317.938 195.398 318.307C195.767 318.399 196.229 318.307 196.598 318.399C196.414 318.03 196.321 317.569 196.137 317.2C194.567 313.879 194.567 313.879 197.522 311.573C198.445 310.835 198.814 310.374 197.706 309.544C196.321 308.437 196.044 305.578 193.182 306.869C192.997 306.962 191.981 305.855 191.981 305.301C191.889 304.287 192.166 303.18 192.535 302.165C194.567 296.816 191.796 293.403 187.918 290.359C187.364 289.898 186.718 289.344 186.441 288.699C185.886 287.5 185.425 287.038 184.04 287.684C183.209 288.145 182.1 288.053 181.085 288.053C180.161 288.053 179.33 287.869 178.407 287.776C178.961 286.946 179.422 285.932 180.161 285.378C180.992 284.733 182.1 284.456 183.116 284.179C184.132 283.902 185.055 283.626 184.409 282.519C184.04 281.966 182.747 281.228 182.47 281.412C179.422 283.534 178.499 280.951 177.114 279.198C176.19 277.907 176.098 275.878 173.79 275.878C171.573 275.97 169.542 276.431 168.157 278.368C168.064 278.461 167.972 278.645 167.88 278.737C166.956 280.213 165.756 280.49 164.371 279.475C162.801 278.368 163.355 277.077 164.371 275.97C166.587 273.849 167.048 271.266 166.864 268.407C166.864 267.853 166.771 266.747 166.494 266.654C162.062 265.548 165.294 263.703 165.571 261.581C166.125 258.076 165.202 254.295 164.925 250.697C164.925 250.605 164.371 250.421 164.186 250.513C162.985 251.343 161.508 251.989 160.677 253.188C159.661 254.664 158.553 254.756 157.075 254.202C155.321 253.557 154.767 252.45 155.229 250.605C155.598 248.853 155.69 247.1 155.875 245.348C157.814 245.532 159.938 245.44 161.693 246.086C164.648 247.1 164.832 247.193 165.386 244.518C165.663 243.319 165.94 241.751 163.724 242.95C163.447 243.134 162.708 242.95 162.524 242.673C160.215 238.799 155.506 238.615 152.366 236.124C151.904 235.755 151.166 235.571 150.888 235.11C150.611 234.648 150.427 233.911 150.611 233.449C150.796 232.988 151.535 232.711 151.997 232.527C152.274 232.435 152.643 232.435 152.92 232.619C157.168 234.648 159.384 231.974 161.693 229.022C163.262 226.993 165.294 225.425 167.326 223.765C167.695 223.488 168.618 223.857 169.357 223.949C169.172 224.502 169.172 225.148 168.803 225.609C168.341 226.163 167.418 226.439 167.048 227.085C166.31 228.469 165.479 229.944 165.294 231.42C165.202 231.974 166.771 233.08 167.787 233.449C169.357 234.003 171.019 234.187 172.681 234.556C173.697 234.833 174.805 235.11 175.636 235.663C176.283 236.124 176.745 237.047 176.745 237.877C176.745 238.246 175.729 238.799 175.082 238.984C174.251 239.168 173.235 238.891 172.312 239.076C171.389 239.26 170.465 239.814 169.542 240.183C170.281 240.828 171.019 241.658 171.85 242.12C172.589 242.581 173.513 242.95 174.344 243.226C177.853 244.333 179.699 243.688 182.008 240.828C183.578 238.891 183.763 235.202 187.733 236.032C187.826 236.032 188.01 235.848 188.01 235.755C187.826 233.357 189.211 231.328 189.765 229.206C190.042 228.1 189.673 226.716 190.688 225.702C190.781 225.609 190.965 225.425 190.965 225.333C191.242 221.366 191.519 217.308 191.704 213.342C191.704 212.973 191.15 212.512 191.15 212.143C191.612 207.162 187.918 205.317 184.409 203.38C182.377 202.274 180.346 201.167 178.591 199.783C177.576 198.953 177.022 197.57 176.283 196.463C174.805 193.972 173.42 191.482 171.85 189.084C170.465 187.055 170.281 185.302 171.758 184.195C173.235 183.088 175.636 183.734 177.022 185.487C178.776 187.793 180.715 189.914 182.562 192.128C184.317 194.434 186.071 196.739 187.733 199.045C188.38 199.875 188.749 201.075 189.58 201.628C190.873 202.643 192.35 203.288 193.828 204.118C193.366 202.735 193.089 201.167 192.258 200.06C189.026 195.448 185.517 191.021 182.193 186.409C181.085 184.933 178.314 183.457 181.731 181.336C181.731 181.336 181.454 180.229 181.085 180.045C179.515 179.122 177.853 178.292 176.19 177.462C174.713 176.724 174.436 175.894 176.006 174.787C176.652 174.326 177.206 173.773 177.853 173.404C179.515 172.389 180.808 172.85 180.531 174.603C180.346 176.54 180.9 177.462 182.47 178.2C183.763 178.846 184.224 179.768 184.594 181.244C184.963 182.627 186.902 183.734 188.38 184.749C190.319 186.132 191.796 187.239 192.443 190.098C193.459 194.802 197.522 198.031 201.215 200.982C201.769 201.443 203.616 200.982 204.355 200.337C205.833 199.138 206.387 197.016 204.909 195.817C198.537 190.744 202.046 183.919 201.308 177.831C201.215 176.724 202.416 175.433 203.062 174.234L203.155 174.142C206.571 174.879 206.848 178.108 207.587 180.506C209.157 185.118 211.927 188.899 214.79 192.681C215.621 193.696 216.914 194.434 218.022 195.079C218.484 195.356 219.222 194.987 219.776 194.895C219.407 194.434 218.853 194.065 218.576 193.603C218.299 192.958 217.929 192.22 218.114 191.574C218.207 191.205 219.038 190.836 219.592 190.744C220.33 190.652 221.161 190.744 221.9 190.929C223.655 191.205 224.301 190.467 223.562 188.899C221.531 184.472 221.993 180.598 225.317 176.816C226.979 174.972 227.718 172.205 228.457 169.714C229.195 167.408 228.641 165.102 226.61 163.442C224.024 161.321 223.193 158.461 223.193 155.233C223.193 152.005 223.008 148.777 223.285 145.548C223.378 144.165 224.116 142.597 225.04 141.582C226.517 140.106 228.734 140.752 229.472 142.689C230.026 144.257 230.396 145.917 230.58 147.578C231.042 151.82 231.319 156.156 231.596 160.398C231.689 162.059 231.596 163.534 233.997 163.073C234.459 162.981 235.198 163.442 235.567 163.811C236.029 164.365 236.213 165.102 236.583 165.748C235.936 165.933 235.105 166.394 234.644 166.117C233.074 165.195 232.427 165.564 232.52 167.408C232.612 169.53 232.612 171.743 232.981 173.865C233.72 178.292 234.551 182.72 230.303 186.132C229.842 186.501 229.472 187.239 229.472 187.7C229.565 188.161 230.396 188.992 230.673 188.992C233.074 188.161 235.752 187.608 237.783 186.224C239.168 185.21 239.815 182.996 240.554 181.152C241.2 179.491 240.923 177.001 243.97 178.661C244.063 178.753 245.263 177.554 245.078 177.278C244.801 176.54 244.155 175.525 243.509 175.433C242.493 175.341 241.477 175.894 240.461 176.171C237.783 176.816 236.675 176.263 236.306 173.588C235.936 170.729 236.952 168.607 239.63 167.132C241.939 165.84 241.846 165.748 239.445 163.996C239.076 163.719 238.891 163.073 238.614 162.612C239.168 162.52 239.722 162.243 240.277 162.243C243.047 162.151 243.416 161.597 242.216 159.292C240.554 156.34 240.554 156.34 243.786 155.51C244.34 155.325 244.986 155.233 245.54 155.049C246.833 154.588 248.126 154.034 249.418 153.573C249.511 154.864 249.511 156.156 249.788 157.355C249.973 158.185 250.804 158.923 251.081 159.753C251.727 161.597 252.281 163.442 252.927 165.287C253.205 166.025 253.482 166.855 253.759 167.593C254.405 166.947 255.236 166.394 255.513 165.656C256.252 163.534 256.806 161.229 257.36 159.015C258.283 155.602 259.114 152.189 260.13 148.777C260.407 147.762 260.777 146.563 261.515 145.917C262.531 144.903 263.916 143.796 265.209 143.796C267.056 143.704 267.795 145.733 267.61 147.209C267.148 150.714 269.642 154.311 267.148 157.816C266.687 158.461 267.241 160.306 267.887 161.229C269.549 163.442 271.581 165.379 273.52 167.316C273.797 167.593 274.351 167.685 274.72 167.593C276.475 167.132 276.383 167.132 277.583 168.423C278.322 169.253 279.245 170.913 279.892 168.238C279.984 168.054 281 167.777 281.554 167.962C282.662 168.331 283.678 169.161 284.878 169.345C290.788 170.175 294.389 165.748 293.097 159.476C292.727 157.631 293.281 157.355 295.313 157.539C297.621 157.724 299.376 158.83 300.669 160.491C301.223 161.229 301.5 162.612 301.038 163.35C300.669 163.996 299.099 164.549 298.453 164.272C297.16 163.627 296.513 163.996 295.867 165.102C295.498 165.748 294.944 166.394 294.574 167.039C293.928 168.331 293.281 169.622 292.727 170.913C294.112 170.821 295.498 170.821 296.79 170.544C297.344 170.452 298.176 169.806 298.176 169.345C298.36 167.501 299.007 166.025 301.038 165.84C303.439 165.564 305.655 166.117 307.225 168.146C308.241 169.438 309.534 171.836 310.18 171.651C311.75 171.282 313.227 169.806 314.428 168.515C315.998 166.855 317.383 164.918 318.953 163.258C320.153 161.966 321.354 161.136 319.322 159.292C318.122 158.185 319.322 156.986 320.43 156.34C321.723 155.51 322.831 155.602 323.201 157.262C323.662 159.292 324.401 158.554 325.324 157.631C328.372 154.403 331.419 151.175 334.466 147.947C334.928 147.485 335.113 146.84 335.667 146.563C336.221 146.286 336.96 146.379 337.698 146.286C337.698 146.84 337.883 147.578 337.606 147.947C335.574 150.437 333.451 152.835 331.419 155.418C328.741 158.738 326.063 162.151 323.478 165.471C323.108 165.933 322.831 166.578 322.369 166.947C319.23 169.438 316.09 171.743 312.95 174.142C312.581 174.418 312.119 174.511 311.75 174.787C310.18 175.986 309.164 178.846 309.995 180.045C311.104 181.705 312.858 182.351 314.89 181.982C318.399 181.336 320.984 179.215 323.293 176.724C326.34 173.496 332.158 174.049 334.466 177.923C335.297 179.307 336.129 178.846 337.052 178.938C337.514 179.03 338.345 179.491 338.437 179.86C338.437 180.506 338.16 181.336 337.698 181.797C337.237 182.351 336.406 182.627 335.759 182.996C334.189 183.734 333.543 185.025 333.543 186.686C333.543 189.453 333.543 192.22 333.451 194.987C333.451 197.016 334.282 198.123 336.221 198.676C340.099 199.691 343.885 200.429 347.856 198.307C349.518 197.385 351.642 197.385 353.581 196.924L353.766 197.201C353.304 197.938 352.75 198.676 352.381 199.506C352.289 199.783 352.381 200.429 352.566 200.613C355.059 202.458 357.09 207.439 356.075 210.206C355.613 211.497 355.982 212.051 356.721 212.973C359.399 216.386 358.568 218.599 354.505 220.167C349.611 222.012 348.133 226.439 346.379 230.682C346.194 231.051 346.194 231.697 346.471 232.066C348.503 234.648 347.394 236.493 345.363 238.338C344.532 239.076 344.716 239.998 345.917 240.459C346.656 240.736 347.579 241.382 348.041 241.105C351.734 238.891 352.935 242.212 354.966 243.964C358.291 246.824 362.539 247.93 366.786 248.668C368.541 248.945 370.111 248.576 371.127 246.824C371.404 246.27 371.865 245.809 372.419 245.532C374.728 244.241 377.129 245.071 377.591 247.654C378.052 250.236 379.437 251.343 381.931 251.528C387.379 252.081 392.919 252.634 398.368 253.28C399.753 253.465 401.138 253.741 402.338 254.295C402.985 254.571 403.816 255.586 403.816 256.324C403.816 257.062 402.985 258.076 402.246 258.353C401.138 258.814 399.845 258.814 398.737 258.722C392.273 258.538 385.901 258.261 379.437 258.076C378.145 258.076 377.221 258.445 376.759 259.921C375.467 263.611 375.282 263.611 371.496 262.688C370.388 262.411 368.264 262.227 368.264 262.411C367.802 264.256 369.557 264.348 370.757 264.994C371.034 265.179 371.404 265.086 371.588 265.271C372.327 265.916 373.527 266.747 373.527 267.392C373.343 268.868 372.05 269.145 370.665 268.684C370.111 268.499 369.464 268.038 369.003 268.13C368.541 268.222 367.71 268.96 367.802 269.329C368.726 273.849 369.741 278.276 370.942 282.703C371.127 283.441 372.142 283.995 372.696 284.64C373.066 285.102 373.897 285.563 373.804 285.932C373.25 290.359 375.005 288.514 376.759 287.131C377.498 286.577 378.329 286.116 379.16 285.932C380.638 285.47 381.931 285.563 382.208 287.5C382.3 287.961 382.115 288.607 382.392 288.883C383.593 290.082 385.809 291.097 385.994 292.48C386.271 293.956 385.255 295.801 386.732 297.092C387.656 297.922 389.133 298.568 390.334 298.384C392.088 298.199 393.751 297.277 395.505 296.539C398.829 295.155 399.383 295.34 401.415 298.384C401.877 299.029 402.431 299.583 402.8 300.228C403.447 301.243 403.17 301.981 401.969 302.257C400.122 302.626 398.368 302.995 396.521 303.18C394.397 303.364 392.273 303.733 391.904 306.131C391.442 308.622 390.611 311.758 393.289 313.326C396.521 315.355 396.613 317.661 395.597 320.797C395.228 321.811 395.597 323.011 395.228 323.933C394.397 325.962 393.751 328.637 392.088 329.836C388.672 332.326 384.793 334.54 380.084 334.079C378.791 333.894 377.406 334.54 376.205 335.001C372.881 336.108 369.741 337.768 366.048 337.584C361.708 337.307 358.476 335.555 355.89 332.234C353.951 329.652 351.642 327.438 349.888 324.671C347.948 321.443 346.471 317.938 344.809 314.525C344.439 313.879 344.347 313.049 344.07 312.403C343.331 310.835 342.316 310.928 341.207 312.127C340.838 312.588 340.469 313.141 340.099 313.602C337.144 316.923 331.788 316.277 329.757 312.311C329.11 310.928 328.649 309.452 328.002 308.068C327.356 306.869 326.71 305.393 324.863 306.131C323.293 306.777 321.908 307.792 321.908 309.821C321.908 310.005 321.908 310.098 322 310.282C322.277 314.986 321.538 315.632 317.568 313.326C315.536 312.127 313.782 310.282 312.212 308.53C309.995 306.039 309.257 305.947 308.149 308.806C306.856 312.403 304.547 313.879 300.761 313.695C298.637 313.602 296.421 313.695 294.297 313.695C293.928 313.695 293.466 313.971 293.097 314.064C293.374 314.433 293.466 314.802 293.835 315.078C296.606 317.015 297.344 318.307 296.236 319.413C295.128 320.52 293.004 320.059 290.973 318.307C289.218 316.831 287.464 315.355 285.709 313.879C285.432 313.602 284.878 313.602 284.509 313.51C284.416 313.971 284.324 314.34 284.324 314.802C284.509 318.583 284.971 322.457 284.971 326.239C284.878 330.482 285.986 334.356 287.833 338.137C288.757 340.074 289.311 342.196 289.495 344.225C290.049 348.652 289.865 348.652 294.205 349.298C296.236 349.575 297.529 349.851 295.221 351.788C294.389 352.526 294.389 353.172 295.498 354.002C296.052 354.463 296.79 355.847 296.513 356.123C295.959 356.861 294.944 357.322 294.02 357.691C293.651 357.876 293.097 357.599 292.727 357.415C290.88 356.769 290.511 357.968 290.603 359.352C290.788 361.657 291.158 363.871 291.527 366.177C291.527 366.362 291.804 366.546 291.989 366.73C292.266 366.362 292.543 366.085 292.82 365.716C293.189 365.162 293.651 364.609 294.02 364.056C294.389 364.701 294.851 365.255 295.036 365.993C295.221 366.915 295.128 367.837 295.128 368.76C295.405 376.231 295.775 383.794 295.959 391.265C295.959 392.557 296.883 394.586 294.574 394.862C294.205 394.862 293.189 392.557 293.281 391.45C293.743 385.916 291.25 380.935 290.419 375.677C290.326 375.308 290.049 374.939 289.957 374.571C289.865 375.032 289.68 375.493 289.68 375.862C289.68 383.794 287.648 391.726 289.588 399.659C289.865 400.673 289.588 401.78 289.68 402.887C290.049 415.154 290.326 427.422 290.696 439.689C290.973 448.452 291.435 457.122 291.619 465.884C291.989 482.118 292.173 498.351 292.543 514.677C292.635 516.891 293.004 519.289 293.743 521.41C296.606 530.081 296.513 538.843 295.682 547.79C295.498 550.096 295.498 552.402 295.221 554.708C295.128 555.538 294.667 556.276 294.389 557.106C294.02 556.276 293.374 555.353 293.281 554.523C293.097 551.295 293.189 548.067 293.189 544.838C293.189 544.377 292.912 543.916 292.727 543.455C292.635 543.916 292.543 544.377 292.543 544.746C292.543 548.159 292.45 551.479 292.543 554.892C292.543 556.829 292.081 559.043 295.036 559.412C295.221 559.412 295.59 561.256 295.313 561.625C291.435 565.038 291.989 569.65 291.619 573.985C291.25 577.767 291.342 581.64 291.527 585.514C291.712 587.913 289.957 590.864 293.189 592.524C293.097 595.291 293.558 598.151 292.82 600.733C291.619 605.161 290.603 609.311 292.912 613.646C293.281 614.292 292.82 615.399 292.543 616.229C289.957 623.516 290.049 630.895 291.065 638.458C291.527 641.963 291.527 645.56 292.45 648.881C293.835 653.861 293.189 658.658 292.45 663.731C291.158 672.308 290.419 681.071 289.772 689.741C289.403 694.906 289.311 700.256 289.865 705.329C290.419 710.31 290.696 715.198 289.311 719.902C288.295 723.315 286.263 726.543 284.601 729.772C284.416 730.141 283.955 730.417 283.585 730.694C279.245 733.553 268.718 734.66 263.639 729.772C262.346 728.48 260.961 727.189 259.669 725.898C257.822 724.053 257.083 721.839 256.991 719.257C256.714 710.771 256.991 702.378 259.946 694.261C260.777 691.955 261.146 689.926 258.468 688.358C256.806 687.343 256.991 684.668 259.299 683.469C262.162 681.993 262.069 679.872 261.515 677.75C260.315 673.415 261.792 669.265 261.885 665.022C261.977 662.255 262.439 659.58 262.531 656.813C262.901 649.157 263.178 641.502 263.362 633.846C263.639 625.822 262.346 617.981 260.223 610.234C259.207 606.636 258.191 603.131 260.315 599.534C260.777 598.704 260.684 597.413 260.684 596.398C261.054 578.135 261.331 559.873 261.608 541.702C261.608 539.673 260.961 537.552 260.592 535.522C260.5 534.969 260.315 534.323 260.5 533.77C262.346 528.789 262.531 523.624 262.531 518.459C262.531 508.589 262.623 498.812 262.531 488.943C262.439 480.826 261.885 472.71 261.608 464.593C261.515 462.748 261.054 462.656 259.391 463.394C257.822 464.132 255.975 464.501 255.328 462.103C254.774 460.258 255.698 458.69 258.099 458.229C260.407 457.86 260.777 456.661 260.777 454.724C260.684 449.189 260.684 443.655 260.684 438.121C260.684 437.199 260.777 436.184 260.315 435.446C259.022 433.233 258.191 431.203 260.315 428.99C260.777 428.436 260.684 427.237 260.684 426.315C260.5 420.32 260.13 414.416 259.946 408.421C259.853 405.193 259.946 401.965 259.669 398.736C259.484 396.892 260.13 394.032 256.529 394.309C256.252 394.309 255.236 392.28 255.513 391.911C256.621 390.435 255.698 389.974 254.774 388.959C252.004 386.008 251.45 378.629 253.851 375.677C254.22 375.216 255.79 375.216 256.621 375.493C258.468 376.046 258.93 375.124 258.837 373.648C258.653 371.527 258.099 369.405 257.914 367.284C257.545 363.133 257.268 359.075 256.991 354.924C256.714 350.681 256.344 346.346 255.975 342.103C255.882 340.628 255.513 339.06 253.482 340.443C251.727 341.55 250.804 340.443 249.603 339.336C246.833 336.754 243.97 334.263 240.923 331.957C239.538 330.943 239.353 329.836 239.353 328.452C239.353 326.608 239.538 324.855 237.691 323.472C236.49 322.642 237.783 322.088 238.337 321.443C239.907 319.598 239.445 318.307 237.137 318.122C235.659 317.938 234.09 318.03 232.52 318.214C229.565 318.675 229.288 319.69 229.657 322.918C229.934 325.04 229.38 327.346 228.734 329.375C228.364 330.666 226.794 330.758 225.594 329.928C224.486 329.098 224.486 327.991 225.594 327.253C226.887 326.331 226.887 325.316 226.425 324.025C226.24 323.472 226.056 322.918 225.871 322.365C225.594 322.918 225.502 323.656 225.04 324.025C224.393 324.579 223.562 325.132 222.731 325.316C221.716 325.593 220.607 325.409 219.499 325.501C218.484 325.593 217.375 325.685 216.36 325.778C217.191 326.423 218.022 326.977 218.853 327.622C221.069 329.375 221.9 331.404 221.069 333.064C220.146 335.001 218.022 335.739 215.067 334.909C211.65 333.987 208.326 333.064 204.909 332.234C203.893 332.05 202.785 332.788 201.769 332.511C200.754 332.234 199.923 331.312 198.907 330.758C199.553 330.113 200.2 329.375 200.938 328.914C202.231 328.176 203.616 327.53 204.909 326.884C206.202 326.147 207.402 325.132 208.88 324.579C210.357 324.025 213.22 324.763 210.542 321.719C210.265 321.443 211.927 319.229 212.851 318.122C214.975 315.632 214.975 315.447 213.128 312.127C212.02 310.098 210.173 309.452 208.049 309.821C207.402 309.913 206.664 310.374 206.294 310.928C204.909 312.957 203.801 315.078 202.508 317.107C202.139 317.753 201.677 318.491 201.031 318.768C197.891 319.782 197.983 322.457 197.429 324.948C196.875 327.253 195.767 329.467 194.474 331.404C194.013 332.234 192.35 332.326 191.335 332.695L190.781 332.788ZM291.25 305.578C291.25 304.656 291.25 304.194 291.25 303.733C291.25 302.257 291.158 300.874 289.218 300.689C287.741 300.505 287.094 301.335 286.633 302.626C286.171 303.825 285.248 304.932 284.324 305.855C283.308 306.869 283.216 307.607 284.139 308.53C285.063 309.544 286.079 310.466 287.094 311.389C287.279 311.573 288.11 311.481 288.203 311.389C288.941 309.175 292.358 308.161 291.25 305.578ZM246.002 325.778C246.279 325.501 246.556 325.224 246.833 325.04C247.202 325.87 247.756 326.608 248.033 327.438C248.495 328.914 248.772 330.389 249.234 331.773C249.788 333.341 251.912 334.263 253.297 333.433C254.867 332.603 254.128 331.312 253.574 330.297C252.096 327.346 250.434 324.394 248.864 321.443C248.68 321.074 248.31 320.797 248.033 320.52C247.941 320.981 247.849 321.35 247.849 321.811C248.126 323.748 247.202 324.671 245.263 324.671C244.524 324.671 243.693 324.579 243.047 324.855C242.677 324.948 242.4 325.593 242.123 326.054C242.585 326.331 243.139 326.977 243.509 326.884C244.432 326.7 245.171 326.147 246.002 325.778ZM212.204 196.463C212.02 196.647 211.65 196.739 211.558 197.016C209.803 199.599 210.45 206.609 212.758 208.453C213.22 208.822 214.051 208.638 214.79 208.638C214.513 208.177 214.328 207.715 214.051 207.347C212.758 206.24 212.574 204.764 213.497 203.749C214.051 203.104 215.621 203.38 216.821 203.38C217.375 203.38 218.022 203.749 218.576 203.657C219.776 203.657 220.238 202.919 219.776 201.812C219.499 201.259 219.13 200.706 218.668 200.337C216.729 198.953 214.697 197.754 212.666 196.463C212.481 196.463 212.297 196.463 212.204 196.463ZM195.305 219.706C195.767 219.429 196.137 219.337 196.229 219.153C196.321 218.046 196.691 216.847 196.414 215.832C196.321 215.371 194.936 215.187 194.197 214.91C194.105 215.648 193.828 216.386 194.013 217.031C194.197 217.954 194.844 218.784 195.305 219.706Z" fill="black"/>
        <path d="M321.815 339.244C323.015 339.244 324.308 339.244 325.509 339.152C329.756 338.691 333.265 340.074 336.313 343.026C337.79 344.502 339.914 345.332 341.669 346.531C343.146 347.545 344.439 348.652 345.916 349.667C346.286 349.944 346.932 350.22 347.302 350.128C348.779 349.482 349.425 350.405 349.61 351.419C349.795 352.157 349.61 353.449 349.056 353.817C346.655 355.478 345.547 357.876 344.624 360.551C344.162 361.75 342.592 362.949 341.299 363.41C337.975 364.701 334.651 365.531 331.049 364.24C328.464 363.318 325.693 362.857 323.108 362.026C316.182 359.997 312.488 352.803 314.889 346.07C315.351 344.871 316.274 343.764 317.29 342.841C318.583 341.642 320.153 340.535 321.815 339.244Z" fill="black"/>
        <path d="M398.09 358.706C393.75 359.26 390.795 355.57 387.101 353.541C386.824 353.356 386.547 352.157 386.732 351.973C389.225 349.575 389.317 345.24 393.288 344.041C393.657 343.948 394.027 343.579 394.396 343.395C394.027 343.303 393.657 343.118 393.196 343.118C392.549 343.026 391.995 343.118 391.349 343.026C387.655 342.473 385.808 338.875 387.378 335.463C388.579 332.972 391.903 331.404 395.227 331.865C397.813 332.234 399.752 334.171 400.121 337.123C400.214 337.861 400.398 338.783 400.121 339.429C399.198 341.735 400.398 342.934 401.968 344.41C403.261 345.609 404.277 347.269 404.923 348.929C407.416 354.648 404.739 358.614 398.09 358.706Z" fill="black"/>
        <path d="M417.112 329.928C422.561 330.02 427.178 333.433 428.286 338.414C428.563 339.521 428.655 341.089 428.101 341.919C425.7 345.424 423.022 348.837 418.405 349.667C417.667 349.759 416.928 350.036 416.189 349.943C410.279 348.929 406.031 340.443 408.617 335.093C410.371 331.588 413.234 329.928 417.112 329.928Z" fill="black"/>
        <path d="M170.281 302.534C166.402 303.272 166.31 303.364 165.017 299.859C164.463 298.476 164.001 298.015 162.431 298.107C161.231 298.199 159.661 297.646 158.922 296.723C156.891 294.325 154.305 292.849 151.535 291.466C148.026 289.713 147.01 287.038 148.488 283.995C149.319 282.15 150.612 280.951 152.735 281.228C154.767 281.504 156.799 284.179 156.706 286.301C156.706 287.038 156.245 287.776 156.152 288.514C155.967 289.344 155.506 290.728 155.783 290.82C156.706 291.281 157.814 291.558 158.738 291.466C159.569 291.374 160.4 290.82 161.323 290.451C164.925 288.883 168.618 287.684 170.835 283.81C172.035 281.597 174.159 281.781 175.637 283.995C176.375 285.102 177.206 286.67 176.929 287.776C176.375 290.175 175.637 292.296 177.022 294.694C177.206 294.971 176.006 296.631 175.637 296.539C171.573 295.801 172.405 299.121 171.666 301.151C171.112 301.704 170.742 302.165 170.281 302.534Z" fill="black"/>
        <path d="M219.593 349.851C219.593 350.036 219.408 351.05 219.777 351.788C221.716 356.308 218.392 358.06 215.622 360.274C212.851 362.395 210.451 361.381 208.05 359.813C206.11 358.522 204.356 357.322 201.863 359.075C199.092 360.92 198.538 360.643 196.414 358.429C194.291 356.216 193.829 353.541 195.214 351.327C196.968 348.468 199.554 347.822 202.601 349.759C204.079 350.682 204.633 350.589 205.464 349.298C207.588 345.977 210.82 345.609 214.329 346.07C215.252 346.162 216.176 346.439 217.007 346.346C220.054 346.162 220.054 346.07 219.593 349.851Z" fill="black"/>
        <path d="M370.388 371.804C368.633 370.974 366.786 370.512 365.401 369.406C361.8 366.731 361.061 362.765 361.707 358.706C362.169 355.201 366.509 352.803 370.757 353.633C373.527 354.187 376.575 355.017 378.514 356.769C380.268 358.337 381.099 361.289 381.561 363.779C382.023 365.993 379.807 367.284 378.052 368.207C375.559 369.498 373.066 370.512 370.388 371.804Z" fill="black"/>
        <path d="M181.916 124.98C183.025 120.829 181.547 117.048 179.977 113.45C178.869 110.776 178.592 108.193 178.777 105.426C178.777 104.227 180.716 101.46 176.93 103.028C176.653 103.12 175.729 102.567 175.545 102.105C174.714 100.169 173.79 98.1393 173.513 96.1101C173.421 95.0033 174.344 93.2508 175.268 92.7896C176.191 92.4207 177.946 93.0663 178.777 93.8965C179.885 95.0955 180.624 96.6635 181.178 98.2315C183.671 105.057 186.072 111.975 188.473 118.892C189.396 121.66 190.135 124.427 190.966 127.194C191.705 129.869 191.151 133.005 193.921 134.942C194.198 135.126 194.29 135.772 194.383 136.233C194.383 136.694 194.29 137.247 194.106 137.432C193.921 137.616 193.182 137.524 192.905 137.34C190.597 134.573 186.626 133.373 185.887 129.131C185.795 128.485 184.502 127.747 183.579 127.47C182.193 127.101 181.547 126.456 181.916 124.98Z" fill="black"/>
        <path d="M368.91 431.48C364.477 431.573 360.414 427.699 360.137 423.087C359.953 419.582 363.277 416.815 367.709 416.723C371.957 416.63 375.928 420.228 376.02 424.378C376.113 427.699 372.419 431.388 368.91 431.48Z" fill="black"/>
        <path d="M179.699 331.035C180.254 331.589 180.992 332.05 181.269 332.695C181.823 333.987 182.377 334.263 183.578 333.249C185.794 331.22 188.287 331.681 190.781 332.88L190.873 332.972C191.058 333.249 191.15 333.526 191.335 333.71C194.013 337.123 194.29 339.429 192.073 341.273C189.211 343.579 184.686 343.21 182.377 340.443C182.1 340.074 181.823 339.336 181.639 339.336C177.391 339.89 178.591 336.477 177.76 334.356C176.744 331.865 178.499 331.773 179.699 331.035Z" fill="black"/>
        <path d="M284.97 152.835C284.97 150.714 284.878 148.592 284.97 146.379C285.155 143.888 286.633 142.136 289.126 141.49C289.68 141.398 290.419 141.398 290.788 141.767C291.065 142.044 291.157 142.966 290.973 143.335C288.664 146.471 289.588 149.699 290.788 152.835C291.896 155.51 291.896 158.277 290.234 160.768C289.68 161.598 288.11 162.336 287.187 162.151C286.263 161.967 285.155 160.675 285.063 159.661C284.693 157.447 284.878 155.141 284.97 152.835C284.878 152.835 284.97 152.835 284.97 152.835Z" fill="black"/>
        <path d="M407.51 208.638C408.156 204.58 410.742 201.075 414.713 198.769C415.728 198.123 417.852 198.4 418.868 199.138C419.514 199.599 419.607 201.812 419.053 202.827C417.667 205.502 416.005 208.084 414.158 210.39C413.42 211.313 411.85 211.774 410.557 212.051C408.341 212.512 407.51 211.497 407.51 208.638Z" fill="black"/>
        <path d="M170.28 302.534C170.742 302.073 171.111 301.704 171.573 301.243C173.05 301.612 174.62 301.704 175.913 302.442C176.744 302.903 177.76 304.379 177.667 305.209C177.39 307.33 177.944 308.806 179.976 309.636C181.453 310.19 181.638 311.112 180.992 312.588C180.622 313.51 180.899 314.709 180.438 315.54C179.791 316.739 178.868 318.03 177.667 318.768C177.206 319.044 175.636 318.399 174.989 317.753C173.974 316.646 174.158 315.355 174.897 313.971C176.559 310.928 176.467 310.928 172.681 308.622C169.264 306.593 169.264 306.593 170.28 302.534Z" fill="black"/>
        <path d="M150.149 266.47C150.057 265.547 150.149 264.533 149.872 263.703C149.226 261.766 149.872 260.567 151.627 259.644C153.289 258.814 154.582 257.523 156.152 256.601C157.906 255.494 159.014 256.047 159.384 258.169C159.661 260.106 160.03 262.135 160.122 264.072C160.122 265.086 159.845 266.193 159.291 267.023C157.167 270.159 154.951 270.344 151.996 268.038C151.442 267.484 150.796 267.023 150.149 266.47Z" fill="black"/>
        <path d="M140.546 250.79C142.486 250.698 144.702 250.882 146.364 253.004C147.749 254.664 147.472 256.047 145.995 257.339C143.501 259.644 136.391 259.921 133.898 257.708C133.344 257.246 133.067 256.047 133.251 255.309C134.175 252.173 136.299 250.698 140.546 250.79Z" fill="black"/>
        <path d="M235.936 359.629C231.688 359.629 230.026 357.599 230.95 354.279C231.319 353.08 231.873 352.342 230.026 352.25C227.533 352.157 227.071 350.128 227.071 348.376C227.071 347.269 227.995 345.516 228.918 345.147C229.842 344.779 231.319 345.793 232.427 346.347C232.889 346.623 233.074 347.361 233.258 347.915C233.905 350.036 235.105 351.696 237.137 352.711C239.261 353.725 239.353 355.755 238.614 357.415C238.06 358.614 236.49 359.26 235.936 359.629Z" fill="black"/>
        <path d="M301.5 37.7245C300.854 41.3217 300.3 44.3655 299.653 47.317C298.915 50.7298 298.083 54.1425 297.345 57.5552C297.16 58.2931 297.252 59.2155 296.791 59.7689C296.237 60.5068 295.313 60.968 294.574 61.5214C294.297 60.7835 293.651 59.9534 293.743 59.2155C294.113 56.3562 294.759 53.4969 295.313 50.6375C295.867 47.2248 296.421 43.7198 296.975 40.3071C297.16 39.2925 297.252 38.0934 297.806 37.2633C298.268 36.5254 299.561 35.6031 300.115 35.7875C300.761 36.0642 301.223 37.3556 301.5 37.7245Z" fill="black"/>
        <path d="M445.185 451.68C444.631 451.68 445.001 451.588 445.185 451.68C447.863 453.617 450.818 455.462 453.127 457.767C454.327 458.967 453.588 461.088 452.111 462.195C450.633 463.302 449.064 462.748 448.325 461.18C447.678 459.797 447.032 459.428 445.555 459.612C444.446 459.704 443.246 458.967 442.138 458.413C440.66 457.675 439.737 456.384 440.199 454.631C440.845 452.694 442.138 451.588 445.185 451.68Z" fill="black"/>
        <path d="M244.985 367.837C247.848 367.93 250.526 370.051 250.526 372.265C250.526 375.309 247.663 377.983 244.616 377.891C242.4 377.799 239.445 375.77 239.537 374.478C239.814 369.774 241.476 367.745 244.985 367.837Z" fill="black"/>
        <path d="M387.933 231.605C387.287 231.144 386.64 230.682 385.901 230.129C386.455 229.576 387.009 228.746 387.656 228.653C391.811 227.639 395.967 226.809 400.122 225.702C403.816 224.687 407.417 223.488 411.111 222.289C412.127 222.012 413.143 221.643 414.158 221.459C414.528 221.367 415.082 221.736 415.174 222.105C415.266 222.381 414.989 223.119 414.712 223.211C412.219 224.41 409.818 225.702 407.14 226.532C401.6 228.192 395.967 229.576 390.334 231.051C389.595 231.144 388.856 231.328 387.933 231.605Z" fill="black"/>
        <path d="M334.374 338.506C330.957 338.322 329.849 336.293 331.234 333.341C331.881 331.958 332.158 330.482 332.897 329.191C333.543 328.084 334.374 326.885 335.482 326.423C337.976 325.409 339.915 327.069 339.176 329.652C338.622 331.589 338.16 333.249 338.253 335.37C338.53 337.584 336.96 338.599 334.374 338.506Z" fill="black"/>
        <path d="M382.115 130.422C382.208 128.946 382.023 128.024 382.392 127.47C383.593 125.718 384.978 124.15 386.455 122.582C389.78 119.077 393.196 115.572 396.613 112.067C396.982 111.698 397.906 111.79 398.552 111.698C398.645 112.251 398.922 112.989 398.737 113.358C398.183 114.465 397.629 115.572 396.798 116.402C392.827 120.46 388.856 124.427 384.886 128.393C384.239 129.038 383.408 129.5 382.115 130.422Z" fill="black"/>
        <path d="M96.0371 218.046C96.8682 216.478 97.4223 215.463 97.884 214.449C98.2533 213.711 98.8997 212.881 98.8997 212.143C98.8997 210.667 99.5461 210.667 100.562 210.852C101.485 211.036 102.409 211.036 103.24 211.405C103.702 211.589 104.256 212.789 104.163 212.881C102.963 214.264 104.071 215.463 104.44 216.755C104.994 218.692 104.163 220.167 102.686 221.09C101.578 221.735 99.8232 222.289 98.9921 221.828C97.6993 220.998 97.0529 219.337 96.0371 218.046Z" fill="black"/>
        <path d="M240.738 422.533C240.738 425.208 239.538 426.684 237.137 426.776C234.644 426.868 231.412 423.732 231.504 421.242C231.596 419.305 234.09 417.553 236.583 417.645C239.076 417.645 240.646 419.49 240.738 422.533Z" fill="black"/>
        <path d="M430.134 416.815C426.81 416.815 424.871 415.062 424.963 412.387C425.055 410.174 427.272 408.421 429.673 408.421C432.166 408.513 434.844 410.912 434.936 413.217C435.121 415.431 433.182 416.815 430.134 416.815Z" fill="black"/>
        <path d="M211.004 177.37C211.096 175.156 211.65 173.773 213.497 174.88C215.067 175.802 216.175 175.71 217.56 174.695C217.93 174.418 219.407 174.603 219.592 174.972C219.869 175.617 219.869 176.724 219.592 177.37C218.576 179.215 217.468 181.059 216.175 182.72C215.713 183.365 214.605 184.38 214.236 184.195C213.405 183.919 212.481 182.996 212.204 182.166C211.466 180.414 211.281 178.661 211.004 177.37Z" fill="black"/>
        <path d="M253.112 149.883C253.759 146.747 254.313 143.796 255.144 140.844C255.421 140.014 256.806 138.723 257.175 138.815C258.284 139.276 259.484 140.106 260.038 141.213C260.5 142.135 260.407 144.257 260.038 144.441C257.175 145.456 257.083 148.039 256.16 150.252C255.79 151.082 254.959 151.82 254.313 152.558C253.943 151.728 253.574 150.806 253.112 149.883Z" fill="black"/>
        <path d="M434.29 402.149C434.567 399.751 436.875 398.091 439.184 398.552C441.585 399.013 442.97 400.95 442.6 403.164C442.231 405.285 439.645 406.853 437.337 406.484C435.028 406.115 433.92 404.547 434.29 402.149Z" fill="black"/>
        <path d="M148.395 200.152C149.595 200.152 150.888 199.968 151.996 200.337C154.305 200.982 155.782 203.288 155.228 205.041C154.49 207.254 151.812 208.73 149.78 208.177C147.841 207.623 146.456 205.318 147.102 203.104C147.287 201.997 147.933 201.167 148.395 200.152Z" fill="black"/>
        <path d="M126.418 269.237C126.972 269.606 128.357 270.344 129.373 271.358C129.835 271.82 129.65 273.019 129.742 273.849C129.096 273.757 128.45 273.572 127.711 273.48C127.249 273.388 126.88 273.388 126.418 273.388C126.603 273.849 126.787 274.31 126.972 274.771C127.803 276.339 127.342 277.446 125.864 277.538C123.555 277.63 120.785 275.14 120.785 273.111C120.785 270.805 122.817 269.052 126.418 269.237Z" fill="black"/>
        <path d="M329.387 168.331C329.941 169.345 330.68 170.36 331.141 171.467C331.418 172.204 331.326 173.035 331.326 173.865C330.587 173.865 329.756 174.049 329.202 173.772C327.448 172.942 325.785 171.836 324.031 170.913C322.738 170.175 322.369 169.161 323.292 167.869C323.846 167.131 324.493 166.486 325.139 165.84C326.155 164.918 327.355 163.719 328.74 164.826C329.572 165.471 329.849 166.763 330.31 167.777C330.033 167.962 329.664 168.146 329.387 168.331Z" fill="black"/>
        <path d="M397.167 244.61C397.536 244.057 398.183 242.12 399.014 242.027C400.861 241.751 402.523 242.95 402.892 245.071C403.077 246.086 403.262 247.193 403.446 248.207C403.723 250.144 402.523 251.067 400.953 251.528C399.014 252.081 398.09 250.79 397.721 249.13C397.444 248.023 397.444 246.824 397.167 244.61Z" fill="black"/>
        <path d="M123.277 305.67C125.309 304.932 126.879 305.486 128.079 307.238C129.372 308.991 128.91 311.389 127.156 312.403C125.309 313.51 123.093 313.049 121.985 311.112C121.615 310.466 121.615 309.636 121.338 308.991C119.953 305.947 119.861 305.947 123.277 305.67Z" fill="black"/>
        <path d="M120.785 289.252C120.6 289.621 120.139 291.466 119.307 291.743C118.292 292.019 116.445 291.281 115.798 290.359C114.783 288.976 114.044 287.131 114.044 285.471C114.044 284.733 115.983 283.718 117.184 283.349C119.492 282.703 120.785 284.64 120.785 289.252Z" fill="black"/>
        <path d="M435.859 324.671C435.767 326.516 433.643 328.268 431.612 327.991C429.58 327.807 427.271 325.778 427.271 324.394C427.364 322.826 430.134 320.797 432.073 320.797C434.197 320.889 435.952 322.734 435.859 324.671Z" fill="black"/>
        <path d="M438.814 418.567C441.215 418.475 443.524 420.32 443.616 422.626C443.708 424.655 442.6 425.854 440.661 426.038C438.445 426.223 435.397 423.732 435.397 421.796C435.397 420.228 437.152 418.66 438.814 418.567Z" fill="black"/>
        <path d="M159.014 107.455C157.814 105.703 156.891 104.965 156.983 104.411C157.075 102.659 157.26 100.814 157.999 99.246C158.553 98.047 159.846 96.6634 160.954 96.3867C161.692 96.2023 163.262 97.7703 163.724 98.8771C164.463 100.445 163.724 102.105 161.877 102.382C160.215 102.659 160.03 103.489 160.03 104.872C160.123 105.518 159.569 106.256 159.014 107.455Z" fill="black"/>
        <path d="M178.407 230.682C177.575 230.221 176.19 229.76 175.452 228.745C175.082 228.192 175.544 226.716 176.006 225.886C176.19 225.517 177.853 225.425 177.853 225.425C178.868 229.022 180.253 226.347 181.454 225.702C183.485 224.595 185.609 224.779 185.794 226.163C186.071 228.008 184.778 228.93 183.301 229.483C182.008 230.037 180.438 230.221 178.407 230.682Z" fill="black"/>
        <path d="M235.013 73.5121C235.013 70.6528 236.121 69.177 238.522 69.2692C240.461 69.2692 241.569 70.4683 241.661 72.4052C241.754 74.7111 240.092 76.5559 237.875 76.7403C235.844 76.8326 235.013 75.9102 235.013 73.5121Z" fill="black"/>
        <path d="M185.517 353.725C185.24 353.541 184.502 353.172 184.594 353.08C185.24 350.774 182.84 350.128 182.285 348.56C182.008 347.638 182.378 345.885 183.024 345.424C184.132 344.686 185.795 344.317 187.087 344.409C187.641 344.409 188.657 346.162 188.472 346.9C188.011 349.021 187.087 351.143 186.349 353.172C186.349 353.356 185.887 353.449 185.517 353.725Z" fill="black"/>
        <path d="M51.1584 360.366C54.6674 360.366 56.7913 361.289 56.976 362.857C57.0683 364.609 54.5751 365.624 51.3431 365.162C50.789 365.07 50.1426 364.886 49.5885 364.701C48.5728 364.24 46.7259 363.687 46.6336 363.133C46.5412 361.289 48.2034 360.735 49.7732 360.551C50.3273 360.366 50.8813 360.366 51.1584 360.366Z" fill="black"/>
        <path d="M190.596 75.0799C190.227 75.7256 190.134 76.0945 189.95 76.1868C189.765 76.279 189.396 76.0945 189.119 75.9101C189.026 75.8178 188.842 75.7256 188.842 75.5411C187.179 71.6672 185.425 67.7933 183.947 63.8271C183.67 63.1815 184.317 62.2591 184.594 61.5212C185.24 61.9824 186.348 62.2591 186.533 62.8125C188.103 66.9632 189.396 71.206 190.596 75.0799Z" fill="black"/>
        <path d="M439.83 356.308C441.585 357.968 443.709 359.997 445.832 362.027L444.909 363.133C442.416 361.381 439.368 362.119 436.69 361.381C436.321 361.289 435.859 360.92 435.767 360.551C435.398 359.444 437.983 356.123 439.83 356.308Z" fill="black"/>
        <path d="M178.869 214.08C180.715 214.08 182.378 215.371 182.378 216.847C182.47 218.876 180.623 220.905 178.869 220.813C177.206 220.721 175.267 218.784 175.175 217.308C175.175 215.648 177.022 214.08 178.869 214.08Z" fill="black"/>
        <path d="M422.654 370.605C420.807 370.697 418.775 369.037 418.775 367.377C418.775 365.901 420.53 364.333 422.192 364.24C424.039 364.148 425.886 365.809 425.978 367.561C426.071 369.129 424.593 370.513 422.654 370.605Z" fill="black"/>
        <path d="M356.537 240.275C356.814 239.906 357.46 238.153 358.476 237.784C360.138 237.231 363.186 239.906 363.093 241.382C363.001 242.765 360.785 244.333 358.938 244.425C357.183 244.425 356.445 243.319 356.537 240.275Z" fill="black"/>
        <path d="M149.134 182.812C149.226 184.38 147.564 186.132 146.087 186.132C144.701 186.132 142.855 183.826 143.039 182.166C143.224 180.506 144.24 179.399 145.902 179.122C147.287 178.938 149.042 180.967 149.134 182.812Z" fill="black"/>
        <path d="M186.625 312.219C187.918 312.772 188.934 312.957 189.58 313.418C190.966 314.34 191.704 315.355 190.227 317.108C188.288 319.321 188.38 319.506 186.164 317.384C185.979 317.2 185.61 317.108 185.425 316.831C184.779 315.908 184.225 314.986 183.578 314.064C184.779 313.51 185.794 312.772 186.625 312.219Z" fill="black"/>
        <path d="M314.336 367.007C313.689 367.561 312.766 368.76 311.565 369.313C310.365 369.774 308.056 367.099 307.964 365.716C307.964 364.24 309.903 362.488 311.381 362.672C312.95 362.672 314.428 364.425 314.336 367.007Z" fill="black"/>
        <path d="M454.605 436.83C452.296 438.213 451.188 437.383 451.003 434.985C450.819 433.325 451.28 431.941 453.219 431.665C455.159 431.388 457.375 433.325 457.467 435.446C457.56 437.937 455.99 437.383 454.605 436.83Z" fill="black"/>
        <path d="M302.147 475.2C301.408 475.754 300.392 476.953 299.192 477.322C297.807 477.691 296.052 475.477 295.96 473.632C295.867 472.064 296.514 470.957 298.176 470.773C299.838 470.496 301.962 472.618 302.147 475.2Z" fill="black"/>
        <path d="M353.027 197.293C353.212 196.555 353.212 195.725 353.489 195.079C354.32 193.511 355.521 192.312 357.46 193.234C358.845 193.972 359.861 195.171 359.399 196.924C359.03 198.492 356.721 199.506 354.874 198.861C354.228 198.676 353.674 197.938 353.12 197.477L353.027 197.293Z" fill="black"/>
        <path d="M152.274 309.729C151.997 309.268 151.443 308.714 151.628 308.437C152.459 306.316 153.567 304.195 150.981 302.442C150.889 302.35 150.889 301.889 150.981 301.612C151.443 300.505 153.752 300.505 155.599 301.52C156.984 302.258 157.353 303.18 156.614 304.471C155.599 306.132 154.49 307.7 153.382 309.268C153.198 309.452 152.828 309.452 152.274 309.729Z" fill="black"/>
        <path d="M323.755 81.7209C321.815 85.8716 319.692 90.4834 317.475 95.0029C317.383 95.1874 316.921 95.2796 316.737 95.1874C316.552 95.0952 316.367 94.634 316.367 94.4495C318.214 89.9299 320.061 85.4104 322 80.8908C322.092 80.6141 322.739 80.5219 323.108 80.3374C323.293 80.6141 323.385 80.8908 323.755 81.7209Z" fill="black"/>
        <path d="M134.914 303.088C134.175 305.67 133.806 307.607 133.159 309.452C132.975 309.913 131.682 310.467 131.405 310.19C130.758 309.729 130.02 308.806 130.02 308.161C130.204 306.408 130.574 304.656 131.22 303.088C131.497 302.442 132.882 301.889 133.806 301.981C134.36 301.889 134.914 302.995 134.914 303.088Z" fill="black"/>
        <path d="M123.555 379.367C125.864 379.275 128.172 378.998 130.389 379.09C130.943 379.09 131.497 379.92 131.958 380.381C131.589 380.843 131.22 381.396 130.758 381.673C127.711 383.241 124.756 382.042 121.893 381.304C121.524 381.212 121.247 380.381 121.154 379.828C121.154 379.736 121.801 379.275 122.17 379.182C122.724 378.998 123.186 379.275 123.555 379.367Z" fill="black"/>
        <path d="M186.994 30.3457C187.456 30.6224 187.825 30.7146 187.917 30.9914C189.487 34.4963 191.057 37.9091 192.627 41.414C192.719 41.6907 192.442 42.2442 192.257 42.6131C192.257 42.7053 191.519 42.6131 191.519 42.4286C189.764 38.7392 188.102 34.9575 186.44 31.1758C186.255 31.0836 186.717 30.6224 186.994 30.3457Z" fill="black"/>
        <path d="M133.066 269.329C131.958 267.485 130.665 266.009 130.203 264.164C129.834 262.873 131.404 262.965 132.512 262.965C133.897 262.965 136.021 261.951 136.575 262.504C138.33 264.533 134.913 264.349 134.728 265.732C134.636 266.47 134.544 267.3 134.359 267.946C134.267 268.499 133.805 268.684 133.066 269.329Z" fill="black"/>
        <path d="M248.496 126.548C247.757 128.116 247.111 129.684 246.372 131.16C245.633 129.407 244.894 127.747 244.248 125.995C244.156 125.902 244.248 125.718 244.248 125.533C244.525 124.058 244.617 122.028 246.464 122.121C248.311 122.213 247.757 124.15 247.942 125.441C247.942 125.718 247.942 126.087 247.942 126.364C248.219 126.456 248.404 126.548 248.496 126.548Z" fill="black"/>
        <path d="M253.389 352.988C253.112 353.357 252.835 354.094 252.281 354.463C250.803 355.386 249.695 354.371 248.772 353.449C247.664 352.342 246.648 351.143 247.386 349.483C247.571 349.114 248.033 348.837 248.402 348.745C250.157 348.376 253.389 350.958 253.389 352.988Z" fill="black"/>
        <path d="M148.395 200.152C147.656 200.152 146.825 200.244 146.087 200.152C144.424 200.06 142.67 199.506 143.132 197.569C143.409 196.37 144.978 195.079 146.179 194.802C148.026 194.341 148.857 195.909 149.042 197.569C149.134 198.4 148.58 199.322 148.395 200.152Z" fill="black"/>
        <path d="M202.785 174.418C202.324 174.418 201.862 174.418 201.4 174.418C199.646 174.326 198.261 173.681 198.353 171.836C198.353 170.913 199.184 169.438 199.738 169.345C201.123 169.253 202.878 169.345 203.894 170.176C205.833 171.836 203.432 173.035 202.97 174.418H202.785Z" fill="black"/>
        <path d="M377.96 139.369C378.052 141.767 376.667 143.612 375.19 143.796C373.527 143.98 372.696 142.874 372.604 141.306C372.512 139.553 374.358 137.339 375.836 137.708C376.759 137.985 377.498 139 377.96 139.369Z" fill="black"/>
        <path d="M211.743 153.389C209.803 154.311 208.603 155.233 207.31 155.51C206.017 155.787 204.17 153.481 204.909 152.374C205.648 151.267 207.125 149.976 208.233 149.976C209.249 150.068 210.173 151.821 211.743 153.389Z" fill="black"/>
        <path d="M155.782 245.348C153.936 245.809 151.904 246.732 150.888 243.965C150.242 242.212 151.073 240.46 152.827 240.091C154.49 239.722 155.505 240.644 155.69 242.212C155.875 243.227 155.69 244.241 155.782 245.348Z" fill="black"/>
        <path d="M138.422 284.087C136.206 284.917 134.913 285.932 133.99 285.655C132.789 285.194 131.958 283.81 130.942 282.796C131.958 282.058 133.159 280.49 133.897 280.674C135.282 281.043 136.391 282.427 138.422 284.087Z" fill="black"/>
        <path d="M267.148 84.1194C267.333 82.7359 267.425 81.3523 267.702 79.9688C267.795 79.5998 268.349 79.2309 268.718 79.1387C269.088 79.1387 269.734 79.5998 269.734 79.8766C269.826 82.5514 269.826 85.3185 269.826 87.9933C269.826 88.27 269.18 88.7312 268.811 88.7312C268.441 88.7312 267.887 88.3623 267.795 87.9933C267.425 86.8865 267.333 85.503 267.148 84.1194Z" fill="black"/>
        <path d="M179.699 331.035C179.145 330.39 178.683 329.652 178.037 329.098C176.652 327.992 176.559 326.608 177.667 325.594C178.499 324.856 180.068 324.302 181.177 324.487C182.746 324.856 182.839 326.516 182.192 327.807C181.546 329.006 180.53 330.021 179.699 331.035Z" fill="black"/>
        <path d="M122.354 373.741C122.632 371.342 123.093 369.774 125.032 369.959C126.972 370.143 127.341 371.711 127.156 373.372C126.972 375.124 126.048 376.508 124.294 376.046C123.37 375.677 122.724 374.202 122.354 373.741Z" fill="black"/>
        <path d="M400.215 161.505C399.938 161.136 398.737 160.399 398.737 159.568C398.737 157.908 399.753 156.709 401.6 156.801C403.077 156.801 404.37 157.17 404.647 158.923C404.832 160.491 403.262 161.598 400.215 161.505Z" fill="black"/>
        <path d="M360.877 204.856C361.985 206.332 362.908 207.162 363.185 208.084C363.647 209.652 361.985 211.497 360.322 211.497C358.568 211.497 357.645 210.206 357.922 208.822C358.291 207.623 359.584 206.609 360.877 204.856Z" fill="black"/>
        <path d="M297.067 444.67C296.79 445.408 296.698 445.962 296.421 446.146C296.236 446.238 295.405 445.962 295.312 445.777C294.297 442.457 293.281 439.228 292.357 435.908C292.265 435.723 292.634 435.17 292.727 435.17C293.096 435.262 293.743 435.354 293.835 435.631C294.943 438.675 296.051 441.811 297.067 444.67Z" fill="black"/>
        <path d="M228.549 369.959C228.549 372.265 226.702 374.017 224.947 374.109C223.47 374.202 223.008 373.279 223.193 372.08C223.378 370.328 224.116 368.668 226.148 368.76C227.071 368.852 227.995 369.682 228.549 369.959Z" fill="black"/>
        <path d="M299.006 346.07C298.36 346.162 297.529 346.439 296.882 346.347C296.421 346.254 295.959 345.701 295.682 345.24C295.59 345.055 296.051 344.41 296.421 344.225C297.436 343.672 298.452 343.118 299.468 342.842C300.391 342.565 301.499 342.38 302.331 342.749C302.792 343.026 303.254 344.594 302.977 344.963C302.423 345.701 301.315 345.978 300.391 346.347C300.022 346.531 299.468 346.254 299.006 346.07Z" fill="black"/>
        <path d="M236.768 335.924C235.475 336.846 234.644 337.953 233.721 338.045C232.151 338.23 231.227 337.03 231.412 335.37C231.597 333.894 231.966 331.865 233.813 332.234C234.829 332.511 235.567 334.356 236.768 335.924Z" fill="black"/>
        <path d="M150.242 266.562C149.78 267.392 149.411 268.96 148.949 269.053C147.379 269.237 145.717 268.868 144.239 268.407C144.055 268.315 143.87 266.47 144.332 266.009C144.978 265.363 146.179 264.81 147.01 264.902C148.118 264.994 149.134 265.917 150.242 266.562C150.149 266.47 150.242 266.562 150.242 266.562Z" fill="black"/>
        <path d="M233.997 375.493C233.443 375.862 232.612 376.784 231.688 376.969C230.211 377.338 228.733 375.77 229.01 374.202C229.195 372.726 229.934 371.619 231.596 371.619C233.72 371.527 233.627 373.279 233.997 375.493Z" fill="black"/>
        <path d="M201.585 364.978C200.384 367.192 199.184 369.406 197.891 371.619C197.891 371.712 196.69 371.435 196.598 371.158C196.044 369.498 197.983 364.609 199.368 363.779C199.738 363.595 200.292 363.595 200.661 363.779C200.938 363.871 201.123 364.425 201.585 364.978Z" fill="black"/>
        <path d="M350.442 334.633C352.935 334.817 354.043 335.832 353.859 337.584C353.766 338.414 352.751 339.06 352.197 339.798C350.996 338.783 349.703 337.861 348.688 336.662C348.688 336.57 350.073 335.186 350.442 334.633Z" fill="black"/>
        <path d="M248.126 382.319C246.741 383.702 246.002 384.993 244.986 385.178C243.509 385.455 242.493 384.256 242.401 382.688C242.308 381.119 243.139 379.828 244.709 379.92C245.725 380.105 246.648 381.212 248.126 382.319Z" fill="black"/>
        <path d="M121.432 258.907C121.155 259.46 121.062 260.014 120.693 260.198C120.231 260.475 119.493 260.567 119.031 260.382C117.461 259.737 115.799 256.693 116.168 255.125C116.261 254.756 117.646 254.203 117.738 254.295C119.031 255.771 120.231 257.339 121.432 258.907Z" fill="black"/>
        <path d="M311.012 27.8552C311.75 25.9182 312.397 23.9813 313.32 22.1366C313.597 21.4909 314.798 21.3064 315.537 20.9375C315.537 21.7676 315.814 22.5977 315.537 23.3356C314.798 25.1804 313.967 26.8406 313.043 28.5931C312.766 29.0543 312.305 29.4232 311.935 29.8844C311.658 29.331 311.381 28.7776 311.012 27.8552Z" fill="black"/>
        <path d="M309.811 137.893C309.719 140.383 309.349 142.044 307.133 142.044C306.487 142.044 305.471 141.214 305.379 140.568C305.102 139.092 307.502 135.864 308.518 136.233C309.257 136.417 309.626 137.616 309.811 137.893Z" fill="black"/>
        <path d="M161.23 322.457C159.384 323.564 158.275 324.486 156.983 324.855C156.521 324.948 155.228 323.656 155.136 322.918C154.951 321.627 156.983 319.875 158.275 320.244C159.107 320.428 159.753 321.35 161.23 322.457Z" fill="black"/>
        <path d="M153.474 186.686C152.828 185.671 152.181 185.026 152.089 184.288C151.904 182.627 152.92 181.521 154.49 181.797C155.69 182.074 156.706 183.089 157.722 183.734C156.429 184.657 155.136 185.579 153.474 186.686Z" fill="black"/>
        <path d="M256.159 134.665C254.774 133.189 253.481 132.451 253.112 131.436C252.558 129.961 253.943 129.315 255.236 129.223C256.713 129.038 258.191 129.407 258.006 131.252C257.914 132.174 256.99 133.097 256.159 134.665Z" fill="black"/>
        <path d="M125.771 251.066C126.417 251.897 127.617 252.819 127.71 253.926C127.802 254.664 126.509 255.863 125.678 256.232C125.309 256.416 123.831 255.309 123.554 254.571C123.185 253.188 123.462 251.804 125.771 251.066Z" fill="black"/>
        <path d="M345.178 328.453C346.471 329.928 347.763 330.759 347.948 331.773C348.133 332.511 346.84 334.079 345.917 334.263C344.254 334.632 343.516 333.064 343.516 331.681C343.608 330.851 344.439 330.021 345.178 328.453Z" fill="black"/>
        <path d="M113.305 414.97C111.827 416.169 111.089 417.276 110.165 417.368C108.595 417.645 107.487 416.354 107.857 414.878C108.041 414.048 109.242 412.849 110.165 412.849C110.996 412.756 111.827 413.863 113.305 414.97Z" fill="black"/>
        <path d="M246.925 363.133C245.632 363.687 244.34 364.517 243.047 364.609C242.308 364.701 240.923 363.41 240.923 362.764C240.923 361.012 242.493 360.643 243.878 360.828C244.894 361.012 245.909 361.658 246.925 362.119C246.925 362.488 246.925 362.857 246.925 363.133Z" fill="black"/>
        <path d="M305.747 374.479C306.855 376.139 307.779 377.246 308.333 378.537C308.425 378.629 307.225 379.828 306.578 379.828C304.732 380.013 303.254 378.814 303.623 377.338C303.808 376.508 304.639 375.862 305.747 374.479Z" fill="black"/>
        <path d="M312.489 406.946C310.919 408.329 309.904 409.067 308.98 409.897C308.334 408.975 307.41 408.052 307.226 407.038C307.133 406.392 308.334 405.009 308.98 405.009C309.996 405.009 310.919 405.931 312.489 406.946Z" fill="black"/>
        <path d="M276.106 161.875C275.367 160.583 274.628 159.753 274.721 159.2C274.998 158.185 275.829 157.263 276.383 156.34C277.214 157.078 278.045 157.816 278.969 158.554C278.137 159.476 277.306 160.399 276.106 161.875Z" fill="black"/>
        <path d="M86.0633 164.826C87.1714 166.117 87.9102 167.132 88.7413 168.146C88.0025 168.7 87.2638 169.622 86.4327 169.714C84.8629 169.806 83.7547 168.792 84.1241 167.132C84.2165 166.394 85.1399 165.84 86.0633 164.826Z" fill="black"/>
        <path d="M319.045 392.28C318.676 394.494 317.475 394.863 316.275 394.586C315.444 394.401 314.335 393.664 314.058 392.833C313.597 391.727 315.351 390.528 317.013 390.896C317.752 391.081 318.398 391.911 319.045 392.28Z" fill="black"/>
        <path d="M50.327 239.906C48.6649 240.736 47.8338 241.474 47.0027 241.566C45.4329 241.751 43.9554 240.275 44.5094 239.168C44.8788 238.43 46.1716 237.692 46.9103 237.785C47.8338 237.877 48.6649 238.799 50.327 239.906Z" fill="black"/>
        <path d="M463.654 634.123C463.1 634.4 462.638 634.769 462.453 634.676C461.807 634.4 461.068 633.938 460.607 633.385C459.683 632.094 458.944 630.618 458.113 629.234C458.39 629.142 458.76 628.773 458.852 628.866C460.145 629.88 461.438 630.895 462.638 632.002C463.192 632.37 463.284 633.293 463.654 634.123Z" fill="black"/>
        <path d="M316.275 328.637C314.798 329.652 313.874 330.666 312.951 330.758C312.397 330.851 311.012 329.19 311.197 328.914C311.658 327.991 312.582 326.977 313.505 326.7C313.967 326.423 314.89 327.622 316.275 328.637Z" fill="black"/>
        <path d="M239.261 150.437C239.63 150.898 240.461 151.452 240.461 152.097C240.646 153.665 239.723 154.772 238.061 154.864C237.506 154.864 236.583 154.311 236.491 153.85C236.121 152.374 237.506 150.529 239.261 150.437Z" fill="black"/>
        <path d="M289.681 130.514C287.926 131.621 287.003 132.543 286.079 132.543C285.433 132.543 284.232 131.252 284.232 130.514C284.232 129.776 285.341 128.485 285.987 128.485C286.91 128.577 287.834 129.499 289.681 130.514Z" fill="black"/>
        <path d="M165.016 496.322C165.847 497.706 166.771 498.628 166.678 499.366C166.586 500.104 165.293 501.303 164.924 501.211C164.001 500.842 163.262 499.92 162.431 499.182C163.077 498.444 163.816 497.614 165.016 496.322Z" fill="black"/>
        <path d="M108.595 239.629C107.395 240.552 106.379 241.566 106.195 241.474C105.179 240.736 104.348 239.814 103.517 238.891C104.163 238.338 104.994 237.231 105.271 237.323C106.287 237.692 107.21 238.615 108.595 239.629Z" fill="black"/>
        <path d="M340.192 398.552C340.469 398.829 340.931 399.105 341.023 399.474C341.115 399.843 341.023 400.581 340.746 400.766C339.73 401.411 338.715 402.149 337.606 402.518C336.96 402.703 336.037 402.057 335.298 401.78C335.76 401.227 336.129 400.489 336.775 400.12C337.791 399.474 338.992 399.105 340.192 398.552Z" fill="black"/>
        <path d="M377.96 434.524C376.667 435.539 375.651 436.738 375.189 436.461C374.266 436 373.62 434.893 372.881 434.063C373.62 433.509 374.451 432.495 375.189 432.495C375.928 432.495 376.667 433.509 377.96 434.524Z" fill="black"/>
        <path d="M172.034 365.531C170.742 366.546 170.003 367.468 169.079 367.745C168.618 367.93 167.694 367.007 167.048 366.546C167.879 365.624 168.618 364.517 169.541 363.779C169.633 363.595 170.742 364.609 172.034 365.531Z" fill="black"/>
        <path d="M363.001 344.41C361.615 345.24 360.692 346.162 359.953 345.978C359.03 345.793 358.291 344.778 357.46 344.041C358.383 343.395 359.307 342.473 360.23 342.288C360.969 342.288 361.708 343.395 363.001 344.41Z" fill="black"/>
        <path d="M137.591 227.454C136.021 228.284 135.097 229.206 134.174 229.114C133.528 229.114 132.512 227.823 132.419 226.993C132.327 225.609 133.435 224.687 134.82 225.056C135.651 225.425 136.298 226.347 137.591 227.454Z" fill="black"/>
        <path d="M372.604 393.848C373.342 395.139 374.266 396.062 374.173 396.707C374.081 397.538 372.973 398.091 372.327 398.829C371.588 397.999 370.572 397.261 370.295 396.246C370.11 395.877 371.495 394.955 372.604 393.848Z" fill="black"/>
        <path d="M33.1506 234.095C32.2271 232.804 31.3037 231.974 31.3037 231.236C31.3037 230.498 32.2271 229.668 32.7812 228.93C33.6123 229.668 34.7204 230.313 35.0898 231.236C35.3668 231.697 34.1663 232.804 33.1506 234.095Z" fill="black"/>
        <path d="M233.628 398.46C234.551 400.028 235.382 400.858 235.567 401.872C235.659 402.334 234.274 403.625 233.997 403.533C233.074 403.072 231.965 402.334 231.596 401.504C231.411 400.95 232.612 399.936 233.628 398.46Z" fill="black"/>
        <path d="M0 338.968C0.092343 337.307 3.232 336.016 4.43246 336.938C4.70949 337.123 4.89418 337.769 4.80184 338.045C4.34012 339.613 1.9392 340.628 0.646401 339.89C0.369372 339.705 0.184686 339.244 0 338.968Z" fill="black"/>
        <path d="M143.962 335.555C143.039 336.385 142.67 337.123 142.023 337.215C140.361 337.584 139.345 336.662 139.253 335.094C139.253 334.448 140.084 333.71 140.453 333.064C141.562 333.802 142.577 334.54 143.962 335.555Z" fill="black"/>
        <path d="M379.622 161.044C378.144 161.874 377.221 162.612 376.113 162.981C375.836 163.074 374.912 162.151 374.82 161.598C374.635 160.214 376.574 158.646 377.775 159.107C378.329 159.2 378.698 159.937 379.622 161.044Z" fill="black"/>
        <path d="M181.916 206.793C182.655 208.361 183.393 209.099 183.301 209.837C183.209 211.128 182.378 212.235 180.9 211.866C180.438 211.774 179.7 210.667 179.792 210.206C180.161 209.191 180.9 208.361 181.916 206.793Z" fill="black"/>
        <path d="M287.094 139.645C285.894 140.568 285.063 141.213 284.232 141.859C283.677 141.121 282.569 140.291 282.662 139.553C282.754 138.907 283.954 138.17 284.786 137.893C285.247 137.893 285.986 138.815 287.094 139.645Z" fill="black"/>
        <path d="M114.043 70.8374C112.473 71.5753 111.827 72.0365 111.642 71.9442C110.627 71.3908 109.611 70.6529 108.78 69.8228C108.41 69.4539 108.595 68.5315 108.595 67.8859C109.149 67.8859 109.888 67.7936 110.257 68.0703C111.365 68.716 112.381 69.5461 114.043 70.8374Z" fill="black"/>
        <path d="M103.793 283.718C103.885 284.179 104.07 284.733 103.978 285.102C103.793 285.563 103.331 286.301 103.054 286.301C102.593 286.301 101.946 285.747 101.762 285.378C101.484 284.548 101.3 283.534 101.484 282.796C101.669 282.058 102.5 281.504 103.054 280.951C103.331 281.689 103.701 282.334 103.885 283.072C103.885 283.165 103.793 283.441 103.793 283.718Z" fill="black"/>
        <path d="M85.602 211.313C84.0322 212.235 83.2011 213.158 82.7394 212.973C81.8159 212.512 81.0772 211.59 80.2461 210.852C80.8002 210.39 81.4465 209.56 81.9083 209.653C82.924 209.745 83.8475 210.483 85.602 211.313Z" fill="black"/>
        <path d="M355.982 131.344C357.645 130.33 358.476 129.592 359.491 129.407C359.953 129.315 360.6 130.053 361.246 130.422C360.507 131.252 359.953 132.267 359.03 132.82C358.568 133.005 357.552 132.174 355.982 131.344Z" fill="black"/>
        <path d="M386.363 410.635C385.347 410.174 384.331 409.713 383.315 409.159C383.131 409.067 383.315 408.052 383.408 408.052C384.516 407.868 385.716 407.683 386.824 407.868C387.471 408.052 387.933 408.975 388.487 409.528C387.84 409.897 387.286 410.174 386.363 410.635Z" fill="black"/>
        <path d="M124.017 324.855C123.556 323.564 123.279 323.011 123.186 322.365C122.909 320.981 124.479 319.413 126.326 319.229C126.788 319.229 127.249 319.69 127.711 319.967C126.788 321.166 125.864 322.457 124.017 324.855Z" fill="black"/>
        <path d="M367.895 228.653C368.634 228.93 369.372 229.022 369.742 229.391C370.296 230.129 370.665 231.051 371.035 231.881C370.204 231.881 369.372 231.974 368.541 231.789C367.987 231.697 367.433 231.236 367.064 230.774C366.787 230.498 366.51 229.852 366.695 229.575C366.879 229.206 367.433 228.93 367.895 228.653Z" fill="black"/>
        <path d="M142.393 201.444C141.285 202.458 140.639 203.473 139.9 203.565C139.161 203.657 138.422 202.643 137.684 202.089C138.33 201.444 138.976 200.521 139.807 200.244C140.269 200.06 141.193 200.89 142.393 201.444Z" fill="black"/>
        <path d="M357.46 233.357C356.352 234.464 355.336 235.479 354.412 236.401C354.043 235.94 353.489 235.663 353.304 235.11C353.027 233.726 354.505 231.789 355.705 231.974C356.167 232.066 356.536 232.619 357.46 233.357Z" fill="black"/>
        <path d="M224.117 172.943C223.193 171.836 222.455 170.821 221.716 169.899C222.27 169.53 223.101 168.792 223.378 168.976C224.394 169.622 225.225 170.544 226.148 171.375C225.594 171.743 225.04 172.112 224.117 172.943Z" fill="black"/>
        <path d="M191.519 302.258C189.857 303.088 188.841 303.733 187.917 303.826C187.456 303.826 186.902 302.719 186.348 302.073C187.086 301.612 187.825 300.782 188.656 300.69C189.303 300.597 190.041 301.428 191.519 302.258Z" fill="black"/>
        <path d="M321.723 339.336C321.261 339.244 320.8 339.152 320.43 338.968C319.23 338.322 318.583 337.307 319.415 336.016C319.692 335.555 320.707 335.001 321.169 335.186C322.554 335.647 322.739 336.754 322.277 338.045C322.185 338.506 322 338.875 321.723 339.336Z" fill="black"/>
        <path d="M328.372 559.227C328.187 560.519 328.28 560.888 328.095 561.072C327.818 561.533 327.356 561.902 326.987 562.271C326.802 561.902 326.525 561.626 326.341 561.164C326.248 560.703 326.248 560.242 326.248 559.781C326.156 558.397 326.156 556.921 326.063 555.538C326.987 557.106 327.91 558.489 328.372 559.227Z" fill="black"/>
        <path d="M230.488 383.886C230.672 384.44 231.226 385.178 231.042 385.547C230.488 386.654 229.656 387.576 229.01 388.591C228.641 388.222 227.81 387.76 227.81 387.576C228.179 386.469 228.733 385.362 229.195 384.255C229.656 384.163 230.026 384.071 230.488 383.886Z" fill="black"/>
        <path d="M159.476 182.812C158.737 181.889 157.721 181.152 157.813 180.598C157.906 179.768 158.829 179.122 159.383 178.385C160.03 179.122 160.861 179.768 161.045 180.506C161.138 181.059 160.214 181.797 159.476 182.812Z" fill="black"/>
        <path d="M189.118 171.743C188.01 172.481 187.179 173.404 186.718 173.219C185.886 172.942 185.425 171.928 184.778 171.19C185.517 170.729 186.256 169.899 186.902 169.899C187.549 170.083 188.103 171.006 189.118 171.743Z" fill="black"/>
        <path d="M328.557 324.671C328.834 324.855 329.388 324.948 329.573 325.224C330.127 326.239 330.588 327.346 330.865 328.545C330.958 328.822 330.219 329.375 329.85 329.744C329.203 328.637 328.465 327.622 328.003 326.516C327.818 326.054 328.003 325.501 328.095 324.948C328.095 324.855 328.28 324.855 328.557 324.671Z" fill="black"/>
        <path d="M461.9 201.813C460.792 202.274 459.684 202.827 458.576 203.196C458.391 203.288 457.929 202.366 457.652 201.905C458.668 201.259 459.684 200.429 460.792 199.968C461.254 199.783 461.9 200.244 462.547 200.429C462.362 200.89 462.177 201.351 461.9 201.813Z" fill="black"/>
        <path d="M354.412 348.375C355.059 349.667 355.705 350.497 355.613 351.05C355.521 351.696 354.597 352.157 353.951 352.711C353.397 352.157 352.381 351.419 352.381 350.958C352.566 350.22 353.489 349.575 354.412 348.375Z" fill="black"/>
        <path d="M83.2007 274.218C82.3696 274.771 81.5385 275.601 81.2615 275.509C80.5227 275.048 79.9687 274.218 79.3223 273.48C79.9687 273.019 80.7997 272.189 81.3538 272.281C82.0002 272.373 82.4619 273.388 83.2007 274.218Z" fill="black"/>
        <path d="M375.743 48.8853C375.466 48.1474 374.82 47.225 375.097 46.7638C375.651 45.8415 376.667 45.1958 377.59 44.5502C377.682 44.4579 378.791 45.3803 378.791 45.4725C378.421 46.3949 377.775 47.3173 377.313 48.2396C376.667 48.5163 376.205 48.7008 375.743 48.8853Z" fill="black"/>
        <path d="M412.034 320.981C410.188 321.812 409.264 322.365 408.248 322.549C407.879 322.642 407.325 321.627 406.863 321.166C407.694 320.613 408.433 319.875 409.357 319.598C409.818 319.598 410.465 320.244 412.034 320.981Z" fill="black"/>
        <path d="M135.375 367.837C136.021 369.129 136.76 369.959 136.852 370.881C136.852 371.342 135.652 371.896 135.005 372.357C134.544 371.527 133.99 370.697 133.805 369.867C133.713 369.405 134.544 368.852 135.375 367.837Z" fill="black"/>
        <path d="M271.211 95.0031C271.119 96.2021 271.211 96.7555 271.027 97.1245C270.934 97.4012 270.472 97.6779 270.195 97.8624C270.103 97.9546 269.734 97.5857 269.549 97.309C269.364 96.94 269.18 96.3866 269.18 96.0177C269.364 94.5419 269.641 93.0661 269.918 91.5903C270.472 92.9739 270.934 94.2652 271.211 95.0031Z" fill="black"/>
        <path d="M317.291 323.287C315.906 323.841 315.167 324.579 314.428 324.486C313.782 324.394 313.228 323.472 312.674 323.011C313.228 322.457 313.967 321.35 314.428 321.443C315.352 321.535 315.998 322.365 317.291 323.287Z" fill="black"/>
        <path d="M157.907 224.502C156.892 225.24 156.522 225.794 156.06 225.886C154.86 226.07 153.475 226.163 153.198 224.502C153.106 224.041 154.029 222.842 154.306 222.934C155.414 223.211 156.338 223.857 157.907 224.502Z" fill="black"/>
        <path d="M446.294 322.18C445.739 322.826 445.462 323.472 445.278 323.38C443.8 323.011 442.415 322.549 441.03 322.088C440.845 321.996 440.845 321.535 440.753 321.258C441.584 321.074 442.507 320.705 443.339 320.889C444.262 321.074 445.093 321.627 446.294 322.18Z" fill="black"/>
        <path d="M417.297 449.835C418.129 451.034 418.775 451.772 419.052 452.694C419.144 452.971 417.944 454.17 417.759 454.078C416.928 453.617 416.005 452.971 415.543 452.233C415.451 451.864 416.466 450.942 417.297 449.835Z" fill="black"/>
        <path d="M160.584 126.364C159.661 127.101 159.107 127.47 158.553 127.932C157.999 127.194 157.26 126.456 156.983 125.626C156.891 125.349 157.814 124.611 158.368 124.058C159.015 124.796 159.661 125.441 160.584 126.364Z" fill="black"/>
        <path d="M339.361 156.709C338.899 157.539 338.345 158.646 337.606 159.568C337.422 159.845 336.591 159.845 336.037 159.66C335.852 159.66 335.667 158.738 335.852 158.461C336.314 157.539 336.96 156.617 337.606 155.787C337.791 155.51 338.345 155.51 338.807 155.602C338.992 155.694 339.084 156.155 339.361 156.709Z" fill="black"/>
        <path d="M186.44 208.269C187.363 209.745 188.009 210.483 188.286 211.405C188.379 211.774 187.548 212.42 187.086 212.973C186.532 212.42 185.516 211.958 185.424 211.313C185.239 210.575 185.885 209.745 186.44 208.269Z" fill="black"/>
        <path d="M182.286 397.261C181.085 397.814 180.254 398.552 179.516 398.46C178.962 398.368 178.038 397.445 178.038 396.8C178.038 396.154 178.869 395.508 179.331 394.863C179.885 395.324 180.531 395.877 182.286 397.261Z" fill="black"/>
        <path d="M236.583 117.417C235.475 118.062 234.828 118.8 234.089 118.8C233.628 118.8 232.612 117.693 232.797 117.417C233.074 116.679 233.72 115.849 234.366 115.756C234.92 115.572 235.567 116.586 236.583 117.417Z" fill="black"/>
        <path d="M383.593 534.139C382.67 534.877 382.023 535.615 381.931 535.523C381.008 534.969 380.177 534.231 379.438 533.493C379.345 533.309 379.807 532.571 380.084 532.11C381.1 532.663 382.116 533.309 383.593 534.139Z" fill="black"/>
        <path d="M235.66 341.642C236.214 342.841 236.768 343.579 236.768 344.225C236.768 344.686 235.568 345.516 235.291 345.424C234.644 345.055 233.721 344.317 233.721 343.764C233.721 343.118 234.736 342.565 235.66 341.642Z" fill="black"/>
        <path d="M39.708 218.507C38.6922 219.245 37.9535 220.167 37.3994 220.075C36.8453 220.075 36.1066 219.061 35.9219 218.323C35.8296 217.954 36.8453 216.939 37.2147 216.939C37.9535 217.124 38.5999 217.862 39.708 218.507Z" fill="black"/>
        <path d="M163.632 385.916C162.893 385.178 162.246 384.717 161.692 384.163C162.339 383.702 162.985 382.78 163.724 382.78C164.37 382.78 165.017 383.61 165.663 384.071C165.017 384.624 164.463 385.086 163.632 385.916Z" fill="black"/>
    </g>
    <defs>
        <clipPath id="clip0">
            <rect width="477" height="733" fill="white"/>
        </clipPath>
    </defs>
</svg>

