<svg width="259" height="246" viewBox="0 0 259 246" fill="none" xmlns="http://www.w3.org/2000/svg">
    <path d="M229.6 157.8C202.2 144.7 171 157.3 188.8 149.9C206 142.7 161.1 141.5 149.1 141.8C150.4 141.1 151.4 139.7 151.4 138.1C151.4 137.3 151.2 136.5 150.8 135.9L150.7 135.8L150.6 135.7L149.2 133.7L149.3 133.6C153.1 131.1 156.9 127 160.1 122.1C167.1 111.3 168.6 100.7 163.6 97.2L163.5 97.1L156.2 92.3C156.1 92.3 156.1 92.2 156 92.2C155.9 92.2 155.9 92.1 155.9 92.1C154 91.1 151.7 91.1 149.1 92.1L150 89.7L151.6 85.5L154.8 77.4C157 71.9 155 65.6 150 62.4L126.7 47.2C124.7 45.9 122.2 45.7 120 46.7L89.5 61C86.8 62.3 84.7 64.5 83.6 67.2L67.9 106.8C66.8 109.6 67.8 112.8 70.3 114.5L92.5 129C95.5 131 99 132 102.4 132C105 132 107.6 131.4 110.1 130.3L128.2 121.9C127.9 125.8 128.8 128.9 131.1 130.4L131.2 130.5L138.5 135.3C139.5 136 140.7 136.3 142 136.3C142.3 136.3 142.7 136.3 143.1 136.2V138.4C143.2 140.4 144.7 141.9 146.6 142.2C146.7 142.2 146.9 142.2 147 142.3C178.8 146.1 121.7 147.3 102.4 147.7C56 148.7 42.1 149.5 41.6 150.6C41.2 151.7 180.6 151.8 49.9 163.1C-38.9 170.7 132.9 169.1 132.8 171.5C132.5 177.7 78.2 174 71.6 179.6C65 185.2 131.6 187.1 151.4 186.3C171.2 185.5 187.8 185 187.4 180.4C187 175.8 171 168.9 178.8 170.7C207.9 179.8 253.3 169.1 229.6 157.8ZM153.9 95.7L156 97.1C151.4 98.9 146.3 103.6 141.9 110.3C141.8 110.5 141.7 110.7 141.6 110.8C141.8 107.4 142.8 104.2 144.6 101.3L146.7 97.9C149.9 95.6 152.6 94.9 153.9 95.7ZM121.7 50.5C122.1 50.3 122.5 50.2 122.9 50.2C123.5 50.2 124 50.4 124.5 50.7L147.8 65.9C149.1 66.7 150 67.9 150.7 69.1L132.2 77.7L119.7 83.5L90.9 64.7C91 64.7 91 64.6 91.1 64.6L121.7 50.5ZM122.1 120.3L116 123.1C113.8 124.1 111.7 123.3 110.6 122.2C109.4 121.1 108.5 119.1 109.4 116.9L115.5 101.6C119.2 92.3 126.2 84.9 135.2 80.7L141.2 77.9L141.4 77.8C142.1 77.5 142.8 77.3 143.5 77.3C144.9 77.3 146.1 77.9 146.8 78.7C148 79.8 148.9 81.8 148 84.1L147.1 86.4L145.1 91.4C144.6 89.7 143.7 88.7 142.9 88.2L137.3 84.5C135.1 83 132 83.5 128.5 85.8C125.6 87.8 122.6 90.9 120.1 94.7C115.4 101.9 113 111.1 117.5 114.4C117.6 114.5 117.6 114.5 117.7 114.6L123.3 118.3C123.7 118.6 124.2 118.8 124.8 119C123.8 119.5 123 119.9 122.1 120.3ZM125.5 98.5C125 99.3 124.5 100.1 124.1 100.8C124 100.1 123.9 99 124.2 97.3C124.4 95.9 125.3 94.2 126.4 92.8C127.7 91.3 129.1 90.1 130.5 89.2C132.8 87.7 134.3 87.6 134.9 87.9L135.8 88.5C132.2 90.4 128.3 94.2 125.5 98.5ZM134.6 105.5C134.2 106.2 133.8 106.8 133.4 107.5C132.8 106.8 131.5 104.7 132.4 99.4C132.7 97.7 133.2 96.2 133.8 95C135.5 93.4 137.1 92.4 138.4 91.9C138.5 92.4 138.8 93 139.3 93.3L143.2 95.8C140.2 98.1 137.2 101.5 134.6 105.5ZM146.9 130.5L144.8 127.5C144.9 127.5 145 127.5 145.1 127.5C145.2 127.5 145.2 127.5 145.3 127.4C145.4 127.4 145.5 127.3 145.6 127.3C145.7 127.3 145.7 127.2 145.8 127.2C145.9 127.2 146 127.1 146.1 127C146.2 127 146.3 126.9 146.3 126.9C146.4 126.8 146.5 126.8 146.7 126.7C146.8 126.6 146.9 126.6 146.9 126.5C147 126.4 147.2 126.3 147.3 126.2C147.4 126.1 147.5 126.1 147.5 126C147.7 125.9 147.8 125.7 148 125.6C148.1 125.6 148.1 125.5 148.2 125.5C148.4 125.3 148.6 125.1 148.9 124.9C149 124.8 149 124.8 149.1 124.7C149.3 124.5 149.4 124.4 149.6 124.2C149.7 124.1 149.8 124 149.9 123.9C150 123.7 150.2 123.6 150.3 123.4C150.4 123.3 150.5 123.2 150.6 123.1C150.7 122.9 150.9 122.8 151 122.6C151.1 122.5 151.2 122.4 151.3 122.2C151.4 122 151.6 121.8 151.7 121.7C151.8 121.6 151.9 121.5 152 121.3C152.1 121.1 152.3 120.9 152.4 120.7C152.5 120.6 152.6 120.4 152.7 120.3C152.9 120.1 153 119.9 153.2 119.6C153.3 119.5 153.4 119.4 153.4 119.3C153.6 119 153.9 118.6 154.1 118.3C155.3 116.4 156.4 114.5 157.2 112.8C158.1 110.7 158.7 108.9 158.8 107.5C158.9 106.8 158.8 106.2 158.6 105.8C158.5 105.5 158.3 105.3 158.1 105.2C158 105.1 157.9 105.1 157.7 105H157.6C157.5 105 157.4 105 157.4 105C157.3 105 157.3 105 157.2 105C157.1 105 157 105 156.9 105C156.8 105 156.8 105 156.7 105.1C156.6 105.1 156.5 105.2 156.4 105.2C156.3 105.2 156.3 105.3 156.2 105.3C156.1 105.3 156 105.4 155.9 105.5C155.8 105.5 155.7 105.6 155.7 105.6C155.6 105.7 155.5 105.7 155.3 105.8C155.2 105.9 155.1 105.9 155.1 106C155 106.1 154.8 106.2 154.7 106.3C154.6 106.4 154.6 106.4 154.5 106.5C154.3 106.6 154.2 106.8 154 106.9L153.9 107C153.7 107.2 153.4 107.4 153.2 107.6C153.1 107.7 153.1 107.7 153 107.8C152.8 108 152.7 108.1 152.5 108.3C152.4 108.4 152.3 108.5 152.2 108.6C152 108.8 151.9 108.9 151.7 109.1C151.6 109.2 151.5 109.3 151.4 109.4C151.3 109.6 151.1 109.7 151 109.9C150.9 110 150.8 110.1 150.7 110.3C150.6 110.5 150.4 110.7 150.3 110.8C150.2 110.9 150.1 111 150 111.2C149.8 111.4 149.7 111.6 149.5 111.8C149.4 111.9 149.3 112 149.2 112.2C149 112.4 148.9 112.7 148.7 112.9C148.6 113 148.5 113.1 148.5 113.2C148.3 113.5 148 113.9 147.8 114.3C145 118.7 143.2 122.9 143.1 125.4V125.6C143.1 125.7 143.1 125.8 143.1 125.9V132.4C142.1 132.6 141.3 132.6 140.7 132.2C139.5 131.4 139.1 129 139.7 125.7C140.4 121.8 142.4 117.2 145.3 112.7C150.7 104.4 156.8 100.4 160 100.4C160.5 100.4 161 100.5 161.3 100.7C163.7 102.3 163.1 110.4 156.8 120.2C153.9 124.6 150.5 128.3 147.2 130.5C147 130.4 146.9 130.5 146.9 130.5Z" fill="white"/>
    <path d="M98.3 89.7L94.2 100.1L90.7 84.8L87.8 92C86.7 94.7 87.7 97.9 90.2 99.4L93.5 101.5L90.1 110.1L93.5 112.3L101.6 91.8L98.3 89.7Z" fill="black"/>
    <g clip-path="url(#clip0)">
        <path d="M13.4749 232.354L0 222V230.773C0 233.223 0.705082 235.041 2.0369 236.464C3.36872 237.808 5.24894 238.519 7.67756 238.519C9.87114 238.519 9.55777 238.598 13.4749 238.598V245.158H19.8206V222H13.4749V232.354Z" fill="white"/>
        <path d="M30.0838 235.911H41.0517V230.931H30.0838V227.454H42.1485V222H23.8164V245H42.3052V239.625H30.0838V235.911Z" fill="white"/>
        <path d="M62.2826 224.134C60.5591 222.711 58.2872 222 55.3102 222H45.5957V245H51.9414V238.44H55.0751C57.9738 238.44 60.4024 237.729 62.2043 236.306C64.0062 234.883 64.9463 232.828 64.9463 230.22C64.7896 227.612 64.0062 225.557 62.2826 224.134Z" fill="white"/>
        <path d="M81.9465 230.615H73.7989V222H67.4531V245H73.7989V236.306H81.9465V245H88.2139V222H81.9465V230.615Z" fill="white"/>
        <path d="M98.5545 234.962V222H92.2871V245H98.1628L107.015 232.038V245H113.283V222H107.407L98.5545 234.962Z" fill="white"/>
        <path d="M158.408 231.247C156.685 229.904 154.413 229.192 151.514 229.192H148.067V222H141.8V245H151.906C154.726 245 156.92 244.289 158.565 242.866C160.21 241.443 161.072 239.546 161.072 237.017C161.072 234.567 160.21 232.591 158.408 231.247Z" fill="white"/>
        <path d="M178.15 230.615H170.081V222H163.735V245H170.081V236.306H178.15V245H184.496V222H178.15V230.615Z" fill="white"/>
        <path d="M194.76 234.962V222H188.492V245H194.446L203.221 232.038V245H209.488V222H203.612L194.76 234.962Z" fill="white"/>
        <path d="M234.009 239.388V222H227.663V239.388H219.907V222H213.562V245H230.484H237.143V241.997C237.143 240.574 235.889 239.388 234.009 239.388Z" fill="white"/>
        <path d="M259 230.062C259 227.533 258.138 225.557 256.414 224.134C254.691 222.711 252.419 222 249.52 222H239.728V245H246.073V233.54L252.732 238.44V245H259.078L259 230.062Z" fill="white"/>
        <path d="M121.039 224.134C119.316 225.557 118.454 227.533 118.454 230.141V230.22V239.388H116.887C116.26 239.388 115.712 239.942 115.712 240.574V244.921H118.454H121.196H124.721V230.378C124.721 229.43 125.035 228.639 125.661 228.165C126.288 227.612 127.228 227.375 128.325 227.375H131.302V233.46V238.44V245H137.648V222H127.855C125.035 222 122.763 222.711 121.039 224.134Z" fill="white"/>
    </g>
    <defs>
        <clipPath id="clip0">
            <rect y="222" width="259" height="23" fill="white"/>
        </clipPath>
    </defs>
</svg>
