<svg width="530" height="352" viewBox="0 0 530 352" fill="none" xmlns="http://www.w3.org/2000/svg">
    <path d="M512.593 279.856C444.205 247.16 366.332 278.608 410.76 260.139C453.69 242.168 341.623 239.173 311.672 239.922C314.916 238.175 317.412 234.68 317.412 230.687C317.412 228.69 316.913 226.693 315.915 225.196L315.665 224.946L315.415 224.697L311.921 219.705L312.171 219.455C321.655 213.215 331.14 202.982 339.127 190.752C356.598 163.796 360.342 137.339 347.862 128.604L347.613 128.354L329.393 116.374C329.143 116.374 329.143 116.124 328.893 116.124C328.644 116.124 328.644 115.874 328.644 115.874C323.902 113.378 318.161 113.378 311.672 115.874L313.918 109.884L317.911 99.4013L325.898 79.1843C331.389 65.4568 326.398 49.7325 313.918 41.7455L255.763 3.8075C250.771 0.562805 244.531 0.0636202 239.04 2.55954L162.915 38.2512C156.176 41.4959 150.934 46.9869 148.189 53.7259L109.003 152.564C106.257 159.553 108.753 167.54 114.993 171.783L170.402 207.974C177.89 212.966 186.626 215.462 195.112 215.462C201.601 215.462 208.091 213.964 214.331 211.219L259.507 190.253C258.758 199.987 261.004 207.724 266.745 211.468L266.995 211.718L285.215 223.698C287.711 225.445 290.706 226.194 293.951 226.194C294.699 226.194 295.698 226.194 296.696 225.945V231.436C296.946 236.427 300.69 240.171 305.432 240.92C305.681 240.92 306.181 240.92 306.43 241.17C385.8 250.654 243.283 253.649 195.112 254.648C79.3013 257.144 44.608 259.14 43.36 261.886C42.3616 264.631 390.293 264.881 64.0762 293.085C-157.562 312.054 271.238 308.06 270.988 314.051C270.239 329.525 134.711 320.29 118.238 334.268C101.765 348.245 267.993 352.987 317.412 350.99C366.831 348.993 408.264 347.745 407.265 336.264C406.267 324.783 366.332 307.561 385.8 312.054C458.432 334.767 571.747 308.06 512.593 279.856ZM323.652 124.86L328.893 128.354C317.412 132.847 304.683 144.577 293.701 161.3C293.451 161.799 293.202 162.299 292.952 162.548C293.451 154.062 295.947 146.075 300.44 138.837L305.681 130.351C313.668 124.61 320.407 122.863 323.652 124.86ZM243.283 12.044C244.282 11.5449 245.28 11.2953 246.278 11.2953C247.776 11.2953 249.024 11.7945 250.272 12.5432L308.427 50.4812C311.672 52.478 313.918 55.4731 315.665 58.4682L269.49 79.9331L238.291 94.4095L166.409 47.4861C166.659 47.4861 166.659 47.2365 166.908 47.2365L243.283 12.044ZM244.282 186.259L229.057 193.248C223.566 195.744 218.324 193.747 215.579 191.002C212.583 188.256 210.337 183.264 212.583 177.773L227.809 139.586C237.044 116.374 254.515 97.9037 276.978 87.4209L291.954 80.4323L292.453 80.1827C294.2 79.4339 295.947 78.9347 297.694 78.9347C301.189 78.9347 304.184 80.4323 305.931 82.429C308.926 85.1745 311.172 90.1664 308.926 95.907L306.68 101.648L301.688 114.127C300.44 109.884 298.194 107.388 296.197 106.14L282.22 96.9054C276.729 93.1615 268.991 94.4095 260.256 100.15C253.017 105.142 245.53 112.879 239.29 122.364C227.559 140.334 221.569 163.297 232.8 171.533C233.05 171.783 233.05 171.783 233.3 172.033L247.277 181.268C248.275 182.016 249.523 182.515 251.021 183.015C248.525 184.263 246.528 185.261 244.282 186.259ZM252.768 131.848C251.52 133.845 250.272 135.842 249.274 137.589C249.024 135.842 248.774 133.096 249.523 128.853C250.022 125.359 252.269 121.116 255.014 117.622C258.259 113.878 261.753 110.883 265.247 108.636C270.988 104.892 274.732 104.643 276.229 105.392L278.476 106.889C269.491 111.631 259.756 121.116 252.768 131.848ZM275.481 149.32C274.482 151.067 273.484 152.564 272.486 154.312C270.988 152.564 267.743 147.323 269.99 134.095C270.738 129.852 271.986 126.108 273.484 123.113C277.727 119.119 281.72 116.623 284.965 115.375C285.215 116.623 285.964 118.121 287.212 118.869L296.946 125.109C289.458 130.85 281.97 139.336 275.481 149.32ZM306.181 211.718L300.939 204.23C301.189 204.23 301.438 204.23 301.688 204.23C301.938 204.23 301.938 204.23 302.187 203.98C302.437 203.98 302.686 203.731 302.936 203.731C303.185 203.731 303.185 203.481 303.435 203.481C303.685 203.481 303.934 203.232 304.184 202.982C304.433 202.982 304.683 202.732 304.683 202.732C304.933 202.483 305.182 202.483 305.681 202.233C305.931 201.984 306.181 201.984 306.181 201.734C306.43 201.484 306.929 201.235 307.179 200.985C307.429 200.736 307.678 200.736 307.678 200.486C308.177 200.237 308.427 199.737 308.926 199.488C309.176 199.488 309.176 199.238 309.425 199.238C309.924 198.739 310.424 198.24 311.172 197.741C311.422 197.491 311.422 197.491 311.672 197.241C312.171 196.742 312.42 196.493 312.92 195.993C313.169 195.744 313.419 195.494 313.668 195.245C313.918 194.745 314.417 194.496 314.667 193.997C314.916 193.747 315.166 193.498 315.415 193.248C315.665 192.749 316.164 192.499 316.414 192C316.663 191.75 316.913 191.501 317.163 191.002C317.412 190.502 317.911 190.003 318.161 189.754C318.411 189.504 318.66 189.254 318.91 188.755C319.159 188.256 319.659 187.757 319.908 187.258C320.158 187.008 320.407 186.509 320.657 186.259C321.156 185.76 321.406 185.261 321.905 184.512C322.154 184.263 322.404 184.013 322.404 183.763C322.903 183.015 323.652 182.016 324.151 181.268C327.146 176.525 329.892 171.783 331.889 167.54C334.135 162.299 335.632 157.806 335.882 154.312C336.132 152.564 335.882 151.067 335.383 150.069C335.133 149.32 334.634 148.821 334.135 148.571C333.885 148.321 333.636 148.321 333.136 148.072H332.887C332.637 148.072 332.388 148.072 332.388 148.072C332.138 148.072 332.138 148.072 331.889 148.072C331.639 148.072 331.389 148.072 331.14 148.072C330.89 148.072 330.89 148.072 330.641 148.321C330.391 148.321 330.141 148.571 329.892 148.571C329.642 148.571 329.642 148.821 329.393 148.821C329.143 148.821 328.893 149.07 328.644 149.32C328.394 149.32 328.145 149.569 328.145 149.569C327.895 149.819 327.645 149.819 327.146 150.069C326.897 150.318 326.647 150.318 326.647 150.568C326.398 150.817 325.898 151.067 325.649 151.316C325.399 151.566 325.399 151.566 325.15 151.816C324.65 152.065 324.401 152.564 323.902 152.814L323.652 153.064C323.153 153.563 322.404 154.062 321.905 154.561C321.655 154.811 321.655 154.811 321.406 155.06C320.906 155.56 320.657 155.809 320.158 156.308C319.908 156.558 319.659 156.807 319.409 157.057C318.91 157.556 318.66 157.806 318.161 158.305C317.911 158.555 317.662 158.804 317.412 159.054C317.163 159.553 316.663 159.803 316.414 160.302C316.164 160.551 315.915 160.801 315.665 161.3C315.415 161.799 314.916 162.299 314.667 162.548C314.417 162.798 314.168 163.047 313.918 163.546C313.419 164.046 313.169 164.545 312.67 165.044C312.42 165.294 312.171 165.543 311.921 166.042C311.422 166.542 311.172 167.29 310.673 167.79C310.424 168.039 310.174 168.289 310.174 168.538C309.675 169.287 308.926 170.285 308.427 171.284C301.438 182.266 296.946 192.749 296.696 198.989V199.488C296.696 199.737 296.696 199.987 296.696 200.237V216.46C294.2 216.959 292.203 216.959 290.706 215.961C287.711 213.964 286.712 207.974 288.21 199.737C289.957 190.003 294.949 178.522 302.187 167.29C315.665 146.574 330.89 136.591 338.877 136.591C340.125 136.591 341.373 136.84 342.122 137.339C348.112 141.333 346.614 161.55 330.89 186.01C323.652 196.992 315.166 206.227 306.929 211.718C306.43 211.468 306.181 211.718 306.181 211.718Z" fill="black"/>
</svg>
