<svg width="368" height="371" viewBox="0 0 368 371" fill="none" xmlns="http://www.w3.org/2000/svg">
    <g clip-path="url(#clip0)">
        <rect x="-776" y="-6740" width="1920" height="10088" fill="white"/>
        <rect y="3" width="368" height="368" rx="184" fill="black"/>
        <path d="M285.675 274C285.502 274 285.271 274 285.041 273.942C282.621 273.596 281.123 271.576 281.065 268.517C280.95 265.458 281.18 262.573 281.699 259.86C281.987 258.302 283.255 256.282 284.926 255.532C286.078 255.012 286.309 254.435 286.366 252.992C286.424 252.126 286.482 251.203 286.539 250.337C286.654 248.894 286.712 247.336 286.712 245.893C286.712 245.72 286.597 245.432 286.482 245.201C286.193 245.258 285.79 245.432 285.56 245.605C284.926 246.24 284.407 246.99 283.831 247.798C283.485 248.317 283.139 248.779 282.794 249.241C281.411 250.972 280.028 251.78 278.587 251.665C277.204 251.549 275.994 250.568 275.015 248.779C274.554 247.913 274.035 247.682 272.883 247.625C270.289 247.567 267.812 247.509 265.449 247.336C263.951 247.221 262.741 246.701 261.934 245.72C261.127 244.797 260.782 243.527 260.897 242.084C261.127 239.602 259.917 238.102 257.209 237.467C253.752 236.659 250.64 236.14 247.644 235.851C246.664 235.793 245.915 235.966 245.569 236.37C245.224 236.774 245.281 237.467 245.396 237.986C246.203 241.68 245.396 245.028 244.532 248.26C244.129 249.702 243.783 251.145 243.61 252.53C243.437 253.742 242.746 254.781 241.651 255.474C240.326 256.282 238.597 256.513 237.099 255.993C236.522 255.82 235.831 255.762 235.082 255.762C234.563 255.762 234.102 255.705 233.584 255.647C233.296 255.589 233.065 255.589 232.777 255.589C231.797 255.532 230.703 255.416 229.781 254.897C228.974 254.435 228.801 254.493 228.167 255.185C226.15 257.436 222.981 260.322 218.429 260.322C215.721 260.264 213.07 259.802 210.823 258.937C207.769 257.782 205.233 256.917 202.237 257.782C200.335 258.302 198.03 257.148 196.993 256.397C195.956 255.647 195.207 254.608 194.458 253.627C194.112 253.165 193.766 252.704 193.42 252.3L193.075 251.896C192.499 251.203 191.922 250.568 191.288 250.106C190.712 249.702 190.136 249.529 189.905 249.702C189.675 249.818 189.387 250.222 189.272 251.145C188.638 255.589 188.119 256.109 183.682 256.513H183.452C181.896 256.686 180.167 257.032 178.266 257.609C174.635 258.764 171.351 257.552 169.276 254.377C168.585 253.338 166.222 252.819 165.07 253.454C164.494 253.742 163.975 253.973 163.399 254.146C162.996 254.262 162.65 254.435 162.246 254.608C161.901 254.781 161.613 255.012 161.267 255.185C160.864 255.474 160.518 255.705 160.114 255.936C159.942 255.993 159.769 256.109 159.653 256.224C158.904 256.686 157.925 257.263 156.888 257.09C154.467 256.686 152.047 256.109 149.8 255.358C146.746 254.32 145.305 252.184 145.536 249.068C145.593 247.971 145.363 246.586 142.828 245.374C141.617 244.797 140.407 244.104 139.255 243.527L138.391 243.065C138.333 243.065 138.275 243.123 138.218 243.123C137.353 243.527 136.259 244.046 135.337 243.412C134.184 242.661 133.55 240.988 133.493 239.833C133.435 237.986 132.859 236.428 132.052 234.581C131.245 232.677 131.13 230.657 131.015 228.637C131.015 228.233 130.957 227.771 130.957 227.367C130.9 226.963 130.9 226.732 130.842 226.675C130.842 226.675 130.727 226.675 130.554 226.617C127.039 226.328 124.331 224.424 122.199 220.788C121.91 220.268 121.277 219.749 120.873 219.691C118.223 219.056 116.782 217.383 116.551 214.497C116.551 214.266 116.436 214.035 116.379 213.862C111.481 211.9 106.237 209.937 100.475 207.86C99.668 207.571 99.3799 207.629 99.3222 207.629C99.3222 207.629 99.207 207.86 99.207 208.379C99.207 209.187 98.6884 210.053 98.0545 210.457C96.9597 211.149 95.8072 211.784 94.6548 212.419L94.1938 212.708C94.1938 213.112 94.1938 213.516 94.1362 213.977C94.0786 214.208 94.0786 214.439 94.0209 214.67C93.8481 215.882 93.6176 217.267 92.4651 217.729C91.0822 218.248 89.0077 218.364 87.6824 217.498C86.2418 216.575 85.4351 214.785 84.9741 213.458C84.4555 211.957 83.7064 211.323 82.2082 211.092C81.7473 211.034 81.2863 210.976 80.8829 210.861L80.0762 210.745C75.8697 210.111 74.0834 208.091 74.0834 203.993C74.0834 202.261 73.7953 201.8 72.5276 201.396C70.7989 200.876 69.7617 198.856 69.3583 198.048C68.8397 196.952 68.2635 196.606 66.8229 196.606C65.1519 196.606 65.0366 196.779 64.8061 197.644C64.518 198.972 62.5588 200.299 61.2335 200.126C59.9082 199.895 58.6405 198.625 58.1219 197.587C57.7761 196.894 57.6609 196.144 57.5456 195.394L53.8578 197.471C53.9154 197.76 54.0306 198.048 54.1459 198.337C55.356 201.684 55.1831 204.57 53.5696 207.225C53.512 207.34 53.4544 207.744 53.3968 208.091C53.2815 209.014 52.9934 211.207 50.4004 211.207C48.9022 211.207 47.2887 210.63 45.9634 210.111C44.9838 209.707 44.0619 209.707 43.3704 210.168C42.6213 210.63 42.2179 211.496 42.1027 212.708C41.9298 214.381 41.3536 216.575 38.2996 216.921C38.1843 217.094 38.0115 217.383 38.0115 217.556C38.0115 217.556 38.1267 217.787 38.1843 217.96C38.3572 218.364 38.5301 218.883 38.4724 219.403C38.4724 220.845 38.4148 222.461 37.32 223.154C36.2828 223.847 34.0931 224.366 32.7678 223.558C31.3848 222.75 29.8866 221.192 29.5409 219.518C28.907 216.459 28.7342 213.4 28.6765 210.515V210.168C28.6189 208.148 28.5613 207.513 27.0631 207.167C25.5649 206.821 24.6429 204.916 24.3548 203.935C23.9515 202.608 23.7786 201.049 23.721 199.26C23.721 197.183 23.26 196.144 22.1075 195.336C20.8398 194.528 18.9959 192.566 20.667 189.045C20.7822 188.814 20.8974 188.526 21.0703 188.295C21.9923 186.563 22.3956 185.64 21.3584 184.255C20.2636 182.696 21.4161 179.984 22.2228 178.483C22.6838 177.618 23.3752 177.098 24.2396 176.867C25.2768 176.636 26.4292 177.04 27.4665 177.848C27.9274 178.195 28.2732 178.656 28.6189 179.06L29.7138 178.368C31.3848 177.329 33.0559 177.271 34.7269 177.214H35.1303C35.5913 177.214 36.1099 177.156 36.5709 177.156C38.5301 177.04 40.5469 176.983 42.5637 177.387C42.6213 177.156 42.7365 176.867 42.7942 176.636C43.1975 175.078 43.428 174.155 42.7365 173.116C42.1603 172.192 42.0451 171.211 41.9298 170.288C41.8722 169.942 41.8146 169.538 41.7569 169.191L41.5841 168.499C41.4112 167.806 41.296 167.171 41.0655 166.594C40.4316 165.151 40.1435 162.901 42.2755 160.534C43.3704 159.322 43.4856 158.572 42.0451 156.898C40.6621 155.282 40.1435 153.724 40.4316 152.281C40.7197 150.896 41.7569 149.799 43.428 148.991C44.5228 148.472 45.7905 148.645 46.8278 148.818C47.865 148.991 48.7293 149.165 49.6513 149.395C49.6513 146.741 50.919 144.836 53.4544 143.682C53.512 143.566 53.6273 143.278 53.6273 143.162C53.4544 142.354 52.9934 141.431 52.4748 140.45L52.3596 140.161C50.8614 137.275 51.3223 135.14 53.9154 133.005C54.895 132.197 55.8746 131.158 56.9694 129.83C57.6609 129.022 59.3896 126.772 62.5012 127.81C62.6741 127.868 62.9622 127.868 63.0774 127.81C64.979 126.541 67.0534 126.252 68.8973 127.002C69.0702 126.887 69.2431 126.714 69.3583 126.598C70.2803 125.79 71.2023 125.098 72.2395 124.521C73.3343 123.944 75.4664 124.174 76.3307 125.213C77.5984 126.714 79.0966 126.772 81.4591 126.772C81.7473 126.772 82.0354 126.772 82.3235 126.772C82.7268 124.752 84.0522 123.424 86.069 122.905C88.4315 118.172 92.9837 116.729 96.9597 115.517L98.6884 114.94C99.7832 114.594 100.244 114.478 100.532 113.728C100.936 112.747 101.8 111.881 103.183 110.958C103.99 110.438 105.603 109.919 106.698 110.554C107.274 110.842 107.735 111.246 108.139 111.593C109.003 112.285 109.349 112.574 109.982 112.458C110.962 112.285 111.654 113.209 111.884 113.728C112.748 115.748 113.613 117.768 114.477 119.788C114.65 120.134 114.765 120.596 114.708 121.173L114.477 122.674C114.074 125.444 113.67 128.157 113.209 130.927C113.036 131.908 112.345 132.947 111.596 133.466L110.962 133.87C109.752 134.678 108.484 135.486 107.159 136.179C107.678 136.525 108.139 136.987 108.542 137.564C108.83 137.968 109.176 138.199 109.406 138.199C109.637 138.199 109.982 137.968 110.386 137.391C110.559 137.102 110.732 136.814 110.904 136.525C111.25 135.833 111.654 135.14 112.23 134.505C113.267 133.351 114.708 132.947 116.033 133.351C117.301 133.755 118.223 134.852 118.453 136.352C118.626 137.275 118.511 138.141 118.453 138.949C118.395 139.526 118.338 140.046 118.395 140.565C118.395 141.027 118.511 141.431 118.626 141.604C118.799 141.604 118.972 141.546 119.087 141.546C120.239 140.738 122.026 140.161 123.87 142.123C124.215 142.527 124.561 142.931 124.907 143.335C125.195 143.624 125.425 143.97 125.714 144.259C126.751 145.355 127.096 145.24 127.673 144.778C128.71 144.028 129.574 143.97 130.151 144.086C131.015 144.259 131.764 144.894 132.34 145.933C132.513 146.279 132.686 146.625 132.859 147.029C132.916 147.202 133.032 147.375 133.089 147.606C133.55 148.53 133.838 149.107 134.069 149.338C134.357 149.222 134.876 148.818 135.625 148.183C138.102 146.106 139.946 146.798 141.848 148.472C143.346 149.799 144.96 151.473 145.593 153.666C145.997 153.147 146.4 152.627 146.861 152.108C147.553 151.242 148.244 150.434 148.763 149.511C150.491 146.567 153.545 144.432 157.521 143.278C158.847 142.874 160.057 143.162 160.864 143.97C161.613 144.778 161.843 145.933 161.44 147.26C162.304 146.741 163.572 146.394 164.494 146.914C165.358 147.375 165.819 148.183 166.395 148.991C166.511 149.165 166.683 149.395 166.799 149.626L168.7 150.319C169.046 148.818 169.68 146.221 173.08 146.51C174.463 146.625 175.845 146.971 177.171 147.26C177.401 147.318 177.632 147.375 177.92 147.433L178.381 146.625C179.245 145.125 180.167 143.451 181.204 141.835C182.703 139.353 184.892 139.757 186.506 140.334C188.753 137.795 189.79 137.91 192.614 139.988L193.363 139.642C194.515 139.18 195.61 138.718 196.647 138.199C196.763 138.141 197.051 137.853 197.224 137.564C197.281 137.506 197.281 137.218 197.281 137.045C197.281 136.871 197.339 136.698 197.339 136.525V136.352C197.627 134.505 198.03 131.793 201.372 131.389C203.793 131.158 207.769 133.697 208.402 135.948C208.518 136.352 208.518 136.756 208.518 137.16C209.209 137.275 209.843 137.333 210.534 137.449C211.917 137.679 212.897 138.314 213.416 139.238C213.934 140.161 213.934 141.258 213.473 142.527C212.609 144.836 211.687 147.087 210.765 149.395L210.304 150.607L213.128 151.242C214.914 148.299 216.124 148.126 219.639 149.742C221.022 150.377 222.405 150.088 223.961 149.742L224.306 149.684C224.306 149.626 224.364 149.569 224.364 149.511L224.537 149.165C225.977 146.221 228.282 145.702 229.838 145.702C232.028 145.759 232.892 147.26 233.526 148.414C233.641 148.645 233.757 148.818 233.872 149.049C234.448 150.03 235.197 150.896 236.004 151.762C235.889 150.838 236.004 149.799 236.753 149.049C237.848 147.953 239.634 148.299 240.21 148.357C241.19 148.53 242.054 148.934 242.688 149.222L246.837 147.26C246.837 146.914 246.895 146.452 246.952 146.048C247.356 143.393 249.027 141.604 251.793 140.796C252.081 140.738 252.311 140.681 252.599 140.623C253.694 140.392 253.925 140.277 254.097 139.699C254.443 138.545 255.596 138.487 256.863 138.372C257.036 138.372 257.209 138.372 257.382 138.314C258.995 136.179 261.358 136.756 263.144 137.16C263.375 137.218 263.605 137.275 263.836 137.333C264.124 136.698 264.47 136.063 264.7 135.371C265.68 132.716 267.754 131.562 270.693 132.024C272.249 132.254 273.747 132.658 275.36 133.005C275.648 133.062 275.994 133.178 276.282 133.236C278.011 127.926 282.217 126.021 286.021 125.213C285.099 123.828 284.695 122.674 284.868 121.52C285.099 119.442 286.943 117.999 288.498 116.96C290.688 115.517 292.762 113.844 294.952 111.766C298.467 108.476 302.27 106.514 306.304 105.994C307.226 103.571 309.127 102.07 310.856 100.743C311.663 100.108 312.412 99.5305 313.046 98.838C313.795 98.0877 314.832 97.7991 315.754 98.1454C316.906 98.4917 317.828 99.646 318.116 101.089C318.174 101.551 318.174 101.955 318.174 102.416V102.705L318.232 102.763C318.52 103.051 318.866 103.34 319.154 103.571C319.96 104.263 320.767 104.956 321.401 105.879C322.323 107.264 322.265 108.418 322.035 109.169C321.804 109.919 321.228 111.016 319.615 111.766C318.462 112.285 317.828 113.093 317.367 114.652C317.022 115.864 316.273 116.845 315.408 117.826C315.235 118.057 315.062 118.288 314.832 118.518C315.293 119.73 315.005 120.885 314.544 121.924C316.157 121.404 317.713 121.808 319.73 123.193C319.845 123.251 319.903 123.309 320.018 123.424C320.421 123.713 320.767 123.886 321.055 124.117C322.092 124.694 323.245 125.386 323.591 126.541C323.936 127.637 323.533 128.734 323.187 129.657C323.014 130.177 322.842 130.638 322.784 130.985C322.726 131.331 322.726 131.677 322.669 132.024C322.496 133.409 322.323 134.794 322.669 135.833C324.57 141.546 323.245 146.798 318.693 151.935C317.54 153.262 317.54 153.262 318.232 154.013C319.154 154.994 319.499 156.033 319.442 157.071C319.327 158.053 318.808 158.918 317.828 159.726C317.771 159.899 317.771 160.188 317.828 160.361C318.174 161.169 318.635 161.919 319.211 162.843C319.269 162.901 319.327 163.016 319.327 163.074C319.672 162.958 320.076 162.901 320.479 163.016L320.767 163.074C322.496 163.42 324.282 163.766 324.628 165.151C325.031 166.537 325.953 167.287 327.221 168.21C327.567 168.441 327.912 168.73 328.201 168.96C330.217 170.576 330.563 171.962 329.353 173.924C332.926 176.29 332.119 180.099 331.715 182.177L331.6 182.696C331.427 183.389 331.312 184.082 331.312 184.716C331.312 185.467 331.37 185.871 331.427 186.102C333.502 187.314 333.617 189.218 333.732 190.661C333.732 191.007 333.79 191.296 333.79 191.642C333.905 192.623 334.193 193.604 334.539 194.643L334.712 195.22C335 196.259 335.288 197.702 334.424 198.799C333.559 199.837 332.061 199.837 331.024 199.722C327.912 199.376 325.377 197.933 323.187 195.278C321.113 192.739 318.808 190.142 316.388 187.602C311.547 182.581 308.782 176.579 308.148 169.768C308.033 168.556 308.378 167.402 308.666 166.306C308.782 165.902 308.897 165.498 309.012 165.036C309.07 164.747 309.185 164.459 309.243 164.17C309.3 163.939 309.415 163.593 309.415 163.478L309.127 162.093C308.724 159.957 308.321 157.937 307.514 156.09C307.341 155.744 306.995 154.821 305.439 154.359C305.612 154.705 305.785 155.051 305.958 155.398C306.65 157.129 307.341 158.803 307.514 160.592C307.629 161.689 307.341 162.612 306.707 163.362C306.246 163.882 305.324 164.459 303.884 164.401C303.941 164.401 303.768 164.517 303.365 164.863C303.365 164.863 303.307 164.978 303.307 165.036C303.135 165.382 302.846 165.902 302.27 166.248C300.887 166.998 300.945 167.691 301.694 170.057C302.27 171.904 302.846 173.578 303.365 175.309L303.768 176.694C304.287 178.368 304.114 179.868 303.192 180.792C302.674 181.311 301.579 182.119 299.504 181.542C299.216 181.484 299.101 181.484 299.043 181.484C299.043 181.484 298.986 181.6 298.813 181.888C296.738 185.524 293.857 187.602 289.939 188.295C289.132 188.41 287.98 189.391 287.058 190.661C284.81 193.835 282.39 197.76 281.814 202.781C281.468 205.551 280.662 208.264 279.913 210.861C279.509 212.131 279.163 213.4 278.818 214.67C278.587 215.651 278.587 215.997 278.645 216.113C278.702 216.171 278.818 216.286 278.991 216.401C279.74 215.997 280.431 215.824 281.065 215.997C281.987 216.171 282.563 216.748 283.082 217.383C283.139 217.209 283.197 216.979 283.255 216.805C284.119 213.112 285.79 211.669 289.42 211.727C293.396 211.784 296.22 214.151 296.335 217.44C296.393 220.557 297.891 223.096 299.447 225.751C299.965 226.675 300.542 227.54 301.002 228.464L301.118 228.695C301.521 229.387 301.924 230.253 301.982 231.176C303.019 241.911 302.328 251.492 299.85 260.379C299.274 262.399 298.121 264.189 296.969 265.92L296.623 266.382C295.932 267.421 294.433 268.459 293.166 268.402C291.898 268.344 291.552 268.806 290.688 270.537C289.593 271.518 288.383 274 285.675 274ZM158.731 150.607C158.386 151.3 158.213 152.108 158.155 153.031C158.559 152.685 158.616 152.166 158.731 150.896C158.731 150.781 158.731 150.665 158.731 150.607ZM96.6716 132.197C96.7292 132.197 96.7868 132.197 96.8445 132.254C98.1698 132.543 98.9765 133.755 99.7256 134.852C99.9561 135.198 100.187 135.486 100.417 135.775C100.532 135.775 100.648 135.717 100.82 135.717C100.417 135.198 100.129 134.563 99.9561 133.813C99.6104 132.485 99.3799 131.1 99.1494 129.773L96.6716 132.197ZM111.596 120.769C111.596 120.769 111.596 120.827 111.596 120.769V120.769Z" fill="white"/>
        <path d="M151.869 179.336C151.869 180.862 151.507 182.047 150.783 182.891C150.065 183.734 149.065 184.156 147.783 184.156C146.507 184.156 145.505 183.74 144.776 182.906C144.046 182.068 143.677 180.896 143.666 179.391V177.445C143.666 175.883 144.028 174.664 144.752 173.789C145.476 172.909 146.481 172.469 147.768 172.469C149.033 172.469 150.031 172.901 150.76 173.766C151.489 174.625 151.859 175.833 151.869 177.391V179.336ZM149.565 177.43C149.565 176.404 149.419 175.641 149.127 175.141C148.836 174.641 148.382 174.391 147.768 174.391C147.158 174.391 146.708 174.633 146.416 175.117C146.125 175.596 145.974 176.328 145.963 177.312V179.336C145.963 180.331 146.112 181.065 146.408 181.539C146.705 182.008 147.164 182.242 147.783 182.242C148.382 182.242 148.828 182.013 149.119 181.555C149.411 181.091 149.559 180.375 149.565 179.406V177.43ZM160.853 174.539H158.041V184H155.736V174.539H152.97V172.625H160.853V174.539ZM170.798 184H168.501V174.539H165.126V184H162.829V172.625H170.798V184ZM175.594 180V184H173.297V172.625H177.172C178.297 172.625 179.193 172.974 179.86 173.672C180.532 174.37 180.868 175.276 180.868 176.391C180.868 177.505 180.537 178.385 179.875 179.031C179.214 179.677 178.297 180 177.125 180H175.594ZM175.594 178.086H177.172C177.61 178.086 177.948 177.943 178.188 177.656C178.427 177.37 178.547 176.953 178.547 176.406C178.547 175.839 178.425 175.388 178.18 175.055C177.935 174.716 177.607 174.544 177.196 174.539H175.594V178.086ZM187.086 181.672H183.953L183.343 184H180.914L184.468 172.625H186.57L190.148 184H187.695L187.086 181.672ZM184.453 179.758H186.578L185.515 175.703L184.453 179.758ZM191.858 184V172.625H195.374C196.562 172.625 197.463 172.891 198.077 173.422C198.697 173.948 199.007 174.721 199.007 175.742C199.007 176.32 198.879 176.818 198.624 177.234C198.369 177.651 198.02 177.956 197.577 178.148C198.088 178.294 198.481 178.589 198.757 179.031C199.033 179.469 199.171 180.01 199.171 180.656C199.171 181.76 198.866 182.594 198.257 183.156C197.653 183.719 196.775 184 195.624 184H191.858ZM194.155 179.055V182.094H195.624C196.036 182.094 196.348 181.966 196.562 181.711C196.775 181.456 196.882 181.094 196.882 180.625C196.882 179.604 196.512 179.081 195.772 179.055H194.155ZM194.155 177.383H195.351C196.252 177.383 196.702 176.917 196.702 175.984C196.702 175.469 196.598 175.099 196.39 174.875C196.181 174.651 195.843 174.539 195.374 174.539H194.155V177.383ZM207.053 172.625H209.35V184H207.053V176.469L203.702 184H201.397V172.625H203.702V180.164L207.053 172.625ZM214.826 172.625L216.974 180.852L219.115 172.625H222.115V184H219.81V180.922L220.021 176.18L217.748 184H216.185L213.912 176.18L214.123 180.922V184H211.826V172.625H214.826ZM128.254 200H125.957V190.539H122.582V200H120.285V188.625H128.254V200ZM138.761 195.336C138.761 196.862 138.399 198.047 137.675 198.891C136.957 199.734 135.957 200.156 134.675 200.156C133.399 200.156 132.397 199.74 131.668 198.906C130.938 198.068 130.569 196.896 130.558 195.391V193.445C130.558 191.883 130.92 190.664 131.644 189.789C132.368 188.909 133.373 188.469 134.66 188.469C135.925 188.469 136.923 188.901 137.652 189.766C138.381 190.625 138.751 191.833 138.761 193.391V195.336ZM136.457 193.43C136.457 192.404 136.311 191.641 136.019 191.141C135.727 190.641 135.274 190.391 134.66 190.391C134.05 190.391 133.6 190.633 133.308 191.117C133.016 191.596 132.865 192.328 132.855 193.312V195.336C132.855 196.331 133.003 197.065 133.3 197.539C133.597 198.008 134.056 198.242 134.675 198.242C135.274 198.242 135.72 198.013 136.011 197.555C136.303 197.091 136.451 196.375 136.457 195.406V193.43ZM145.377 200V188.625H148.893C150.08 188.625 150.981 188.891 151.596 189.422C152.216 189.948 152.526 190.721 152.526 191.742C152.526 192.32 152.398 192.818 152.143 193.234C151.888 193.651 151.539 193.956 151.096 194.148C151.606 194.294 152 194.589 152.276 195.031C152.552 195.469 152.69 196.01 152.69 196.656C152.69 197.76 152.385 198.594 151.776 199.156C151.171 199.719 150.294 200 149.143 200H145.377ZM147.674 195.055V198.094H149.143C149.554 198.094 149.867 197.966 150.08 197.711C150.294 197.456 150.401 197.094 150.401 196.625C150.401 195.604 150.031 195.081 149.291 195.055H147.674ZM147.674 193.383H148.869C149.77 193.383 150.221 192.917 150.221 191.984C150.221 191.469 150.117 191.099 149.908 190.875C149.7 190.651 149.362 190.539 148.893 190.539H147.674V193.383ZM162.713 196.211C162.655 197.508 162.291 198.49 161.619 199.156C160.947 199.823 159.999 200.156 158.775 200.156C157.489 200.156 156.502 199.734 155.814 198.891C155.132 198.042 154.791 196.833 154.791 195.266V193.352C154.791 191.789 155.145 190.586 155.853 189.742C156.561 188.893 157.546 188.469 158.806 188.469C160.046 188.469 160.986 188.815 161.627 189.508C162.272 190.201 162.64 191.195 162.728 192.492H160.423C160.403 191.69 160.278 191.138 160.048 190.836C159.824 190.529 159.41 190.375 158.806 190.375C158.192 190.375 157.757 190.591 157.502 191.023C157.246 191.451 157.111 192.156 157.095 193.141V195.289C157.095 196.419 157.22 197.195 157.47 197.617C157.726 198.039 158.16 198.25 158.775 198.25C159.379 198.25 159.796 198.104 160.025 197.812C160.254 197.516 160.384 196.982 160.416 196.211H162.713ZM170.642 195.078H167.063V198.094H171.298V200H164.767V188.625H171.282V190.539H167.063V193.227H170.642V195.078ZM178.836 188.625H181.133V200H178.836V192.469L175.485 200H173.18V188.625H175.485V196.164L178.836 188.625ZM179.883 185.625C179.883 186.318 179.633 186.878 179.133 187.305C178.638 187.732 177.985 187.945 177.172 187.945C176.354 187.945 175.696 187.732 175.196 187.305C174.701 186.878 174.453 186.318 174.453 185.625H176.071C176.071 185.948 176.167 186.201 176.36 186.383C176.558 186.56 176.828 186.648 177.172 186.648C177.511 186.648 177.776 186.56 177.969 186.383C178.162 186.201 178.258 185.948 178.258 185.625H179.883ZM190.233 196V200H187.937V188.625H191.812C192.937 188.625 193.832 188.974 194.499 189.672C195.171 190.37 195.507 191.276 195.507 192.391C195.507 193.505 195.176 194.385 194.515 195.031C193.853 195.677 192.937 196 191.765 196H190.233ZM190.233 194.086H191.812C192.249 194.086 192.588 193.943 192.827 193.656C193.067 193.37 193.187 192.953 193.187 192.406C193.187 191.839 193.064 191.388 192.819 191.055C192.575 190.716 192.246 190.544 191.835 190.539H190.233V194.086ZM205.694 195.336C205.694 196.862 205.332 198.047 204.608 198.891C203.889 199.734 202.889 200.156 201.608 200.156C200.332 200.156 199.329 199.74 198.6 198.906C197.871 198.068 197.501 196.896 197.491 195.391V193.445C197.491 191.883 197.853 190.664 198.577 189.789C199.301 188.909 200.306 188.469 201.592 188.469C202.858 188.469 203.855 188.901 204.584 189.766C205.314 190.625 205.683 191.833 205.694 193.391V195.336ZM203.389 193.43C203.389 192.404 203.243 191.641 202.952 191.141C202.66 190.641 202.207 190.391 201.592 190.391C200.983 190.391 200.532 190.633 200.241 191.117C199.949 191.596 199.798 192.328 199.788 193.312V195.336C199.788 196.331 199.936 197.065 200.233 197.539C200.53 198.008 200.988 198.242 201.608 198.242C202.207 198.242 202.652 198.013 202.944 197.555C203.235 197.091 203.384 196.375 203.389 195.406V193.43ZM215.693 196.211C215.636 197.508 215.271 198.49 214.599 199.156C213.928 199.823 212.98 200.156 211.756 200.156C210.469 200.156 209.482 199.734 208.795 198.891C208.112 198.042 207.771 196.833 207.771 195.266V193.352C207.771 191.789 208.125 190.586 208.834 189.742C209.542 188.893 210.526 188.469 211.787 188.469C213.026 188.469 213.967 188.815 214.607 189.508C215.253 190.201 215.62 191.195 215.709 192.492H213.404C213.383 191.69 213.258 191.138 213.029 190.836C212.805 190.529 212.391 190.375 211.787 190.375C211.172 190.375 210.737 190.591 210.482 191.023C210.227 191.451 210.092 192.156 210.076 193.141V195.289C210.076 196.419 210.201 197.195 210.451 197.617C210.706 198.039 211.141 198.25 211.756 198.25C212.36 198.25 212.776 198.104 213.006 197.812C213.235 197.516 213.365 196.982 213.396 196.211H215.693ZM225.458 196.211C225.401 197.508 225.036 198.49 224.364 199.156C223.693 199.823 222.745 200.156 221.521 200.156C220.234 200.156 219.247 199.734 218.56 198.891C217.877 198.042 217.536 196.833 217.536 195.266V193.352C217.536 191.789 217.89 190.586 218.599 189.742C219.307 188.893 220.291 188.469 221.552 188.469C222.791 188.469 223.732 188.815 224.372 189.508C225.018 190.201 225.385 191.195 225.474 192.492H223.169C223.148 191.69 223.023 191.138 222.794 190.836C222.57 190.529 222.156 190.375 221.552 190.375C220.937 190.375 220.502 190.591 220.247 191.023C219.992 191.451 219.857 192.156 219.841 193.141V195.289C219.841 196.419 219.966 197.195 220.216 197.617C220.471 198.039 220.906 198.25 221.521 198.25C222.125 198.25 222.541 198.104 222.771 197.812C223 197.516 223.13 196.982 223.161 196.211H225.458ZM233.083 188.625H235.379V200H233.083V192.469L229.731 200H227.426V188.625H229.731V196.164L233.083 188.625ZM243.426 188.625H245.723V200H243.426V192.469L240.074 200H237.769V188.625H240.074V196.164L243.426 188.625Z" fill="black"/>
    </g>
    <defs>
        <clipPath id="clip0">
            <rect x="-776" y="-6740" width="1920" height="10088" fill="white"/>
        </clipPath>
    </defs>
</svg>
