<svg width="24" height="24" viewBox="0 0 24 24" fill="none" xmlns="http://www.w3.org/2000/svg">
    <path d="M7.0173 16.3507C6.6173 13.8507 6.47427 12.627 6.9173 10.7507C7.49068 8.3224 8.8173 7.2507 10.5173 6.5507C11.9173 6.0507 15.4173 7.3507 15.8173 8.5507C16.5173 10.5507 15.5173 13.2507 15.0173 15.5507C14.9173 15.9507 14.917 16.2507 12.4173 16.3507C9.91761 16.4507 10.6173 12.2507 10.6173 12.2507C10.6173 12.2507 10.9173 10.3507 10.6173 8.8507C9.9173 10.3507 8.9173 11.7507 8.5173 13.3507C7.8173 16.0507 7.4173 18.8507 6.9173 21.6507C1.4173 19.5507 -1.0827 14.1507 0.617297 8.4507C2.4173 2.6507 8.7173 -0.849301 14.4173 0.750699C20.6173 2.4507 24.3173 8.3507 23.0173 14.5507C21.7173 20.6507 16.3173 23.9507 9.1173 22.9507C9.5173 21.5507 9.8173 20.1507 10.2173 18.8507C19.2173 18.8507 21.7173 14.3507 17.9173 6.8507C16.1173 3.1507 9.7173 3.2507 6.4173 6.1507C3.3173 8.8507 3.2173 12.1507 7.0173 16.3507Z" fill="black"/>
</svg>
